<svg width="896" height="422" viewBox="0 0 896 422" fill="none" xmlns="http://www.w3.org/2000/svg">
<path d="M807.923 44.0779L812.654 31L817.846 44.0779L831 49.2597L817.846 56.7857L812.654 69L807.923 56.7857L795 49.2597L807.923 44.0779Z" fill="url(#paint0_linear_655_4)"/>
<path d="M61.9231 397.078L66.6538 384L71.8462 397.078L85 402.26L71.8462 409.786L66.6538 422L61.9231 409.786L49 402.26L61.9231 397.078Z" fill="url(#paint1_linear_655_4)"/>
<path d="M827.692 62.9805L831.24 53L835.135 62.9805L845 66.9351L835.135 72.6786L831.24 82L827.692 72.6786L818 66.9351L827.692 62.9805Z" fill="white"/>
<path d="M0.595673 172.785C0.595673 167.263 5.07282 162.785 10.5957 162.785H253.819C257.068 162.785 260.1 161.233 262.097 158.671C276.889 139.689 343.549 61.5003 438 61.5003C531.052 61.5003 585.517 137.389 598.476 157.788C600.427 160.86 603.759 162.785 607.398 162.785H885.71C891.233 162.785 895.71 167.263 895.71 172.785V343.105C895.71 348.627 891.232 353.105 885.71 353.105H10.5957C5.07282 353.105 0.595673 348.627 0.595673 343.105V172.785Z" fill="#48090A"/>
<path d="M297.5 345.917L40.0016 166C239 166 125.5 166 219.002 166L336.284 345.917L297.5 345.917Z" fill="#A52424" fill-opacity="0.2"/>
<path d="M573.369 350.797L830.868 170.88C631.869 170.88 745.369 170.88 651.868 170.88L534.585 350.797L573.369 350.797Z" fill="#A52424" fill-opacity="0.2"/>
<path d="M424.827 350.177L349.51 88.8803C448.509 51.3803 448.509 55.3803 528.51 88.8804L463.611 350.177L424.827 350.177Z" fill="#A52424" fill-opacity="0.2"/>
<path d="M438 67.5002C527.676 67.5002 580.578 140.804 593.412 161.006C596.406 165.718 601.599 168.785 607.397 168.785H885.71C887.919 168.786 889.71 170.576 889.71 172.785V343.105C889.71 345.314 887.919 347.105 885.71 347.105H10.5957C8.38663 347.105 6.59582 345.314 6.5957 343.105V172.785C6.5957 170.576 8.38656 168.785 10.5957 168.785H253.818C259.006 168.785 263.752 166.309 266.83 162.359C274.029 153.12 293.995 129.298 323.691 107.829C353.398 86.3533 392.462 67.5002 438 67.5002Z" stroke="#FCA129" stroke-width="12"/>
<g filter="url(#filter0_d_655_4)">
<mask id="path-9-outside-1_655_4" maskUnits="userSpaceOnUse" x="67" y="218" width="758" height="64" fill="black">
<rect fill="white" x="67" y="218" width="758" height="64"/>
<path d="M103.109 233.313H96.4844C95.901 228.854 93.7969 226.625 90.1719 226.625C87.8385 226.625 86.0781 227.188 84.8906 228.313C83.7031 229.438 83.1094 231.115 83.1094 233.344C83.1094 235.011 83.7656 236.573 85.0781 238.031L99.2031 253.906C101.807 256.823 103.109 259.959 103.109 263.313V266.688C103.109 270.292 101.807 273.417 99.2031 276.063C96.599 278.688 93.4635 280 89.7969 280H83.1094C78.6927 280 75.3698 278.886 73.1406 276.656C70.9115 274.427 69.7969 271.104 69.7969 266.688H76.4844C76.4427 267.146 76.4219 267.511 76.4219 267.781C76.4219 269.594 77.1198 270.969 78.5156 271.906C79.9115 272.844 81.4427 273.313 83.1094 273.313C85.4844 273.313 87.1927 272.74 88.2344 271.594C89.276 270.448 89.7969 268.781 89.7969 266.594C89.7969 264.906 89.1406 263.344 87.8281 261.906L73.7031 246.094C71.099 243.198 69.7969 240.063 69.7969 236.688V233.313C69.7969 229.688 71.099 226.563 73.7031 223.938C76.3073 221.313 79.4427 220 83.1094 220H89.7969C98.1302 220 102.568 224.438 103.109 233.313ZM116.516 280V220H143.203C146.849 220 149.974 221.313 152.578 223.938C155.203 226.563 156.516 229.688 156.516 233.313V240C156.516 243.646 155.203 246.781 152.578 249.406C149.974 252.011 146.849 253.313 143.203 253.313H129.828V280H116.516ZM129.828 246.688H136.516C138.328 246.688 139.891 246.031 141.203 244.719C142.536 243.386 143.203 241.813 143.203 240V233.313C143.203 231.5 142.536 229.948 141.203 228.656C139.891 227.344 138.328 226.688 136.516 226.688H129.828V246.688ZM169.797 280V233.313C169.797 229.667 171.099 226.542 173.703 223.938C176.328 221.313 179.464 220 183.109 220H196.484C200.13 220 203.255 221.313 205.859 223.938C208.484 226.563 209.797 229.688 209.797 233.313V280H196.484V253.313H183.109V280H169.797ZM183.109 246.688H196.484V233.313C196.484 231.5 195.818 229.948 194.484 228.656C193.172 227.344 191.609 226.688 189.797 226.688C187.964 226.688 186.391 227.344 185.078 228.656C183.766 229.948 183.109 231.5 183.109 233.313V246.688ZM223.078 280V220H249.766C253.411 220 256.536 221.313 259.141 223.938C261.766 226.563 263.078 229.688 263.078 233.313V236.938C263.078 239.917 262.057 242.792 260.016 245.563C257.974 248.313 254.557 249.688 249.766 249.688H256.391C258.224 249.688 259.797 250.344 261.109 251.656C262.422 252.969 263.078 254.542 263.078 256.375V280H249.766V260C249.766 258.167 249.099 256.594 247.766 255.281C246.453 253.969 244.891 253.313 243.078 253.313H236.391V280H223.078ZM236.391 246.688H243.078C244.891 246.688 246.453 246.031 247.766 244.719C249.099 243.386 249.766 241.813 249.766 240V233.313C249.766 231.5 249.099 229.948 247.766 228.656C246.453 227.344 244.891 226.688 243.078 226.688H236.391V246.688ZM276.359 280V220H289.672V244.5L311.234 220H323.047L296.359 250L323.047 280H309.672L289.672 256.688V280H276.359ZM336.359 280V220H349.672V246.688H363.047V220H376.359V280H363.047V253.313H349.672V280H336.359ZM389.641 280V233.313C389.641 229.667 390.943 226.542 393.547 223.938C396.172 221.313 399.307 220 402.953 220H416.328C419.974 220 423.099 221.313 425.703 223.938C428.328 226.563 429.641 229.688 429.641 233.313V280H416.328V253.313H402.953V280H389.641ZM402.953 246.688H416.328V233.313C416.328 231.5 415.661 229.948 414.328 228.656C413.016 227.344 411.453 226.688 409.641 226.688C407.807 226.688 406.234 227.344 404.922 228.656C403.609 229.948 402.953 231.5 402.953 233.313V246.688ZM482.922 266.688C482.339 275.563 477.901 280 469.609 280H456.234C452.589 280 449.453 278.698 446.828 276.094C444.224 273.469 442.922 270.334 442.922 266.688V233.313C442.922 229.729 444.203 226.615 446.766 223.969C449.349 221.323 452.505 220 456.234 220H469.609C477.984 220 482.422 224.438 482.922 233.313H476.234C475.714 228.896 473.505 226.688 469.609 226.688H462.922C461.089 226.688 459.516 227.344 458.203 228.656C456.891 229.948 456.234 231.5 456.234 233.313V266.688C456.234 268.479 456.88 270.031 458.172 271.344C459.484 272.656 461.068 273.313 462.922 273.313H469.609C473.526 273.313 475.734 271.104 476.234 266.688H482.922ZM496.203 280V220H509.516V244.5L531.078 220H542.891L516.203 250L542.891 280H529.516L509.516 256.688V280H496.203ZM589.516 233.313H582.891C582.307 228.854 580.203 226.625 576.578 226.625C574.245 226.625 572.484 227.188 571.297 228.313C570.109 229.438 569.516 231.115 569.516 233.344C569.516 235.011 570.172 236.573 571.484 238.031L585.609 253.906C588.214 256.823 589.516 259.959 589.516 263.313V266.688C589.516 270.292 588.214 273.417 585.609 276.063C583.005 278.688 579.87 280 576.203 280H569.516C565.099 280 561.776 278.886 559.547 276.656C557.318 274.427 556.203 271.104 556.203 266.688H562.891C562.849 267.146 562.828 267.511 562.828 267.781C562.828 269.594 563.526 270.969 564.922 271.906C566.318 272.844 567.849 273.313 569.516 273.313C571.891 273.313 573.599 272.74 574.641 271.594C575.682 270.448 576.203 268.781 576.203 266.594C576.203 264.906 575.547 263.344 574.234 261.906L560.109 246.094C557.505 243.198 556.203 240.063 556.203 236.688V233.313C556.203 229.688 557.505 226.563 560.109 223.938C562.714 221.313 565.849 220 569.516 220H576.203C584.536 220 588.974 224.438 589.516 233.313ZM629.141 233.313H622.453C623.495 224.438 627.932 220 635.766 220H649.141C652.786 220 655.911 221.313 658.516 223.938C661.141 226.563 662.453 229.688 662.453 233.313V236.688C662.453 241.292 658.151 247.261 649.547 254.594L648.672 255.375C640.068 262.729 635.766 268.511 635.766 272.719V273.313H662.453V280H622.453V273.313C622.453 268.709 626.745 262.729 635.328 255.375L636.234 254.594C644.839 247.261 649.141 241.292 649.141 236.688V233.313C649.141 231.5 648.474 229.948 647.141 228.656C645.807 227.344 644.245 226.688 642.453 226.688H635.766C631.661 226.688 629.453 228.896 629.141 233.313ZM689.047 220H702.422C706.068 220 709.193 221.313 711.797 223.938C714.422 226.563 715.734 229.688 715.734 233.313V266.688C715.734 270.292 714.422 273.417 711.797 276.063C709.193 278.688 706.068 280 702.422 280H689.047C685.401 280 682.266 278.698 679.641 276.094C677.036 273.469 675.734 270.334 675.734 266.688V233.313C675.734 229.667 677.036 226.542 679.641 223.938C682.266 221.313 685.401 220 689.047 220ZM689.203 267.719C689.536 269.573 690.245 270.969 691.328 271.906C692.432 272.844 693.901 273.313 695.734 273.313C697.589 273.313 699.161 272.656 700.453 271.344C701.766 270.031 702.422 268.479 702.422 266.688V244.031L689.203 267.719ZM702.297 232.188C701.38 228.521 699.193 226.688 695.734 226.688C693.901 226.688 692.328 227.344 691.016 228.656C689.703 229.948 689.047 231.5 689.047 233.313V256L702.297 232.188ZM735.703 233.313H729.016C730.057 224.438 734.495 220 742.328 220H755.703C759.349 220 762.474 221.313 765.078 223.938C767.703 226.563 769.016 229.688 769.016 233.313V236.688C769.016 241.292 764.714 247.261 756.109 254.594L755.234 255.375C746.63 262.729 742.328 268.511 742.328 272.719V273.313H769.016V280H729.016V273.313C729.016 268.709 733.307 262.729 741.891 255.375L742.797 254.594C751.401 247.261 755.703 241.292 755.703 236.688V233.313C755.703 231.5 755.036 229.948 753.703 228.656C752.37 227.344 750.807 226.688 749.016 226.688H742.328C738.224 226.688 736.016 228.896 735.703 233.313ZM808.984 266.688V253.313C808.984 251.5 808.318 249.948 806.984 248.656C805.672 247.344 804.109 246.688 802.297 246.688C800.464 246.688 798.891 247.344 797.578 248.656C796.266 249.948 795.609 251.5 795.609 253.313V266.688C795.609 268.479 796.255 270.031 797.547 271.344C798.859 272.656 800.443 273.313 802.297 273.313C804.151 273.313 805.724 272.656 807.016 271.344C808.328 270.031 808.984 268.479 808.984 266.688ZM795.609 246.688C795.88 244.438 796.568 242.761 797.672 241.656C798.797 240.552 800.339 240 802.297 240H808.984C812.63 240 815.755 241.313 818.359 243.938C820.984 246.542 822.297 249.667 822.297 253.313V266.688C822.297 270.292 820.984 273.417 818.359 276.063C815.755 278.688 812.63 280 808.984 280H795.609C791.964 280 788.828 278.688 786.203 276.063C783.599 273.417 782.297 270.292 782.297 266.688V243.313C782.297 236.938 784.589 231.459 789.172 226.875C793.776 222.292 799.255 220 805.609 220H815.609V226.688H808.984C805.297 226.688 802.141 228 799.516 230.625C796.911 233.25 795.609 236.375 795.609 240V246.688Z"/>
</mask>
<path d="M103.109 233.313H96.4844C95.901 228.854 93.7969 226.625 90.1719 226.625C87.8385 226.625 86.0781 227.188 84.8906 228.313C83.7031 229.438 83.1094 231.115 83.1094 233.344C83.1094 235.011 83.7656 236.573 85.0781 238.031L99.2031 253.906C101.807 256.823 103.109 259.959 103.109 263.313V266.688C103.109 270.292 101.807 273.417 99.2031 276.063C96.599 278.688 93.4635 280 89.7969 280H83.1094C78.6927 280 75.3698 278.886 73.1406 276.656C70.9115 274.427 69.7969 271.104 69.7969 266.688H76.4844C76.4427 267.146 76.4219 267.511 76.4219 267.781C76.4219 269.594 77.1198 270.969 78.5156 271.906C79.9115 272.844 81.4427 273.313 83.1094 273.313C85.4844 273.313 87.1927 272.74 88.2344 271.594C89.276 270.448 89.7969 268.781 89.7969 266.594C89.7969 264.906 89.1406 263.344 87.8281 261.906L73.7031 246.094C71.099 243.198 69.7969 240.063 69.7969 236.688V233.313C69.7969 229.688 71.099 226.563 73.7031 223.938C76.3073 221.313 79.4427 220 83.1094 220H89.7969C98.1302 220 102.568 224.438 103.109 233.313ZM116.516 280V220H143.203C146.849 220 149.974 221.313 152.578 223.938C155.203 226.563 156.516 229.688 156.516 233.313V240C156.516 243.646 155.203 246.781 152.578 249.406C149.974 252.011 146.849 253.313 143.203 253.313H129.828V280H116.516ZM129.828 246.688H136.516C138.328 246.688 139.891 246.031 141.203 244.719C142.536 243.386 143.203 241.813 143.203 240V233.313C143.203 231.5 142.536 229.948 141.203 228.656C139.891 227.344 138.328 226.688 136.516 226.688H129.828V246.688ZM169.797 280V233.313C169.797 229.667 171.099 226.542 173.703 223.938C176.328 221.313 179.464 220 183.109 220H196.484C200.13 220 203.255 221.313 205.859 223.938C208.484 226.563 209.797 229.688 209.797 233.313V280H196.484V253.313H183.109V280H169.797ZM183.109 246.688H196.484V233.313C196.484 231.5 195.818 229.948 194.484 228.656C193.172 227.344 191.609 226.688 189.797 226.688C187.964 226.688 186.391 227.344 185.078 228.656C183.766 229.948 183.109 231.5 183.109 233.313V246.688ZM223.078 280V220H249.766C253.411 220 256.536 221.313 259.141 223.938C261.766 226.563 263.078 229.688 263.078 233.313V236.938C263.078 239.917 262.057 242.792 260.016 245.563C257.974 248.313 254.557 249.688 249.766 249.688H256.391C258.224 249.688 259.797 250.344 261.109 251.656C262.422 252.969 263.078 254.542 263.078 256.375V280H249.766V260C249.766 258.167 249.099 256.594 247.766 255.281C246.453 253.969 244.891 253.313 243.078 253.313H236.391V280H223.078ZM236.391 246.688H243.078C244.891 246.688 246.453 246.031 247.766 244.719C249.099 243.386 249.766 241.813 249.766 240V233.313C249.766 231.5 249.099 229.948 247.766 228.656C246.453 227.344 244.891 226.688 243.078 226.688H236.391V246.688ZM276.359 280V220H289.672V244.5L311.234 220H323.047L296.359 250L323.047 280H309.672L289.672 256.688V280H276.359ZM336.359 280V220H349.672V246.688H363.047V220H376.359V280H363.047V253.313H349.672V280H336.359ZM389.641 280V233.313C389.641 229.667 390.943 226.542 393.547 223.938C396.172 221.313 399.307 220 402.953 220H416.328C419.974 220 423.099 221.313 425.703 223.938C428.328 226.563 429.641 229.688 429.641 233.313V280H416.328V253.313H402.953V280H389.641ZM402.953 246.688H416.328V233.313C416.328 231.5 415.661 229.948 414.328 228.656C413.016 227.344 411.453 226.688 409.641 226.688C407.807 226.688 406.234 227.344 404.922 228.656C403.609 229.948 402.953 231.5 402.953 233.313V246.688ZM482.922 266.688C482.339 275.563 477.901 280 469.609 280H456.234C452.589 280 449.453 278.698 446.828 276.094C444.224 273.469 442.922 270.334 442.922 266.688V233.313C442.922 229.729 444.203 226.615 446.766 223.969C449.349 221.323 452.505 220 456.234 220H469.609C477.984 220 482.422 224.438 482.922 233.313H476.234C475.714 228.896 473.505 226.688 469.609 226.688H462.922C461.089 226.688 459.516 227.344 458.203 228.656C456.891 229.948 456.234 231.5 456.234 233.313V266.688C456.234 268.479 456.88 270.031 458.172 271.344C459.484 272.656 461.068 273.313 462.922 273.313H469.609C473.526 273.313 475.734 271.104 476.234 266.688H482.922ZM496.203 280V220H509.516V244.5L531.078 220H542.891L516.203 250L542.891 280H529.516L509.516 256.688V280H496.203ZM589.516 233.313H582.891C582.307 228.854 580.203 226.625 576.578 226.625C574.245 226.625 572.484 227.188 571.297 228.313C570.109 229.438 569.516 231.115 569.516 233.344C569.516 235.011 570.172 236.573 571.484 238.031L585.609 253.906C588.214 256.823 589.516 259.959 589.516 263.313V266.688C589.516 270.292 588.214 273.417 585.609 276.063C583.005 278.688 579.87 280 576.203 280H569.516C565.099 280 561.776 278.886 559.547 276.656C557.318 274.427 556.203 271.104 556.203 266.688H562.891C562.849 267.146 562.828 267.511 562.828 267.781C562.828 269.594 563.526 270.969 564.922 271.906C566.318 272.844 567.849 273.313 569.516 273.313C571.891 273.313 573.599 272.74 574.641 271.594C575.682 270.448 576.203 268.781 576.203 266.594C576.203 264.906 575.547 263.344 574.234 261.906L560.109 246.094C557.505 243.198 556.203 240.063 556.203 236.688V233.313C556.203 229.688 557.505 226.563 560.109 223.938C562.714 221.313 565.849 220 569.516 220H576.203C584.536 220 588.974 224.438 589.516 233.313ZM629.141 233.313H622.453C623.495 224.438 627.932 220 635.766 220H649.141C652.786 220 655.911 221.313 658.516 223.938C661.141 226.563 662.453 229.688 662.453 233.313V236.688C662.453 241.292 658.151 247.261 649.547 254.594L648.672 255.375C640.068 262.729 635.766 268.511 635.766 272.719V273.313H662.453V280H622.453V273.313C622.453 268.709 626.745 262.729 635.328 255.375L636.234 254.594C644.839 247.261 649.141 241.292 649.141 236.688V233.313C649.141 231.5 648.474 229.948 647.141 228.656C645.807 227.344 644.245 226.688 642.453 226.688H635.766C631.661 226.688 629.453 228.896 629.141 233.313ZM689.047 220H702.422C706.068 220 709.193 221.313 711.797 223.938C714.422 226.563 715.734 229.688 715.734 233.313V266.688C715.734 270.292 714.422 273.417 711.797 276.063C709.193 278.688 706.068 280 702.422 280H689.047C685.401 280 682.266 278.698 679.641 276.094C677.036 273.469 675.734 270.334 675.734 266.688V233.313C675.734 229.667 677.036 226.542 679.641 223.938C682.266 221.313 685.401 220 689.047 220ZM689.203 267.719C689.536 269.573 690.245 270.969 691.328 271.906C692.432 272.844 693.901 273.313 695.734 273.313C697.589 273.313 699.161 272.656 700.453 271.344C701.766 270.031 702.422 268.479 702.422 266.688V244.031L689.203 267.719ZM702.297 232.188C701.38 228.521 699.193 226.688 695.734 226.688C693.901 226.688 692.328 227.344 691.016 228.656C689.703 229.948 689.047 231.5 689.047 233.313V256L702.297 232.188ZM735.703 233.313H729.016C730.057 224.438 734.495 220 742.328 220H755.703C759.349 220 762.474 221.313 765.078 223.938C767.703 226.563 769.016 229.688 769.016 233.313V236.688C769.016 241.292 764.714 247.261 756.109 254.594L755.234 255.375C746.63 262.729 742.328 268.511 742.328 272.719V273.313H769.016V280H729.016V273.313C729.016 268.709 733.307 262.729 741.891 255.375L742.797 254.594C751.401 247.261 755.703 241.292 755.703 236.688V233.313C755.703 231.5 755.036 229.948 753.703 228.656C752.37 227.344 750.807 226.688 749.016 226.688H742.328C738.224 226.688 736.016 228.896 735.703 233.313ZM808.984 266.688V253.313C808.984 251.5 808.318 249.948 806.984 248.656C805.672 247.344 804.109 246.688 802.297 246.688C800.464 246.688 798.891 247.344 797.578 248.656C796.266 249.948 795.609 251.5 795.609 253.313V266.688C795.609 268.479 796.255 270.031 797.547 271.344C798.859 272.656 800.443 273.313 802.297 273.313C804.151 273.313 805.724 272.656 807.016 271.344C808.328 270.031 808.984 268.479 808.984 266.688ZM795.609 246.688C795.88 244.438 796.568 242.761 797.672 241.656C798.797 240.552 800.339 240 802.297 240H808.984C812.63 240 815.755 241.313 818.359 243.938C820.984 246.542 822.297 249.667 822.297 253.313V266.688C822.297 270.292 820.984 273.417 818.359 276.063C815.755 278.688 812.63 280 808.984 280H795.609C791.964 280 788.828 278.688 786.203 276.063C783.599 273.417 782.297 270.292 782.297 266.688V243.313C782.297 236.938 784.589 231.459 789.172 226.875C793.776 222.292 799.255 220 805.609 220H815.609V226.688H808.984C805.297 226.688 802.141 228 799.516 230.625C796.911 233.25 795.609 236.375 795.609 240V246.688Z" fill="url(#paint2_linear_655_4)"/>
<path d="M103.109 233.313V235.313H105.235L105.106 233.191L103.109 233.313ZM96.4844 233.313L94.5013 233.572L94.729 235.313H96.4844V233.313ZM84.8906 228.313L83.5151 226.861L84.8906 228.313ZM85.0781 238.031L86.5723 236.702L86.5647 236.694L85.0781 238.031ZM99.2031 253.906L97.709 255.236L97.7113 255.239L99.2031 253.906ZM99.2031 276.063L100.623 277.471L100.629 277.466L99.2031 276.063ZM73.1406 276.656L74.5548 275.242L73.1406 276.656ZM69.7969 266.688V264.688H67.7969V266.688H69.7969ZM76.4844 266.688L78.4762 266.869L78.6744 264.688H76.4844V266.688ZM78.5156 271.906L77.4005 273.567L78.5156 271.906ZM88.2344 271.594L89.7143 272.939L88.2344 271.594ZM87.8281 261.906L86.3366 263.239L86.3438 263.247L86.3512 263.255L87.8281 261.906ZM73.7031 246.094L75.1947 244.762L75.1902 244.757L73.7031 246.094ZM73.7031 223.938L72.2833 222.529H72.2833L73.7031 223.938ZM103.109 233.313V231.313H96.4844V233.313V235.313H103.109V233.313ZM96.4844 233.313L98.4675 233.053C98.1455 230.593 97.3709 228.458 95.9232 226.924C94.4244 225.336 92.4258 224.625 90.1719 224.625V226.625V228.625C91.543 228.625 92.409 229.029 93.0143 229.67C93.6708 230.365 94.2399 231.574 94.5013 233.572L96.4844 233.313ZM90.1719 226.625V224.625C87.5449 224.625 85.2069 225.258 83.5151 226.861L84.8906 228.313L86.2661 229.765C86.9493 229.117 88.1321 228.625 90.1719 228.625V226.625ZM84.8906 228.313L83.5151 226.861C81.8007 228.485 81.1094 230.772 81.1094 233.344H83.1094H85.1094C85.1094 231.458 85.6055 230.39 86.2661 229.765L84.8906 228.313ZM83.1094 233.344H81.1094C81.1094 235.59 82.0106 237.613 83.5915 239.369L85.0781 238.031L86.5647 236.694C85.5207 235.534 85.1094 234.431 85.1094 233.344H83.1094ZM85.0781 238.031L83.584 239.361L97.709 255.236L99.2031 253.906L100.697 252.577L86.5723 236.702L85.0781 238.031ZM99.2031 253.906L97.7113 255.239C100.046 257.853 101.109 260.53 101.109 263.313H103.109H105.109C105.109 259.387 103.569 255.793 100.695 252.574L99.2031 253.906ZM103.109 263.313H101.109V266.688H103.109H105.109V263.313H103.109ZM103.109 266.688H101.109C101.109 269.75 100.026 272.376 97.7777 274.66L99.2031 276.063L100.629 277.466C103.589 274.458 105.109 270.834 105.109 266.688H103.109ZM99.2031 276.063L97.7833 274.654C95.5511 276.904 92.9253 278 89.7969 278V280V282C94.0018 282 97.6468 280.471 100.623 277.471L99.2031 276.063ZM89.7969 280V278H83.1094V280V282H89.7969V280ZM83.1094 280V278C79.0073 278 76.2798 276.967 74.5548 275.242L73.1406 276.656L71.7264 278.071C74.4598 280.804 78.3781 282 83.1094 282V280ZM73.1406 276.656L74.5548 275.242C72.8299 273.517 71.7969 270.79 71.7969 266.688H69.7969H67.7969C67.7969 271.419 68.9931 275.337 71.7264 278.071L73.1406 276.656ZM69.7969 266.688V268.688H76.4844V266.688V264.688H69.7969V266.688ZM76.4844 266.688L74.4926 266.507C74.4487 266.99 74.4219 267.423 74.4219 267.781H76.4219H78.4219C78.4219 267.598 78.4368 267.302 78.4762 266.869L76.4844 266.688ZM76.4219 267.781H74.4219C74.4219 270.199 75.4024 272.225 77.4005 273.567L78.5156 271.906L79.6307 270.246C78.8372 269.713 78.4219 268.989 78.4219 267.781H76.4219ZM78.5156 271.906L77.4005 273.567C79.123 274.724 81.0418 275.313 83.1094 275.313V273.313V271.313C81.8436 271.313 80.7 270.964 79.6307 270.246L78.5156 271.906ZM83.1094 273.313V275.313C85.7489 275.313 88.1307 274.681 89.7143 272.939L88.2344 271.594L86.7545 270.249C86.2547 270.798 85.2199 271.313 83.1094 271.313V273.313ZM88.2344 271.594L89.7143 272.939C91.2066 271.298 91.7969 269.074 91.7969 266.594H89.7969H87.7969C87.7969 268.489 87.3454 269.599 86.7545 270.249L88.2344 271.594ZM89.7969 266.594H91.7969C91.7969 264.331 90.8989 262.304 89.3051 260.558L87.8281 261.906L86.3512 263.255C87.3824 264.384 87.7969 265.482 87.7969 266.594H89.7969ZM87.8281 261.906L89.3197 260.574L75.1947 244.762L73.7031 246.094L72.2116 247.426L86.3366 263.239L87.8281 261.906ZM73.7031 246.094L75.1902 244.757C72.8621 242.168 71.7969 239.493 71.7969 236.688H69.7969H67.7969C67.7969 240.632 69.3358 244.229 72.216 247.431L73.7031 246.094ZM69.7969 236.688H71.7969V233.313H69.7969H67.7969V236.688H69.7969ZM69.7969 233.313H71.7969C71.7969 230.227 72.8821 227.605 75.123 225.346L73.7031 223.938L72.2833 222.529C69.3158 225.52 67.7969 229.148 67.7969 233.313H69.7969ZM73.7031 223.938L75.123 225.346C77.3552 223.096 79.9809 222 83.1094 222V220V218C78.9045 218 75.2594 219.529 72.2833 222.529L73.7031 223.938ZM83.1094 220V222H89.7969V220V218H83.1094V220ZM89.7969 220V222C93.6131 222 96.2276 223.009 97.9608 224.743C99.7141 226.496 100.86 229.283 101.113 233.435L103.109 233.313L105.106 233.191C104.817 228.468 103.473 224.598 100.789 221.914C98.0849 219.21 94.314 218 89.7969 218V220ZM116.516 280H114.516V282H116.516V280ZM116.516 220V218H114.516V220H116.516ZM152.578 223.938L151.158 225.346L151.164 225.352L152.578 223.938ZM152.578 249.406L151.164 247.992L152.578 249.406ZM129.828 253.313V251.313H127.828V253.313H129.828ZM129.828 280V282H131.828V280H129.828ZM129.828 246.688H127.828V248.688H129.828V246.688ZM141.203 228.656L139.789 230.071L139.8 230.082L139.812 230.093L141.203 228.656ZM129.828 226.688V224.688H127.828V226.688H129.828ZM116.516 280H118.516V220H116.516H114.516V280H116.516ZM116.516 220V222H143.203V220V218H116.516V220ZM143.203 220V222C146.307 222 148.924 223.094 151.158 225.346L152.578 223.938L153.998 222.529C151.024 219.532 147.391 218 143.203 218V220ZM152.578 223.938L151.164 225.352C153.424 227.612 154.516 230.232 154.516 233.313H156.516H158.516C158.516 229.143 156.982 225.513 153.992 222.524L152.578 223.938ZM156.516 233.313H154.516V240H156.516H158.516V233.313H156.516ZM156.516 240H154.516C154.516 243.105 153.422 245.735 151.164 247.992L152.578 249.406L153.992 250.821C156.985 247.828 158.516 244.187 158.516 240H156.516ZM152.578 249.406L151.164 247.992C148.931 250.226 146.312 251.313 143.203 251.313V253.313V255.313C147.385 255.313 151.017 253.796 153.992 250.821L152.578 249.406ZM143.203 253.313V251.313H129.828V253.313V255.313H143.203V253.313ZM129.828 253.313H127.828V280H129.828H131.828V253.313H129.828ZM129.828 280V278H116.516V280V282H129.828V280ZM129.828 246.688V248.688H136.516V246.688V244.688H129.828V246.688ZM136.516 246.688V248.688C138.873 248.688 140.94 247.811 142.617 246.133L141.203 244.719L139.789 243.305C138.841 244.252 137.784 244.688 136.516 244.688V246.688ZM141.203 244.719L142.617 246.133C144.309 244.442 145.203 242.367 145.203 240H143.203H141.203C141.203 241.259 140.764 242.33 139.789 243.305L141.203 244.719ZM143.203 240H145.203V233.313H143.203H141.203V240H143.203ZM143.203 233.313H145.203C145.203 230.944 144.306 228.878 142.595 227.22L141.203 228.656L139.812 230.093C140.767 231.018 141.203 232.056 141.203 233.313H143.203ZM141.203 228.656L142.617 227.242C140.94 225.565 138.873 224.688 136.516 224.688V226.688V228.688C137.784 228.688 138.841 229.123 139.789 230.071L141.203 228.656ZM136.516 226.688V224.688H129.828V226.688V228.688H136.516V226.688ZM129.828 226.688H127.828V246.688H129.828H131.828V226.688H129.828ZM169.797 280H167.797V282H169.797V280ZM173.703 223.938L172.289 222.524L173.703 223.938ZM205.859 223.938L204.44 225.346L204.445 225.352L205.859 223.938ZM209.797 280V282H211.797V280H209.797ZM196.484 280H194.484V282H196.484V280ZM196.484 253.313H198.484V251.313H196.484V253.313ZM183.109 253.313V251.313H181.109V253.313H183.109ZM183.109 280V282H185.109V280H183.109ZM183.109 246.688H181.109V248.688H183.109V246.688ZM196.484 246.688V248.688H198.484V246.688H196.484ZM194.484 228.656L193.07 230.071L193.081 230.082L193.093 230.093L194.484 228.656ZM185.078 228.656L186.481 230.082L186.487 230.076L186.492 230.071L185.078 228.656ZM169.797 280H171.797V233.313H169.797H167.797V280H169.797ZM169.797 233.313H171.797C171.797 230.203 172.884 227.585 175.117 225.352L173.703 223.938L172.289 222.524C169.314 225.498 167.797 229.13 167.797 233.313H169.797ZM173.703 223.938L175.117 225.352C177.375 223.094 180.005 222 183.109 222V220V218C178.922 218 175.281 219.531 172.289 222.524L173.703 223.938ZM183.109 220V222H196.484V220V218H183.109V220ZM196.484 220V222C199.589 222 202.205 223.094 204.44 225.346L205.859 223.938L207.279 222.529C204.306 219.532 200.672 218 196.484 218V220ZM205.859 223.938L204.445 225.352C206.705 227.612 207.797 230.232 207.797 233.313H209.797H211.797C211.797 229.143 210.264 225.513 207.274 222.524L205.859 223.938ZM209.797 233.313H207.797V280H209.797H211.797V233.313H209.797ZM209.797 280V278H196.484V280V282H209.797V280ZM196.484 280H198.484V253.313H196.484H194.484V280H196.484ZM196.484 253.313V251.313H183.109V253.313V255.313H196.484V253.313ZM183.109 253.313H181.109V280H183.109H185.109V253.313H183.109ZM183.109 280V278H169.797V280V282H183.109V280ZM183.109 246.688V248.688H196.484V246.688V244.688H183.109V246.688ZM196.484 246.688H198.484V233.313H196.484H194.484V246.688H196.484ZM196.484 233.313H198.484C198.484 230.944 197.588 228.878 195.876 227.22L194.484 228.656L193.093 230.093C194.048 231.018 194.484 232.056 194.484 233.313H196.484ZM194.484 228.656L195.899 227.242C194.221 225.565 192.154 224.688 189.797 224.688V226.688V228.688C191.065 228.688 192.123 229.123 193.07 230.071L194.484 228.656ZM189.797 226.688V224.688C187.426 224.688 185.346 225.56 183.664 227.242L185.078 228.656L186.492 230.071C187.435 229.128 188.501 228.688 189.797 228.688V226.688ZM185.078 228.656L183.675 227.231C181.988 228.892 181.109 230.955 181.109 233.313H183.109H185.109C185.109 232.046 185.544 231.004 186.481 230.082L185.078 228.656ZM183.109 233.313H181.109V246.688H183.109H185.109V233.313H183.109ZM223.078 280H221.078V282H223.078V280ZM223.078 220V218H221.078V220H223.078ZM259.141 223.938L257.721 225.346L257.726 225.352L259.141 223.938ZM260.016 245.563L261.621 246.755L261.626 246.749L260.016 245.563ZM261.109 251.656L262.524 250.242L261.109 251.656ZM263.078 280V282H265.078V280H263.078ZM249.766 280H247.766V282H249.766V280ZM247.766 255.281L246.351 256.696L246.357 256.701L246.363 256.707L247.766 255.281ZM236.391 253.313V251.313H234.391V253.313H236.391ZM236.391 280V282H238.391V280H236.391ZM236.391 246.688H234.391V248.688H236.391V246.688ZM247.766 228.656L246.351 230.071L246.363 230.082L246.374 230.093L247.766 228.656ZM236.391 226.688V224.688H234.391V226.688H236.391ZM223.078 280H225.078V220H223.078H221.078V280H223.078ZM223.078 220V222H249.766V220V218H223.078V220ZM249.766 220V222C252.87 222 255.486 223.094 257.721 225.346L259.141 223.938L260.56 222.529C257.587 219.532 253.953 218 249.766 218V220ZM259.141 223.938L257.726 225.352C259.986 227.612 261.078 230.232 261.078 233.313H263.078H265.078C265.078 229.143 263.545 225.513 260.555 222.524L259.141 223.938ZM263.078 233.313H261.078V236.938H263.078H265.078V233.313H263.078ZM263.078 236.938H261.078C261.078 239.426 260.235 241.894 258.406 244.376L260.016 245.563L261.626 246.749C263.88 243.69 265.078 240.408 265.078 236.938H263.078ZM260.016 245.563L258.41 244.371C256.881 246.429 254.194 247.688 249.766 247.688V249.688V251.688C254.921 251.688 259.066 250.196 261.621 246.755L260.016 245.563ZM249.766 249.688V251.688H256.391V249.688V247.688H249.766V249.688ZM256.391 249.688V251.688C257.686 251.688 258.752 252.128 259.695 253.071L261.109 251.656L262.524 250.242C260.841 248.56 258.762 247.688 256.391 247.688V249.688ZM261.109 251.656L259.695 253.071C260.638 254.013 261.078 255.08 261.078 256.375H263.078H265.078C265.078 254.004 264.206 251.925 262.524 250.242L261.109 251.656ZM263.078 256.375H261.078V280H263.078H265.078V256.375H263.078ZM263.078 280V278H249.766V280V282H263.078V280ZM249.766 280H251.766V260H249.766H247.766V280H249.766ZM249.766 260H251.766C251.766 257.619 250.875 255.536 249.169 253.856L247.766 255.281L246.363 256.707C247.323 257.652 247.766 258.715 247.766 260H249.766ZM247.766 255.281L249.18 253.867C247.502 252.19 245.435 251.313 243.078 251.313V253.313V255.313C244.346 255.313 245.404 255.748 246.351 256.696L247.766 255.281ZM243.078 253.313V251.313H236.391V253.313V255.313H243.078V253.313ZM236.391 253.313H234.391V280H236.391H238.391V253.313H236.391ZM236.391 280V278H223.078V280V282H236.391V280ZM236.391 246.688V248.688H243.078V246.688V244.688H236.391V246.688ZM243.078 246.688V248.688C245.435 248.688 247.502 247.811 249.18 246.133L247.766 244.719L246.351 243.305C245.404 244.252 244.346 244.688 243.078 244.688V246.688ZM247.766 244.719L249.18 246.133C250.871 244.442 251.766 242.367 251.766 240H249.766H247.766C247.766 241.259 247.327 242.33 246.351 243.305L247.766 244.719ZM249.766 240H251.766V233.313H249.766H247.766V240H249.766ZM249.766 233.313H251.766C251.766 230.944 250.869 228.878 249.157 227.22L247.766 228.656L246.374 230.093C247.329 231.018 247.766 232.056 247.766 233.313H249.766ZM247.766 228.656L249.18 227.242C247.502 225.565 245.435 224.688 243.078 224.688V226.688V228.688C244.346 228.688 245.404 229.123 246.351 230.071L247.766 228.656ZM243.078 226.688V224.688H236.391V226.688V228.688H243.078V226.688ZM236.391 226.688H234.391V246.688H236.391H238.391V226.688H236.391ZM276.359 280H274.359V282H276.359V280ZM276.359 220V218H274.359V220H276.359ZM289.672 220H291.672V218H289.672V220ZM289.672 244.5H287.672V249.8L291.173 245.822L289.672 244.5ZM311.234 220V218H310.33L309.733 218.679L311.234 220ZM323.047 220L324.541 221.33L327.503 218H323.047V220ZM296.359 250L294.865 248.671L293.683 250L294.865 251.33L296.359 250ZM323.047 280V282H327.503L324.541 278.671L323.047 280ZM309.672 280L308.154 281.302L308.753 282H309.672V280ZM289.672 256.688L291.19 255.385L287.672 251.285V256.688H289.672ZM289.672 280V282H291.672V280H289.672ZM276.359 280H278.359V220H276.359H274.359V280H276.359ZM276.359 220V222H289.672V220V218H276.359V220ZM289.672 220H287.672V244.5H289.672H291.672V220H289.672ZM289.672 244.5L291.173 245.822L312.736 221.322L311.234 220L309.733 218.679L288.171 243.179L289.672 244.5ZM311.234 220V222H323.047V220V218H311.234V220ZM323.047 220L321.553 218.671L294.865 248.671L296.359 250L297.854 251.33L324.541 221.33L323.047 220ZM296.359 250L294.865 251.33L321.553 281.33L323.047 280L324.541 278.671L297.854 248.671L296.359 250ZM323.047 280V278H309.672V280V282H323.047V280ZM309.672 280L311.19 278.698L291.19 255.385L289.672 256.688L288.154 257.99L308.154 281.302L309.672 280ZM289.672 256.688H287.672V280H289.672H291.672V256.688H289.672ZM289.672 280V278H276.359V280V282H289.672V280ZM336.359 280H334.359V282H336.359V280ZM336.359 220V218H334.359V220H336.359ZM349.672 220H351.672V218H349.672V220ZM349.672 246.688H347.672V248.688H349.672V246.688ZM363.047 246.688V248.688H365.047V246.688H363.047ZM363.047 220V218H361.047V220H363.047ZM376.359 220H378.359V218H376.359V220ZM376.359 280V282H378.359V280H376.359ZM363.047 280H361.047V282H363.047V280ZM363.047 253.313H365.047V251.313H363.047V253.313ZM349.672 253.313V251.313H347.672V253.313H349.672ZM349.672 280V282H351.672V280H349.672ZM336.359 280H338.359V220H336.359H334.359V280H336.359ZM336.359 220V222H349.672V220V218H336.359V220ZM349.672 220H347.672V246.688H349.672H351.672V220H349.672ZM349.672 246.688V248.688H363.047V246.688V244.688H349.672V246.688ZM363.047 246.688H365.047V220H363.047H361.047V246.688H363.047ZM363.047 220V222H376.359V220V218H363.047V220ZM376.359 220H374.359V280H376.359H378.359V220H376.359ZM376.359 280V278H363.047V280V282H376.359V280ZM363.047 280H365.047V253.313H363.047H361.047V280H363.047ZM363.047 253.313V251.313H349.672V253.313V255.313H363.047V253.313ZM349.672 253.313H347.672V280H349.672H351.672V253.313H349.672ZM349.672 280V278H336.359V280V282H349.672V280ZM389.641 280H387.641V282H389.641V280ZM393.547 223.938L392.133 222.524L393.547 223.938ZM425.703 223.938L424.283 225.346L424.289 225.352L425.703 223.938ZM429.641 280V282H431.641V280H429.641ZM416.328 280H414.328V282H416.328V280ZM416.328 253.313H418.328V251.313H416.328V253.313ZM402.953 253.313V251.313H400.953V253.313H402.953ZM402.953 280V282H404.953V280H402.953ZM402.953 246.688H400.953V248.688H402.953V246.688ZM416.328 246.688V248.688H418.328V246.688H416.328ZM414.328 228.656L412.914 230.071L412.925 230.082L412.937 230.093L414.328 228.656ZM404.922 228.656L406.325 230.082L406.33 230.076L406.336 230.071L404.922 228.656ZM389.641 280H391.641V233.313H389.641H387.641V280H389.641ZM389.641 233.313H391.641C391.641 230.203 392.728 227.585 394.961 225.352L393.547 223.938L392.133 222.524C389.158 225.498 387.641 229.13 387.641 233.313H389.641ZM393.547 223.938L394.961 225.352C397.219 223.094 399.848 222 402.953 222V220V218C398.766 218 395.125 219.531 392.133 222.524L393.547 223.938ZM402.953 220V222H416.328V220V218H402.953V220ZM416.328 220V222C419.432 222 422.049 223.094 424.283 225.346L425.703 223.938L427.123 222.529C424.149 219.532 420.516 218 416.328 218V220ZM425.703 223.938L424.289 225.352C426.549 227.612 427.641 230.232 427.641 233.313H429.641H431.641C431.641 229.143 430.107 225.513 427.117 222.524L425.703 223.938ZM429.641 233.313H427.641V280H429.641H431.641V233.313H429.641ZM429.641 280V278H416.328V280V282H429.641V280ZM416.328 280H418.328V253.313H416.328H414.328V280H416.328ZM416.328 253.313V251.313H402.953V253.313V255.313H416.328V253.313ZM402.953 253.313H400.953V280H402.953H404.953V253.313H402.953ZM402.953 280V278H389.641V280V282H402.953V280ZM402.953 246.688V248.688H416.328V246.688V244.688H402.953V246.688ZM416.328 246.688H418.328V233.313H416.328H414.328V246.688H416.328ZM416.328 233.313H418.328C418.328 230.944 417.431 228.878 415.72 227.22L414.328 228.656L412.937 230.093C413.892 231.018 414.328 232.056 414.328 233.313H416.328ZM414.328 228.656L415.742 227.242C414.065 225.565 411.998 224.688 409.641 224.688V226.688V228.688C410.909 228.688 411.966 229.123 412.914 230.071L414.328 228.656ZM409.641 226.688V224.688C407.27 224.688 405.19 225.56 403.508 227.242L404.922 228.656L406.336 230.071C407.279 229.128 408.345 228.688 409.641 228.688V226.688ZM404.922 228.656L403.519 227.231C401.831 228.892 400.953 230.955 400.953 233.313H402.953H404.953C404.953 232.046 405.387 231.004 406.325 230.082L404.922 228.656ZM402.953 233.313H400.953V246.688H402.953H404.953V233.313H402.953ZM482.922 266.688L484.918 266.819L485.058 264.688H482.922V266.688ZM446.828 276.094L445.408 277.503L445.414 277.508L445.42 277.514L446.828 276.094ZM446.766 223.969L445.335 222.572L445.329 222.578L446.766 223.969ZM482.922 233.313V235.313H485.038L484.919 233.2L482.922 233.313ZM476.234 233.313L474.248 233.547L474.456 235.313H476.234V233.313ZM458.203 228.656L459.606 230.082L459.612 230.076L459.617 230.071L458.203 228.656ZM458.172 271.344L456.746 272.747L456.752 272.753L456.758 272.758L458.172 271.344ZM476.234 266.688V264.688H474.448L474.247 266.463L476.234 266.688ZM482.922 266.688L480.926 266.557C480.653 270.71 479.498 273.501 477.742 275.258C476.007 276.993 473.401 278 469.609 278V280V282C474.109 282 477.868 280.789 480.57 278.086C483.252 275.405 484.607 271.54 484.918 266.819L482.922 266.688ZM469.609 280V278H456.234V280V282H469.609V280ZM456.234 280V278C453.125 278 450.493 276.913 448.237 274.674L446.828 276.094L445.42 277.514C448.413 280.484 452.053 282 456.234 282V280ZM446.828 276.094L448.248 274.685C446.01 272.429 444.922 269.798 444.922 266.688H442.922H440.922C440.922 270.87 442.438 274.509 445.408 277.503L446.828 276.094ZM442.922 266.688H444.922V233.313H442.922H440.922V266.688H442.922ZM442.922 233.313H444.922C444.922 230.265 445.99 227.645 448.202 225.36L446.766 223.969L445.329 222.578C442.416 225.585 440.922 229.194 440.922 233.313H442.922ZM446.766 223.969L448.197 225.366C450.4 223.11 453.039 222 456.234 222V220V218C451.972 218 448.298 219.537 445.335 222.572L446.766 223.969ZM456.234 220V222H469.609V220V218H456.234V220ZM469.609 220V222C473.45 222 476.073 223.011 477.805 224.743C479.555 226.493 480.691 229.275 480.925 233.425L482.922 233.313L484.919 233.2C484.652 228.475 483.32 224.602 480.633 221.914C477.927 219.208 474.144 218 469.609 218V220ZM482.922 233.313V231.313H476.234V233.313V235.313H482.922V233.313ZM476.234 233.313L478.221 233.079C477.929 230.608 477.134 228.462 475.602 226.93C474.035 225.363 471.949 224.688 469.609 224.688V226.688V228.688C471.166 228.688 472.132 229.117 472.773 229.758C473.449 230.434 474.019 231.6 474.248 233.547L476.234 233.313ZM469.609 226.688V224.688H462.922V226.688V228.688H469.609V226.688ZM462.922 226.688V224.688C460.551 224.688 458.471 225.56 456.789 227.242L458.203 228.656L459.617 230.071C460.56 229.128 461.626 228.688 462.922 228.688V226.688ZM458.203 228.656L456.8 227.231C455.113 228.892 454.234 230.955 454.234 233.313H456.234H458.234C458.234 232.046 458.669 231.004 459.606 230.082L458.203 228.656ZM456.234 233.313H454.234V266.688H456.234H458.234V233.313H456.234ZM456.234 266.688H454.234C454.234 269.02 455.098 271.072 456.746 272.747L458.172 271.344L459.597 269.941C458.662 268.991 458.234 267.938 458.234 266.688H456.234ZM458.172 271.344L456.758 272.758C458.445 274.445 460.537 275.313 462.922 275.313V273.313V271.313C461.599 271.313 460.524 270.868 459.586 269.93L458.172 271.344ZM462.922 273.313V275.313H469.609V273.313V271.313H462.922V273.313ZM469.609 273.313V275.313C471.956 275.313 474.048 274.64 475.617 273.071C477.153 271.535 477.942 269.385 478.222 266.913L476.234 266.688L474.247 266.463C474.027 268.407 473.462 269.569 472.789 270.242C472.15 270.882 471.18 271.313 469.609 271.313V273.313ZM476.234 266.688V268.688H482.922V266.688V264.688H476.234V266.688ZM496.203 280H494.203V282H496.203V280ZM496.203 220V218H494.203V220H496.203ZM509.516 220H511.516V218H509.516V220ZM509.516 244.5H507.516V249.8L511.017 245.822L509.516 244.5ZM531.078 220V218H530.174L529.577 218.679L531.078 220ZM542.891 220L544.385 221.33L547.347 218H542.891V220ZM516.203 250L514.709 248.671L513.526 250L514.709 251.33L516.203 250ZM542.891 280V282H547.347L544.385 278.671L542.891 280ZM529.516 280L527.998 281.302L528.596 282H529.516V280ZM509.516 256.688L511.034 255.385L507.516 251.285V256.688H509.516ZM509.516 280V282H511.516V280H509.516ZM496.203 280H498.203V220H496.203H494.203V280H496.203ZM496.203 220V222H509.516V220V218H496.203V220ZM509.516 220H507.516V244.5H509.516H511.516V220H509.516ZM509.516 244.5L511.017 245.822L532.579 221.322L531.078 220L529.577 218.679L508.014 243.179L509.516 244.5ZM531.078 220V222H542.891V220V218H531.078V220ZM542.891 220L541.396 218.671L514.709 248.671L516.203 250L517.697 251.33L544.385 221.33L542.891 220ZM516.203 250L514.709 251.33L541.396 281.33L542.891 280L544.385 278.671L517.697 248.671L516.203 250ZM542.891 280V278H529.516V280V282H542.891V280ZM529.516 280L531.034 278.698L511.034 255.385L509.516 256.688L507.998 257.99L527.998 281.302L529.516 280ZM509.516 256.688H507.516V280H509.516H511.516V256.688H509.516ZM509.516 280V278H496.203V280V282H509.516V280ZM589.516 233.313V235.313H591.641L591.512 233.191L589.516 233.313ZM582.891 233.313L580.908 233.572L581.135 235.313H582.891V233.313ZM571.297 228.313L569.921 226.861L571.297 228.313ZM571.484 238.031L572.979 236.702L572.971 236.694L571.484 238.031ZM585.609 253.906L584.115 255.236L584.117 255.239L585.609 253.906ZM585.609 276.063L587.029 277.471L587.035 277.466L585.609 276.063ZM559.547 276.656L560.961 275.242L559.547 276.656ZM556.203 266.688V264.688H554.203V266.688H556.203ZM562.891 266.688L564.882 266.869L565.081 264.688H562.891V266.688ZM564.922 271.906L563.807 273.567L564.922 271.906ZM574.641 271.594L576.12 272.939L574.641 271.594ZM574.234 261.906L572.743 263.239L572.75 263.247L572.757 263.255L574.234 261.906ZM560.109 246.094L561.601 244.762L561.596 244.757L560.109 246.094ZM560.109 223.938L558.69 222.529L560.109 223.938ZM589.516 233.313V231.313H582.891V233.313V235.313H589.516V233.313ZM582.891 233.313L584.874 233.053C584.552 230.593 583.777 228.458 582.329 226.924C580.831 225.336 578.832 224.625 576.578 224.625V226.625V228.625C577.949 228.625 578.815 229.029 579.421 229.67C580.077 230.365 580.646 231.574 580.908 233.572L582.891 233.313ZM576.578 226.625V224.625C573.951 224.625 571.613 225.258 569.921 226.861L571.297 228.313L572.672 229.765C573.356 229.117 574.538 228.625 576.578 228.625V226.625ZM571.297 228.313L569.921 226.861C568.207 228.485 567.516 230.772 567.516 233.344H569.516H571.516C571.516 231.458 572.012 230.39 572.672 229.765L571.297 228.313ZM569.516 233.344H567.516C567.516 235.59 568.417 237.613 569.998 239.369L571.484 238.031L572.971 236.694C571.927 235.534 571.516 234.431 571.516 233.344H569.516ZM571.484 238.031L569.99 239.361L584.115 255.236L585.609 253.906L587.104 252.577L572.979 236.702L571.484 238.031ZM585.609 253.906L584.117 255.239C586.452 257.853 587.516 260.53 587.516 263.313H589.516H591.516C591.516 259.387 589.975 255.793 587.101 252.574L585.609 253.906ZM589.516 263.313H587.516V266.688H589.516H591.516V263.313H589.516ZM589.516 266.688H587.516C587.516 269.75 586.432 272.376 584.184 274.66L585.609 276.063L587.035 277.466C589.995 274.458 591.516 270.834 591.516 266.688H589.516ZM585.609 276.063L584.19 274.654C581.957 276.904 579.332 278 576.203 278V280V282C580.408 282 584.053 280.471 587.029 277.471L585.609 276.063ZM576.203 280V278H569.516V280V282H576.203V280ZM569.516 280V278C565.414 278 562.686 276.967 560.961 275.242L559.547 276.656L558.133 278.071C560.866 280.804 564.784 282 569.516 282V280ZM559.547 276.656L560.961 275.242C559.236 273.517 558.203 270.79 558.203 266.688H556.203H554.203C554.203 271.419 555.399 275.337 558.133 278.071L559.547 276.656ZM556.203 266.688V268.688H562.891V266.688V264.688H556.203V266.688ZM562.891 266.688L560.899 266.507C560.855 266.99 560.828 267.423 560.828 267.781H562.828H564.828C564.828 267.598 564.843 267.302 564.882 266.869L562.891 266.688ZM562.828 267.781H560.828C560.828 270.199 561.809 272.225 563.807 273.567L564.922 271.906L566.037 270.246C565.243 269.713 564.828 268.989 564.828 267.781H562.828ZM564.922 271.906L563.807 273.567C565.529 274.724 567.448 275.313 569.516 275.313V273.313V271.313C568.25 271.313 567.106 270.964 566.037 270.246L564.922 271.906ZM569.516 273.313V275.313C572.155 275.313 574.537 274.681 576.12 272.939L574.641 271.594L573.161 270.249C572.661 270.798 571.626 271.313 569.516 271.313V273.313ZM574.641 271.594L576.12 272.939C577.613 271.298 578.203 269.074 578.203 266.594H576.203H574.203C574.203 268.489 573.752 269.599 573.161 270.249L574.641 271.594ZM576.203 266.594H578.203C578.203 264.331 577.305 262.304 575.711 260.558L574.234 261.906L572.757 263.255C573.789 264.384 574.203 265.482 574.203 266.594H576.203ZM574.234 261.906L575.726 260.574L561.601 244.762L560.109 246.094L558.618 247.426L572.743 263.239L574.234 261.906ZM560.109 246.094L561.596 244.757C559.268 242.168 558.203 239.493 558.203 236.688H556.203H554.203C554.203 240.632 555.742 244.229 558.622 247.431L560.109 246.094ZM556.203 236.688H558.203V233.313H556.203H554.203V236.688H556.203ZM556.203 233.313H558.203C558.203 230.227 559.288 227.605 561.529 225.346L560.109 223.938L558.69 222.529C555.722 225.52 554.203 229.148 554.203 233.313H556.203ZM560.109 223.938L561.529 225.346C563.761 223.096 566.387 222 569.516 222V220V218C565.311 218 561.666 219.529 558.69 222.529L560.109 223.938ZM569.516 220V222H576.203V220V218H569.516V220ZM576.203 220V222C580.019 222 582.634 223.009 584.367 224.743C586.12 226.496 587.266 229.283 587.519 233.435L589.516 233.313L591.512 233.191C591.224 228.468 589.88 224.598 587.195 221.914C584.491 219.21 580.72 218 576.203 218V220ZM629.141 233.313V235.313H631.004L631.136 233.454L629.141 233.313ZM622.453 233.313L620.467 233.08L620.205 235.313H622.453V233.313ZM658.516 223.938L657.096 225.346L657.101 225.352L658.516 223.938ZM649.547 254.594L648.25 253.072L648.232 253.087L648.215 253.102L649.547 254.594ZM648.672 255.375L649.971 256.896L649.988 256.882L650.004 256.867L648.672 255.375ZM635.766 273.313H633.766V275.313H635.766V273.313ZM662.453 273.313H664.453V271.313H662.453V273.313ZM662.453 280V282H664.453V280H662.453ZM622.453 280H620.453V282H622.453V280ZM635.328 255.375L636.629 256.894L636.634 256.89L635.328 255.375ZM636.234 254.594L634.937 253.072L634.928 253.079L636.234 254.594ZM647.141 228.656L645.738 230.082L645.743 230.087L645.749 230.093L647.141 228.656ZM629.141 233.313V231.313H622.453V233.313V235.313H629.141V233.313ZM622.453 233.313L624.44 233.546C624.93 229.37 626.187 226.533 627.977 224.743C629.732 222.987 632.24 222 635.766 222V220V218C631.458 218 627.83 219.232 625.148 221.914C622.501 224.561 621.018 228.38 620.467 233.08L622.453 233.313ZM635.766 220V222H649.141V220V218H635.766V220ZM649.141 220V222C652.245 222 654.861 223.094 657.096 225.346L658.516 223.938L659.935 222.529C656.962 219.532 653.328 218 649.141 218V220ZM658.516 223.938L657.101 225.352C659.361 227.612 660.453 230.232 660.453 233.313H662.453H664.453C664.453 229.143 662.92 225.513 659.93 222.524L658.516 223.938ZM662.453 233.313H660.453V236.688H662.453H664.453V233.313H662.453ZM662.453 236.688H660.453C660.453 238.386 659.645 240.616 657.604 243.448C655.583 246.252 652.487 249.46 648.25 253.072L649.547 254.594L650.844 256.116C655.211 252.395 658.568 248.951 660.849 245.787C663.11 242.65 664.453 239.593 664.453 236.688H662.453ZM649.547 254.594L648.215 253.102L647.34 253.883L648.672 255.375L650.004 256.867L650.879 256.086L649.547 254.594ZM648.672 255.375L647.372 253.855C643.013 257.581 639.663 260.975 637.388 264.033C635.144 267.048 633.766 269.973 633.766 272.719H635.766H637.766C637.766 271.257 638.538 269.187 640.597 266.421C642.623 263.698 645.726 260.524 649.971 256.896L648.672 255.375ZM635.766 272.719H633.766V273.313H635.766H637.766V272.719H635.766ZM635.766 273.313V275.313H662.453V273.313V271.313H635.766V273.313ZM662.453 273.313H660.453V280H662.453H664.453V273.313H662.453ZM662.453 280V278H622.453V280V282H662.453V280ZM622.453 280H624.453V273.313H622.453H620.453V280H622.453ZM622.453 273.313H624.453C624.453 271.612 625.26 269.379 627.297 266.541C629.314 263.732 632.402 260.516 636.629 256.894L635.328 255.375L634.027 253.856C629.671 257.589 626.322 261.04 624.047 264.209C621.792 267.351 620.453 270.409 620.453 273.313H622.453ZM635.328 255.375L636.634 256.89L637.54 256.109L636.234 254.594L634.928 253.079L634.022 253.86L635.328 255.375ZM636.234 254.594L637.532 256.116C641.898 252.395 645.256 248.951 647.537 245.787C649.798 242.65 651.141 239.593 651.141 236.688H649.141H647.141C647.141 238.386 646.333 240.616 644.292 243.448C642.27 246.252 639.175 249.46 634.937 253.072L636.234 254.594ZM649.141 236.688H651.141V233.313H649.141H647.141V236.688H649.141ZM649.141 233.313H651.141C651.141 230.944 650.244 228.878 648.532 227.22L647.141 228.656L645.749 230.093C646.704 231.018 647.141 232.056 647.141 233.313H649.141ZM647.141 228.656L648.544 227.231C646.855 225.569 644.795 224.688 642.453 224.688V226.688V228.688C643.695 228.688 644.76 229.119 645.738 230.082L647.141 228.656ZM642.453 226.688V224.688H635.766V226.688V228.688H642.453V226.688ZM635.766 226.688V224.688C633.356 224.688 631.203 225.344 629.617 226.93C628.054 228.493 627.322 230.681 627.146 233.172L629.141 233.313L631.136 233.454C631.272 231.527 631.8 230.403 632.445 229.758C633.068 229.136 634.071 228.688 635.766 228.688V226.688ZM711.797 223.938L710.377 225.346L710.383 225.352L711.797 223.938ZM711.797 276.063L710.377 274.654L710.377 274.654L711.797 276.063ZM679.641 276.094L678.221 277.503L678.226 277.508L678.232 277.514L679.641 276.094ZM679.641 223.938L678.226 222.524L679.641 223.938ZM689.203 267.719L687.457 266.744L687.108 267.369L687.235 268.073L689.203 267.719ZM691.328 271.906L690.019 273.419L690.026 273.425L690.034 273.431L691.328 271.906ZM700.453 271.344L699.039 269.93L699.033 269.935L699.028 269.941L700.453 271.344ZM702.422 244.031H704.422V236.343L700.675 243.057L702.422 244.031ZM702.297 232.188L704.045 233.16L704.429 232.469L704.237 231.703L702.297 232.188ZM691.016 228.656L692.418 230.082L692.424 230.076L692.43 230.071L691.016 228.656ZM689.047 256H687.047V263.708L690.795 256.973L689.047 256ZM689.047 220V222H702.422V220V218H689.047V220ZM702.422 220V222C705.526 222 708.142 223.094 710.377 225.346L711.797 223.938L713.217 222.529C710.243 219.532 706.609 218 702.422 218V220ZM711.797 223.938L710.383 225.352C712.643 227.612 713.734 230.232 713.734 233.313H715.734H717.734C717.734 229.143 716.201 225.513 713.211 222.524L711.797 223.938ZM715.734 233.313H713.734V266.688H715.734H717.734V233.313H715.734ZM715.734 266.688H713.734C713.734 269.744 712.645 272.369 710.377 274.654L711.797 276.063L713.217 277.471C716.199 274.465 717.734 270.839 717.734 266.688H715.734ZM711.797 276.063L710.377 274.654C708.142 276.907 705.526 278 702.422 278V280V282C706.609 282 710.243 280.469 713.217 277.471L711.797 276.063ZM702.422 280V278H689.047V280V282H702.422V280ZM689.047 280V278C685.937 278 683.306 276.913 681.049 274.674L679.641 276.094L678.232 277.514C681.226 280.484 684.865 282 689.047 282V280ZM679.641 276.094L681.06 274.685C678.822 272.429 677.734 269.798 677.734 266.688H675.734H673.734C673.734 270.87 675.251 274.509 678.221 277.503L679.641 276.094ZM675.734 266.688H677.734V233.313H675.734H673.734V266.688H675.734ZM675.734 233.313H677.734C677.734 230.203 678.821 227.585 681.055 225.352L679.641 223.938L678.226 222.524C675.251 225.498 673.734 229.13 673.734 233.313H675.734ZM679.641 223.938L681.055 225.352C683.312 223.094 685.942 222 689.047 222V220V218C684.86 218 681.219 219.531 678.226 222.524L679.641 223.938ZM689.203 267.719L687.235 268.073C687.623 270.234 688.494 272.099 690.019 273.419L691.328 271.906L692.637 270.394C691.995 269.839 691.45 268.912 691.172 267.365L689.203 267.719ZM691.328 271.906L690.034 273.431C691.587 274.75 693.556 275.313 695.734 275.313V273.313V271.313C694.246 271.313 693.278 270.938 692.623 270.382L691.328 271.906ZM695.734 273.313V275.313C698.12 275.313 700.208 274.444 701.879 272.747L700.453 271.344L699.028 269.941C698.115 270.869 697.057 271.313 695.734 271.313V273.313ZM700.453 271.344L701.867 272.758C703.54 271.086 704.422 269.031 704.422 266.688H702.422H700.422C700.422 267.928 699.991 268.977 699.039 269.93L700.453 271.344ZM702.422 266.688H704.422V244.031H702.422H700.422V266.688H702.422ZM702.422 244.031L700.675 243.057L687.457 266.744L689.203 267.719L690.95 268.694L704.168 245.006L702.422 244.031ZM702.297 232.188L704.237 231.703C703.709 229.591 702.761 227.794 701.253 226.53C699.728 225.251 697.83 224.688 695.734 224.688V226.688V228.688C697.097 228.688 698.022 229.041 698.684 229.596C699.364 230.165 699.968 231.117 700.357 232.673L702.297 232.188ZM695.734 226.688V224.688C693.363 224.688 691.284 225.56 689.601 227.242L691.016 228.656L692.43 230.071C693.372 229.128 694.439 228.688 695.734 228.688V226.688ZM691.016 228.656L689.613 227.231C687.925 228.892 687.047 230.955 687.047 233.313H689.047H691.047C691.047 232.046 691.481 231.004 692.418 230.082L691.016 228.656ZM689.047 233.313H687.047V256H689.047H691.047V233.313H689.047ZM689.047 256L690.795 256.973L704.045 233.16L702.297 232.188L700.549 231.215L687.299 255.028L689.047 256ZM735.703 233.313V235.313H737.567L737.698 233.454L735.703 233.313ZM729.016 233.313L727.029 233.08L726.767 235.313H729.016V233.313ZM765.078 223.938L763.658 225.346L763.664 225.352L765.078 223.938ZM756.109 254.594L754.812 253.072L754.794 253.087L754.777 253.102L756.109 254.594ZM755.234 255.375L756.534 256.896L756.55 256.882L756.566 256.867L755.234 255.375ZM742.328 273.313H740.328V275.313H742.328V273.313ZM769.016 273.313H771.016V271.313H769.016V273.313ZM769.016 280V282H771.016V280H769.016ZM729.016 280H727.016V282H729.016V280ZM741.891 255.375L743.192 256.894L743.197 256.89L741.891 255.375ZM742.797 254.594L741.5 253.072L741.491 253.079L742.797 254.594ZM753.703 228.656L752.3 230.082L752.306 230.087L752.312 230.093L753.703 228.656ZM735.703 233.313V231.313H729.016V233.313V235.313H735.703V233.313ZM729.016 233.313L731.002 233.546C731.492 229.37 732.749 226.533 734.539 224.743C736.295 222.987 738.803 222 742.328 222V220V218C738.02 218 734.393 219.232 731.711 221.914C729.063 224.561 727.581 228.38 727.029 233.08L729.016 233.313ZM742.328 220V222H755.703V220V218H742.328V220ZM755.703 220V222C758.807 222 761.424 223.094 763.658 225.346L765.078 223.938L766.498 222.529C763.524 219.532 759.891 218 755.703 218V220ZM765.078 223.938L763.664 225.352C765.924 227.612 767.016 230.232 767.016 233.313H769.016H771.016C771.016 229.143 769.482 225.513 766.492 222.524L765.078 223.938ZM769.016 233.313H767.016V236.688H769.016H771.016V233.313H769.016ZM769.016 236.688H767.016C767.016 238.386 766.208 240.616 764.167 243.448C762.145 246.252 759.05 249.46 754.812 253.072L756.109 254.594L757.407 256.116C761.773 252.395 765.131 248.951 767.412 245.787C769.673 242.65 771.016 239.593 771.016 236.688H769.016ZM756.109 254.594L754.777 253.102L753.902 253.883L755.234 255.375L756.566 256.867L757.441 256.086L756.109 254.594ZM755.234 255.375L753.935 253.855C749.576 257.581 746.226 260.975 743.95 264.033C741.707 267.048 740.328 269.973 740.328 272.719H742.328H744.328C744.328 271.257 745.101 269.187 747.159 266.421C749.186 263.698 752.289 260.524 756.534 256.896L755.234 255.375ZM742.328 272.719H740.328V273.313H742.328H744.328V272.719H742.328ZM742.328 273.313V275.313H769.016V273.313V271.313H742.328V273.313ZM769.016 273.313H767.016V280H769.016H771.016V273.313H769.016ZM769.016 280V278H729.016V280V282H769.016V280ZM729.016 280H731.016V273.313H729.016H727.016V280H729.016ZM729.016 273.313H731.016C731.016 271.612 731.823 269.379 733.859 266.541C735.876 263.732 738.964 260.516 743.192 256.894L741.891 255.375L740.589 253.856C736.234 257.589 732.884 261.04 730.61 264.209C728.354 267.351 727.016 270.409 727.016 273.313H729.016ZM741.891 255.375L743.197 256.89L744.103 256.109L742.797 254.594L741.491 253.079L740.585 253.86L741.891 255.375ZM742.797 254.594L744.094 256.116C748.461 252.395 751.818 248.951 754.099 245.787C756.36 242.65 757.703 239.593 757.703 236.688H755.703H753.703C753.703 238.386 752.895 240.616 750.854 243.448C748.833 246.252 745.737 249.46 741.5 253.072L742.797 254.594ZM755.703 236.688H757.703V233.313H755.703H753.703V236.688H755.703ZM755.703 233.313H757.703C757.703 230.944 756.806 228.878 755.095 227.22L753.703 228.656L752.312 230.093C753.267 231.018 753.703 232.056 753.703 233.313H755.703ZM753.703 228.656L755.106 227.231C753.417 225.569 751.358 224.688 749.016 224.688V226.688V228.688C750.257 228.688 751.323 229.119 752.3 230.082L753.703 228.656ZM749.016 226.688V224.688H742.328V226.688V228.688H749.016V226.688ZM742.328 226.688V224.688C739.919 224.688 737.766 225.344 736.18 226.93C734.616 228.493 733.884 230.681 733.708 233.172L735.703 233.313L737.698 233.454C737.834 231.527 738.363 230.403 739.008 229.758C739.63 229.136 740.633 228.688 742.328 228.688V226.688ZM806.984 248.656L805.57 250.071L805.581 250.082L805.593 250.093L806.984 248.656ZM797.578 248.656L798.981 250.082L798.987 250.076L798.992 250.071L797.578 248.656ZM797.547 271.344L796.121 272.747L796.127 272.753L796.133 272.758L797.547 271.344ZM807.016 271.344L805.601 269.93L805.596 269.935L805.59 269.941L807.016 271.344ZM795.609 246.688H793.609L797.595 246.927L795.609 246.688ZM797.672 241.656L796.271 240.229L796.264 240.236L796.258 240.242L797.672 241.656ZM818.359 243.938L816.94 245.346L816.945 245.352L816.951 245.358L818.359 243.938ZM818.359 276.063L816.94 274.654L816.94 274.654L818.359 276.063ZM786.203 276.063L784.778 277.466L784.783 277.471L784.789 277.477L786.203 276.063ZM789.172 226.875L787.761 225.458L787.758 225.461L789.172 226.875ZM815.609 220H817.609V218H815.609V220ZM815.609 226.688V228.688H817.609V226.688H815.609ZM799.516 230.625L798.101 229.211L798.096 229.217L799.516 230.625ZM808.984 266.688H810.984V253.313H808.984H806.984V266.688H808.984ZM808.984 253.313H810.984C810.984 250.944 810.088 248.878 808.376 247.22L806.984 248.656L805.593 250.093C806.548 251.018 806.984 252.056 806.984 253.313H808.984ZM806.984 248.656L808.399 247.242C806.721 245.565 804.654 244.688 802.297 244.688V246.688V248.688C803.565 248.688 804.623 249.123 805.57 250.071L806.984 248.656ZM802.297 246.688V244.688C799.926 244.688 797.846 245.56 796.164 247.242L797.578 248.656L798.992 250.071C799.935 249.128 801.001 248.688 802.297 248.688V246.688ZM797.578 248.656L796.175 247.231C794.488 248.892 793.609 250.955 793.609 253.313H795.609H797.609C797.609 252.046 798.044 251.004 798.981 250.082L797.578 248.656ZM795.609 253.313H793.609V266.688H795.609H797.609V253.313H795.609ZM795.609 266.688H793.609C793.609 269.02 794.473 271.072 796.121 272.747L797.547 271.344L798.972 269.941C798.037 268.991 797.609 267.938 797.609 266.688H795.609ZM797.547 271.344L796.133 272.758C797.82 274.445 799.912 275.313 802.297 275.313V273.313V271.313C800.974 271.313 799.899 270.868 798.961 269.93L797.547 271.344ZM802.297 273.313V275.313C804.683 275.313 806.771 274.444 808.441 272.747L807.016 271.344L805.59 269.941C804.677 270.869 803.619 271.313 802.297 271.313V273.313ZM807.016 271.344L808.43 272.758C810.102 271.086 810.984 269.031 810.984 266.688H808.984H806.984C806.984 267.928 806.554 268.977 805.601 269.93L807.016 271.344ZM795.609 246.688L797.595 246.927C797.836 244.927 798.414 243.743 799.086 243.071L797.672 241.656L796.258 240.242C794.722 241.778 793.925 243.948 793.624 246.449L795.609 246.688ZM797.672 241.656L799.073 243.084C799.738 242.431 800.729 242 802.297 242V240V238C799.949 238 797.856 238.674 796.271 240.229L797.672 241.656ZM802.297 240V242H808.984V240V238H802.297V240ZM808.984 240V242C812.089 242 814.705 243.094 816.94 245.346L818.359 243.938L819.779 242.529C816.806 239.532 813.172 238 808.984 238V240ZM818.359 243.938L816.951 245.358C819.203 247.592 820.297 250.209 820.297 253.313H822.297H824.297C824.297 249.125 822.765 245.492 819.768 242.518L818.359 243.938ZM822.297 253.313H820.297V266.688H822.297H824.297V253.313H822.297ZM822.297 266.688H820.297C820.297 269.744 819.207 272.369 816.94 274.654L818.359 276.063L819.779 277.471C822.762 274.465 824.297 270.839 824.297 266.688H822.297ZM818.359 276.063L816.94 274.654C814.705 276.907 812.089 278 808.984 278V280V282C813.172 282 816.806 280.469 819.779 277.471L818.359 276.063ZM808.984 280V278H795.609V280V282H808.984V280ZM795.609 280V278C792.505 278 789.875 276.906 787.617 274.649L786.203 276.063L784.789 277.477C787.781 280.469 791.422 282 795.609 282V280ZM786.203 276.063L787.629 274.66C785.38 272.376 784.297 269.75 784.297 266.688H782.297H780.297C780.297 270.834 781.818 274.458 784.778 277.466L786.203 276.063ZM782.297 266.688H784.297V243.313H782.297H780.297V266.688H782.297ZM782.297 243.313H784.297C784.297 237.478 786.371 232.505 790.586 228.289L789.172 226.875L787.758 225.461C782.806 230.412 780.297 236.397 780.297 243.313H782.297ZM789.172 226.875L790.583 228.293C794.822 224.073 799.797 222 805.609 222V220V218C798.713 218 792.73 220.511 787.761 225.458L789.172 226.875ZM805.609 220V222H815.609V220V218H805.609V220ZM815.609 220H813.609V226.688H815.609H817.609V220H815.609ZM815.609 226.688V224.688H808.984V226.688V228.688H815.609V226.688ZM808.984 226.688V224.688C804.762 224.688 801.099 226.214 798.101 229.211L799.516 230.625L800.93 232.039C803.183 229.787 805.831 228.688 808.984 228.688V226.688ZM799.516 230.625L798.096 229.217C795.128 232.208 793.609 235.836 793.609 240H795.609H797.609C797.609 236.915 798.695 234.293 800.935 232.034L799.516 230.625ZM795.609 240H793.609V246.688H795.609H797.609V240H795.609Z" fill="white" mask="url(#path-9-outside-1_655_4)"/>
</g>
<g filter="url(#filter1_d_655_4)">
<path d="M431.923 123.078L436.654 110L441.846 123.078L455 128.26L441.846 135.786L436.654 148L431.923 135.786L419 128.26L431.923 123.078Z" fill="url(#paint3_linear_655_4)"/>
</g>
<g filter="url(#filter2_d_655_4)">
<path d="M472.692 132.981L476.24 123L480.135 132.981L490 136.935L480.135 142.679L476.24 152L472.692 142.679L463 136.935L472.692 132.981Z" fill="white"/>
</g>
<g filter="url(#filter3_d_655_4)">
<path d="M388.692 132.981L392.24 123L396.135 132.981L406 136.935L396.135 142.679L392.24 152L388.692 142.679L379 136.935L388.692 132.981Z" fill="white"/>
</g>
<defs>
<filter id="filter0_d_655_4" x="67.7969" y="218" width="756.5" height="70" filterUnits="userSpaceOnUse" color-interpolation-filters="sRGB">
<feFlood flood-opacity="0" result="BackgroundImageFix"/>
<feColorMatrix in="SourceAlpha" type="matrix" values="0 0 0 0 0 0 0 0 0 0 0 0 0 0 0 0 0 0 127 0" result="hardAlpha"/>
<feOffset dy="6"/>
<feComposite in2="hardAlpha" operator="out"/>
<feColorMatrix type="matrix" values="0 0 0 0 0 0 0 0 0 0 0 0 0 0 0 0 0 0 0.25 0"/>
<feBlend mode="normal" in2="BackgroundImageFix" result="effect1_dropShadow_655_4"/>
<feBlend mode="normal" in="SourceGraphic" in2="effect1_dropShadow_655_4" result="shape"/>
</filter>
<filter id="filter1_d_655_4" x="419" y="110" width="36" height="42" filterUnits="userSpaceOnUse" color-interpolation-filters="sRGB">
<feFlood flood-opacity="0" result="BackgroundImageFix"/>
<feColorMatrix in="SourceAlpha" type="matrix" values="0 0 0 0 0 0 0 0 0 0 0 0 0 0 0 0 0 0 127 0" result="hardAlpha"/>
<feOffset dy="4"/>
<feComposite in2="hardAlpha" operator="out"/>
<feColorMatrix type="matrix" values="0 0 0 0 0 0 0 0 0 0 0 0 0 0 0 0 0 0 0.25 0"/>
<feBlend mode="normal" in2="BackgroundImageFix" result="effect1_dropShadow_655_4"/>
<feBlend mode="normal" in="SourceGraphic" in2="effect1_dropShadow_655_4" result="shape"/>
</filter>
<filter id="filter2_d_655_4" x="463" y="123" width="27" height="33" filterUnits="userSpaceOnUse" color-interpolation-filters="sRGB">
<feFlood flood-opacity="0" result="BackgroundImageFix"/>
<feColorMatrix in="SourceAlpha" type="matrix" values="0 0 0 0 0 0 0 0 0 0 0 0 0 0 0 0 0 0 127 0" result="hardAlpha"/>
<feOffset dy="4"/>
<feComposite in2="hardAlpha" operator="out"/>
<feColorMatrix type="matrix" values="0 0 0 0 0 0 0 0 0 0 0 0 0 0 0 0 0 0 0.25 0"/>
<feBlend mode="normal" in2="BackgroundImageFix" result="effect1_dropShadow_655_4"/>
<feBlend mode="normal" in="SourceGraphic" in2="effect1_dropShadow_655_4" result="shape"/>
</filter>
<filter id="filter3_d_655_4" x="379" y="123" width="27" height="33" filterUnits="userSpaceOnUse" color-interpolation-filters="sRGB">
<feFlood flood-opacity="0" result="BackgroundImageFix"/>
<feColorMatrix in="SourceAlpha" type="matrix" values="0 0 0 0 0 0 0 0 0 0 0 0 0 0 0 0 0 0 127 0" result="hardAlpha"/>
<feOffset dy="4"/>
<feComposite in2="hardAlpha" operator="out"/>
<feColorMatrix type="matrix" values="0 0 0 0 0 0 0 0 0 0 0 0 0 0 0 0 0 0 0.25 0"/>
<feBlend mode="normal" in2="BackgroundImageFix" result="effect1_dropShadow_655_4"/>
<feBlend mode="normal" in="SourceGraphic" in2="effect1_dropShadow_655_4" result="shape"/>
</filter>
<linearGradient id="paint0_linear_655_4" x1="813" y1="31" x2="813" y2="69" gradientUnits="userSpaceOnUse">
<stop stop-color="white"/>
<stop offset="0.769231" stop-color="#FFD398"/>
</linearGradient>
<linearGradient id="paint1_linear_655_4" x1="67" y1="384" x2="67" y2="422" gradientUnits="userSpaceOnUse">
<stop stop-color="white"/>
<stop offset="0.769231" stop-color="#FFD398"/>
</linearGradient>
<linearGradient id="paint2_linear_655_4" x1="446" y1="306" x2="446" y2="199" gradientUnits="userSpaceOnUse">
<stop offset="0.552885" stop-color="#FCA129"/>
<stop offset="1" stop-color="#FFF0D2"/>
</linearGradient>
<linearGradient id="paint3_linear_655_4" x1="437" y1="110" x2="437" y2="148" gradientUnits="userSpaceOnUse">
<stop stop-color="white"/>
<stop offset="0.769231" stop-color="#FFD398"/>
</linearGradient>
</defs>
</svg>
