<svg width="1167" height="675" viewBox="0 0 1167 675" fill="none" xmlns="http://www.w3.org/2000/svg">
<path d="M107.911 191.765C643.332 55.1652 251.391 7.4486 672.518 232.985L665.224 302.974C224.329 67.682 615.763 111.434 100.617 261.754L107.911 191.765Z" fill="#EF2427"/>
<path d="M1141.35 285.317C646.009 194.655 993.368 489.464 582.309 257.016L600.659 192.54C1020.91 429.029 675.716 145.324 1166.27 219.508L1141.35 285.317Z" fill="#EF2427"/>
<rect x="285.105" y="314.161" width="629.024" height="358.57" transform="rotate(-0.128484 285.105 314.161)" fill="#FFC77E" stroke="#C6822A" stroke-width="3"/>
<path d="M596.331 4.63164C597.697 3.27187 599.905 3.27232 601.271 4.63249L906.012 308.279C908.223 310.482 906.663 314.259 903.541 314.258L293.953 314.153C290.832 314.152 289.273 310.375 291.485 308.173L596.331 4.63164Z" fill="#EAA953" stroke="#C6822A" stroke-width="3"/>
<path d="M694.397 455.91C658.411 471.381 622.965 481.411 592.257 480.848C561.53 480.284 526.788 469.682 491.882 453.999C456.996 438.326 422.055 417.627 390.956 396.981C359.862 376.337 332.636 355.762 313.183 340.346C303.457 332.639 295.675 326.222 290.327 321.735C288.193 319.943 286.448 318.458 285.119 317.322L910.744 317.322C909.328 318.495 907.456 320.04 905.16 321.906C899.497 326.51 891.266 333.086 881 340.972C860.468 356.744 831.805 377.748 799.273 398.677C766.736 419.609 730.358 440.45 694.397 455.91Z" fill="#EAA953" stroke="#C6822A" stroke-width="3"/>
<path d="M944.554 575.347C1052.39 70.3497 1169.71 678.021 1123.62 233.479L1164.85 224.303C1172.26 729.954 995.513 185.267 996.675 623.907L944.554 575.347Z" fill="#A43D3D"/>
<path d="M259.891 405.523C-31.4289 241.012 45.2026 481.041 106.686 191.78L158.447 176.252C94.8026 478.691 26.5436 225.845 323.322 375.055L259.891 405.523Z" fill="#A43D3D"/>
<g filter="url(#filter0_dd_1197_5)">
<circle cx="892.86" cy="107.067" r="50.8838" fill="#DD5252"/>
<circle cx="892.86" cy="107.067" r="49.3838" stroke="#B90E29" stroke-width="3"/>
</g>
<g filter="url(#filter1_d_1197_5)">
<mask id="path-10-outside-1_1197_5" maskUnits="userSpaceOnUse" x="857.124" y="85.4395" width="66.1074" height="49.9716" fill="black">
<rect fill="white" x="857.124" y="85.4395" width="66.1074" height="49.9716"/>
<path d="M869.021 127.277L870.699 122.141C871.745 122.635 872.729 123.011 873.65 123.268C874.58 123.509 875.47 123.64 876.32 123.66C877.166 123.667 878.007 123.569 878.841 123.364C879.828 123.123 880.647 122.774 881.3 122.32C881.953 121.865 882.412 121.33 882.677 120.716C882.955 120.098 883.01 119.448 882.843 118.765C882.647 117.968 882.23 117.36 881.591 116.94C880.952 116.52 880.172 116.208 879.251 116.005C878.339 115.786 877.363 115.602 876.321 115.455C875.305 115.302 874.275 115.119 873.231 114.905C872.196 114.676 871.211 114.347 870.275 113.92C869.352 113.489 868.541 112.89 867.844 112.122C867.156 111.339 866.656 110.308 866.343 109.031C865.934 107.362 865.998 105.818 866.536 104.399C867.086 102.978 868.014 101.758 869.32 100.741C870.626 99.7244 872.221 98.9852 874.106 98.5238C875.433 98.1986 876.855 98.0381 878.371 98.0422C879.9 98.0433 881.467 98.2292 883.072 98.6002L881.934 103.886C880.903 103.562 879.83 103.369 878.715 103.307C877.601 103.245 876.588 103.325 875.678 103.548C874.856 103.749 874.166 104.052 873.608 104.457C873.063 104.859 872.675 105.329 872.445 105.868C872.212 106.394 872.17 106.961 872.319 107.568C872.495 108.289 872.895 108.854 873.518 109.265C874.139 109.662 874.89 109.968 875.774 110.18C876.669 110.39 877.622 110.586 878.632 110.767C879.667 110.943 880.718 111.155 881.784 111.403C882.863 111.648 883.875 112.004 884.82 112.469C885.775 112.919 886.604 113.541 887.307 114.333C888.02 115.111 888.532 116.132 888.842 117.396C889.25 119.066 889.167 120.641 888.591 122.123C888.013 123.592 887.02 124.874 885.612 125.969C884.202 127.052 882.447 127.85 880.347 128.364C878.425 128.835 876.509 128.976 874.599 128.787C872.689 128.597 870.83 128.094 869.021 127.277ZM900.279 122.88L894.436 124.311L887.467 95.8549L893.31 94.424L896.223 106.319L908.535 103.304L905.622 91.409L911.465 89.9782L918.434 118.434L912.591 119.865L909.785 108.407L897.473 111.422L900.279 122.88Z"/>
</mask>
<path d="M869.021 127.277L870.699 122.141C871.745 122.635 872.729 123.011 873.65 123.268C874.58 123.509 875.47 123.64 876.32 123.66C877.166 123.667 878.007 123.569 878.841 123.364C879.828 123.123 880.647 122.774 881.3 122.32C881.953 121.865 882.412 121.33 882.677 120.716C882.955 120.098 883.01 119.448 882.843 118.765C882.647 117.968 882.23 117.36 881.591 116.94C880.952 116.52 880.172 116.208 879.251 116.005C878.339 115.786 877.363 115.602 876.321 115.455C875.305 115.302 874.275 115.119 873.231 114.905C872.196 114.676 871.211 114.347 870.275 113.92C869.352 113.489 868.541 112.89 867.844 112.122C867.156 111.339 866.656 110.308 866.343 109.031C865.934 107.362 865.998 105.818 866.536 104.399C867.086 102.978 868.014 101.758 869.32 100.741C870.626 99.7244 872.221 98.9852 874.106 98.5238C875.433 98.1986 876.855 98.0381 878.371 98.0422C879.9 98.0433 881.467 98.2292 883.072 98.6002L881.934 103.886C880.903 103.562 879.83 103.369 878.715 103.307C877.601 103.245 876.588 103.325 875.678 103.548C874.856 103.749 874.166 104.052 873.608 104.457C873.063 104.859 872.675 105.329 872.445 105.868C872.212 106.394 872.17 106.961 872.319 107.568C872.495 108.289 872.895 108.854 873.518 109.265C874.139 109.662 874.89 109.968 875.774 110.18C876.669 110.39 877.622 110.586 878.632 110.767C879.667 110.943 880.718 111.155 881.784 111.403C882.863 111.648 883.875 112.004 884.82 112.469C885.775 112.919 886.604 113.541 887.307 114.333C888.02 115.111 888.532 116.132 888.842 117.396C889.25 119.066 889.167 120.641 888.591 122.123C888.013 123.592 887.02 124.874 885.612 125.969C884.202 127.052 882.447 127.85 880.347 128.364C878.425 128.835 876.509 128.976 874.599 128.787C872.689 128.597 870.83 128.094 869.021 127.277ZM900.279 122.88L894.436 124.311L887.467 95.8549L893.31 94.424L896.223 106.319L908.535 103.304L905.622 91.409L911.465 89.9782L918.434 118.434L912.591 119.865L909.785 108.407L897.473 111.422L900.279 122.88Z" fill="#DD5252"/>
<path d="M869.021 127.277L866.17 126.345L865.334 128.903L867.786 130.011L869.021 127.277ZM870.699 122.141L871.982 119.428L868.905 117.974L867.848 121.209L870.699 122.141ZM873.65 123.268L872.843 126.158L872.87 126.165L872.897 126.172L873.65 123.268ZM876.32 123.66L876.25 126.659L876.272 126.66L876.294 126.66L876.32 123.66ZM881.3 122.32L883.015 124.781L881.3 122.32ZM882.677 120.716L879.941 119.485L879.931 119.506L879.922 119.527L882.677 120.716ZM881.591 116.94L883.239 114.433L881.591 116.94ZM879.251 116.005L878.55 118.922L878.577 118.928L878.604 118.934L879.251 116.005ZM876.321 115.455L875.874 118.422L875.888 118.424L875.902 118.426L876.321 115.455ZM873.231 114.905L872.582 117.834L872.606 117.839L872.63 117.844L873.231 114.905ZM870.275 113.92L869.006 116.638L869.017 116.643L869.028 116.648L870.275 113.92ZM867.844 112.122L865.59 114.102L865.606 114.121L865.623 114.139L867.844 112.122ZM866.536 104.399L863.738 103.317L863.734 103.326L863.73 103.336L866.536 104.399ZM878.371 98.0422L878.363 101.042L878.369 101.042L878.371 98.0422ZM883.072 98.6002L886.005 99.2319L886.628 96.3424L883.748 95.6771L883.072 98.6002ZM881.934 103.886L881.035 106.748L884.174 107.734L884.866 104.518L881.934 103.886ZM873.608 104.457L871.846 102.029L871.837 102.035L871.829 102.042L873.608 104.457ZM872.445 105.868L875.188 107.083L875.197 107.064L875.205 107.045L872.445 105.868ZM873.518 109.265L871.869 111.77L871.884 111.78L871.899 111.79L873.518 109.265ZM875.774 110.18L875.071 113.097L875.081 113.099L875.09 113.101L875.774 110.18ZM878.632 110.767L878.101 113.72L878.115 113.722L878.13 113.725L878.632 110.767ZM881.784 111.403L881.103 114.325L881.111 114.327L881.119 114.328L881.784 111.403ZM884.82 112.469L883.494 115.16L883.517 115.172L883.541 115.183L884.82 112.469ZM887.307 114.333L885.063 116.325L885.08 116.343L885.097 116.362L887.307 114.333ZM888.591 122.123L891.383 123.222L891.385 123.216L891.388 123.209L888.591 122.123ZM885.612 125.969L887.439 128.349L887.447 128.343L887.455 128.337L885.612 125.969ZM869.021 127.277L871.873 128.209L873.551 123.072L870.699 122.141L867.848 121.209L866.17 126.345L869.021 127.277ZM870.699 122.141L869.417 124.853C870.586 125.405 871.729 125.847 872.843 126.158L873.65 123.268L874.457 120.379C873.729 120.175 872.905 119.865 871.982 119.428L870.699 122.141ZM873.65 123.268L872.897 126.172C874.022 126.464 875.142 126.633 876.25 126.659L876.32 123.66L876.39 120.661C875.799 120.647 875.139 120.555 874.403 120.364L873.65 123.268ZM876.32 123.66L876.294 126.66C877.393 126.669 878.482 126.541 879.555 126.278L878.841 123.364L878.128 120.45C877.531 120.596 876.939 120.665 876.345 120.66L876.32 123.66ZM878.841 123.364L879.555 126.278C880.805 125.972 881.988 125.497 883.015 124.781L881.3 122.32L879.585 119.858C879.306 120.052 878.85 120.273 878.128 120.45L878.841 123.364ZM881.3 122.32L883.015 124.781C884.039 124.068 884.906 123.121 885.432 121.904L882.677 120.716L879.922 119.527C879.917 119.539 879.867 119.662 879.585 119.858L881.3 122.32ZM882.677 120.716L885.413 121.946C885.976 120.694 886.076 119.357 885.756 118.051L882.843 118.765L879.929 119.478C879.935 119.505 879.937 119.519 879.937 119.522C879.937 119.524 879.937 119.523 879.937 119.521C879.937 119.519 879.937 119.515 879.937 119.511C879.938 119.506 879.938 119.501 879.939 119.497C879.94 119.492 879.941 119.488 879.942 119.484C879.944 119.477 879.944 119.477 879.941 119.485L882.677 120.716ZM882.843 118.765L885.756 118.051C885.395 116.577 884.56 115.301 883.239 114.433L881.591 116.94L879.944 119.447C879.95 119.451 879.946 119.449 879.936 119.439C879.932 119.435 879.927 119.43 879.922 119.424C879.917 119.418 879.913 119.412 879.909 119.407C879.902 119.397 879.901 119.393 879.904 119.401C879.908 119.409 879.918 119.434 879.929 119.478L882.843 118.765ZM881.591 116.94L883.239 114.433C882.233 113.771 881.095 113.34 879.898 113.075L879.251 116.005L878.604 118.934C879.249 119.077 879.672 119.268 879.944 119.447L881.591 116.94ZM879.251 116.005L879.952 113.088C878.937 112.844 877.866 112.644 876.741 112.485L876.321 115.455L875.902 118.426C876.86 118.561 877.741 118.727 878.55 118.922L879.251 116.005ZM876.321 115.455L876.769 112.489C875.806 112.344 874.827 112.169 873.832 111.966L873.231 114.905L872.63 117.844C873.723 118.068 874.804 118.26 875.874 118.422L876.321 115.455ZM873.231 114.905L873.88 111.976C873.044 111.791 872.26 111.529 871.522 111.191L870.275 113.92L869.028 116.648C870.161 117.166 871.347 117.561 872.582 117.834L873.231 114.905ZM870.275 113.92L871.543 111.201C870.987 110.942 870.499 110.583 870.064 110.105L867.844 112.122L865.623 114.139C866.584 115.196 867.716 116.036 869.006 116.638L870.275 113.92ZM867.844 112.122L870.098 110.143C869.801 109.805 869.484 109.246 869.257 108.318L866.343 109.031L863.429 109.745C863.827 111.371 864.511 112.873 865.59 114.102L867.844 112.122ZM866.343 109.031L869.257 108.318C868.972 107.156 869.047 106.239 869.341 105.462L866.536 104.399L863.73 103.336C862.95 105.396 862.896 107.567 863.429 109.745L866.343 109.031ZM866.536 104.399L869.334 105.482C869.671 104.61 870.248 103.821 871.163 103.108L869.32 100.741L867.477 98.3743C865.78 99.6953 864.501 101.345 863.738 103.317L866.536 104.399ZM869.32 100.741L871.163 103.108C872.083 102.392 873.276 101.816 874.819 101.438L874.106 98.5238L873.392 95.6099C871.167 96.1548 869.169 97.0566 867.477 98.3743L869.32 100.741ZM874.106 98.5238L874.819 101.438C875.887 101.176 877.064 101.039 878.363 101.042L878.371 98.0422L878.379 95.0422C876.646 95.0375 874.98 95.221 873.392 95.6099L874.106 98.5238ZM878.371 98.0422L878.369 101.042C879.654 101.043 880.995 101.199 882.397 101.523L883.072 98.6002L883.748 95.6771C881.938 95.2592 880.145 95.0434 878.373 95.0422L878.371 98.0422ZM883.072 98.6002L880.14 97.9684L879.001 103.254L881.934 103.886L884.866 104.518L886.005 99.2319L883.072 98.6002ZM881.934 103.886L882.833 101.024C881.557 100.623 880.237 100.387 878.883 100.311L878.715 103.307L878.548 106.302C879.422 106.351 880.249 106.501 881.035 106.748L881.934 103.886ZM878.715 103.307L878.883 100.311C877.527 100.236 876.211 100.329 874.964 100.634L875.678 103.548L876.391 106.462C876.965 106.321 877.675 106.253 878.548 106.302L878.715 103.307ZM875.678 103.548L874.964 100.634C873.848 100.907 872.781 101.35 871.846 102.029L873.608 104.457L875.37 106.885C875.55 106.754 875.863 106.591 876.391 106.462L875.678 103.548ZM873.608 104.457L871.829 102.042C870.92 102.711 870.157 103.586 869.686 104.69L872.445 105.868L875.205 107.045C875.203 107.05 875.205 107.042 875.224 107.019C875.244 106.994 875.292 106.943 875.387 106.872L873.608 104.457ZM872.445 105.868L869.702 104.653C869.177 105.839 869.113 107.089 869.405 108.281L872.319 107.568L875.233 106.854C875.226 106.826 875.235 106.85 875.231 106.91C875.226 106.974 875.209 107.036 875.188 107.083L872.445 105.868ZM872.319 107.568L869.405 108.281C869.763 109.742 870.617 110.946 871.869 111.77L873.518 109.265L875.168 106.759C875.154 106.75 875.154 106.748 875.163 106.757C875.173 106.766 875.186 106.781 875.201 106.801C875.215 106.821 875.225 106.839 875.231 106.853C875.237 106.866 875.236 106.868 875.233 106.854L872.319 107.568ZM873.518 109.265L871.899 111.79C872.858 112.405 873.936 112.823 875.071 113.097L875.774 110.18L876.476 107.264C875.845 107.112 875.42 106.92 875.138 106.739L873.518 109.265ZM875.774 110.18L875.09 113.101C876.042 113.324 877.046 113.53 878.101 113.72L878.632 110.767L879.163 107.815C878.199 107.641 877.297 107.456 876.457 107.259L875.774 110.18ZM878.632 110.767L878.13 113.725C879.103 113.89 880.094 114.09 881.103 114.325L881.784 111.403L882.464 108.481C881.341 108.22 880.231 107.996 879.134 107.809L878.632 110.767ZM881.784 111.403L881.119 114.328C881.981 114.524 882.77 114.803 883.494 115.16L884.82 112.469L886.146 109.778C884.98 109.204 883.745 108.772 882.449 108.478L881.784 111.403ZM884.82 112.469L883.541 115.183C884.127 115.459 884.628 115.834 885.063 116.325L887.307 114.333L889.551 112.342C888.579 111.247 887.422 110.379 886.099 109.755L884.82 112.469ZM887.307 114.333L885.097 116.362C885.397 116.689 885.71 117.222 885.928 118.11L888.842 117.396L891.755 116.683C891.353 115.041 890.643 113.532 889.518 112.305L887.307 114.333ZM888.842 117.396L885.928 118.11C886.203 119.233 886.129 120.176 885.795 121.036L888.591 122.123L891.388 123.209C892.205 121.107 892.298 118.899 891.755 116.683L888.842 117.396ZM888.591 122.123L885.8 121.023C885.443 121.93 884.809 122.792 883.77 123.602L885.612 125.969L887.455 128.337C889.23 126.955 890.582 125.253 891.383 123.222L888.591 122.123ZM885.612 125.969L883.786 123.589C882.768 124.37 881.414 125.014 879.634 125.45L880.347 128.364L881.061 131.278C883.479 130.686 885.635 129.733 887.439 128.349L885.612 125.969ZM880.347 128.364L879.634 125.45C878.031 125.843 876.456 125.956 874.895 125.801L874.599 128.787L874.303 131.772C876.562 131.996 878.819 131.827 881.061 131.278L880.347 128.364ZM874.599 128.787L874.895 125.801C873.321 125.645 871.778 125.231 870.257 124.543L869.021 127.277L867.786 130.011C869.882 130.958 872.058 131.55 874.303 131.772L874.599 128.787ZM900.279 122.88L900.992 125.794L903.906 125.08L903.193 122.167L900.279 122.88ZM894.436 124.311L891.522 125.025L892.236 127.938L895.149 127.225L894.436 124.311ZM887.467 95.8549L886.754 92.941L883.84 93.6546L884.554 96.5685L887.467 95.8549ZM893.31 94.424L896.224 93.7105L895.511 90.7966L892.597 91.5101L893.31 94.424ZM896.223 106.319L893.309 107.032L894.023 109.946L896.937 109.233L896.223 106.319ZM908.535 103.304L909.249 106.218L912.163 105.504L911.449 102.59L908.535 103.304ZM905.622 91.409L904.909 88.4951L901.995 89.2087L902.709 92.1226L905.622 91.409ZM911.465 89.9782L914.379 89.2646L913.666 86.3507L910.752 87.0643L911.465 89.9782ZM918.434 118.434L919.147 121.348L922.061 120.635L921.348 117.721L918.434 118.434ZM912.591 119.865L909.677 120.579L910.391 123.493L913.304 122.779L912.591 119.865ZM909.785 108.407L912.699 107.693L911.985 104.779L909.071 105.493L909.785 108.407ZM897.473 111.422L896.759 108.508L893.845 109.221L894.559 112.135L897.473 111.422ZM900.279 122.88L899.565 119.966L893.722 121.397L894.436 124.311L895.149 127.225L900.992 125.794L900.279 122.88ZM894.436 124.311L897.35 123.597L890.381 95.1413L887.467 95.8549L884.554 96.5685L891.522 125.025L894.436 124.311ZM887.467 95.8549L888.181 98.7688L894.024 97.3379L893.31 94.424L892.597 91.5101L886.754 92.941L887.467 95.8549ZM893.31 94.424L890.397 95.1376L893.309 107.032L896.223 106.319L899.137 105.605L896.224 93.7105L893.31 94.424ZM896.223 106.319L896.937 109.233L909.249 106.218L908.535 103.304L907.822 100.39L895.51 103.405L896.223 106.319ZM908.535 103.304L911.449 102.59L908.536 90.6954L905.622 91.409L902.709 92.1226L905.621 104.017L908.535 103.304ZM905.622 91.409L906.336 94.3229L912.179 92.8921L911.465 89.9782L910.752 87.0643L904.909 88.4951L905.622 91.409ZM911.465 89.9782L908.552 90.6917L915.52 119.148L918.434 118.434L921.348 117.721L914.379 89.2646L911.465 89.9782ZM918.434 118.434L917.72 115.52L911.877 116.951L912.591 119.865L913.304 122.779L919.147 121.348L918.434 118.434ZM912.591 119.865L915.505 119.152L912.699 107.693L909.785 108.407L906.871 109.12L909.677 120.579L912.591 119.865ZM909.785 108.407L909.071 105.493L896.759 108.508L897.473 111.422L898.186 114.336L910.498 111.321L909.785 108.407ZM897.473 111.422L894.559 112.135L897.365 123.594L900.279 122.88L903.193 122.167L900.387 110.708L897.473 111.422Z" fill="#7A1E1E" mask="url(#path-10-outside-1_1197_5)"/>
</g>
<defs>
<filter id="filter0_dd_1197_5" x="837.976" y="56.1832" width="109.768" height="109.768" filterUnits="userSpaceOnUse" color-interpolation-filters="sRGB">
<feFlood flood-opacity="0" result="BackgroundImageFix"/>
<feColorMatrix in="SourceAlpha" type="matrix" values="0 0 0 0 0 0 0 0 0 0 0 0 0 0 0 0 0 0 127 0" result="hardAlpha"/>
<feOffset dy="5"/>
<feGaussianBlur stdDeviation="1"/>
<feComposite in2="hardAlpha" operator="out"/>
<feColorMatrix type="matrix" values="0 0 0 0 0 0 0 0 0 0 0 0 0 0 0 0 0 0 0.25 0"/>
<feBlend mode="normal" in2="BackgroundImageFix" result="effect1_dropShadow_1197_5"/>
<feColorMatrix in="SourceAlpha" type="matrix" values="0 0 0 0 0 0 0 0 0 0 0 0 0 0 0 0 0 0 127 0" result="hardAlpha"/>
<feOffset dy="4"/>
<feGaussianBlur stdDeviation="2"/>
<feComposite in2="hardAlpha" operator="out"/>
<feColorMatrix type="matrix" values="0 0 0 0 0 0 0 0 0 0 0 0 0 0 0 0 0 0 0.25 0"/>
<feBlend mode="normal" in2="effect1_dropShadow_1197_5" result="effect2_dropShadow_1197_5"/>
<feBlend mode="normal" in="SourceGraphic" in2="effect2_dropShadow_1197_5" result="shape"/>
</filter>
<filter id="filter1_d_1197_5" x="863.078" y="86.3507" width="58.9834" height="49.5173" filterUnits="userSpaceOnUse" color-interpolation-filters="sRGB">
<feFlood flood-opacity="0" result="BackgroundImageFix"/>
<feColorMatrix in="SourceAlpha" type="matrix" values="0 0 0 0 0 0 0 0 0 0 0 0 0 0 0 0 0 0 127 0" result="hardAlpha"/>
<feOffset dy="4"/>
<feComposite in2="hardAlpha" operator="out"/>
<feColorMatrix type="matrix" values="0 0 0 0 0.254395 0 0 0 0 0.0423051 0 0 0 0 0.0423051 0 0 0 0.25 0"/>
<feBlend mode="normal" in2="BackgroundImageFix" result="effect1_dropShadow_1197_5"/>
<feBlend mode="normal" in="SourceGraphic" in2="effect1_dropShadow_1197_5" result="shape"/>
</filter>
</defs>
</svg>
