<svg width="769" height="399" viewBox="0 0 769 399" fill="none" xmlns="http://www.w3.org/2000/svg">
<path d="M63.7558 113.299C380.094 32.5926 148.527 4.40056 397.338 137.652L393.028 179.003C132.538 39.9877 363.805 65.8376 59.446 154.65L63.7558 113.299Z" fill="#EF2427"/>
<path d="M684.797 168.371C389.772 129.924 597.548 293.004 347.945 168.337L356.814 129.736C611.963 256.509 399.666 99.5975 691.365 128.468L684.797 168.371Z" fill="#EF2427"/>
<rect x="169.062" y="186.225" width="370.414" height="210.623" transform="rotate(-0.128484 169.062 186.225)" fill="#EAA953" stroke="#C6822A" stroke-width="3"/>
<path d="M351.315 4.60917C352.681 3.24943 354.889 3.2498 356.255 4.61002L531.35 179.077C533.561 181.28 532.001 185.056 528.88 185.056L178.628 184.995C175.506 184.994 173.947 181.218 176.159 179.015L351.315 4.60917Z" fill="#EAA953" stroke="#C6822A" stroke-width="3"/>
<path d="M639.704 366.823C597.657 64.6446 785.449 378.392 670.135 140.849L691.176 127.433C797.349 406.714 589.268 139.936 678.447 383.268L639.704 366.823Z" fill="#A43D3D"/>
<path d="M153.549 239.592C-18.5691 142.395 26.7065 284.209 63.0322 113.308L93.6137 104.133C56.0112 282.821 15.6823 133.434 191.025 221.591L153.549 239.592Z" fill="#A43D3D"/>
<g filter="url(#filter0_dd_1067_43)">
<circle cx="527.521" cy="63.2575" r="30.0632" fill="#DD5252"/>
<circle cx="527.521" cy="63.2575" r="28.5632" stroke="#B90E29" stroke-width="3"/>
</g>
<g filter="url(#filter1_d_1067_43)">
<mask id="path-9-outside-1_1067_43" maskUnits="userSpaceOnUse" x="506.916" y="48.5981" width="37.2858" height="29.2179" fill="black">
<rect fill="white" x="506.916" y="48.5981" width="37.2858" height="29.2179"/>
<path d="M514.913 71.3922L515.752 68.824C516.275 69.0713 516.766 69.2592 517.227 69.3878C517.692 69.5084 518.137 69.5737 518.562 69.5837C518.985 69.5873 519.405 69.538 519.822 69.4358C520.316 69.315 520.726 69.1409 521.052 68.9135C521.378 68.6862 521.608 68.4188 521.74 68.1116C521.879 67.8027 521.907 67.4776 521.823 67.1361C521.726 66.7377 521.517 66.4336 521.198 66.2236C520.878 66.0136 520.488 65.8578 520.027 65.7561C519.572 65.6465 519.083 65.5549 518.563 65.4814C518.054 65.4047 517.539 65.313 517.017 65.2063C516.5 65.0917 516.007 64.9274 515.539 64.7136C515.078 64.4982 514.672 64.1986 514.324 63.8148C513.98 63.4231 513.73 62.9079 513.573 62.2693C513.369 61.4346 513.401 60.6626 513.67 59.9533C513.945 59.2425 514.409 58.6328 515.062 58.1244C515.715 57.6159 516.512 57.2463 517.455 57.0156C518.119 56.853 518.83 56.7727 519.587 56.7748C520.352 56.7753 521.135 56.8683 521.938 57.0538L521.369 59.6967C520.853 59.5347 520.317 59.4382 519.76 59.4071C519.202 59.376 518.696 59.4162 518.241 59.5277C517.83 59.6283 517.485 59.7798 517.206 59.9822C516.933 60.183 516.739 60.4181 516.624 60.6876C516.508 60.9507 516.487 61.234 516.561 61.5376C516.649 61.898 516.849 62.1808 517.161 62.386C517.471 62.5849 517.847 62.7375 518.289 62.8439C518.737 62.9487 519.213 63.0465 519.718 63.1373C520.235 63.2251 520.761 63.3311 521.294 63.4552C521.833 63.5778 522.339 63.7555 522.812 63.9884C523.289 64.2133 523.704 64.524 524.056 64.9204C524.412 65.309 524.668 65.8195 524.823 66.4519C525.027 67.2866 524.985 68.0743 524.698 68.8151C524.408 69.5495 523.912 70.1905 523.208 70.7382C522.503 71.2796 521.625 71.6788 520.575 71.9359C519.614 72.1712 518.656 72.2416 517.701 72.147C516.747 72.0524 515.817 71.8008 514.913 71.3922ZM530.541 69.1938L527.62 69.9092L524.136 55.6812L527.057 54.9657L528.513 60.9131L534.669 59.4055L533.213 53.4582L536.135 52.7428L539.619 66.9708L536.697 67.6863L535.294 61.9571L529.138 63.4646L530.541 69.1938Z"/>
</mask>
<path d="M514.913 71.3922L515.752 68.824C516.275 69.0713 516.766 69.2592 517.227 69.3878C517.692 69.5084 518.137 69.5737 518.562 69.5837C518.985 69.5873 519.405 69.538 519.822 69.4358C520.316 69.315 520.726 69.1409 521.052 68.9135C521.378 68.6862 521.608 68.4188 521.74 68.1116C521.879 67.8027 521.907 67.4776 521.823 67.1361C521.726 66.7377 521.517 66.4336 521.198 66.2236C520.878 66.0136 520.488 65.8578 520.027 65.7561C519.572 65.6465 519.083 65.5549 518.563 65.4814C518.054 65.4047 517.539 65.313 517.017 65.2063C516.5 65.0917 516.007 64.9274 515.539 64.7136C515.078 64.4982 514.672 64.1986 514.324 63.8148C513.98 63.4231 513.73 62.9079 513.573 62.2693C513.369 61.4346 513.401 60.6626 513.67 59.9533C513.945 59.2425 514.409 58.6328 515.062 58.1244C515.715 57.6159 516.512 57.2463 517.455 57.0156C518.119 56.853 518.83 56.7727 519.587 56.7748C520.352 56.7753 521.135 56.8683 521.938 57.0538L521.369 59.6967C520.853 59.5347 520.317 59.4382 519.76 59.4071C519.202 59.376 518.696 59.4162 518.241 59.5277C517.83 59.6283 517.485 59.7798 517.206 59.9822C516.933 60.183 516.739 60.4181 516.624 60.6876C516.508 60.9507 516.487 61.234 516.561 61.5376C516.649 61.898 516.849 62.1808 517.161 62.386C517.471 62.5849 517.847 62.7375 518.289 62.8439C518.737 62.9487 519.213 63.0465 519.718 63.1373C520.235 63.2251 520.761 63.3311 521.294 63.4552C521.833 63.5778 522.339 63.7555 522.812 63.9884C523.289 64.2133 523.704 64.524 524.056 64.9204C524.412 65.309 524.668 65.8195 524.823 66.4519C525.027 67.2866 524.985 68.0743 524.698 68.8151C524.408 69.5495 523.912 70.1905 523.208 70.7382C522.503 71.2796 521.625 71.6788 520.575 71.9359C519.614 72.1712 518.656 72.2416 517.701 72.147C516.747 72.0524 515.817 71.8008 514.913 71.3922ZM530.541 69.1938L527.62 69.9092L524.136 55.6812L527.057 54.9657L528.513 60.9131L534.669 59.4055L533.213 53.4582L536.135 52.7428L539.619 66.9708L536.697 67.6863L535.294 61.9571L529.138 63.4646L530.541 69.1938Z" fill="#DD5252"/>
<path d="M514.913 71.3922L512.061 70.4606L511.225 73.0183L513.677 74.1262L514.913 71.3922ZM515.752 68.824L517.034 66.1118L513.957 64.6572L512.9 67.8924L515.752 68.824ZM517.227 69.3878L516.42 72.2773L516.447 72.2847L516.474 72.2917L517.227 69.3878ZM518.562 69.5837L518.491 72.5829L518.514 72.5834L518.536 72.5836L518.562 69.5837ZM521.052 68.9135L522.767 71.375L521.052 68.9135ZM521.74 68.1116L519.004 66.8812L518.995 66.9022L518.986 66.9233L521.74 68.1116ZM521.198 66.2236L522.845 63.7164L521.198 66.2236ZM520.027 65.7561L519.326 68.673L519.353 68.6795L519.381 68.6855L520.027 65.7561ZM518.563 65.4814L518.115 68.4478L518.129 68.4499L518.143 68.4519L518.563 65.4814ZM517.017 65.2063L516.368 68.1353L516.392 68.1406L516.416 68.1455L517.017 65.2063ZM515.539 64.7136L514.271 67.4322L514.281 67.4372L514.292 67.4422L515.539 64.7136ZM514.324 63.8148L512.069 65.7942L512.086 65.8133L512.103 65.8321L514.324 63.8148ZM513.67 59.9533L510.872 58.8708L510.868 58.8806L510.864 58.8905L513.67 59.9533ZM519.587 56.7748L519.579 59.7748L519.585 59.7748L519.587 56.7748ZM521.938 57.0538L524.871 57.6856L525.493 54.7961L522.613 54.1308L521.938 57.0538ZM521.369 59.6967L520.47 62.5588L523.609 63.5449L524.301 60.3285L521.369 59.6967ZM517.206 59.9822L515.444 57.554L515.435 57.5604L515.426 57.5669L517.206 59.9822ZM516.624 60.6876L519.368 61.9024L519.376 61.8838L519.384 61.8651L516.624 60.6876ZM517.161 62.386L515.511 64.8917L515.526 64.9016L515.542 64.9114L517.161 62.386ZM518.289 62.8439L517.586 65.7605L517.596 65.7628L517.605 65.765L518.289 62.8439ZM519.718 63.1373L519.186 66.0899L519.201 66.0926L519.216 66.0951L519.718 63.1373ZM521.294 63.4552L520.613 66.377L520.621 66.3788L520.629 66.3806L521.294 63.4552ZM522.812 63.9884L521.486 66.6795L521.509 66.691L521.533 66.7021L522.812 63.9884ZM524.056 64.9204L521.812 66.9116L521.828 66.9303L521.845 66.9488L524.056 64.9204ZM524.698 68.8151L527.489 69.9147L527.491 69.9081L527.494 69.9015L524.698 68.8151ZM523.208 70.7382L525.035 73.118L525.043 73.1119L525.05 73.1057L523.208 70.7382ZM514.913 71.3922L517.764 72.3238L518.603 69.7557L515.752 68.824L512.9 67.8924L512.061 70.4606L514.913 71.3922ZM515.752 68.824L514.469 71.5362C515.115 71.8414 515.767 72.0949 516.42 72.2773L517.227 69.3878L518.033 66.4982C517.766 66.4236 517.434 66.3012 517.034 66.1118L515.752 68.824ZM517.227 69.3878L516.474 72.2917C517.133 72.4628 517.808 72.5669 518.491 72.5829L518.562 69.5837L518.632 66.5845C518.466 66.5806 518.251 66.554 517.98 66.4838L517.227 69.3878ZM518.562 69.5837L518.536 72.5836C519.212 72.5893 519.881 72.5102 520.536 72.3497L519.822 69.4358L519.109 66.5219C518.93 66.5658 518.758 66.5852 518.587 66.5838L518.562 69.5837ZM519.822 69.4358L520.536 72.3497C521.293 72.1643 522.066 71.863 522.767 71.375L521.052 68.9135L519.337 66.452C519.385 66.4188 519.338 66.4657 519.109 66.5219L519.822 69.4358ZM521.052 68.9135L522.767 71.375C523.464 70.8892 524.102 70.2097 524.495 69.2998L521.74 68.1116L518.986 66.9233C519.113 66.6279 519.292 66.4831 519.337 66.452L521.052 68.9135ZM521.74 68.1116L524.476 69.3419C524.901 68.3983 524.973 67.3869 524.737 66.4225L521.823 67.1361L518.909 67.8497C518.88 67.7286 518.86 67.5682 518.876 67.3821C518.892 67.1947 518.94 67.0239 519.004 66.8812L521.74 68.1116ZM521.823 67.1361L524.737 66.4225C524.474 65.3464 523.847 64.3748 522.845 63.7164L521.198 66.2236L519.55 68.7307C519.396 68.6297 519.243 68.4867 519.119 68.3056C518.997 68.1276 518.937 67.9627 518.909 67.8497L521.823 67.1361ZM521.198 66.2236L522.845 63.7164C522.158 63.2652 521.411 62.9893 520.674 62.8266L520.027 65.7561L519.381 68.6855C519.565 68.7263 519.598 68.762 519.55 68.7307L521.198 66.2236ZM520.027 65.7561L520.729 62.8392C520.169 62.7048 519.586 62.5962 518.982 62.5109L518.563 65.4814L518.143 68.4519C518.58 68.5136 518.974 68.5882 519.326 68.673L520.027 65.7561ZM518.563 65.4814L519.01 62.5149C518.555 62.4463 518.091 62.3638 517.618 62.2671L517.017 65.2063L516.416 68.1455C516.987 68.2622 517.554 68.3631 518.115 68.4478L518.563 65.4814ZM517.017 65.2063L517.666 62.2773C517.348 62.2069 517.057 62.1086 516.786 61.985L515.539 64.7136L514.292 67.4422C514.958 67.7463 515.651 67.9764 516.368 68.1353L517.017 65.2063ZM515.539 64.7136L516.808 61.995C516.713 61.951 516.63 61.8921 516.544 61.7975L514.324 63.8148L512.103 65.8321C512.715 66.5051 513.442 67.0454 514.271 67.4322L515.539 64.7136ZM514.324 63.8148L516.578 61.8354C516.625 61.889 516.558 61.8453 516.487 61.5557L513.573 62.2693L510.659 62.9828C510.901 63.9706 511.335 64.9573 512.069 65.7942L514.324 63.8148ZM513.573 62.2693L516.487 61.5557C516.407 61.2292 516.449 61.0843 516.475 61.0161L513.67 59.9533L510.864 58.8905C510.353 60.2408 510.331 61.6399 510.659 62.9828L513.573 62.2693ZM513.67 59.9533L516.468 61.0358C516.53 60.8749 516.642 60.6958 516.905 60.4915L515.062 58.1244L513.219 55.7573C512.175 56.5699 511.36 57.61 510.872 58.8708L513.67 59.9533ZM515.062 58.1244L516.905 60.4915C517.172 60.2838 517.567 60.0768 518.168 59.9295L517.455 57.0156L516.741 54.1017C515.458 54.4159 514.258 54.9481 513.219 55.7573L515.062 58.1244ZM517.455 57.0156L518.168 59.9295C518.572 59.8306 519.038 59.7733 519.579 59.7748L519.587 56.7748L519.596 53.7748C518.621 53.7722 517.665 53.8754 516.741 54.1017L517.455 57.0156ZM519.587 56.7748L519.585 59.7748C520.106 59.7752 520.664 59.8384 521.263 59.9768L521.938 57.0538L522.613 54.1308C521.607 53.8983 520.597 53.7755 519.59 53.7748L519.587 56.7748ZM521.938 57.0538L519.005 56.422L518.436 59.0649L521.369 59.6967L524.301 60.3285L524.871 57.6856L521.938 57.0538ZM521.369 59.6967L522.268 56.8346C521.507 56.5956 520.724 56.4563 519.927 56.4118L519.76 59.4071L519.592 62.4024C519.909 62.4201 520.199 62.4739 520.47 62.5588L521.369 59.6967ZM519.76 59.4071L519.927 56.4118C519.128 56.3672 518.319 56.4198 517.527 56.6138L518.241 59.5277L518.954 62.4416C519.073 62.4125 519.276 62.3848 519.592 62.4024L519.76 59.4071ZM518.241 59.5277L517.527 56.6138C516.822 56.7864 516.1 57.0777 515.444 57.554L517.206 59.9822L518.968 62.4104C518.919 62.446 518.886 62.4612 518.88 62.4636C518.875 62.4656 518.897 62.4555 518.954 62.4416L518.241 59.5277ZM517.206 59.9822L515.426 57.5669C514.791 58.0353 514.221 58.6756 513.865 59.5101L516.624 60.6876L519.384 61.8651C519.258 62.1606 519.076 62.3307 518.985 62.3975L517.206 59.9822ZM516.624 60.6876L513.881 59.4727C513.473 60.3952 513.43 61.3624 513.647 62.2511L516.561 61.5376L519.475 60.824C519.505 60.948 519.528 61.1179 519.513 61.3203C519.498 61.5255 519.446 61.7241 519.368 61.9024L516.624 60.6876ZM516.561 61.5376L513.647 62.2511C513.917 63.3516 514.571 64.2727 515.511 64.8917L517.161 62.386L518.811 59.8804C518.943 59.9675 519.095 60.1011 519.227 60.2881C519.359 60.4754 519.436 60.665 519.475 60.824L516.561 61.5376ZM517.161 62.386L515.542 64.9114C516.19 65.3274 516.892 65.5934 517.586 65.7605L518.289 62.8439L518.991 59.9272C518.802 59.8817 518.752 59.8424 518.781 59.8607L517.161 62.386ZM518.289 62.8439L517.605 65.765C518.109 65.8828 518.636 65.9909 519.186 66.0899L519.718 63.1373L520.249 60.1848C519.79 60.1021 519.364 60.0145 518.972 59.9227L518.289 62.8439ZM519.718 63.1373L519.216 66.0951C519.671 66.1723 520.137 66.2661 520.613 66.377L521.294 63.4552L521.974 60.5334C521.384 60.396 520.799 60.2779 520.219 60.1796L519.718 63.1373ZM521.294 63.4552L520.629 66.3806C520.951 66.4538 521.234 66.5554 521.486 66.6795L522.812 63.9884L524.138 61.2972C523.444 60.9557 522.715 60.7018 521.959 60.5298L521.294 63.4552ZM522.812 63.9884L521.533 66.7021C521.641 66.7532 521.728 66.8175 521.812 66.9116L524.056 64.9204L526.299 62.9293C525.679 62.2305 524.937 61.6734 524.091 61.2746L522.812 63.9884ZM524.056 64.9204L521.845 66.9488C521.789 66.8877 521.846 66.9099 521.909 67.1654L524.823 66.4519L527.737 65.7383C527.489 64.7291 527.035 63.7304 526.266 62.8921L524.056 64.9204ZM524.823 66.4519L521.909 67.1654C521.979 67.4535 521.948 67.6088 521.901 67.7286L524.698 68.8151L527.494 69.9015C528.023 68.5398 528.075 67.1197 527.737 65.7383L524.823 66.4519ZM524.698 68.8151L521.906 67.7154C521.839 67.8876 521.701 68.1094 521.365 68.3707L523.208 70.7382L525.05 73.1057C526.122 72.2717 526.978 71.2114 527.489 69.9147L524.698 68.8151ZM523.208 70.7382L521.381 68.3585C521.069 68.5981 520.593 68.843 519.862 69.022L520.575 71.9359L521.289 74.8498C522.658 74.5146 523.936 73.9611 525.035 73.118L523.208 70.7382ZM520.575 71.9359L519.862 69.022C519.22 69.1791 518.603 69.2217 517.997 69.1616L517.701 72.147L517.406 75.1324C518.709 75.2616 520.008 75.1634 521.289 74.8498L520.575 71.9359ZM517.701 72.147L517.997 69.1616C517.378 69.1003 516.765 68.9372 516.148 68.6583L514.913 71.3922L513.677 74.1262C514.869 74.6644 516.115 75.0045 517.406 75.1324L517.701 72.147ZM530.541 69.1938L531.255 72.1077L534.169 71.3941L533.455 68.4802L530.541 69.1938ZM527.62 69.9092L524.706 70.6228L525.419 73.5367L528.333 72.8231L527.62 69.9092ZM524.136 55.6812L523.422 52.7673L520.508 53.4808L521.222 56.3947L524.136 55.6812ZM527.057 54.9657L529.971 54.2522L529.257 51.3383L526.343 52.0518L527.057 54.9657ZM528.513 60.9131L525.6 61.6266L526.313 64.5405L529.227 63.827L528.513 60.9131ZM534.669 59.4055L535.383 62.3194L538.297 61.6059L537.583 58.692L534.669 59.4055ZM533.213 53.4582L532.499 50.5443L529.586 51.2579L530.299 54.1718L533.213 53.4582ZM536.135 52.7428L539.048 52.0292L538.335 49.1153L535.421 49.8289L536.135 52.7428ZM539.619 66.9708L540.332 69.8847L543.246 69.1712L542.533 66.2573L539.619 66.9708ZM536.697 67.6863L533.783 68.3998L534.497 71.3137L537.411 70.6002L536.697 67.6863ZM535.294 61.9571L538.208 61.2435L537.495 58.3296L534.581 59.0432L535.294 61.9571ZM529.138 63.4646L528.425 60.5507L525.511 61.2643L526.224 64.1782L529.138 63.4646ZM530.541 69.1938L529.828 66.2799L526.906 66.9953L527.62 69.9092L528.333 72.8231L531.255 72.1077L530.541 69.1938ZM527.62 69.9092L530.534 69.1956L527.049 54.9676L524.136 55.6812L521.222 56.3947L524.706 70.6228L527.62 69.9092ZM524.136 55.6812L524.849 58.5951L527.771 57.8796L527.057 54.9657L526.343 52.0518L523.422 52.7673L524.136 55.6812ZM527.057 54.9657L524.143 55.6793L525.6 61.6266L528.513 60.9131L531.427 60.1995L529.971 54.2522L527.057 54.9657ZM528.513 60.9131L529.227 63.827L535.383 62.3194L534.669 59.4055L533.956 56.4916L527.8 57.9992L528.513 60.9131ZM534.669 59.4055L537.583 58.692L536.127 52.7447L533.213 53.4582L530.299 54.1718L531.756 60.1191L534.669 59.4055ZM533.213 53.4582L533.927 56.3721L536.848 55.6567L536.135 52.7428L535.421 49.8289L532.499 50.5443L533.213 53.4582ZM536.135 52.7428L533.221 53.4564L536.705 67.6844L539.619 66.9708L542.533 66.2573L539.048 52.0292L536.135 52.7428ZM539.619 66.9708L538.905 64.0569L535.984 64.7724L536.697 67.6863L537.411 70.6002L540.332 69.8847L539.619 66.9708ZM536.697 67.6863L539.611 66.9727L538.208 61.2435L535.294 61.9571L532.38 62.6707L533.783 68.3998L536.697 67.6863ZM535.294 61.9571L534.581 59.0432L528.425 60.5507L529.138 63.4646L529.852 66.3785L536.008 64.871L535.294 61.9571ZM529.138 63.4646L526.224 64.1782L527.627 69.9073L530.541 69.1938L533.455 68.4802L532.052 62.751L529.138 63.4646Z" fill="#7A1E1E" mask="url(#path-9-outside-1_1067_43)"/>
</g>
<defs>
<filter id="filter0_dd_1067_43" x="493.458" y="33.1942" width="68.1265" height="68.1265" filterUnits="userSpaceOnUse" color-interpolation-filters="sRGB">
<feFlood flood-opacity="0" result="BackgroundImageFix"/>
<feColorMatrix in="SourceAlpha" type="matrix" values="0 0 0 0 0 0 0 0 0 0 0 0 0 0 0 0 0 0 127 0" result="hardAlpha"/>
<feOffset dy="5"/>
<feGaussianBlur stdDeviation="1"/>
<feComposite in2="hardAlpha" operator="out"/>
<feColorMatrix type="matrix" values="0 0 0 0 0 0 0 0 0 0 0 0 0 0 0 0 0 0 0.25 0"/>
<feBlend mode="normal" in2="BackgroundImageFix" result="effect1_dropShadow_1067_43"/>
<feColorMatrix in="SourceAlpha" type="matrix" values="0 0 0 0 0 0 0 0 0 0 0 0 0 0 0 0 0 0 127 0" result="hardAlpha"/>
<feOffset dy="4"/>
<feGaussianBlur stdDeviation="2"/>
<feComposite in2="hardAlpha" operator="out"/>
<feColorMatrix type="matrix" values="0 0 0 0 0 0 0 0 0 0 0 0 0 0 0 0 0 0 0.25 0"/>
<feBlend mode="normal" in2="effect1_dropShadow_1067_43" result="effect2_dropShadow_1067_43"/>
<feBlend mode="normal" in="SourceGraphic" in2="effect2_dropShadow_1067_43" result="shape"/>
</filter>
<filter id="filter1_d_1067_43" x="510.441" y="49.1154" width="32.8054" height="30.0724" filterUnits="userSpaceOnUse" color-interpolation-filters="sRGB">
<feFlood flood-opacity="0" result="BackgroundImageFix"/>
<feColorMatrix in="SourceAlpha" type="matrix" values="0 0 0 0 0 0 0 0 0 0 0 0 0 0 0 0 0 0 127 0" result="hardAlpha"/>
<feOffset dy="4"/>
<feComposite in2="hardAlpha" operator="out"/>
<feColorMatrix type="matrix" values="0 0 0 0 0.254395 0 0 0 0 0.0423051 0 0 0 0 0.0423051 0 0 0 0.25 0"/>
<feBlend mode="normal" in2="BackgroundImageFix" result="effect1_dropShadow_1067_43"/>
<feBlend mode="normal" in="SourceGraphic" in2="effect1_dropShadow_1067_43" result="shape"/>
</filter>
</defs>
</svg>
