<svg width="374" height="215" viewBox="0 0 374 215" fill="none" xmlns="http://www.w3.org/2000/svg">
<mask id="path-1-inside-1_1067_4" fill="white">
<path d="M0.486328 0.834961C9.66832 8.77589 113.643 97.3702 183.664 98.6553C253.269 99.9327 362.553 10.0843 373.415 1.00488L373.892 213.623L0.478516 214.46L0 0.836914L0.486328 0.834961ZM373.414 0.268555H253.59L373.413 0L373.414 0.268555Z"/>
</mask>
<path d="M0.486328 0.834961C9.66832 8.77589 113.643 97.3702 183.664 98.6553C253.269 99.9327 362.553 10.0843 373.415 1.00488L373.892 213.623L0.478516 214.46L0 0.836914L0.486328 0.834961ZM373.414 0.268555H253.59L373.413 0L373.414 0.268555Z" fill="#FFC77E"/>
<path d="M0.486328 0.834961L2.44875 -1.43416L1.59845 -2.16953L0.47428 -2.16501L0.486328 0.834961ZM183.664 98.6553L183.609 101.655L183.609 101.655L183.664 98.6553ZM373.415 1.00488L376.415 0.998159L376.401 -5.4008L371.491 -1.29689L373.415 1.00488ZM373.892 213.623L373.898 216.623L376.898 216.616L376.892 213.616L373.892 213.623ZM0.478516 214.46L-2.52148 214.467L-2.51476 217.467L0.485239 217.46L0.478516 214.46ZM0 0.836914L-0.0120481 -2.16306L-3.0067 -2.15104L-2.99999 0.843634L0 0.836914ZM373.414 0.268555V3.26855H376.425L376.414 0.257646L373.414 0.268555ZM253.59 0.268555L253.583 -2.73144L253.59 3.26855V0.268555ZM373.413 0L376.413 -0.010909L376.402 -3.00671L373.406 -2.99999L373.413 0ZM0.486328 0.834961L-1.47609 3.10408C3.16114 7.11453 31.5679 31.3484 67.6269 54.7573C85.6566 66.4619 105.655 77.9969 125.594 86.6951C145.498 95.378 165.541 101.323 183.609 101.655L183.664 98.6553L183.719 95.6558C166.776 95.3448 147.565 89.7338 127.993 81.1957C108.456 72.6729 88.7584 61.3221 70.894 49.7248C35.165 26.5301 6.99351 2.49632 2.44875 -1.43416L0.486328 0.834961ZM183.664 98.6553L183.609 101.655C201.606 101.985 221.931 96.4381 242.3 87.9839C262.71 79.5126 283.389 68.0261 302.162 56.2556C339.707 32.714 369.863 7.88429 375.339 3.30666L373.415 1.00488L371.491 -1.29689C366.105 3.20486 336.188 27.839 298.975 51.1722C280.368 62.839 259.996 74.1426 240 82.4423C219.962 90.7591 200.524 95.9642 183.719 95.6558L183.664 98.6553ZM373.415 1.00488L370.415 1.01161L370.892 213.63L373.892 213.623L376.892 213.616L376.415 0.998159L373.415 1.00488ZM373.892 213.623L373.885 210.623L0.471792 211.46L0.478516 214.46L0.485239 217.46L373.898 216.623L373.892 213.623ZM0.478516 214.46L3.47851 214.453L2.99999 0.830194L0 0.836914L-2.99999 0.843634L-2.52148 214.467L0.478516 214.46ZM0 0.836914L0.0120481 3.83689L0.498376 3.83494L0.486328 0.834961L0.47428 -2.16501L-0.0120481 -2.16306L0 0.836914ZM373.414 0.268555V-2.73145H253.59V0.268555V3.26855H373.414V0.268555ZM253.59 0.268555L253.597 3.26855L373.42 2.99999L373.413 0L373.406 -2.99999L253.583 -2.73144L253.59 0.268555ZM373.413 0L370.413 0.010909L370.414 0.279464L373.414 0.268555L376.414 0.257646L376.413 -0.010909L373.413 0Z" fill="#C6822A" mask="url(#path-1-inside-1_1067_4)"/>
</svg>
