<svg width="633" height="363" viewBox="0 0 633 363" fill="none" xmlns="http://www.w3.org/2000/svg">
<mask id="path-1-inside-1_1194_11" fill="white">
<path d="M632.834 360.922L0.810547 362.339L0 0.769531L0.634766 0.767578C19.2477 16.8091 192.846 163.725 310.146 165.878C429.724 168.072 618.489 11.3697 632.024 0L632.834 360.922Z"/>
</mask>
<path d="M632.834 360.922L0.810547 362.339L0 0.769531L0.634766 0.767578C19.2477 16.8091 192.846 163.725 310.146 165.878C429.724 168.072 618.489 11.3697 632.024 0L632.834 360.922Z" fill="#FFC77E"/>
<path d="M632.834 360.922L632.841 363.922L635.841 363.915L635.834 360.915L632.834 360.922ZM0.810547 362.339L-2.18945 362.346L-2.18272 365.346L0.817273 365.339L0.810547 362.339ZM0 0.769531L-0.00923073 -2.23045L-3.00671 -2.22123L-2.99999 0.776256L0 0.769531ZM0.634766 0.767578L2.5933 -1.5049L1.74518 -2.23585L0.625535 -2.23241L0.634766 0.767578ZM310.146 165.878L310.091 168.877L310.091 168.877L310.146 165.878ZM632.024 0L635.024 -0.00672917L635.01 -6.4258L630.095 -2.29713L632.024 0ZM632.834 360.922L632.827 357.922L0.803821 359.339L0.810547 362.339L0.817273 365.339L632.841 363.922L632.834 360.922ZM0.810547 362.339L3.81054 362.332L2.99999 0.762806L0 0.769531L-2.99999 0.776256L-2.18945 362.346L0.810547 362.339ZM0 0.769531L0.00923073 3.76952L0.643996 3.76756L0.634766 0.767578L0.625535 -2.23241L-0.00923073 -2.23045L0 0.769531ZM0.634766 0.767578L-1.32377 3.04005C8.02941 11.1011 56.2004 51.9407 116.755 91.0511C147.032 110.606 180.461 129.766 213.724 144.18C246.952 158.579 280.208 168.329 310.091 168.877L310.146 165.878L310.202 162.878C281.434 162.35 249.003 152.929 216.109 138.674C183.249 124.435 150.121 105.459 120.01 86.011C59.7875 47.1148 11.853 6.47562 2.5933 -1.5049L0.634766 0.767578ZM310.146 165.878L310.091 168.877C340.589 169.437 375.256 159.879 410.143 145.251C445.074 130.604 480.456 110.775 512.453 90.5618C576.449 50.1351 627.142 8.01951 633.954 2.29713L632.024 0L630.095 -2.29713C623.372 3.35018 572.914 45.2708 509.249 85.4892C477.416 105.599 442.34 125.244 407.823 139.718C373.263 154.209 339.492 163.416 310.202 162.878L310.146 165.878ZM632.024 0L629.024 0.00672917L629.834 360.929L632.834 360.922L635.834 360.915L635.024 -0.00672917L632.024 0Z" fill="#C6822A" mask="url(#path-1-inside-1_1194_11)"/>
</svg>
