<svg width="776" height="493" viewBox="0 0 776 493" fill="none" xmlns="http://www.w3.org/2000/svg">
<mask id="path-1-inside-1_1322_6" fill="white">
<path d="M59.0566 492.642C61.5513 478.98 63.1166 459.468 55.3242 447.357C45.0348 431.367 17.4568 424.827 0 435.408V57.3115C16.7859 62.8819 37.5924 59.5173 46.2256 42.6846C53.22 29.047 52.6745 12.4274 50.6855 0H720.399C718.197 13.4483 717.274 31.3235 724.584 42.6846C734.136 57.5289 758.586 64.2295 776.008 56.6494V446.505C758.586 438.296 734.134 440.434 724.583 459.057C719.189 469.575 718.28 481.867 719.059 492.642H59.0566Z"/>
</mask>
<path d="M59.0566 492.642L55.1217 491.923L54.2601 496.642H59.0566V492.642ZM55.3242 447.357L58.688 445.193L58.688 445.193L55.3242 447.357ZM0 435.408H-4V442.51L2.07335 438.829L0 435.408ZM0 57.3115L1.25983 53.5151L-4 51.7696V57.3115H0ZM46.2256 42.6846L49.7848 44.51L49.7848 44.51L46.2256 42.6846ZM50.6855 0V-4H45.9945L46.7358 0.632128L50.6855 0ZM720.399 0L724.347 0.646342L725.108 -4H720.399V0ZM724.584 42.6846L721.22 44.849L721.22 44.8491L724.584 42.6846ZM776.008 56.6494H780.008V50.5468L774.412 52.9815L776.008 56.6494ZM776.008 446.505L774.303 450.123L780.008 452.811V446.505H776.008ZM724.583 459.057L721.024 457.231L721.024 457.231L724.583 459.057ZM719.059 492.642V496.642H723.358L723.048 492.353L719.059 492.642ZM59.0566 492.642L62.9916 493.36C64.2674 486.373 65.3297 477.773 65.0458 469.284C64.7641 460.859 63.1448 452.119 58.688 445.193L55.3242 447.357L51.9604 449.522C55.2961 454.706 56.7903 461.777 57.0503 469.551C57.3082 477.262 56.3405 485.248 55.1217 491.923L59.0566 492.642ZM55.3242 447.357L58.688 445.193C52.8281 436.086 42.3146 429.988 31.2206 427.514C20.1058 425.036 7.73797 426.041 -2.07335 431.988L0 435.408L2.07335 438.829C9.71887 434.195 19.8685 433.179 29.4792 435.322C39.1107 437.47 47.531 442.638 51.9604 449.522L55.3242 447.357ZM0 435.408H4V57.3115H0H-4V435.408H0ZM0 57.3115L-1.25983 61.1079C16.499 67.0011 39.878 63.8261 49.7848 44.51L46.2256 42.6846L42.6664 40.8591C35.3069 55.2085 17.0727 58.7626 1.25983 53.5151L0 57.3115ZM46.2256 42.6846L49.7848 44.51C57.369 29.7225 56.666 12.0566 54.6353 -0.632128L50.6855 0L46.7358 0.632128C48.6829 12.7981 49.071 28.3715 42.6664 40.8591L46.2256 42.6846ZM50.6855 0V4H720.399V0V-4H50.6855V0ZM720.399 0L716.452 -0.646342C715.324 6.24094 714.502 14.3808 714.93 22.34C715.356 30.2487 717.035 38.3447 721.22 44.849L724.584 42.6846L727.948 40.5201C724.823 35.6634 723.308 29.1411 722.919 21.9099C722.532 14.7292 723.273 7.20732 724.347 0.646342L720.399 0ZM724.584 42.6846L721.22 44.8491C726.664 53.3097 736.123 59.1655 746.294 61.9355C756.485 64.7112 767.908 64.5357 777.604 60.3173L776.008 56.6494L774.412 52.9815C766.686 56.3432 757.173 56.6074 748.396 54.2167C739.598 51.8204 732.055 46.9038 727.948 40.5201L724.584 42.6846ZM776.008 56.6494H772.008V446.505H776.008H780.008V56.6494H776.008ZM776.008 446.505L777.713 442.886C768.286 438.445 756.957 436.784 746.584 438.792C736.142 440.813 726.466 446.619 721.024 457.231L724.583 459.057L728.142 460.882C732.251 452.871 739.577 448.297 748.104 446.646C756.7 444.982 766.308 446.356 774.303 450.123L776.008 446.505ZM724.583 459.057L721.024 457.231C715.157 468.671 714.265 481.802 715.069 492.93L719.059 492.642L723.048 492.353C722.295 481.932 723.22 470.479 728.142 460.882L724.583 459.057ZM719.059 492.642V488.642H59.0566V492.642V496.642H719.059V492.642Z" fill="url(#paint0_linear_1322_6)" mask="url(#path-1-inside-1_1322_6)"/>
<defs>
<linearGradient id="paint0_linear_1322_6" x1="379.555" y1="613.527" x2="379.555" y2="-174.179" gradientUnits="userSpaceOnUse">
<stop stop-color="#FFC77E"/>
<stop offset="1" stop-color="#FCA129"/>
</linearGradient>
</defs>
</svg>
