<?xml version="1.0" encoding="UTF-8"?>
<svg id="Layer_1" data-name="Layer 1" xmlns="http://www.w3.org/2000/svg" width="8.5in" height="11in" viewBox="0 0 612 792">
  <defs>
    <style>
      .cls-1 {
        fill: #f1cc8d;
      }

      .cls-2 {
        fill: #7a0008;
        stroke: #f1cc8d;
        stroke-miterlimit: 10;
        stroke-width: .75px;
      }

      .cls-3 {
        opacity: .2;
      }

      .cls-4 {
        opacity: .19;
      }

      .cls-5 {
        fill: #faf5e2;
      }
    </style>
  </defs>
  <path d="M132.96,164.23c5.16.65,11.74,5.6,16.09,8.31,7.33,4.91,14.77,9.53,23,12.91,13.36,5.62,29.88,10.05,44.68,14.64,21.22,6.61,42.65,12.96,65.62,16.58,40.71,7.13,79.62,13.91,119.8,20.46,38.1,5.85,75.49,12.64,108.57,25.71,22.11,8.31,36.03,26.44,27.01,42.15-7.22,11.83-22.98,22.1-40.13,28.53-24.14,9.23-52.08-1-76.84-4.17-52.49-7.29-104.49-14.13-156.34-22.54-29.02-5.34-60.09-9.29-86.71-18.91-16.13-6.71-33.49-14.49-44.36-24.93-5.56-6.01-5.81-13.18-5.94-19.95-.34-13.74-.14-30-.07-45.08.06-6.73,0-12.55.01-19.62.5-3.43-1.52-13.96,5.41-14.11h.21Z"/>
  <path class="cls-1" d="M492.24,316l-1-42.61s33.89,11.91,33.89,15.8,3.16,7.42-10.82,16.65c-13.98,9.23-22.07,10.16-22.07,10.16Z"/>
  <path class="cls-1" d="M136.82,180.25c-2.22-1.04-1.43,5.96-1.57,9.27.29,17.39-.55,45.23.32,58.35.55,2.09,1.96,3.56,4.13,5.44,7.1,6.39,18.71,12.05,30.46,15.45,9.57,3.22,18.69,6.28,28.97,8.26,9.43,1.99,25.75,5.43,35.49,7.48,5.5,1.13,8.82,1.77,10.34,1.22,2-.67,1.53-3.58,1.61-8.48,0-14.01.03-38.47-.03-47.95-.07-2.25-.29-4.35-3.78-5.48-14.76-4.15-34.3-4.7-47.61-10.8-12.99-5.88-26.32-10.75-36.99-18.52-6.64-4.28-14.18-10.76-21.25-14.19l-.1-.02Z"/>
  <path class="cls-1" d="M254.04,288.51v-58.3l118.52,18.17,2.59,55.32v6.84c-40.37-6.53-80.74-13.06-121.11-19.58v-2.44Z"/>
  <path class="cls-1" d="M383.51,250.56v59.46c12.84,1.55,23.43,3.18,31,4.44,14.76,2.45,26.48,4.88,41.27,7.95,9.16,1.9,16.72,3.55,21.9,4.69,0,0,0,0,0,0,.03-.02,6.49-4.27.37-55.9,0,0-89.39-25.19-94.54-20.64Z"/>
  <g>
    <polygon class="cls-5" points="138.73 262.17 133.18 259.19 135.78 255.45 141.34 258.43 138.73 262.17"/>
    <polygon class="cls-5" points="150.72 270.14 144.87 267.63 147.07 263.69 152.91 266.2 150.72 270.14"/>
    <polygon class="cls-5" points="163.02 275.95 157.17 273.44 159.37 269.5 165.21 272.01 163.02 275.95"/>
    <polygon class="cls-5" points="176.6 280.79 170.49 278.83 172.2 274.71 178.31 276.67 176.6 280.79"/>
    <polygon class="cls-5" points="190.24 285.6 184.19 283.5 186.02 279.42 192.07 281.52 190.24 285.6"/>
    <polygon class="cls-5" points="204.15 289.56 198 287.72 199.61 283.57 205.77 285.41 204.15 289.56"/>
    <polygon class="cls-5" points="218.72 292.89 212.56 291.04 214.18 286.89 220.34 288.74 218.72 292.89"/>
    <polygon class="cls-5" points="232.45 296.11 226.13 294.75 227.31 290.49 233.63 291.85 232.45 296.11"/>
    <polygon class="cls-5" points="248.36 298.92 242.04 297.56 243.23 293.3 249.55 294.66 248.36 298.92"/>
    <polygon class="cls-5" points="266.36 302.13 260.04 300.77 261.23 296.51 267.55 297.87 266.36 302.13"/>
    <polygon class="cls-5" points="281.93 304.55 275.53 303.5 276.45 299.19 282.85 300.24 281.93 304.55"/>
    <polygon class="cls-5" points="297.63 307.15 291.24 306.09 292.16 301.78 298.55 302.84 297.63 307.15"/>
    <polygon class="cls-5" points="313.64 309.79 307.25 308.73 308.17 304.42 314.57 305.47 313.64 309.79"/>
    <polygon class="cls-5" points="329.35 312.37 322.95 311.32 323.87 307.01 330.27 308.06 329.35 312.37"/>
    <polygon class="cls-5" points="346.58 314.91 340.18 313.86 341.1 309.54 347.5 310.6 346.58 314.91"/>
    <polygon class="cls-5" points="362.28 317.5 355.88 316.45 356.8 312.14 363.2 313.19 362.28 317.5"/>
    <polygon class="cls-5" points="378.77 319.82 372.37 318.76 373.29 314.45 379.69 315.51 378.77 319.82"/>
    <polygon class="cls-5" points="394.47 322.4 388.07 321.35 388.99 317.04 395.39 318.09 394.47 322.4"/>
    <polygon class="cls-5" points="411.7 324.94 405.3 323.89 406.22 319.57 412.62 320.63 411.7 324.94"/>
    <polygon class="cls-5" points="427.4 327.53 421 326.48 421.92 322.17 428.32 323.22 427.4 327.53"/>
    <polygon class="cls-5" points="443.26 330.29 436.87 329.23 437.79 324.92 444.18 325.98 443.26 330.29"/>
    <polygon class="cls-5" points="458.97 332.88 452.57 331.82 453.49 327.51 459.89 328.56 458.97 332.88"/>
  </g>
  <g>
    <polygon class="cls-5" points="138.01 175.85 132.52 172.77 135.21 169.08 140.69 172.15 138.01 175.85"/>
    <polygon class="cls-5" points="148.85 182.62 143.37 179.54 146.05 175.85 151.54 178.92 148.85 182.62"/>
    <polygon class="cls-5" points="160.33 189.61 154.84 186.54 157.53 182.84 163.01 185.92 160.33 189.61"/>
    <polygon class="cls-5" points="173.2 195.77 167.38 193.21 169.61 189.29 175.43 191.84 173.2 195.77"/>
    <polygon class="cls-5" points="186.23 201.22 180.41 198.66 182.64 194.74 188.46 197.29 186.23 201.22"/>
    <polygon class="cls-5" points="199.78 205.34 193.83 203.02 195.86 199.02 201.81 201.33 199.78 205.34"/>
    <polygon class="cls-5" points="213.43 210.65 207.48 208.34 209.51 204.33 215.45 206.64 213.43 210.65"/>
    <polygon class="cls-5" points="231.76 215.85 225.6 214.01 227.21 209.86 233.37 211.7 231.76 215.85"/>
    <polygon class="cls-5" points="246.82 219.4 240.53 217.93 241.81 213.69 248.1 215.16 246.82 219.4"/>
    <polygon class="cls-5" points="262.35 223.03 256.06 221.56 257.35 217.32 263.63 218.79 262.35 223.03"/>
    <polygon class="cls-5" points="277.86 225.72 271.49 224.56 272.5 220.26 278.87 221.42 277.86 225.72"/>
    <polygon class="cls-5" points="293.5 228.58 287.13 227.42 288.15 223.12 294.52 224.29 293.5 228.58"/>
    <polygon class="cls-5" points="309.45 231.49 303.08 230.33 304.1 226.04 310.47 227.2 309.45 231.49"/>
    <polygon class="cls-5" points="325.09 234.35 318.72 233.18 319.74 228.89 326.11 230.05 325.09 234.35"/>
    <polygon class="cls-5" points="342.26 237.18 335.89 236.02 336.91 231.72 343.28 232.88 342.26 237.18"/>
    <polygon class="cls-5" points="357.91 240.04 351.53 238.88 352.55 234.58 358.92 235.75 357.91 240.04"/>
    <polygon class="cls-5" points="374.34 242.64 367.97 241.47 368.98 237.18 375.35 238.34 374.34 242.64"/>
    <polygon class="cls-5" points="389.98 245.49 383.61 244.33 384.63 240.03 391 241.2 389.98 245.49"/>
    <polygon class="cls-5" points="407.15 248.32 400.78 247.16 401.79 242.87 408.16 244.03 407.15 248.32"/>
    <polygon class="cls-5" points="422.79 251.18 416.42 250.02 417.44 245.73 423.81 246.89 422.79 251.18"/>
    <polygon class="cls-5" points="438.59 254.21 432.22 253.05 433.24 248.75 439.61 249.92 438.59 254.21"/>
    <polygon class="cls-5" points="454.23 257.07 447.86 255.9 448.88 251.61 455.25 252.77 454.23 257.07"/>
    <polygon class="cls-5" points="470.64 261.03 464.27 259.87 465.28 255.57 471.66 256.73 470.64 261.03"/>
    <polygon class="cls-5" points="487.04 264.81 480.67 263.65 481.69 259.35 488.06 260.52 487.04 264.81"/>
    <polygon class="cls-5" points="501.55 270.1 495.58 267.82 497.57 263.8 503.54 266.08 501.55 270.1"/>
    <polygon class="cls-5" points="517.47 276.87 511.5 274.59 513.49 270.57 519.46 272.85 517.47 276.87"/>
  </g>
  <path d="M90.72,502.92c2.04,4.66,8.35,6.27,13.38,8.75,13.4,5.71,26.39,12.6,40.76,15.82,12.1,2.94,24.49,5.89,36.65,8.82,52.49,13.07,112.84,24.1,167.22,38.26,7.13,1.85,12.42,3.51,18.9,5.94,4.41,1.35,13.43,6.29,16.29,2.7,4.25-17.61,5.56-55.24,7.7-73,.58-5.46-2.4-8.69-8.48-11.64-13.79-6.78-28.94-15.15-44.7-19.21-25.74-7.36-49.43-14.17-72.95-19.92-4.97-1.21-10-2.2-15.17-2.39-22.28.29-42.76,3.45-63.52,8.46-20.42,4.76-40.96,8.72-60.15,13.95-9,2.74-19.03,4.28-26.91,8.88-5.34,3.31-10.46,10.05-9.09,14.33"/>
  <path class="cls-1" d="M158.08,477.4s-46.42,10.86-47.06,15.14c-.64,4.28,2.26,6.69,3.63,6.85s6.1,5.94,25.58,11.22c19.48,5.28,18.11,4.6,18.11,4.6l1.33-36.9-1.6-.92Z"/>
  <polygon class="cls-1" points="166.81 473.59 163.65 516.73 204.57 524.96 240.03 532.55 245.74 472.41 218.38 465.93 193.75 468.03 166.81 473.59"/>
  <path class="cls-3" d="M482.18,323.36c-1.14-4.96-.71-11.5-.96-17.59-.13-6.63-.28-14.73-.43-22.62-.14-7.6-.27-14.11-.39-20.58.21-5.6-1.01-8.85,1.02-10.85,5.88,2.29,10.69,3.67,14.05,4.52,2.28.57,4.3,1,7.05,2.13,4.1,1.68,6.79,3.82,8.55,4.95,9.06,5.83,21.68,12.33,23.89,23.53.29,1.48.12,2.51.03,3.05-.78,4.82-5.5,7.74-9.43,10.11-13.19,7.94-12.92,7.35-16.72,9.85-2.81,1.85-10.14,6.9-16.92,11.7-2.51,1.78-6.81,4.84-8.81,3.46-.59-.41-.83-1.11-.94-1.67Z"/>
  <path class="cls-1" d="M330.63,490.17l-5.48,60.11s56.38,14.9,56.73,17.72,6.08-57.01,6.08-57.01c0,0-55.79-24.37-57.32-20.83Z"/>
  <path class="cls-1" d="M251.86,472.35l-4.45,61.3,72.84,14.67,6.49-57.44-35.18-8.83s-37.99-7.4-39.71-9.7Z"/>
  <g>
    <rect class="cls-5" x="106.1" y="500.07" width="6.22" height="4.77" transform="translate(231.13 2.93) rotate(25.98)"/>
    <rect class="cls-5" x="118.9" y="506.31" width="6.22" height="4.77" transform="translate(235.15 -2.04) rotate(25.98)"/>
    <rect class="cls-5" x="130.21" y="511.17" width="6.22" height="4.77" transform="translate(208.37 -11.69) rotate(22.68)"/>
    <rect class="cls-5" x="142.42" y="514.78" width="6.22" height="4.77" transform="translate(154.71 -20.01) rotate(16.7)"/>
    <rect class="cls-5" x="154.09" y="518.41" width="6.22" height="4.77" transform="translate(131.11 -22.58) rotate(14.05)"/>
    <rect class="cls-5" x="194.5" y="526.59" width="6.22" height="4.77" transform="translate(116.41 -29.84) rotate(12.22)"/>
    <rect class="cls-5" x="167.51" y="520.87" width="6.22" height="4.77" transform="translate(132.11 -25.77) rotate(14.05)"/>
    <rect class="cls-5" x="180.59" y="523.58" width="6.22" height="4.77" transform="translate(115.46 -26.96) rotate(12.22)"/>
    <rect class="cls-5" x="208.63" y="529.65" width="6.22" height="4.77" transform="translate(117.37 -32.76) rotate(12.22)"/>
    <rect class="cls-5" x="223.54" y="532.88" width="6.22" height="4.77" transform="translate(118.4 -35.84) rotate(12.22)"/>
    <rect class="cls-5" x="238.96" y="535.91" width="6.22" height="4.77" transform="translate(119.39 -39.03) rotate(12.22)"/>
    <rect class="cls-5" x="253.33" y="539.3" width="6.22" height="4.77" transform="translate(120.43 -42) rotate(12.22)"/>
    <rect class="cls-5" x="266.7" y="542.22" width="6.22" height="4.77" transform="translate(121.35 -44.76) rotate(12.22)"/>
    <rect class="cls-5" x="280.98" y="545.01" width="6.22" height="4.77" transform="translate(122.26 -47.72) rotate(12.22)"/>
    <rect class="cls-5" x="293.87" y="547.8" width="6.22" height="4.77" transform="translate(123.15 -50.38) rotate(12.22)"/>
    <rect class="cls-5" x="306.95" y="550.63" width="6.22" height="4.77" transform="translate(124.04 -53.09) rotate(12.22)"/>
    <rect class="cls-5" x="320.4" y="553.85" width="6.22" height="4.77" transform="translate(125.03 -55.86) rotate(12.22)"/>
    <rect class="cls-5" x="333.65" y="557.48" width="6.22" height="4.77" transform="translate(126.1 -58.58) rotate(12.22)"/>
    <rect class="cls-5" x="346.13" y="561.07" width="6.22" height="4.77" transform="translate(127.14 -61.14) rotate(12.22)"/>
    <rect class="cls-5" x="357.53" y="564.6" width="6.22" height="4.77" transform="translate(128.14 -63.47) rotate(12.22)"/>
    <rect class="cls-5" x="368.48" y="568.1" width="6.22" height="4.77" transform="translate(129.13 -65.71) rotate(12.22)"/>
  </g>
  <g>
    <g>
      <rect class="cls-5" x="278.26" y="468.94" width="6.22" height="4.77" transform="translate(106.1 -48.87) rotate(12.22)"/>
      <rect class="cls-5" x="306.01" y="475.25" width="6.22" height="4.77" transform="translate(108.07 -54.6) rotate(12.22)"/>
      <rect class="cls-5" x="319.42" y="478.89" width="6.22" height="4.77" transform="translate(109.14 -57.35) rotate(12.22)"/>
      <rect class="cls-5" x="332.83" y="482.42" width="6.22" height="4.77" transform="translate(110.19 -60.11) rotate(12.22)"/>
      <rect class="cls-5" x="357.59" y="491.34" width="6.22" height="4.77" transform="translate(205.19 -97.62) rotate(21.42)"/>
      <rect class="cls-5" x="370.09" y="497.05" width="6.22" height="4.77" transform="translate(208.14 -101.79) rotate(21.42)"/>
      <rect class="cls-5" x="381.83" y="502.59" width="6.22" height="4.77" transform="translate(210.97 -105.69) rotate(21.42)"/>
    </g>
    <rect class="cls-5" x="248.63" y="461.52" width="6.22" height="4.77" transform="translate(103.86 -42.76) rotate(12.22)"/>
    <rect class="cls-5" x="263.01" y="464.91" width="6.22" height="4.77" transform="translate(104.91 -45.73) rotate(12.22)"/>
  </g>
  <path class="cls-2" d="M504.35,509.73c0,1.32-.99,1.97-2.96,1.97-1.54,0-2.96-.08-4.28-.24-7.68-.94-29.16-1.41-64.46-1.41h-25.33c-6.8.22-10.2-.71-10.2-2.79,0-1.85,2.74-2.9,8.22-3.13,4.82-.21,9.05-1.15,12.66-2.79,3.62-1.64,5.43-3.55,5.43-5.74.22-1.31.44-4.92.66-10.82v-92.47h-78.28v101.63c.21,5.7,4.6,9.1,13.15,10.2,6.79.88,10.74,1.48,11.84,1.81,1.09.33,1.64,1.04,1.64,2.14,0,1.32-1.1,1.97-3.29,1.97-2.85,0-10.42-.22-22.69-.66-12.28-.44-17.43-.66-15.46-.66-1.31,0-8.06.22-20.23.66-12.17.44-23.74.66-34.7.66h-3.29c-3.95,0-5.92-.99-5.92-2.96,0-1.75,1.53-2.63,4.6-2.63,10.3,0,17.43-1.31,21.38-3.94,1.75-1.09,2.63-6.89,2.63-17.41v-181.28c0-7.01-1.91-11.22-5.72-12.64-3.81-1.42-9.98-2.13-18.51-2.13-2.92,0-4.38-.87-4.38-2.63,0-1.09,1.21-1.75,3.63-1.97-.88,0,7.36,0,24.74,0h72.58c3.08,0,4.62,1.1,4.62,3.29,0,1.54-.59,2.47-1.75,2.79s-4.86.61-11.1.82c-6.24.22-10.09,1.59-11.57,4.11-1.48,2.52-2.22,7.07-2.22,13.65v77.62h7.8c21.65.88,45.15.66,70.48-.66v-73.59c0-14.96-5.39-22.44-16.18-22.44-7.19,0-10.79-.98-10.79-2.94,0-1.76,1.41-2.65,4.25-2.65h99.7c2.18,0,3.27.66,3.27,1.97,0,1.54-4.06,2.63-12.17,3.29-8.11.66-13.16,2.35-15.13,5.09-1.97,2.74-2.96,9.58-2.96,20.52v161.58c0,14.24,1.81,22.83,5.43,25.78,3.62,2.95,9.81,4.65,18.58,5.09,4.16.22,6.25,1.54,6.25,3.94Z"/>
  <path d="M90.62,499.14c1.38.53,3.32-2.1,5.97-4.58,1.75-1.64,5.49-4.77,18.67-9.25,20.17-6.85,35.98-9.48,35.98-9.48,23.47-3.9,28.83-8.8,54.38-13.85,28.15-5.56,65.42-9.16,96.75-13.79,38.46-5.28,79.49-11.72,118.49-18.21,14.24-2.37,31.73-7.26,53.07-14.33,18.96-6.27,34.61-12.74,46.17-17.91,15.25-9.03,21.55-19.1,20.25-34.51-.5-18.33-.8-47.25-1.42-64.49-.16-2.33-.18-6.02-2.16-6.08-1.41.18-3.54,2.8-6.06,6.17-2.81,3.75-5.87,7.78-9.38,11.28-9.55,9.65-23.12,16.54-35.45,23.2-6.63,3.5-12.72,5.3-20.16,6.78-26.28,5.48-84.3,17.51-117.65,24.43-44.73,8.71-99.15,13.3-145.02,23.77-16.91,3.91-41.9,9.56-60,13.81-9.32,2.13-17.81,5.1-26.29,8.89-7.96,3.55-16.23,7.46-20.08,12.89-3.05,4.28-3.49,9.52-3.87,14.61"/>
  <path class="cls-1" d="M506.99,332.61s23.7-12.16,25.22-18.09,3.08,55.72,3.08,55.72c0,0-18.54,15.61-23.28,15.02-1.03-.13-.58-2.49-.76-6.56-.2-4.62-.96-11.35-1.33-17.76-.81-14-2.93-28.33-2.93-28.33Z"/>
  <path class="cls-1" d="M501.84,338.11l5.14,50.21s-75.55,25.04-77.33,21.01-8.14-48.26-8.14-48.26l35.16-8.9s43.26-10.43,45.16-14.06Z"/>
  <path class="cls-1" d="M413.63,364.8l8.8,47.25-36.63,6.03s-53.28,9.67-53.69,7.56-6.7-46.37-6.7-46.37l42.08-5.27s40.38-6.44,46.14-9.2Z"/>
  <path class="cls-1" d="M318.27,380.64l5.3,44.92-23.87,3.6-24.86,2.8s-40.89,6.57-41.49,6.92-3.5-45.8-3.5-45.8c0,0,34.68-4.63,42.47-6.26s41.11-3.78,45.94-6.18Z"/>
  <path class="cls-1" d="M220.51,397.75l5.44,44.92-27.84,5.94-41.24,9.26-15.42,4.62-2.75-49.76s18.26-5.95,35.29-8.65c17.03-2.69,46.52-6.35,46.52-6.35Z"/>
  <path class="cls-1" d="M132.39,416.47l.42,47.12-13.95,4.06s-17.55,7.89-19.87,9.67-.84-6.09-.84-6.09l1.18-10.59,1.21-21.64.34-9.56s28.71-15.84,31.5-12.96Z"/>
  <g>
    <rect class="cls-5" x="102.34" y="419.22" width="5.86" height="4.49" transform="translate(-164.71 81.13) rotate(-24.4)"/>
    <rect class="cls-5" x="115.43" y="413.28" width="5.86" height="4.49" transform="translate(-161.08 86.01) rotate(-24.4)"/>
    <rect class="cls-5" x="128.8" y="407.72" width="5.86" height="4.49" transform="translate(-125.71 64.79) rotate(-18.9)"/>
    <rect class="cls-5" x="141.29" y="403.46" width="5.86" height="4.49" transform="translate(-103.48 53.51) rotate(-15.55)"/>
    <rect class="cls-5" x="154.55" y="400.3" width="5.86" height="4.49" transform="translate(-88.91 47.39) rotate(-13.39)"/>
    <rect class="cls-5" x="167.62" y="397.67" width="5.86" height="4.49" transform="translate(-87.95 50.35) rotate(-13.39)"/>
    <rect class="cls-5" x="181.91" y="394.26" width="5.86" height="4.49" transform="translate(-73.57 43.51) rotate(-11.21)"/>
    <rect class="cls-5" x="194.73" y="392.39" width="5.86" height="4.49" transform="translate(-59.6 35.99) rotate(-9.05)"/>
    <rect class="cls-5" x="207.4" y="389.84" width="5.86" height="4.49" transform="translate(-59.04 37.95) rotate(-9.05)"/>
    <rect class="cls-5" x="220.06" y="387.82" width="5.86" height="4.49" transform="translate(-58.57 39.92) rotate(-9.05)"/>
    <rect class="cls-5" x="233.05" y="385.14" width="5.86" height="4.49" transform="translate(-57.98 41.93) rotate(-9.05)"/>
    <rect class="cls-5" x="246.03" y="382.96" width="5.86" height="4.49" transform="translate(-57.48 43.94) rotate(-9.05)"/>
    <rect class="cls-5" x="259.09" y="380.86" width="5.86" height="4.49" transform="translate(-56.99 45.97) rotate(-9.05)"/>
    <rect class="cls-5" x="272.8" y="378.68" width="5.86" height="4.49" transform="translate(-56.47 48.1) rotate(-9.05)"/>
    <rect class="cls-5" x="285.49" y="377.03" width="5.86" height="4.49" transform="translate(-56.06 50.08) rotate(-9.05)"/>
    <rect class="cls-5" x="298.43" y="374.89" width="5.86" height="4.49" transform="translate(-55.56 52.08) rotate(-9.05)"/>
    <rect class="cls-5" x="311.42" y="372.7" width="5.86" height="4.49" transform="translate(-55.05 54.1) rotate(-9.05)"/>
    <rect class="cls-5" x="325.64" y="370.84" width="5.86" height="4.49" transform="translate(-54.58 56.31) rotate(-9.05)"/>
    <rect class="cls-5" x="339.86" y="368.58" width="5.86" height="4.49" transform="translate(-54.05 58.52) rotate(-9.05)"/>
    <rect class="cls-5" x="352.5" y="366.57" width="5.86" height="4.49" transform="translate(-53.58 60.48) rotate(-9.05)"/>
    <rect class="cls-5" x="366.91" y="364.78" width="5.86" height="4.49" transform="translate(-53.12 62.73) rotate(-9.05)"/>
    <rect class="cls-5" x="380.85" y="362.56" width="5.86" height="4.49" transform="translate(-52.59 64.89) rotate(-9.05)"/>
    <rect class="cls-5" x="393.89" y="359.56" width="5.86" height="4.49" transform="translate(-51.96 66.9) rotate(-9.05)"/>
    <rect class="cls-5" x="407.35" y="356.18" width="5.86" height="4.49" transform="translate(-74.94 110.72) rotate(-14.1)"/>
    <rect class="cls-5" x="419.5" y="353.02" width="5.86" height="4.49" transform="translate(-73.81 113.59) rotate(-14.1)"/>
    <rect class="cls-5" x="433.13" y="349.6" width="5.86" height="4.49" transform="translate(-72.57 116.81) rotate(-14.1)"/>
    <rect class="cls-5" x="446.17" y="346.7" width="5.86" height="4.49" transform="translate(-71.47 119.89) rotate(-14.1)"/>
    <rect class="cls-5" x="459.93" y="343.25" width="5.86" height="4.49" transform="translate(-70.21 123.14) rotate(-14.1)"/>
    <rect class="cls-5" x="472.51" y="339.71" width="5.86" height="4.49" transform="translate(-68.97 126.1) rotate(-14.1)"/>
    <rect class="cls-5" x="484.77" y="335.99" width="5.86" height="4.49" transform="translate(-84.77 181.59) rotate(-19.44)"/>
    <rect class="cls-5" x="495.14" y="331.72" width="5.86" height="4.49" transform="translate(-96.94 259.36) rotate(-26.7)"/>
    <rect class="cls-5" x="504.74" y="325.94" width="5.86" height="4.49" transform="translate(-93.32 263.06) rotate(-26.7)"/>
    <rect class="cls-5" x="514.25" y="319.68" width="5.86" height="4.49" transform="translate(-91.35 350.22) rotate(-34.56)"/>
    <rect class="cls-5" x="522.25" y="313.88" width="5.86" height="4.49" transform="translate(-86.65 353.73) rotate(-34.56)"/>
    <rect class="cls-5" x="530.25" y="306.6" width="5.86" height="4.49" transform="translate(-69.1 438.95) rotate(-42.27)"/>
  </g>
  <g>
    <rect class="cls-5" x="98.04" y="480.29" width="5.86" height="4.49" transform="translate(-190.31 84.81) rotate(-24.4)"/>
    <rect class="cls-5" x="111.14" y="475.33" width="5.86" height="4.49" transform="translate(-187.1 89.77) rotate(-24.4)"/>
    <rect class="cls-5" x="123.42" y="470.55" width="5.86" height="4.49" transform="translate(-146.36 66.43) rotate(-18.9)"/>
    <rect class="cls-5" x="135.78" y="467.47" width="5.86" height="4.49" transform="translate(-120.84 54.38) rotate(-15.55)"/>
    <rect class="cls-5" x="149.45" y="463.67" width="5.86" height="4.49" transform="translate(-103.72 47.93) rotate(-13.39)"/>
    <rect class="cls-5" x="161.72" y="460.55" width="5.86" height="4.49" transform="translate(-102.67 50.69) rotate(-13.39)"/>
    <rect class="cls-5" x="174.71" y="457.66" width="5.86" height="4.49" transform="translate(-86.03 43.32) rotate(-11.21)"/>
    <rect class="cls-5" x="187.54" y="454.6" width="5.86" height="4.49" transform="translate(-69.47 35.64) rotate(-9.05)"/>
    <rect class="cls-5" x="199.86" y="452.64" width="5.86" height="4.49" transform="translate(-69.01 37.55) rotate(-9.05)"/>
    <rect class="cls-5" x="212.52" y="449.96" width="5.86" height="4.49" transform="translate(-68.43 39.51) rotate(-9.05)"/>
    <rect class="cls-5" x="225.51" y="447.59" width="5.86" height="4.49" transform="translate(-67.9 41.52) rotate(-9.05)"/>
    <rect class="cls-5" x="237.97" y="444.61" width="5.86" height="4.49" transform="translate(-67.27 43.44) rotate(-9.05)"/>
    <rect class="cls-5" x="251.56" y="442.44" width="5.86" height="4.49" transform="translate(-66.76 45.55) rotate(-9.05)"/>
    <rect class="cls-5" x="264.38" y="440.4" width="5.86" height="4.49" transform="translate(-66.28 47.54) rotate(-9.05)"/>
    <rect class="cls-5" x="279.84" y="438.57" width="5.86" height="4.49" transform="translate(-65.8 49.95) rotate(-9.05)"/>
    <rect class="cls-5" x="294.26" y="436.64" width="5.86" height="4.49" transform="translate(-65.32 52.2) rotate(-9.05)"/>
    <rect class="cls-5" x="308.93" y="434.24" width="5.86" height="4.49" transform="translate(-64.76 54.47) rotate(-9.05)"/>
    <rect class="cls-5" x="323.88" y="432.38" width="5.86" height="4.49" transform="translate(-64.28 56.8) rotate(-9.05)"/>
    <rect class="cls-5" x="335.65" y="431.56" width="5.86" height="4.49" transform="translate(-64.01 58.64) rotate(-9.05)"/>
    <rect class="cls-5" x="350.37" y="429.7" width="5.86" height="4.49" transform="translate(-63.53 60.93) rotate(-9.05)"/>
    <rect class="cls-5" x="365" y="427.64" width="5.86" height="4.49" transform="translate(-63.03 63.21) rotate(-9.05)"/>
    <rect class="cls-5" x="378.94" y="425.42" width="5.86" height="4.49" transform="translate(-62.5 65.37) rotate(-9.05)"/>
    <rect class="cls-5" x="392.66" y="422.61" width="5.86" height="4.49" transform="translate(-61.89 67.5) rotate(-9.05)"/>
    <rect class="cls-5" x="406.74" y="420.43" width="5.86" height="4.49" transform="translate(-90.61 112.51) rotate(-14.1)"/>
    <rect class="cls-5" x="420.37" y="417.53" width="5.86" height="4.49" transform="translate(-89.5 115.74) rotate(-14.1)"/>
    <rect class="cls-5" x="434.01" y="414.11" width="5.86" height="4.49" transform="translate(-88.25 118.96) rotate(-14.1)"/>
    <rect class="cls-5" x="447.05" y="411.22" width="5.86" height="4.49" transform="translate(-87.16 122.05) rotate(-14.1)"/>
    <rect class="cls-5" x="460.81" y="407.76" width="5.86" height="4.49" transform="translate(-85.9 125.3) rotate(-14.1)"/>
    <rect class="cls-5" x="473.39" y="404.22" width="5.86" height="4.49" transform="translate(-84.66 128.26) rotate(-14.1)"/>
    <rect class="cls-5" x="485.64" y="400.5" width="5.86" height="4.49" transform="translate(-106.19 185.56) rotate(-19.44)"/>
    <rect class="cls-5" x="498.66" y="395.91" width="5.86" height="4.49" transform="translate(-125.41 267.78) rotate(-26.7)"/>
    <rect class="cls-5" x="510.55" y="390.45" width="5.86" height="4.49" transform="translate(-121.69 272.55) rotate(-26.7)"/>
    <rect class="cls-5" x="521.8" y="383.76" width="5.86" height="4.49" transform="translate(-126.38 365.81) rotate(-34.56)"/>
    <rect class="cls-5" x="530.82" y="376.5" width="5.86" height="4.49" transform="translate(-120.66 369.64) rotate(-34.56)"/>
  </g>
  <path class="cls-2" d="M264.97,355.69c0,19.95-7.07,36.45-21.21,49.5-14.14,13.05-32.18,19.57-54.1,19.57-13.38,0-31.79-4.49-55.25-13.48-1.76-.66-3.29-.99-4.6-.99-3.73,0-6.58,3.95-8.55,11.84-.66,2.41-1.54,3.62-2.63,3.62-1.76,0-2.63-1.54-2.63-4.6,0-2.85.54-7.89,1.64-15.13.87-5.92,1.32-12.83,1.32-20.72,0-6.36-.11-11.4-.33-15.13-.44-7.45-.66-11.84-.66-13.16,0-3.51,1.1-5.26,3.29-5.26s4.16,4.72,5.92,14.14c3.07,16.23,9.98,28.84,20.72,37.82,11.62,9.65,24.12,14.47,37.49,14.47,11.84,0,21.81-3.73,29.93-11.18,8.11-7.45,12.17-16.55,12.17-27.3,0-9.21-2.63-16.55-7.89-22.04-3.95-3.95-16.66-11.73-38.15-23.35-23.9-12.71-40.12-25.43-48.68-38.15-7.89-11.62-11.84-25.43-11.84-41.44,0-18.86,6.69-34.48,20.06-46.87,13.37-12.38,30.26-18.58,50.65-18.58,10.96,0,22.69,2.63,35.19,7.89,4.16,1.76,7.12,2.63,8.88,2.63,3.29,0,5.48-2.85,6.58-8.55.44-1.97,1.42-2.96,2.96-2.96,2.19,0,3.29,1.43,3.29,4.28,0,1.1-.22,4.17-.66,9.21-.44,5.05-.66,9.21-.66,12.5,0,11.4.44,21.05,1.32,28.94.22.66.33,1.54.33,2.63,0,1.97-.88,2.96-2.63,2.96-1.97,0-3.95-3.51-5.92-10.53-1.97-7.01-5.43-13.98-10.36-20.88-4.93-6.91-9.92-11.89-14.96-14.96-6.58-3.95-14.26-5.92-23.02-5.92-12.28,0-22.04,2.96-29.27,8.88-7.24,5.92-10.85,14.03-10.85,24.34,0,8.99,3.4,16.94,10.2,23.84,6.79,6.91,19.84,15.74,39.14,26.48,23.68,13.16,39.35,23.68,47.03,31.57,11.18,11.63,16.77,26.31,16.77,44.07Z"/>
  <path class="cls-4" d="M139.48,519.44c6.27-1.5,15.38-6.5,21.35-8.8,10.76-4.62,24.64-10.15,34.92-14.32,8.63-2.82,23.39-5.44,32.5-7.7,7.64-1.75,15.37-2.2,23.45-3.31,8.56-.89,16.98-2.54,25.3-2.5,3.93-.38,9.26,1.07,12.41-1.61,1.6-1.8,1.42-6.1,1.16-9.07-.14-2.27-1.39-4-3.69-4.5-5.95-1.67-21.41-5.71-29.23-7.81-5.55-1.26-9.57-3.3-15.57-2.91-19.66,2.99-39.49,6.68-59.62,9.93-10.87,1.72-21.83,5.4-33.42,8.27-11.05,3.17-21.21,5.56-31.71,9.77-5.98,3.47-16.35,6.96-15.62,14.1.83,6.26,7.7,8.12,12.75,10.45,6.79,2.93,16.33,7.07,20.8,8.98,1.33.54,2.63,1.1,4.03,1.06h.18Z"/>
  <path class="cls-4" d="M475.5,337.85c-.7.94-.8,2.05-.87,3.22-.09,18.03-.07,58.49,0,70.27-.02,1.34.27,2.29.9,2.86,1.01.9,2.63.69,3.6.49,14.26-2.94,28.48-11.05,28.48-11.05,16.63-9.49,20.86-10.28,25.9-16.85,3.91-5.09,5.02-9.38,5.41-11.35,1.06-5.3.05-9.58-.34-11.38-4.48-20.5-2.95-54.12-.59-63.82.15-.63.96-3.83.44-4.03-.5-.2-1.95,2.5-3.4,4.85-2.01,3.25-4.56,5.23-9.59,9.05-4.64,3.52-10.89,7.74-19.88,12.44-4.97,2.59-5.66,2.66-12.52,6.04-7.54,3.72-13.56,7.01-17.54,9.26Z"/>
</svg>