<svg width="1481" height="459" viewBox="0 0 1481 459" fill="none" xmlns="http://www.w3.org/2000/svg">
<circle cx="612.141" cy="206.518" r="54.8495" fill="black"/>
<circle cx="671.086" cy="163.948" r="54.8495" fill="black"/>
<circle cx="748.039" cy="206.518" r="54.8495" fill="black"/>
<circle cx="840.55" cy="174.59" r="54.8495" fill="black"/>
<circle cx="804.12" cy="237.217" r="47.0724" fill="#595252"/>
<circle cx="642.024" cy="306.802" r="47.0724" fill="#595252"/>
<circle cx="1271.07" cy="197.072" r="47.0724" fill="#595252"/>
<circle cx="1069.07" cy="254.072" r="47.0724" fill="#595252"/>
<circle cx="495.895" cy="182.777" r="29.4714" fill="#595252"/>
<circle cx="325.616" cy="167.223" r="29.4714" fill="#595252"/>
<circle cx="175.471" cy="134.471" r="29.4714" fill="#595252"/>
<circle cx="72.4714" cy="164.471" r="29.4714" fill="#595252"/>
<circle cx="1130.47" cy="175.471" r="29.4714" fill="#595252"/>
<circle cx="1371.47" cy="210.471" r="29.4714" fill="#595252"/>
<circle cx="937.15" cy="174.59" r="54.8495" fill="black"/>
<circle cx="550.744" cy="182.777" r="54.8495" fill="black"/>
<circle cx="592.85" cy="340.85" r="54.8495" fill="black"/>
<circle cx="670.85" cy="352.85" r="54.8495" fill="black"/>
<circle cx="207.56" cy="342.779" r="47.0724" transform="rotate(-17.0019 207.56 342.779)" fill="#595252"/>
<circle cx="170.491" cy="389.717" r="54.8495" transform="rotate(-17.0019 170.491 389.717)" fill="black"/>
<circle cx="248.59" cy="378.385" r="54.8495" transform="rotate(-17.0019 248.59 378.385)" fill="black"/>
<circle cx="534.678" cy="327.893" r="44.3703" transform="rotate(-2.00194 534.678 327.893)" fill="#595252"/>
<circle cx="489.476" cy="361.586" r="51.701" transform="rotate(-2.00194 489.476 361.586)" fill="black"/>
<circle cx="563.348" cy="370.322" r="51.701" transform="rotate(-2.00194 563.348 370.322)" fill="black"/>
<circle cx="1291.68" cy="362.893" r="44.3703" transform="rotate(-2.00194 1291.68 362.893)" fill="#595252"/>
<circle cx="1246.48" cy="396.586" r="51.701" transform="rotate(-2.00194 1246.48 396.586)" fill="black"/>
<circle cx="1320.35" cy="405.322" r="51.701" transform="rotate(-2.00194 1320.35 405.322)" fill="black"/>
<circle cx="774.85" cy="300.85" r="54.8495" fill="black"/>
<circle cx="850.85" cy="289.85" r="54.8495" fill="black"/>
<circle cx="1032.85" cy="293.85" r="54.8495" fill="black"/>
<circle cx="1123.85" cy="283.85" r="54.8495" fill="black"/>
<circle cx="1168.85" cy="228.85" r="54.8495" fill="black"/>
<circle cx="1254.85" cy="238.85" r="54.8495" fill="black"/>
<circle cx="1324.85" cy="248.85" r="54.8495" fill="black"/>
<circle cx="1425.85" cy="244.85" r="54.8495" fill="black"/>
<circle cx="476.247" cy="229.44" r="54.8495" fill="black"/>
<circle cx="383.74" cy="190.145" r="54.8495" fill="black"/>
<circle cx="229.834" cy="163.948" r="54.8495" fill="black"/>
<circle cx="54.8495" cy="211.85" r="54.8495" fill="black"/>
<circle cx="284.683" cy="218.798" r="54.8495" fill="black"/>
<circle cx="106.85" cy="299.85" r="54.8495" fill="black"/>
<path d="M773.739 96C763.43 166.652 775.491 193.632 852.07 202.783C785.476 208.068 762.251 227.398 740.453 284.66C743.998 217.914 728.203 193.546 662.122 177.877C727.538 172.681 752.7 155.641 773.739 96Z" fill="#FFF0D2"/>
<path d="M64.4644 175.18C104.923 197.409 123.992 196.208 146.861 151.899C134.995 193.427 141.447 211.867 171.196 238.026C131.573 220.777 113.241 224.829 88.7994 261.307C100.453 220.511 95.8261 201.416 64.4644 175.18Z" fill="#FFF0D2"/>
<path d="M309.698 195.287C330.264 236.615 346.616 246.501 390.666 223.135C357.241 250.488 352.029 269.317 361.557 307.768C338.838 271.007 321.466 263.885 280.589 279.92C313.421 253.048 320.506 234.722 309.698 195.287Z" fill="#FFFBF4"/>
<path d="M860.952 0C846.855 19.3832 846.226 29.2835 867.551 43.9616C846.938 35.1322 837.018 37.2487 821.599 50.8594C833.076 31.5804 832.188 21.8734 815 6.89785C835.249 15.5695 845.386 14.4359 860.952 0Z" fill="#FFFBF4"/>
<path d="M590.495 181.37C611.061 222.698 627.413 232.584 671.463 209.218C638.038 236.571 632.826 255.4 642.354 293.851C619.635 257.09 602.263 249.969 561.386 266.003C594.218 239.131 601.303 220.805 590.495 181.37Z" fill="#FFFBF4"/>
<path d="M595.361 123.474C574.314 134.94 569.5 143.613 582.47 166.018C567.635 149.202 557.766 146.861 538 152.544C556.635 140.049 559.996 130.899 550.891 110C565.464 126.517 575.109 129.84 595.361 123.474Z" fill="#FFFBF4"/>
<path d="M1224.36 283.474C1203.31 294.94 1198.5 303.613 1211.47 326.018C1196.63 309.202 1186.77 306.861 1167 312.544C1185.64 300.049 1189 290.899 1179.89 270C1194.46 286.517 1204.11 289.84 1224.36 283.474Z" fill="#FFFBF4"/>
<path d="M357.361 34.4741C336.314 45.9395 331.5 54.6134 344.47 77.0182C329.635 60.2025 319.766 57.8606 300 63.544C318.635 51.0493 321.996 41.8994 312.891 20.9999C327.464 37.5171 337.109 40.8403 357.361 34.4741Z" fill="#FFFBF4"/>
<path d="M1414.36 118.474C1393.31 129.94 1388.5 138.613 1401.47 161.018C1386.63 144.202 1376.77 141.861 1357 147.544C1375.64 135.049 1379 125.899 1369.89 105C1384.46 121.517 1394.11 124.84 1414.36 118.474Z" fill="#FFFBF4"/>
</svg>
