<svg width="1351" height="604" viewBox="0 0 1351 604" fill="none" xmlns="http://www.w3.org/2000/svg">
<circle cx="887" cy="135" r="67" fill="black"/>
<circle cx="959.002" cy="83" r="67" fill="black"/>
<circle cx="1053" cy="135" r="67" fill="black"/>
<circle cx="1166.01" cy="96" r="67" fill="black"/>
<circle cx="1121.51" cy="172.5" r="57.5" fill="#595252"/>
<circle cx="923.503" cy="257.5" r="57.5" fill="#595252"/>
<circle cx="73.5028" cy="182.5" r="40.5" fill="#464646"/>
<circle cx="745.003" cy="106" r="36" fill="#595252"/>
<circle cx="537.003" cy="87" r="36" fill="#595252"/>
<circle cx="1284.01" cy="96" r="67" fill="black"/>
<path d="M1084.4 0C1071.8 86.3029 1086.54 119.259 1180.08 130.438C1098.73 136.894 1070.36 160.505 1043.74 230.453C1048.07 148.921 1028.77 119.155 948.053 100.015C1027.96 93.6672 1058.7 72.853 1084.4 0Z" fill="#FFF0D2"/>
<path d="M218 96.7197C267.421 123.873 290.715 122.407 318.65 68.2813C304.154 119.01 312.036 141.535 348.376 173.487C299.975 152.417 277.582 157.368 247.726 201.926C261.961 152.094 256.309 128.769 218 96.7197Z" fill="#FFF0D2"/>
<circle cx="812.003" cy="106" r="67" fill="black"/>
<circle cx="721.003" cy="163" r="67" fill="black"/>
<circle cx="608.003" cy="115" r="67" fill="black"/>
<circle cx="420.003" cy="83" r="67" fill="black"/>
<circle cx="487.003" cy="150" r="67" fill="black"/>
<path d="M517.559 121.281C542.681 171.765 562.655 183.84 616.463 155.298C575.633 188.711 569.267 211.711 580.906 258.68C553.154 213.775 531.934 205.076 482.002 224.662C522.107 191.837 530.761 169.452 517.559 121.281Z" fill="#FFFBF4"/>
<path d="M1114.14 479C1096.92 502.677 1096.15 514.77 1122.2 532.7C1097.02 521.915 1084.9 524.5 1066.07 541.126C1080.09 517.576 1079 505.719 1058.01 487.426C1082.74 498.018 1095.12 496.634 1114.14 479Z" fill="#FFFBF4"/>
<path d="M70.0689 551.459C44.3598 565.464 38.4793 576.06 54.3227 603.428C36.2016 582.887 24.1465 580.026 0.00157948 586.969C22.7652 571.706 26.8704 560.529 15.7478 535C33.55 555.176 45.3306 559.235 70.0689 551.459Z" fill="#FFFBF4"/>
<path d="M860.559 104.281C885.681 154.765 905.655 166.84 959.463 138.298C918.633 171.711 912.267 194.711 923.906 241.68C896.154 196.775 874.934 188.076 825.002 207.662C865.107 174.837 873.761 152.452 860.559 104.281Z" fill="#FFFBF4"/>
</svg>
