<svg width="261" height="546" viewBox="0 0 261 546" fill="none" xmlns="http://www.w3.org/2000/svg">
<ellipse cx="40.6778" cy="38.3912" rx="40.6778" ry="38.3912" transform="matrix(-1 0 0 1 171.043 0)" fill="url(#paint0_linear_719_917)"/>
<path d="M179.336 289.262L179.344 289.22C184.454 259.444 180.955 231.954 171.991 211.499C163.028 191.046 148.65 177.714 132.025 176.004C114.386 176.741 98.7141 189.704 89.0576 210.206C79.4009 230.709 75.8056 258.679 82.3145 289.201L82.3252 289.253V289.305C82.3253 320.662 89.2375 349.04 98.9434 369.562C103.797 379.825 109.34 388.104 115.05 393.81C120.768 399.525 126.599 402.607 132.036 402.607C137.47 402.607 143.149 399.529 148.639 393.818C154.122 388.114 159.365 379.836 163.918 369.573C173.024 349.05 179.336 320.669 179.336 289.305V289.262Z" fill="url(#paint1_linear_719_917)" stroke="black"/>
<path d="M162.793 235.844C155.614 226.931 154.017 227.617 154.017 227.617V366.099C154.017 366.099 155.445 361.319 159.601 354.445C163.757 347.571 169.972 244.756 162.793 235.844Z" fill="#FFC77E"/>
<path d="M151.497 9.96435C146.205 7.43481 125.555 7.43481 125.555 7.43481C125.555 7.43481 147.031 18.5859 151.498 22.6134C155.965 26.6409 154.465 60.3001 154.465 60.3001C154.465 60.3001 158.597 60.7131 165.204 45.8447C171.812 30.9764 156.79 12.4939 151.497 9.96435Z" fill="#FFC77E"/>
<path d="M128.669 392.782C101.73 392.782 74.8838 393.766 53.3946 395.732C42.6475 396.715 33.2674 397.941 25.8975 399.405C18.4441 400.885 13.2929 402.567 10.791 404.333C8.40828 406.016 6.44217 409.332 4.94827 414.202C3.46769 419.028 2.5194 425.153 2.00003 432.152C0.961831 446.143 1.65237 463.383 3.04593 480.195C4.43845 496.994 6.52733 513.309 8.26956 525.427C9.14046 531.485 9.92444 536.492 10.4903 539.983C10.7732 541.728 11.0017 543.095 11.1592 544.025C11.1696 544.086 11.1797 544.146 11.1895 544.204H247.966C247.978 544.138 247.992 544.069 248.005 543.999C248.179 543.069 248.432 541.703 248.745 539.958C249.371 536.468 250.239 531.462 251.203 525.405C253.132 513.288 255.444 496.976 256.985 480.181C258.528 463.373 259.292 446.142 258.144 432.164C257.569 425.171 256.521 419.059 254.886 414.245C253.24 409.4 251.07 406.075 248.4 404.373C245.575 402.571 240.124 400.885 232.458 399.407C224.86 397.942 215.291 396.715 204.395 395.732C182.605 393.766 155.607 392.782 128.669 392.782Z" fill="url(#paint2_linear_719_917)" stroke="#7A1E1E" stroke-width="3"/>
<path d="M129.662 445.899C110.289 445.899 90.9771 446.2 75.5132 446.802C67.7801 447.104 61.0212 447.48 55.7036 447.929C50.3337 448.383 46.5719 448.903 44.7378 449.454C41.4911 450.429 39.7152 453.157 39.0122 457.274C38.305 461.417 38.767 466.633 39.7593 471.848C40.7461 477.035 42.2305 482.091 43.4732 485.861C44.0935 487.743 44.6511 489.298 45.0533 490.381C45.1728 490.702 45.2812 490.981 45.3706 491.216L128.453 499.061L215.282 491.208C215.384 490.966 215.509 490.672 215.649 490.332C216.094 489.25 216.712 487.697 217.398 485.816C218.773 482.049 220.414 476.998 221.504 471.819C222.602 466.608 223.109 461.416 222.332 457.301C221.567 453.257 219.63 450.473 215.915 449.465C213.844 448.903 209.871 448.383 204.349 447.929C198.869 447.48 191.975 447.104 184.134 446.802C168.455 446.2 149.035 445.899 129.662 445.899Z" fill="url(#paint3_linear_719_917)" stroke="#FFEBD1" stroke-width="3"/>
<mask id="path-7-inside-1_719_917" fill="white">
<path d="M133.554 71.2979C85.1904 71.9697 60.0867 95.3671 77.7227 123.4C77.7227 129.935 79.035 136.189 81.419 141.952C77.4907 149.123 75.2706 157.268 75.2705 165.904C61.4282 193.246 84.6742 216.433 130.305 218.007C178.668 217.335 203.773 193.938 186.137 165.904C186.137 159.369 184.825 153.115 182.441 147.352C186.369 140.181 188.589 132.036 188.589 123.4C202.431 96.0589 179.185 72.8712 133.554 71.2979Z"/>
</mask>
<path d="M133.554 71.2979C85.1904 71.9697 60.0867 95.3671 77.7227 123.4C77.7227 129.935 79.035 136.189 81.419 141.952C77.4907 149.123 75.2706 157.268 75.2705 165.904C61.4282 193.246 84.6742 216.433 130.305 218.007C178.668 217.335 203.773 193.938 186.137 165.904C186.137 159.369 184.825 153.115 182.441 147.352C186.369 140.181 188.589 132.036 188.589 123.4C202.431 96.0589 179.185 72.8712 133.554 71.2979Z" fill="url(#paint4_linear_719_917)"/>
<path d="M133.554 71.2979L133.54 70.2979L133.564 70.2976L133.588 70.2984L133.554 71.2979ZM77.7227 123.4L78.5691 122.868L78.7227 123.112V123.4L77.7227 123.4ZM81.419 141.952L82.343 141.57L82.5261 142.013L82.296 142.433L81.419 141.952ZM75.2705 165.904H76.2705V166.143L76.1627 166.356L75.2705 165.904ZM130.305 218.007L130.319 219.007L130.294 219.007L130.27 219.006L130.305 218.007ZM186.137 165.904L185.29 166.437L185.137 166.193L185.137 165.904H186.137ZM182.441 147.352L181.517 147.734L181.334 147.291L181.564 146.871L182.441 147.352ZM188.589 123.4L187.589 123.4L187.589 123.162L187.697 122.949L188.589 123.4ZM133.554 71.2979L133.568 72.2978C109.501 72.6321 91.4273 78.625 81.5706 87.8198C76.6603 92.4004 73.8005 97.7602 73.1998 103.629C72.5984 109.505 74.2501 116.003 78.5691 122.868L77.7227 123.4L76.8763 123.933C72.3773 116.782 70.5534 109.842 71.2102 103.425C71.8677 97.002 74.9998 91.2142 80.2064 86.3573C90.5833 76.6772 109.243 70.6355 133.54 70.2979L133.554 71.2979ZM77.7227 123.4L78.7227 123.4C78.7227 129.8 80.0076 135.924 82.343 141.57L81.419 141.952L80.4949 142.334C78.0625 136.454 76.7227 130.071 76.7227 123.4L77.7227 123.4ZM81.419 141.952L82.296 142.433C78.4455 149.462 76.2706 157.442 76.2705 165.904H75.2705H74.2705C74.2706 157.094 76.536 148.785 80.5419 141.472L81.419 141.952ZM75.2705 165.904L76.1627 166.356C72.78 173.038 71.6931 179.402 72.6011 185.204C73.5087 191.004 76.4221 196.323 81.1785 200.898C90.716 210.071 107.652 216.225 130.339 217.007L130.305 218.007L130.27 219.006C107.327 218.215 89.8247 211.989 79.7921 202.339C74.7634 197.503 71.6089 191.8 70.6251 185.513C69.6417 179.229 70.8399 172.442 74.3784 165.453L75.2705 165.904ZM130.305 218.007L130.291 217.007C154.358 216.673 172.431 210.68 182.288 201.485C187.199 196.904 190.059 191.545 190.66 185.676C191.261 179.8 189.609 173.302 185.29 166.437L186.137 165.904L186.983 165.372C191.482 172.523 193.306 179.462 192.649 185.879C191.992 192.303 188.859 198.091 183.653 202.947C173.276 212.628 154.615 218.669 130.319 219.007L130.305 218.007ZM186.137 165.904H185.137C185.137 159.505 183.853 153.38 181.517 147.734L182.441 147.352L183.366 146.969C185.798 152.85 187.137 159.234 187.137 165.904H186.137ZM182.441 147.352L181.564 146.871C185.415 139.842 187.589 131.862 187.589 123.4L188.589 123.4L189.589 123.4C189.589 132.21 187.324 140.519 183.318 147.832L182.441 147.352ZM188.589 123.4L187.697 122.949C191.079 116.267 192.166 109.903 191.258 104.101C190.351 98.3006 187.437 92.9815 182.681 88.4068C173.143 79.2336 156.206 73.0795 133.519 72.2973L133.554 71.2979L133.588 70.2984C156.532 71.0895 174.034 77.316 184.067 86.9653C189.096 91.8019 192.25 97.5047 193.234 103.791C194.218 110.076 193.02 116.863 189.481 123.852L188.589 123.4Z" fill="#48090A" mask="url(#path-7-inside-1_719_917)"/>
<path d="M179.137 170.702C174.854 165.906 172.985 168.649 172.985 168.649V201.552C172.985 201.552 177.69 200.417 180.438 198.783C183.185 197.15 183.421 175.499 179.137 170.702Z" fill="#FFC77E"/>
<path d="M96.9158 204.14C103.569 206.105 103.364 202.931 103.364 202.931L82.2174 175.503C82.2174 175.503 79.0256 178.684 77.7848 181.35C76.544 184.016 90.2622 202.176 96.9158 204.14Z" fill="#FFC77E"/>
<path d="M178.043 91.179C173.297 89.0615 175.651 89.1252 175.651 89.1252V122.029C175.651 122.029 176.596 120.893 179.343 119.26C182.091 117.627 182.79 93.2965 178.043 91.179Z" fill="#FFC77E"/>
<defs>
<linearGradient id="paint0_linear_719_917" x1="12.0338" y1="-1.40609e-06" x2="67.3771" y2="26.4326" gradientUnits="userSpaceOnUse">
<stop stop-color="#FFC157"/>
<stop offset="1" stop-color="#FCA129"/>
</linearGradient>
<linearGradient id="paint1_linear_719_917" x1="130.364" y1="403.108" x2="130.364" y2="175.503" gradientUnits="userSpaceOnUse">
<stop stop-color="#D76F00"/>
<stop offset="1" stop-color="#FCA129"/>
</linearGradient>
<linearGradient id="paint2_linear_719_917" x1="130.098" y1="545.704" x2="130.098" y2="391.282" gradientUnits="userSpaceOnUse">
<stop stop-color="#1A0C02"/>
<stop offset="1" stop-color="#803909"/>
</linearGradient>
<linearGradient id="paint3_linear_719_917" x1="134.046" y1="493.297" x2="134.046" y2="446.052" gradientUnits="userSpaceOnUse">
<stop stop-color="#FCA129"/>
<stop offset="1" stop-color="#FFD398"/>
</linearGradient>
<linearGradient id="paint4_linear_719_917" x1="131.929" y1="218.007" x2="192.463" y2="71.038" gradientUnits="userSpaceOnUse">
<stop stop-color="#FCA129"/>
<stop offset="1" stop-color="#FFBE69"/>
</linearGradient>
</defs>
</svg>
