<svg width="315" height="661" viewBox="0 0 315 661" fill="none" xmlns="http://www.w3.org/2000/svg">
<ellipse cx="49.2455" cy="46.4773" rx="49.2455" ry="46.4773" transform="matrix(-1 0 0 1 207.069 0)" fill="url(#paint0_linear_457_188)"/>
<path d="M217.214 350.197L217.221 350.155C223.411 314.09 219.174 280.787 208.313 256.003C197.453 231.22 180.018 215.041 159.836 212.969C138.425 213.86 119.422 229.592 107.72 254.436C96.0187 279.28 91.6645 313.166 99.5485 350.136L99.5592 350.188V350.24C99.5593 388.216 107.931 422.585 119.688 447.445C125.567 459.877 132.284 469.912 139.208 476.831C146.139 483.758 153.224 487.512 159.846 487.512C166.465 487.512 173.365 483.762 180.021 476.839C186.671 469.922 193.024 459.889 198.54 447.457C209.57 422.596 217.214 388.223 217.214 350.24V350.197Z" fill="url(#paint1_linear_457_188)" stroke="black"/>
<path d="M197.082 285.518C188.391 274.729 186.457 275.559 186.457 275.559V443.209C186.457 443.209 188.186 437.422 193.217 429.1C198.248 420.778 205.772 296.307 197.082 285.518Z" fill="#FFC77E"/>
<path d="M183.407 12.0631C177 9.00073 152 9.00073 152 9.00073C152 9.00073 178 22.5005 183.408 27.3763C188.815 32.252 186.999 73.0007 186.999 73.0007C186.999 73.0007 192.001 73.5007 200 55.5007C208 37.5007 189.813 15.1254 183.407 12.0631Z" fill="#FFC77E"/>
<path d="M155.771 475.195C123.152 475.195 90.6401 476.388 64.6123 478.769C51.5959 479.959 40.2284 481.444 31.291 483.22C22.2703 485.012 15.9718 487.056 12.8818 489.237C9.91092 491.335 7.50301 495.432 5.6875 501.351C3.8854 507.226 2.73605 514.666 2.10645 523.15C0.847773 540.113 1.68455 561.003 3.37207 581.361C5.05858 601.707 7.58949 621.465 9.69922 636.14C10.7539 643.476 11.7034 649.539 12.3887 653.768C12.7312 655.881 13.0074 657.536 13.1982 658.662C13.2275 658.835 13.2551 658.995 13.2803 659.143H300.455C300.484 658.988 300.516 658.819 300.551 658.637C300.762 657.511 301.068 655.856 301.447 653.742C302.206 649.515 303.256 643.452 304.424 636.117C306.759 621.444 309.561 601.69 311.428 581.349C313.296 560.993 314.222 540.111 312.829 523.161C312.133 514.683 310.861 507.255 308.87 501.393C306.869 495.5 304.21 491.395 300.89 489.277C297.413 487.06 290.761 485.011 281.479 483.222C272.267 481.445 260.67 479.959 247.473 478.769C221.082 476.388 188.389 475.195 155.771 475.195Z" fill="url(#paint2_linear_457_188)" stroke="#7A1E1E" stroke-width="3"/>
<path d="M156.972 539.5C133.516 539.5 110.132 539.865 91.4054 540.594C82.0411 540.959 73.8535 541.414 67.4093 541.958C60.9126 542.508 56.3262 543.139 54.0695 543.817C49.9774 545.047 47.7786 548.489 46.9171 553.535C46.0514 558.606 46.6198 564.963 47.8234 571.29C49.0215 577.587 50.8224 583.723 52.3292 588.294C53.0816 590.577 53.7592 592.463 54.2472 593.777C54.4247 594.255 54.5794 594.656 54.7013 594.973L155.501 604.494L260.843 594.966C260.981 594.643 261.157 594.227 261.362 593.728C261.902 592.415 262.651 590.53 263.484 588.25C265.151 583.681 267.143 577.551 268.468 571.261C269.799 564.94 270.423 558.604 269.47 553.56C268.53 548.588 266.125 545.091 261.474 543.829C258.935 543.14 254.099 542.508 247.416 541.959C240.775 541.414 232.424 540.959 222.929 540.594C203.942 539.865 180.428 539.501 156.972 539.5Z" fill="url(#paint3_linear_457_188)" stroke="#FFEBD1" stroke-width="3"/>
<mask id="path-7-inside-1_457_188" fill="white">
<path d="M161.684 86.3149C103.134 87.1282 72.7415 115.453 94.0918 149.391C94.0918 157.303 95.6812 164.874 98.5674 171.851C93.8118 180.533 91.124 190.393 91.124 200.848C74.3663 233.948 102.508 262.019 157.75 263.924C216.3 263.111 246.692 234.786 225.342 200.848C225.342 192.937 223.753 185.365 220.867 178.387C225.622 169.706 228.31 159.846 228.31 149.391C245.067 116.291 216.925 88.2198 161.684 86.3149Z"/>
</mask>
<path d="M161.684 86.3149C103.134 87.1282 72.7415 115.453 94.0918 149.391C94.0918 157.303 95.6812 164.874 98.5674 171.851C93.8118 180.533 91.124 190.393 91.124 200.848C74.3663 233.948 102.508 262.019 157.75 263.924C216.3 263.111 246.692 234.786 225.342 200.848C225.342 192.937 223.753 185.365 220.867 178.387C225.622 169.706 228.31 159.846 228.31 149.391C245.067 116.291 216.925 88.2198 161.684 86.3149Z" fill="url(#paint4_linear_457_188)"/>
<path d="M161.684 86.3149L161.67 85.315L161.694 85.3147L161.718 85.3155L161.684 86.3149ZM94.0918 149.391L94.9382 148.859L95.0918 149.103V149.391H94.0918ZM98.5674 171.851L99.4915 171.469L99.6745 171.911L99.4444 172.331L98.5674 171.851ZM91.124 200.848H92.124V201.087L92.0162 201.3L91.124 200.848ZM157.75 263.924L157.764 264.924L157.74 264.925L157.716 264.924L157.75 263.924ZM225.342 200.848L224.495 201.381L224.342 201.137V200.848H225.342ZM220.867 178.387L219.943 178.769L219.76 178.327L219.99 177.907L220.867 178.387ZM228.31 149.391H227.31V149.152L227.417 148.939L228.31 149.391ZM161.684 86.3149L161.697 87.3148C132.537 87.7199 110.595 94.98 98.6072 106.163C92.6313 111.737 89.1404 118.271 88.4071 125.434C87.673 132.604 89.6906 140.517 94.9382 148.859L94.0918 149.391L93.2454 149.924C87.8178 141.296 85.628 132.942 86.4174 125.23C87.2076 117.513 90.9709 110.551 97.243 104.7C109.751 93.0323 132.28 85.7232 161.67 85.315L161.684 86.3149ZM94.0918 149.391H95.0918C95.0918 157.167 96.6538 164.608 99.4915 171.469L98.5674 171.851L97.6433 172.233C94.7087 165.139 93.0918 157.438 93.0918 149.391H94.0918ZM98.5674 171.851L99.4444 172.331C94.7666 180.871 92.124 190.567 92.124 200.848H91.124H90.124C90.124 190.219 92.8571 180.194 97.6903 171.371L98.5674 171.851ZM91.124 200.848L92.0162 201.3C87.9046 209.421 86.5771 217.171 87.6843 224.245C88.7911 231.318 92.3436 237.798 98.1305 243.364C109.729 254.519 130.292 261.977 157.784 262.925L157.75 263.924L157.716 264.924C129.966 263.967 108.838 256.437 96.7441 244.805C90.6849 238.978 86.8914 232.114 85.7084 224.555C84.5257 216.997 85.9646 208.825 90.2318 200.396L91.124 200.848ZM157.75 263.924L157.736 262.924C186.896 262.519 208.838 255.259 220.826 244.077C226.802 238.502 230.293 231.969 231.027 224.805C231.761 217.635 229.743 209.722 224.495 201.381L225.342 200.848L226.188 200.316C231.616 208.943 233.806 217.297 233.016 225.009C232.226 232.727 228.463 239.688 222.191 245.539C209.683 257.207 187.154 264.516 157.764 264.924L157.75 263.924ZM225.342 200.848H224.342C224.342 193.072 222.781 185.63 219.943 178.769L220.867 178.387L221.791 178.005C224.726 185.1 226.342 192.801 226.342 200.848H225.342ZM220.867 178.387L219.99 177.907C224.668 169.367 227.31 159.672 227.31 149.391H228.31H229.31C229.31 160.02 226.577 170.044 221.744 178.868L220.867 178.387ZM228.31 149.391L227.417 148.939C231.529 140.818 232.856 133.069 231.749 125.994C230.642 118.921 227.09 112.441 221.303 106.876C209.705 95.7202 189.141 88.2623 161.649 87.3143L161.684 86.3149L161.718 85.3155C189.467 86.2724 210.596 93.8025 222.69 105.434C228.749 111.262 232.542 118.125 233.725 125.685C234.908 133.242 233.469 141.414 229.202 149.843L228.31 149.391Z" fill="#48090A" mask="url(#path-7-inside-1_457_188)"/>
<path d="M216.868 206.657C211.682 200.85 209.419 204.17 209.419 204.17V244.004C209.419 244.004 215.115 242.629 218.442 240.652C221.768 238.675 222.053 212.464 216.868 206.657Z" fill="#FFC77E"/>
<path d="M117.328 247.137C125.383 249.516 125.135 245.674 125.135 245.674L99.5339 212.469C99.5339 212.469 95.6698 216.319 94.1677 219.547C92.6656 222.775 109.273 244.759 117.328 247.137Z" fill="#FFC77E"/>
<path d="M215.543 110.384C209.797 107.82 212.647 107.897 212.647 107.897V147.731C212.647 147.731 213.791 146.356 217.117 144.379C220.444 142.402 221.29 112.947 215.543 110.384Z" fill="#FFC77E"/>
<defs>
<linearGradient id="paint0_linear_457_188" x1="14.5684" y1="-1.70225e-06" x2="81.5684" y2="32" gradientUnits="userSpaceOnUse">
<stop stop-color="#FFC157"/>
<stop offset="1" stop-color="#FCA129"/>
</linearGradient>
<linearGradient id="paint1_linear_457_188" x1="157.822" y1="488.012" x2="157.822" y2="212.468" gradientUnits="userSpaceOnUse">
<stop stop-color="#D76F00"/>
<stop offset="1" stop-color="#FCA129"/>
</linearGradient>
<linearGradient id="paint2_linear_457_188" x1="157.5" y1="660.642" x2="157.5" y2="473.695" gradientUnits="userSpaceOnUse">
<stop stop-color="#1A0C02"/>
<stop offset="1" stop-color="#803909"/>
</linearGradient>
<linearGradient id="paint3_linear_457_188" x1="162.279" y1="597.197" x2="162.279" y2="540.002" gradientUnits="userSpaceOnUse">
<stop stop-color="#FCA129"/>
<stop offset="1" stop-color="#FFD398"/>
</linearGradient>
<linearGradient id="paint4_linear_457_188" x1="159.717" y1="263.924" x2="233" y2="86.0005" gradientUnits="userSpaceOnUse">
<stop stop-color="#FCA129"/>
<stop offset="1" stop-color="#FFBE69"/>
</linearGradient>
</defs>
</svg>
