<svg width="563" height="642" viewBox="0 0 563 642" fill="none" xmlns="http://www.w3.org/2000/svg">
<g filter="url(#filter0_d_828_166)">
<rect x="1.97287" y="0.801783" width="295.126" height="204.731" rx="8.5" transform="matrix(0.91902 -0.386724 0.396225 0.921246 83.5026 326.9)" fill="black" stroke="white" stroke-width="3"/>
<rect x="1.97586" y="0.793616" width="294.397" height="39.0861" rx="3.5" transform="matrix(0.914252 -0.391811 0.402988 0.920889 84.7464 326.418)" fill="black" stroke="white" stroke-width="3"/>
<path d="M120.487 312.883L126.53 350.163L108.758 357.88L102.28 320.432L120.487 312.883Z" fill="white" stroke="white" stroke-width="3"/>
<path d="M157.903 297.305L163.946 334.585L146.174 342.302L139.695 304.854L157.903 297.305Z" fill="white" stroke="white" stroke-width="3"/>
<path d="M195.319 281.729L201.362 319.008L183.591 326.726L177.112 289.278L195.319 281.729Z" fill="white" stroke="white" stroke-width="3"/>
<path d="M229.766 266.528L235.809 303.807L218.037 311.525L211.558 274.077L229.766 266.528Z" fill="white" stroke="white" stroke-width="3"/>
<path d="M264.211 251.327L270.254 288.606L252.482 296.324L246.004 258.875L264.211 251.327Z" fill="white" stroke="white" stroke-width="3"/>
<path d="M298.657 236.127L304.7 273.407L286.928 281.125L280.45 243.676L298.657 236.127Z" fill="white" stroke="white" stroke-width="3"/>
<path d="M331.918 223.782L337.961 261.061L320.19 268.779L313.711 231.33L331.918 223.782Z" fill="white" stroke="white" stroke-width="3"/>
<path d="M346.372 216.416C348.728 215.273 351.644 213.927 354.037 213.026C354.043 213.029 354.05 213.031 354.057 213.035C354.213 213.104 354.478 213.274 354.848 213.626C355.583 214.328 356.474 215.494 357.468 217.061C359.442 220.174 361.628 224.56 363.606 229.103C365.582 233.639 367.323 238.268 368.419 241.841C368.969 243.635 369.342 245.116 369.508 246.167C369.568 246.545 369.594 246.832 369.601 247.036C368.906 247.414 367.575 248.046 365.793 248.838C363.641 249.794 360.986 250.923 358.397 252.004C355.811 253.085 353.297 254.116 351.43 254.877C350.92 255.085 350.457 255.272 350.055 255.435L343.195 217.996C343.262 217.962 343.332 217.927 343.405 217.889C344.144 217.514 345.181 216.993 346.372 216.416Z" fill="white" stroke="white" stroke-width="3"/>
<rect x="2.08988" y="0.355826" width="295.695" height="39.1048" rx="8.5" transform="matrix(0.80767 -0.580106 0.585584 0.817324 60.4154 302.593)" fill="black" stroke="white" stroke-width="3"/>
<path d="M92.1853 281.25L105.908 316.546L90.2361 327.917L76.0551 292.548L92.1853 281.25Z" fill="white" stroke="white" stroke-width="3"/>
<path d="M125.32 257.969L139.043 293.265L123.371 304.636L109.19 269.266L125.32 257.969Z" fill="white" stroke="white" stroke-width="3"/>
<path d="M158.457 234.689L172.179 269.986L156.508 281.357L142.327 245.987L158.457 234.689Z" fill="white" stroke="white" stroke-width="3"/>
<path d="M188.782 212.414L202.504 247.711L186.832 259.081L172.652 223.712L188.782 212.414Z" fill="white" stroke="white" stroke-width="3"/>
<path d="M219.105 190.135L232.828 225.431L217.156 236.802L202.975 201.432L219.105 190.135Z" fill="white" stroke="white" stroke-width="3"/>
<path d="M249.43 167.859L263.152 203.156L247.481 214.527L233.3 179.157L249.43 167.859Z" fill="white" stroke="white" stroke-width="3"/>
<path d="M279.202 148.637L292.925 183.933L277.253 195.304L263.072 159.934L279.202 148.637Z" fill="white" stroke="white" stroke-width="3"/>
<path d="M293.348 137.875C294.615 136.923 295.981 135.988 297.264 135.286C298.56 134.577 299.604 134.204 300.309 134.158C300.343 134.169 300.424 134.197 300.558 134.268C300.814 134.404 301.156 134.636 301.584 134.985C302.437 135.68 303.489 136.724 304.673 138.041C307.034 140.667 309.798 144.236 312.385 147.904C314.971 151.571 317.35 155.293 318.951 158.214C319.756 159.683 320.335 160.9 320.654 161.783C320.769 162.103 320.836 162.344 320.872 162.514C320.287 163.082 319.089 164.121 317.477 165.458C315.601 167.013 313.28 168.884 311.015 170.689C308.752 172.493 306.55 174.228 304.913 175.512C304.492 175.842 304.108 176.141 303.77 176.405L289.564 140.974C289.729 140.828 289.915 140.662 290.124 140.482C290.947 139.771 292.085 138.825 293.348 137.875Z" fill="white" stroke="white" stroke-width="3"/>
</g>
<path d="M181.961 389.474L176.173 376.017L180.962 374.002C182.252 373.459 183.393 373.329 184.386 373.61C185.379 373.892 186.098 374.55 186.543 375.584C186.859 376.32 186.952 377.04 186.823 377.744C186.691 378.442 186.372 379.043 185.865 379.546C186.775 379.403 187.588 379.523 188.306 379.907C189.027 380.281 189.567 380.887 189.928 381.724C190.247 382.466 190.341 383.196 190.211 383.915C190.084 384.625 189.757 385.275 189.231 385.863C188.705 386.452 188 386.932 187.118 387.303L181.961 389.474ZM180.311 381.289L183.48 379.956C184.272 379.623 184.815 379.147 185.109 378.529C185.409 377.908 185.411 377.254 185.115 376.566C184.817 375.873 184.339 375.428 183.68 375.231C183.019 375.029 182.269 375.105 181.428 375.458L178.359 376.75L180.311 381.289ZM182.943 387.408L186.174 386.048C186.798 385.785 187.299 385.451 187.677 385.045C188.053 384.632 188.292 384.182 188.394 383.694C188.493 383.2 188.436 382.705 188.223 382.209C188.014 381.724 187.707 381.356 187.3 381.103C186.9 380.848 186.431 380.72 185.892 380.721C185.357 380.713 184.784 380.838 184.172 381.095L180.832 382.5L182.943 387.408ZM195.174 383.913L193.698 384.535L189.84 375.564L191.136 375.018L191.963 376.768C192.01 376.021 192.242 375.358 192.66 374.78C193.081 374.193 193.66 373.744 194.398 373.433C194.56 373.365 194.729 373.305 194.905 373.252C195.08 373.199 195.26 373.156 195.444 373.121L195.835 374.524C195.471 374.585 195.127 374.684 194.803 374.82C194.215 375.068 193.755 375.431 193.422 375.91C193.096 376.387 192.914 376.929 192.878 377.537C192.843 378.146 192.965 378.776 193.245 379.428L195.174 383.913ZM204.937 380.017C204.043 380.394 203.151 380.529 202.262 380.422C201.373 380.316 200.571 380 199.856 379.475C199.144 378.941 198.597 378.228 198.214 377.337C197.833 376.452 197.696 375.574 197.803 374.702C197.914 373.822 198.239 373.029 198.778 372.322C199.314 371.608 200.03 371.064 200.924 370.687C201.818 370.311 202.708 370.18 203.594 370.295C204.477 370.404 205.274 370.725 205.985 371.259C206.694 371.787 207.239 372.494 207.62 373.379C208.003 374.27 208.143 375.154 208.038 376.032C207.931 376.903 207.611 377.691 207.078 378.396C206.544 379.101 205.831 379.641 204.937 380.017ZM204.357 378.693C204.963 378.438 205.443 378.063 205.797 377.568C206.151 377.073 206.358 376.516 206.418 375.898C206.484 375.277 206.38 374.649 206.108 374.015C205.835 373.381 205.45 372.873 204.952 372.489C204.459 372.103 203.91 371.864 203.304 371.773C202.698 371.682 202.092 371.764 201.486 372.019C200.88 372.274 200.397 372.65 200.037 373.148C199.683 373.643 199.473 374.201 199.407 374.822C199.347 375.441 199.453 376.067 199.726 376.701C199.999 377.335 200.381 377.845 200.873 378.231C201.371 378.615 201.923 378.852 202.529 378.943C203.142 379.032 203.751 378.948 204.357 378.693ZM219.873 373.52L218.577 374.065L217.898 372.635C217.795 373.3 217.533 373.887 217.114 374.395C216.701 374.901 216.128 375.308 215.396 375.616C214.202 376.119 213.102 376.157 212.098 375.733C211.096 375.299 210.327 374.458 209.789 373.208L207.59 368.094L209.066 367.473L211.219 372.479C211.584 373.328 212.116 373.906 212.815 374.212C213.52 374.516 214.274 374.499 215.078 374.161C215.918 373.807 216.478 373.247 216.758 372.479C217.043 371.709 216.995 370.882 216.615 369.997L214.539 365.17L216.015 364.549L219.873 373.52ZM226.489 370.736C225.625 371.1 224.762 371.226 223.9 371.116C223.043 371.003 222.269 370.686 221.577 370.165C220.883 369.638 220.349 368.941 219.976 368.074C219.6 367.2 219.463 366.337 219.563 365.482C219.663 364.628 219.969 363.856 220.481 363.168C220.999 362.477 221.693 361.948 222.563 361.582C223.259 361.289 223.955 361.152 224.65 361.17C225.342 361.182 225.992 361.332 226.598 361.621L226.114 360.299L227.42 359.75L231.178 368.488C231.61 369.493 231.785 370.443 231.702 371.339C231.623 372.242 231.302 373.044 230.74 373.747C230.18 374.456 229.396 375.022 228.388 375.446C226.96 376.047 225.514 376.098 224.052 375.597L224.19 374.14C225.378 374.644 226.565 374.645 227.754 374.145C228.468 373.845 229.019 373.436 229.406 372.92C229.802 372.407 230.025 371.823 230.076 371.166C230.132 370.506 230.002 369.809 229.686 369.073L229.211 367.97C228.986 368.566 228.641 369.107 228.176 369.592C227.718 370.074 227.155 370.456 226.489 370.736ZM226.056 369.382C226.644 369.135 227.121 368.778 227.488 368.313C227.853 367.842 228.08 367.316 228.17 366.734C228.257 366.146 228.175 365.559 227.923 364.973L227.745 364.561C227.491 363.969 227.12 363.503 226.634 363.164C226.148 362.824 225.608 362.624 225.015 362.563C224.419 362.496 223.827 362.586 223.239 362.833C222.633 363.088 222.152 363.46 221.795 363.95C221.439 364.439 221.226 364.991 221.158 365.606C221.092 366.212 221.194 366.827 221.461 367.449C221.729 368.071 222.107 368.572 222.597 368.952C223.092 369.33 223.642 369.561 224.245 369.646C224.846 369.725 225.45 369.637 226.056 369.382ZM233.987 367.581L228.2 354.124L229.676 353.503L232.184 359.334C232.425 358.032 233.256 357.082 234.678 356.484C235.872 355.981 236.956 355.946 237.928 356.377C238.903 356.8 239.664 357.645 240.209 358.913L242.412 364.036L240.936 364.657L238.88 359.875C238.466 358.912 237.904 358.266 237.195 357.935C236.489 357.597 235.711 357.607 234.858 357.965C234 358.326 233.442 358.882 233.184 359.634C232.926 360.385 233.001 361.233 233.407 362.178L235.463 366.96L233.987 367.581ZM249.881 360.639C249.4 361.152 248.877 361.527 248.313 361.764C247.773 361.992 247.249 362.075 246.741 362.013C246.23 361.945 245.769 361.747 245.358 361.419C244.945 361.084 244.616 360.633 244.372 360.064L242.227 355.077L240.651 355.739L240.084 354.421L241.731 353.728L240.767 351.485L242.171 350.894L243.136 353.137L245.827 352.004L246.394 353.323L243.703 354.455L245.732 359.174C245.964 359.712 246.294 360.085 246.724 360.293C247.159 360.498 247.614 360.501 248.088 360.302C248.472 360.14 248.807 359.865 249.094 359.476L249.881 360.639ZM261.582 355.715C261.101 356.228 260.579 356.603 260.015 356.84C259.475 357.068 258.951 357.151 258.442 357.089C257.931 357.021 257.47 356.823 257.06 356.495C256.646 356.16 256.318 355.709 256.073 355.14L253.928 350.153L252.353 350.815L251.786 349.497L253.433 348.804L252.468 346.561L253.872 345.97L254.837 348.213L257.528 347.08L258.096 348.399L255.404 349.531L257.434 354.25C257.665 354.788 257.996 355.161 258.425 355.369C258.861 355.574 259.316 355.577 259.79 355.378C260.174 355.216 260.509 354.941 260.795 354.552L261.582 355.715ZM267.729 353.594C266.835 353.971 265.943 354.106 265.054 353.999C264.165 353.893 263.363 353.577 262.648 353.052C261.936 352.518 261.389 351.805 261.006 350.914C260.625 350.029 260.488 349.151 260.595 348.279C260.706 347.399 261.031 346.606 261.57 345.899C262.107 345.185 262.822 344.641 263.716 344.264C264.61 343.888 265.5 343.757 266.386 343.872C267.269 343.981 268.066 344.302 268.777 344.836C269.486 345.364 270.031 346.071 270.412 346.956C270.795 347.847 270.935 348.731 270.83 349.609C270.723 350.48 270.403 351.268 269.87 351.973C269.337 352.678 268.623 353.218 267.729 353.594ZM267.149 352.27C267.755 352.015 268.235 351.64 268.589 351.145C268.943 350.65 269.15 350.093 269.21 349.475C269.276 348.854 269.172 348.226 268.9 347.592C268.627 346.958 268.242 346.45 267.744 346.066C267.252 345.68 266.702 345.441 266.096 345.35C265.49 345.259 264.884 345.341 264.278 345.596C263.672 345.851 263.189 346.227 262.829 346.725C262.475 347.22 262.265 347.778 262.199 348.399C262.139 349.018 262.245 349.644 262.518 350.278C262.791 350.912 263.173 351.422 263.665 351.808C264.163 352.192 264.715 352.429 265.321 352.52C265.934 352.609 266.543 352.525 267.149 352.27ZM283.974 351.844L282.362 352.522L282.293 347.169L274.163 340.08L275.792 339.395L282.274 345.174L282.165 336.713L283.767 336.039L283.974 351.844ZM293.328 342.822C292.434 343.198 291.542 343.333 290.653 343.227C289.764 343.121 288.962 342.805 288.247 342.28C287.536 341.746 286.988 341.033 286.605 340.142C286.224 339.257 286.088 338.379 286.195 337.507C286.305 336.627 286.63 335.834 287.169 335.126C287.706 334.413 288.421 333.869 289.315 333.492C290.209 333.116 291.099 332.985 291.985 333.1C292.868 333.209 293.665 333.53 294.377 334.064C295.086 334.592 295.631 335.299 296.011 336.184C296.395 337.075 296.534 337.959 296.429 338.837C296.322 339.708 296.002 340.496 295.469 341.201C294.936 341.905 294.222 342.446 293.328 342.822ZM292.748 341.498C293.354 341.243 293.834 340.868 294.188 340.373C294.542 339.878 294.749 339.321 294.809 338.703C294.875 338.082 294.772 337.454 294.499 336.82C294.226 336.186 293.841 335.677 293.343 335.294C292.851 334.907 292.302 334.669 291.696 334.578C291.09 334.487 290.483 334.569 289.877 334.824C289.271 335.079 288.788 335.455 288.428 335.953C288.074 336.448 287.864 337.006 287.798 337.627C287.738 338.245 287.845 338.872 288.117 339.506C288.39 340.14 288.772 340.65 289.264 341.036C289.763 341.42 290.315 341.657 290.921 341.748C291.533 341.837 292.142 341.753 292.748 341.498ZM308.265 336.325L306.969 336.87L306.29 335.44C306.186 336.105 305.924 336.692 305.505 337.2C305.092 337.706 304.52 338.113 303.787 338.421C302.593 338.923 301.494 338.962 300.489 338.537C299.488 338.104 298.718 337.263 298.181 336.013L295.981 330.899L297.458 330.278L299.611 335.284C299.976 336.133 300.508 336.711 301.206 337.017C301.911 337.321 302.666 337.304 303.47 336.965C304.31 336.612 304.87 336.051 305.149 335.284C305.434 334.514 305.387 333.687 305.006 332.801L302.93 327.975L304.406 327.354L308.265 336.325ZM316.87 332.704L315.556 333.257L309.768 319.8L311.244 319.179L313.694 324.876C313.927 324.262 314.278 323.712 314.749 323.224C315.219 322.737 315.794 322.35 316.472 322.065C317.36 321.691 318.239 321.561 319.11 321.675C319.981 321.789 320.77 322.114 321.475 322.65C322.184 323.178 322.731 323.888 323.114 324.779C323.494 325.664 323.633 326.546 323.528 327.423C323.43 328.298 323.12 329.085 322.598 329.785C322.077 330.484 321.373 331.021 320.485 331.395C319.776 331.693 319.069 331.835 318.362 331.822C317.658 331.8 316.997 331.648 316.379 331.364L316.87 332.704ZM319.788 330.12C320.406 329.86 320.896 329.484 321.259 328.992C321.625 328.492 321.841 327.932 321.906 327.311C321.978 326.687 321.878 326.058 321.605 325.424C321.33 324.784 320.941 324.274 320.436 323.893C319.936 323.503 319.376 323.265 318.758 323.179C318.146 323.091 317.531 323.176 316.913 323.437C316.325 323.684 315.849 324.043 315.484 324.514C315.126 324.983 314.9 325.513 314.807 326.103C314.719 326.69 314.782 327.289 314.995 327.899L315.207 328.392C315.504 328.967 315.896 329.427 316.385 329.772C316.874 330.117 317.413 330.325 318.003 330.394C318.598 330.461 319.193 330.37 319.788 330.12ZM331.626 331.792L330.015 332.47L329.945 327.117L321.815 320.028L323.444 319.343L329.927 325.122L329.817 316.661L331.419 315.987L331.626 331.792ZM174.212 445.432L174.456 443.899C174.983 444.052 175.486 444.151 175.966 444.196C176.446 444.242 176.909 444.23 177.355 444.163C177.806 444.093 178.242 443.97 178.662 443.793C179.274 443.535 179.765 443.209 180.133 442.814C180.508 442.416 180.747 441.983 180.851 441.516C180.952 441.042 180.901 440.569 180.698 440.097C180.477 439.583 180.147 439.22 179.709 439.009C179.274 438.789 178.774 438.657 178.209 438.612C177.644 438.567 177.055 438.547 176.44 438.551C175.922 438.55 175.402 438.536 174.88 438.508C174.358 438.481 173.861 438.404 173.388 438.278C172.919 438.143 172.495 437.923 172.115 437.616C171.736 437.31 171.426 436.879 171.187 436.323C170.881 435.611 170.791 434.907 170.917 434.211C171.043 433.516 171.358 432.881 171.863 432.309C172.374 431.734 173.046 431.27 173.88 430.919C174.444 430.682 175.044 430.518 175.678 430.428C176.31 430.332 176.953 430.312 177.608 430.368L177.516 431.932C176.99 431.864 176.468 431.861 175.95 431.924C175.437 431.984 174.959 432.108 174.514 432.295C173.986 432.517 173.56 432.802 173.235 433.151C172.914 433.491 172.707 433.868 172.615 434.281C172.527 434.685 172.573 435.097 172.753 435.515C172.954 435.982 173.257 436.317 173.663 436.52C174.076 436.721 174.548 436.847 175.081 436.898C175.616 436.941 176.174 436.968 176.752 436.979C177.302 436.988 177.85 437.011 178.398 437.049C178.95 437.078 179.474 437.169 179.971 437.32C180.472 437.462 180.923 437.696 181.325 438.021C181.727 438.346 182.056 438.805 182.31 439.397C182.637 440.157 182.732 440.904 182.595 441.64C182.455 442.37 182.105 443.04 181.545 443.65C180.992 444.257 180.25 444.756 179.32 445.148C178.503 445.491 177.67 445.687 176.819 445.734C175.967 445.782 175.098 445.681 174.212 445.432ZM189.576 445.811L188.1 446.433L182.312 432.976L183.626 432.423L184.262 433.702C184.484 433.065 184.835 432.49 185.316 431.977C185.794 431.458 186.388 431.049 187.096 430.751C187.978 430.38 188.854 430.251 189.725 430.365C190.602 430.476 191.394 430.8 192.099 431.337C192.808 431.865 193.354 432.574 193.738 433.465C194.118 434.351 194.257 435.232 194.152 436.109C194.053 436.984 193.741 437.773 193.213 438.475C192.692 439.174 191.991 439.71 191.109 440.081C190.43 440.366 189.748 440.509 189.06 440.509C188.379 440.506 187.734 440.375 187.126 440.115L189.576 445.811ZM190.413 438.785C191.043 438.519 191.54 438.144 191.906 437.658C192.268 437.167 192.476 436.613 192.53 435.997C192.59 435.379 192.481 434.746 192.204 434.1C191.923 433.448 191.538 432.932 191.049 432.552C190.557 432.166 190.006 431.932 189.396 431.849C188.793 431.764 188.179 431.853 187.555 432.115C186.961 432.365 186.48 432.723 186.114 433.188C185.753 433.651 185.524 434.174 185.428 434.758C185.33 435.337 185.382 435.929 185.587 436.535L185.849 437.145C186.149 437.711 186.541 438.161 187.024 438.494C187.508 438.827 188.042 439.023 188.627 439.081C189.217 439.136 189.813 439.037 190.413 438.785ZM205.01 434.019L203.741 434.553L203.133 433.411C202.985 433.974 202.709 434.486 202.305 434.946C201.897 435.4 201.379 435.759 200.749 436.024C200.101 436.297 199.468 436.415 198.849 436.379C198.229 436.336 197.676 436.155 197.192 435.837C196.714 435.515 196.353 435.073 196.112 434.511C195.857 433.919 195.789 433.333 195.908 432.753C196.031 432.165 196.307 431.629 196.736 431.144C197.172 430.657 197.735 430.269 198.425 429.978C198.875 429.789 199.358 429.652 199.875 429.569C200.39 429.48 200.871 429.454 201.319 429.491L201.157 429.114C200.951 428.636 200.656 428.28 200.272 428.046C199.886 427.806 199.453 427.681 198.974 427.671C198.492 427.654 198.008 427.749 197.522 427.953C197.102 428.13 196.706 428.388 196.335 428.728C195.961 429.062 195.641 429.472 195.376 429.958L194.346 428.898C194.724 428.343 195.165 427.861 195.669 427.451C196.17 427.035 196.703 426.708 197.267 426.471C198.047 426.143 198.787 426.018 199.488 426.098C200.192 426.169 200.824 426.429 201.386 426.878C201.945 427.321 202.394 427.937 202.734 428.726L205.01 434.019ZM200.431 434.569C200.893 434.374 201.275 434.101 201.577 433.748C201.878 433.395 202.072 432.988 202.158 432.529C202.241 432.063 202.188 431.577 201.998 431.07L201.933 430.918C201.492 430.799 201.035 430.758 200.562 430.795C200.092 430.823 199.644 430.927 199.218 431.106C198.552 431.387 198.063 431.783 197.752 432.295C197.447 432.805 197.401 433.308 197.615 433.805C197.749 434.116 197.959 434.359 198.248 434.534C198.542 434.707 198.879 434.798 199.258 434.808C199.638 434.818 200.029 434.738 200.431 434.569ZM209.106 432.296L207.629 432.917L203.771 423.946L205.067 423.401L205.894 425.15C205.941 424.403 206.174 423.74 206.591 423.162C207.012 422.575 207.591 422.127 208.329 421.816C208.492 421.748 208.66 421.687 208.836 421.635C209.012 421.582 209.191 421.538 209.375 421.503L209.766 422.907C209.402 422.968 209.059 423.067 208.735 423.203C208.147 423.45 207.686 423.814 207.354 424.293C207.027 424.769 206.846 425.311 206.81 425.92C206.774 426.528 206.896 427.159 207.176 427.81L209.106 432.296ZM216.271 429.281L214.794 429.902L209.007 416.446L210.483 415.824L214.557 425.298L214.893 424.15L217.03 418.367L218.884 417.587L216.886 423.025L223.31 426.319L221.392 427.126L216.323 424.534L215.36 427.164L216.271 429.281ZM226.694 424.895L225.11 425.561L219.322 412.105L220.906 411.438L223.538 417.556L231.072 414.386L228.44 408.268L230.024 407.601L235.812 421.058L234.228 421.724L231.674 415.786L224.14 418.956L226.694 424.895ZM245.875 416.823L244.606 417.357L243.998 416.215C243.851 416.778 243.575 417.29 243.17 417.75C242.763 418.204 242.244 418.563 241.614 418.828C240.966 419.101 240.333 419.219 239.715 419.183C239.094 419.14 238.542 418.959 238.057 418.64C237.579 418.319 237.219 417.877 236.977 417.315C236.722 416.723 236.654 416.137 236.774 415.557C236.896 414.969 237.172 414.432 237.602 413.948C238.037 413.461 238.6 413.072 239.29 412.782C239.74 412.593 240.223 412.456 240.74 412.373C241.255 412.284 241.736 412.258 242.184 412.295L242.022 411.918C241.817 411.44 241.522 411.084 241.138 410.85C240.751 410.61 240.318 410.485 239.839 410.474C239.357 410.458 238.873 410.552 238.387 410.757C237.967 410.934 237.571 411.192 237.2 411.532C236.826 411.866 236.507 412.276 236.241 412.762L235.211 411.701C235.589 411.147 236.03 410.665 236.534 410.255C237.035 409.839 237.568 409.512 238.132 409.275C238.912 408.947 239.653 408.822 240.353 408.902C241.057 408.973 241.69 409.233 242.251 409.682C242.81 410.125 243.259 410.741 243.599 411.53L245.875 416.823ZM241.296 417.373C241.758 417.178 242.14 416.905 242.442 416.552C242.744 416.199 242.937 415.792 243.023 415.332C243.106 414.867 243.053 414.38 242.864 413.874L242.798 413.721C242.357 413.603 241.9 413.562 241.427 413.599C240.957 413.627 240.509 413.731 240.083 413.91C239.417 414.19 238.929 414.587 238.618 415.099C238.312 415.609 238.267 416.112 238.48 416.608C238.614 416.919 238.825 417.163 239.113 417.338C239.407 417.511 239.744 417.602 240.124 417.612C240.503 417.622 240.894 417.542 241.296 417.373ZM255.419 411.282C255.184 411.938 254.822 412.522 254.333 413.031C253.841 413.535 253.25 413.932 252.559 414.222C251.665 414.599 250.774 414.734 249.885 414.628C249.002 414.519 248.201 414.199 247.484 413.667C246.772 413.133 246.226 412.424 245.845 411.538C245.462 410.647 245.324 409.766 245.431 408.895C245.542 408.015 245.864 407.222 246.397 406.518C246.936 405.811 247.653 405.269 248.547 404.893C249.231 404.605 249.927 404.46 250.635 404.459C251.343 404.457 252.018 404.601 252.659 404.889L252.174 406.184C251.712 405.983 251.221 405.886 250.699 405.894C250.184 405.899 249.68 406.005 249.188 406.212C248.558 406.477 248.059 406.856 247.69 407.351C247.325 407.836 247.108 408.387 247.04 409.002C246.977 409.614 247.085 410.243 247.363 410.889C247.641 411.535 248.026 412.051 248.518 412.438C249.016 412.821 249.57 413.054 250.179 413.137C250.792 413.211 251.414 413.115 252.044 412.85C252.536 412.643 252.965 412.357 253.332 411.99C253.696 411.618 253.964 411.202 254.134 410.742L255.419 411.282ZM259.53 411.077L258.054 411.698L252.266 398.242L253.743 397.621L257.817 407.094L258.153 405.946L260.289 400.163L262.144 399.383L260.146 404.822L266.569 408.115L264.652 408.922L259.583 406.33L258.62 408.96L259.53 411.077ZM267.404 406.842L267.196 405.298C267.5 405.41 267.822 405.483 268.162 405.517C268.502 405.55 268.844 405.544 269.186 405.499C269.525 405.448 269.851 405.357 270.163 405.226C270.721 404.991 271.118 404.679 271.355 404.29C271.592 403.901 271.625 403.509 271.455 403.114C271.332 402.827 271.14 402.628 270.88 402.519C270.624 402.401 270.322 402.333 269.975 402.317C269.628 402.301 269.262 402.299 268.878 402.312C268.409 402.326 267.934 402.318 267.453 402.287C266.972 402.256 266.53 402.135 266.128 401.923C265.731 401.709 265.419 401.338 265.193 400.812C264.977 400.31 264.915 399.82 265.007 399.343C265.1 398.866 265.327 398.432 265.69 398.039C266.059 397.644 266.537 397.322 267.125 397.075C268.013 396.701 268.981 396.555 270.03 396.636L270.16 398.15C269.914 398.105 269.644 398.088 269.351 398.098C269.055 398.102 268.764 398.133 268.477 398.191C268.189 398.248 267.929 398.326 267.695 398.424C267.257 398.609 266.946 398.859 266.764 399.176C266.579 399.487 266.558 399.81 266.702 400.145C266.785 400.336 266.914 400.49 267.092 400.606C267.273 400.714 267.529 400.79 267.86 400.834C268.191 400.878 268.631 400.898 269.182 400.892C269.668 400.885 270.158 400.905 270.653 400.951C271.145 400.991 271.595 401.123 272.003 401.347C272.414 401.563 272.735 401.936 272.964 402.469C273.19 402.995 273.25 403.521 273.142 404.046C273.039 404.563 272.787 405.04 272.386 405.477C271.992 405.911 271.471 406.265 270.823 406.537C269.749 406.989 268.609 407.091 267.404 406.842ZM280.701 402.169L274.913 388.712L279.072 386.962C280.176 386.497 281.194 386.27 282.127 386.28C283.066 386.288 283.882 386.52 284.574 386.978C285.267 387.435 285.804 388.106 286.184 388.991C286.562 389.87 286.679 390.718 286.534 391.535C286.389 392.352 285.996 393.1 285.353 393.78C284.713 394.452 283.841 395.02 282.737 395.485L280.163 396.568L282.285 401.502L280.701 402.169ZM279.561 395.168L282 394.142C283.213 393.632 284.039 392.984 284.481 392.198C284.922 391.412 284.95 390.57 284.564 389.673C284.178 388.776 283.547 388.215 282.671 387.99C281.795 387.766 280.751 387.908 279.539 388.418L277.099 389.445L279.561 395.168ZM293.789 396.661L292.312 397.283L288.454 388.311L289.75 387.766L290.577 389.516C290.624 388.768 290.856 388.106 291.274 387.527C291.695 386.941 292.274 386.492 293.012 386.181C293.174 386.113 293.343 386.053 293.519 386C293.695 385.947 293.874 385.903 294.058 385.869L294.449 387.272C294.085 387.333 293.742 387.432 293.418 387.568C292.829 387.816 292.369 388.179 292.037 388.658C291.71 389.134 291.529 389.677 291.493 390.285C291.457 390.894 291.579 391.524 291.859 392.176L293.789 396.661ZM303.551 392.765C302.657 393.141 301.765 393.276 300.876 393.17C299.987 393.064 299.185 392.748 298.47 392.223C297.759 391.689 297.211 390.976 296.828 390.085C296.447 389.2 296.31 388.322 296.418 387.45C296.528 386.57 296.853 385.777 297.392 385.069C297.929 384.356 298.644 383.812 299.538 383.435C300.432 383.059 301.322 382.928 302.208 383.043C303.091 383.152 303.888 383.473 304.6 384.007C305.309 384.535 305.853 385.242 306.234 386.127C306.617 387.018 306.757 387.902 306.652 388.78C306.545 389.651 306.225 390.439 305.692 391.144C305.159 391.849 304.445 392.389 303.551 392.765ZM302.971 391.441C303.577 391.186 304.057 390.811 304.411 390.316C304.765 389.821 304.972 389.264 305.032 388.646C305.098 388.025 304.995 387.397 304.722 386.763C304.449 386.129 304.064 385.62 303.566 385.237C303.074 384.85 302.525 384.612 301.919 384.521C301.312 384.43 300.706 384.512 300.1 384.767C299.494 385.022 299.011 385.398 298.651 385.896C298.297 386.391 298.087 386.949 298.021 387.57C297.961 388.188 298.068 388.815 298.34 389.449C298.613 390.083 298.995 390.593 299.487 390.979C299.985 391.363 300.538 391.6 301.144 391.691C301.756 391.78 302.365 391.696 302.971 391.441ZM319.028 386.041L317.714 386.594L317.069 385.318C316.853 385.953 316.506 386.53 316.028 387.049C315.547 387.562 314.952 387.967 314.244 388.265C313.362 388.637 312.483 388.767 311.606 388.655C310.729 388.544 309.934 388.221 309.223 387.687C308.517 387.151 307.974 386.44 307.593 385.555C307.21 384.664 307.069 383.784 307.17 382.915C307.275 382.037 307.59 381.248 308.118 380.545C308.645 379.843 309.349 379.307 310.232 378.936C310.916 378.648 311.598 378.505 312.28 378.508C312.968 378.508 313.612 378.639 314.214 378.902L311.764 373.205L313.24 372.584L319.028 386.041ZM313.808 386.881C314.408 386.628 314.895 386.261 315.269 385.779C315.64 385.291 315.867 384.747 315.949 384.147C316.035 383.539 315.947 382.93 315.684 382.32L315.553 382.015C315.291 381.405 314.909 380.922 314.41 380.568C313.913 380.204 313.36 379.989 312.749 379.921C312.139 379.853 311.534 379.945 310.934 380.197C310.31 380.46 309.815 380.841 309.449 381.342C309.083 381.842 308.864 382.403 308.792 383.027C308.726 383.648 308.829 384.276 309.102 384.91C309.374 385.544 309.761 386.055 310.262 386.445C310.766 386.826 311.327 387.06 311.945 387.146C312.563 387.232 313.184 387.143 313.808 386.881ZM330.063 381.397L328.767 381.942L328.088 380.512C327.984 381.177 327.723 381.764 327.304 382.272C326.891 382.778 326.318 383.185 325.586 383.493C324.392 383.995 323.292 384.034 322.287 383.61C321.286 383.176 320.517 382.335 319.979 381.085L317.78 375.971L319.256 375.35L321.409 380.356C321.774 381.205 322.306 381.783 323.005 382.089C323.71 382.393 324.464 382.376 325.268 382.037C326.108 381.684 326.668 381.123 326.947 380.356C327.233 379.586 327.185 378.759 326.804 377.873L324.729 373.047L326.205 372.426L330.063 381.397ZM339.778 375.783C339.543 376.44 339.181 377.023 338.691 377.533C338.199 378.037 337.608 378.434 336.918 378.724C336.024 379.1 335.133 379.235 334.244 379.129C333.361 379.021 332.56 378.7 331.843 378.169C331.131 377.635 330.585 376.925 330.204 376.04C329.821 375.149 329.683 374.268 329.79 373.396C329.901 372.516 330.222 371.724 330.756 371.019C331.295 370.312 332.011 369.771 332.906 369.394C333.59 369.106 334.286 368.962 334.994 368.961C335.702 368.959 336.377 369.103 337.018 369.391L336.533 370.686C336.071 370.485 335.579 370.388 335.058 370.395C334.543 370.4 334.039 370.506 333.547 370.713C332.917 370.979 332.418 371.358 332.049 371.852C331.684 372.338 331.467 372.888 331.399 373.503C331.336 374.116 331.444 374.745 331.722 375.391C331.999 376.037 332.384 376.553 332.876 376.939C333.375 377.323 333.928 377.556 334.538 377.639C335.151 377.713 335.772 377.617 336.403 377.352C336.895 377.145 337.324 376.858 337.691 376.492C338.055 376.12 338.323 375.704 338.493 375.243L339.778 375.783ZM347.451 373.826C346.97 374.339 346.447 374.714 345.883 374.952C345.343 375.179 344.819 375.262 344.311 375.2C343.8 375.133 343.339 374.935 342.928 374.606C342.515 374.271 342.186 373.82 341.942 373.252L339.797 368.264L338.221 368.927L337.654 367.608L339.301 366.915L338.337 364.672L339.741 364.081L340.706 366.324L343.397 365.191L343.964 366.51L341.273 367.643L343.302 372.361C343.534 372.9 343.864 373.273 344.294 373.48C344.729 373.686 345.184 373.688 345.658 373.489C346.042 373.327 346.377 373.052 346.664 372.663L347.451 373.826ZM344.95 361.19C344.698 361.296 344.448 361.299 344.199 361.199C343.954 361.09 343.777 360.91 343.669 360.659C343.564 360.414 343.558 360.169 343.651 359.925C343.751 359.678 343.926 359.502 344.178 359.396C344.436 359.287 344.69 359.283 344.938 359.383C345.187 359.483 345.364 359.656 345.47 359.901C345.578 360.152 345.583 360.404 345.486 360.657C345.387 360.904 345.208 361.081 344.95 361.19ZM350.766 372.685L349.29 373.306L345.431 364.335L346.907 363.714L350.766 372.685ZM357.684 369.986C356.79 370.362 355.898 370.497 355.009 370.391C354.12 370.285 353.318 369.969 352.603 369.444C351.892 368.91 351.344 368.197 350.961 367.306C350.58 366.421 350.443 365.542 350.551 364.671C350.661 363.791 350.986 362.997 351.525 362.29C352.062 361.577 352.777 361.032 353.671 360.656C354.565 360.28 355.455 360.149 356.341 360.264C357.224 360.373 358.021 360.694 358.733 361.228C359.442 361.756 359.986 362.463 360.367 363.348C360.75 364.239 360.89 365.123 360.785 366.001C360.678 366.872 360.358 367.66 359.825 368.365C359.292 369.069 358.578 369.61 357.684 369.986ZM357.104 368.662C357.71 368.407 358.19 368.032 358.544 367.537C358.898 367.042 359.105 366.485 359.165 365.867C359.231 365.245 359.128 364.618 358.855 363.984C358.582 363.35 358.197 362.841 357.699 362.458C357.207 362.071 356.658 361.833 356.051 361.742C355.445 361.651 354.839 361.733 354.233 361.988C353.627 362.243 353.144 362.619 352.784 363.117C352.43 363.612 352.22 364.17 352.154 364.791C352.094 365.409 352.2 366.036 352.473 366.669C352.746 367.303 353.128 367.814 353.62 368.2C354.118 368.583 354.671 368.821 355.277 368.912C355.889 369 356.498 368.917 357.104 368.662ZM372.801 363.413L371.325 364.034L369.098 358.858C368.751 358.05 368.248 357.506 367.588 357.226C366.935 356.943 366.218 356.965 365.438 357.294C364.88 357.529 364.433 357.865 364.097 358.303C363.759 358.735 363.557 359.23 363.492 359.787C363.427 360.344 363.521 360.919 363.776 361.511L365.852 366.337L364.376 366.958L360.517 357.987L361.804 357.446L362.483 358.876C362.587 358.211 362.87 357.615 363.331 357.089C363.798 356.561 364.398 356.142 365.13 355.834C366.276 355.352 367.333 355.313 368.301 355.718C369.269 356.123 370.003 356.909 370.505 358.075L372.801 363.413ZM374.445 361.799L374.238 360.255C374.542 360.367 374.864 360.44 375.204 360.473C375.544 360.507 375.885 360.501 376.227 360.456C376.567 360.405 376.893 360.314 377.205 360.182C377.763 359.948 378.16 359.636 378.397 359.246C378.633 358.857 378.667 358.465 378.497 358.071C378.373 357.784 378.182 357.585 377.922 357.476C377.666 357.357 377.364 357.29 377.017 357.274C376.67 357.257 376.304 357.256 375.92 357.269C375.451 357.283 374.976 357.274 374.495 357.244C374.014 357.213 373.572 357.092 373.169 356.88C372.772 356.665 372.461 356.295 372.234 355.769C372.018 355.266 371.957 354.777 372.049 354.3C372.142 353.823 372.369 353.388 372.732 352.996C373.1 352.6 373.579 352.279 374.167 352.032C375.055 351.658 376.023 351.512 377.072 351.593L377.202 353.106C376.956 353.062 376.686 353.044 376.393 353.055C376.097 353.059 375.806 353.09 375.518 353.147C375.231 353.205 374.971 353.283 374.737 353.381C374.299 353.565 373.988 353.816 373.806 354.133C373.62 354.444 373.6 354.767 373.744 355.102C373.826 355.293 373.956 355.447 374.134 355.563C374.315 355.67 374.57 355.746 374.901 355.791C375.232 355.835 375.673 355.855 376.223 355.849C376.709 355.842 377.2 355.862 377.694 355.908C378.186 355.948 378.637 356.08 379.045 356.304C379.456 356.519 379.776 356.893 380.005 357.425C380.232 357.952 380.291 358.478 380.184 359.003C380.08 359.52 379.828 359.997 379.428 360.433C379.034 360.868 378.513 361.221 377.865 361.494C376.79 361.946 375.651 362.048 374.445 361.799Z" fill="white"/>
<line y1="-0.5" x2="247.949" y2="-0.5" transform="matrix(0.921718 -0.38786 0.395102 0.918637 134.29 381.613)" stroke="white"/>
<line y1="-0.5" x2="247.949" y2="-0.5" transform="matrix(0.921718 -0.38786 0.395102 0.918637 150.252 420.732)" stroke="white"/>
<line y1="-0.5" x2="241.682" y2="-0.5" transform="matrix(0.921718 -0.38786 0.395102 0.918637 168.738 466.167)" stroke="white"/>
<defs>
<filter id="filter0_d_828_166" x="60.1775" y="131.991" width="380.633" height="390.367" filterUnits="userSpaceOnUse" color-interpolation-filters="sRGB">
<feFlood flood-opacity="0" result="BackgroundImageFix"/>
<feColorMatrix in="SourceAlpha" type="matrix" values="0 0 0 0 0 0 0 0 0 0 0 0 0 0 0 0 0 0 127 0" result="hardAlpha"/>
<feOffset dy="4"/>
<feGaussianBlur stdDeviation="2"/>
<feComposite in2="hardAlpha" operator="out"/>
<feColorMatrix type="matrix" values="0 0 0 0 0 0 0 0 0 0 0 0 0 0 0 0 0 0 0.25 0"/>
<feBlend mode="normal" in2="BackgroundImageFix" result="effect1_dropShadow_828_166"/>
<feBlend mode="normal" in="SourceGraphic" in2="effect1_dropShadow_828_166" result="shape"/>
</filter>
</defs>
</svg>
