<svg width="1586" height="232" viewBox="0 0 1586 232" fill="none" xmlns="http://www.w3.org/2000/svg">
<mask id="path-1-inside-1_1144_980" fill="white">
<path d="M1595.36 17.2207C1593.55 15.4695 1591.1 14.3897 1588.39 14.3896H1578.24C1572.72 14.3896 1568.24 18.8668 1568.24 24.3896V37.7031C1568.24 43.2258 1572.72 47.7031 1578.24 47.7031H1588.39C1591.1 47.703 1593.55 46.6217 1595.36 44.8701V182.366C1593.69 181.125 1591.62 180.39 1589.39 180.39H1579.24C1573.72 180.39 1569.24 184.867 1569.24 190.39V203.703C1569.24 209.226 1573.72 213.703 1579.24 213.703H1589.39C1591.62 213.703 1593.69 212.966 1595.36 211.725V232H-26.9994V0H1595.36V17.2207ZM864.081 180.587C858.558 180.587 854.081 185.064 854.081 190.587V203.9C854.081 209.423 858.558 213.9 864.081 213.9H874.226C879.749 213.9 884.226 209.423 884.226 203.9V190.587C884.226 185.064 879.749 180.587 874.226 180.587H864.081ZM804.241 180.39C798.718 180.39 794.241 184.867 794.241 190.39V203.703C794.241 209.226 798.718 213.703 804.241 213.703H814.386C819.909 213.703 824.386 209.226 824.386 203.703V190.39C824.386 184.867 819.909 180.39 814.386 180.39H804.241ZM744.401 180.197C738.878 180.197 734.401 184.675 734.401 190.197V203.511C734.401 209.034 738.878 213.511 744.401 213.511H754.546C760.068 213.511 764.546 209.034 764.546 203.511V190.197C764.545 184.675 760.068 180.197 754.546 180.197H744.401ZM1519.4 180.197C1513.88 180.197 1509.4 184.675 1509.4 190.197V203.511C1509.4 209.034 1513.88 213.511 1519.4 213.511H1529.55C1535.07 213.511 1539.55 209.034 1539.55 203.511V190.197C1539.55 184.675 1535.07 180.197 1529.55 180.197H1519.4ZM146.001 180C140.478 180 136.001 184.477 136.001 190V203.313C136.001 208.836 140.478 213.313 146.001 213.313H156.146C161.669 213.313 166.146 208.836 166.146 203.313V190C166.146 184.477 161.669 180 156.146 180H146.001ZM205.84 180C200.318 180 195.84 184.477 195.84 190V203.313C195.841 208.836 200.318 213.313 205.84 213.313H215.986C221.509 213.313 225.986 208.836 225.986 203.313V190C225.986 184.477 221.509 180 215.986 180H205.84ZM265.68 180C260.158 180 255.68 184.477 255.68 190V203.313C255.681 208.836 260.158 213.313 265.68 213.313H275.826C281.349 213.313 285.826 208.836 285.826 203.313V190C285.826 184.477 281.349 180 275.826 180H265.68ZM325.52 180C319.997 180 315.52 184.477 315.52 190V203.313C315.52 208.836 319.998 213.313 325.52 213.313H335.666C341.188 213.313 345.665 208.836 345.666 203.313V190C345.666 184.477 341.189 180 335.666 180H325.52ZM385.36 180C379.837 180 375.36 184.477 375.36 190V203.313C375.36 208.836 379.837 213.313 385.36 213.313H395.505C401.028 213.313 405.505 208.836 405.505 203.313V190C405.505 184.477 401.028 180 395.505 180H385.36ZM445.201 180C439.678 180 435.201 184.477 435.201 190V203.313C435.201 208.836 439.678 213.313 445.201 213.313H455.345C460.868 213.313 465.345 208.836 465.345 203.313V190C465.345 184.477 460.868 180 455.345 180H445.201ZM505.041 180C499.518 180 495.041 184.477 495.041 190V203.313C495.041 208.836 499.518 213.313 505.041 213.313H515.186C520.709 213.313 525.186 208.836 525.186 203.313V190C525.186 184.477 520.709 180 515.186 180H505.041ZM564.88 180C559.358 180 554.88 184.477 554.88 190V203.313C554.881 208.836 559.358 213.313 564.88 213.313H575.026C580.549 213.313 585.026 208.836 585.026 203.313V190C585.026 184.477 580.549 180 575.026 180H564.88ZM624.72 180C619.198 180 614.72 184.477 614.72 190V203.313C614.721 208.836 619.198 213.313 624.72 213.313H634.866C640.389 213.313 644.866 208.836 644.866 203.313V190C644.866 184.477 640.389 180 634.866 180H624.72ZM684.56 180C679.037 180 674.56 184.477 674.56 190V203.313C674.56 208.836 679.038 213.313 684.56 213.313H694.706C700.228 213.313 704.706 208.836 704.706 203.313V190C704.706 184.477 700.229 180 694.706 180H684.56ZM921.001 180C915.478 180 911.001 184.477 911.001 190V203.313C911.001 208.836 915.478 213.313 921.001 213.313H931.146C936.669 213.313 941.146 208.836 941.146 203.313V190C941.146 184.477 936.669 180 931.146 180H921.001ZM980.84 180C975.318 180 970.84 184.477 970.84 190V203.313C970.841 208.836 975.318 213.313 980.84 213.313H990.986C996.509 213.313 1000.99 208.836 1000.99 203.313V190C1000.99 184.477 996.509 180 990.986 180H980.84ZM1040.68 180C1035.16 180 1030.68 184.477 1030.68 190V203.313C1030.68 208.836 1035.16 213.313 1040.68 213.313H1050.83C1056.35 213.313 1060.83 208.836 1060.83 203.313V190C1060.83 184.477 1056.35 180 1050.83 180H1040.68ZM1100.52 180C1095 180 1090.52 184.477 1090.52 190V203.313C1090.52 208.836 1095 213.313 1100.52 213.313H1110.67C1116.19 213.313 1120.67 208.836 1120.67 203.313V190C1120.67 184.477 1116.19 180 1110.67 180H1100.52ZM1160.36 180C1154.84 180 1150.36 184.477 1150.36 190V203.313C1150.36 208.836 1154.84 213.313 1160.36 213.313H1170.51C1176.03 213.313 1180.51 208.836 1180.51 203.313V190C1180.51 184.477 1176.03 180 1170.51 180H1160.36ZM1220.2 180C1214.68 180 1210.2 184.477 1210.2 190V203.313C1210.2 208.836 1214.68 213.313 1220.2 213.313H1230.35C1235.87 213.313 1240.35 208.836 1240.35 203.313V190C1240.35 184.477 1235.87 180 1230.35 180H1220.2ZM1280.04 180C1274.52 180 1270.04 184.477 1270.04 190V203.313C1270.04 208.836 1274.52 213.313 1280.04 213.313H1290.19C1295.71 213.313 1300.19 208.836 1300.19 203.313V190C1300.19 184.477 1295.71 180 1290.19 180H1280.04ZM1339.88 180C1334.36 180 1329.88 184.477 1329.88 190V203.313C1329.88 208.836 1334.36 213.313 1339.88 213.313H1350.03C1355.55 213.313 1360.03 208.836 1360.03 203.313V190C1360.03 184.477 1355.55 180 1350.03 180H1339.88ZM1399.72 180C1394.2 180 1389.72 184.477 1389.72 190V203.313C1389.72 208.836 1394.2 213.313 1399.72 213.313H1409.87C1415.39 213.313 1419.87 208.836 1419.87 203.313V190C1419.87 184.477 1415.39 180 1409.87 180H1399.72ZM1459.56 180C1454.04 180 1449.56 184.477 1449.56 190V203.313C1449.56 208.836 1454.04 213.313 1459.56 213.313H1469.71C1475.23 213.313 1479.71 208.836 1479.71 203.313V190C1479.71 184.477 1475.23 180 1469.71 180H1459.56ZM863.081 14.5869C857.558 14.5869 853.081 19.0642 853.081 24.5869V37.9004C853.081 43.4232 857.558 47.9004 863.081 47.9004H873.226C878.749 47.9002 883.226 43.4231 883.226 37.9004V24.5869C883.226 19.0643 878.749 14.5871 873.226 14.5869H863.081ZM803.241 14.3896C797.718 14.3896 793.241 18.8668 793.241 24.3896V37.7031C793.241 43.2258 797.718 47.7031 803.241 47.7031H813.386C818.909 47.7029 823.386 43.2257 823.386 37.7031V24.3896C823.386 18.8669 818.909 14.3898 813.386 14.3896H803.241ZM743.401 14.1973C737.878 14.1973 733.401 18.6746 733.401 24.1973V37.5107C733.401 43.0336 737.878 47.5107 743.401 47.5107H753.546C759.068 47.5107 763.546 43.0336 763.546 37.5107V24.1973C763.545 18.6746 759.068 14.1973 753.546 14.1973H743.401ZM1518.4 14.1973C1512.88 14.1973 1508.4 18.6746 1508.4 24.1973V37.5107C1508.4 43.0336 1512.88 47.5107 1518.4 47.5107H1528.55C1534.07 47.5107 1538.55 43.0336 1538.55 37.5107V24.1973C1538.55 18.6746 1534.07 14.1973 1528.55 14.1973H1518.4ZM145.001 14C139.478 14 135.001 18.4772 135.001 24V37.3135C135.001 42.8361 139.478 47.3135 145.001 47.3135H155.146C160.669 47.3133 165.146 42.8361 165.146 37.3135V24C165.146 18.4772 160.669 14.0002 155.146 14H145.001ZM204.84 14C199.318 14.0001 194.84 18.4772 194.84 24V37.3135C194.841 42.8361 199.318 47.3134 204.84 47.3135H214.986C220.509 47.3134 224.986 42.8361 224.986 37.3135V24C224.986 18.4772 220.509 14.0001 214.986 14H204.84ZM264.68 14C259.158 14.0001 254.68 18.4772 254.68 24V37.3135C254.681 42.8361 259.158 47.3134 264.68 47.3135H274.826C280.349 47.3134 284.826 42.8361 284.826 37.3135V24C284.826 18.4772 280.349 14 274.826 14H264.68ZM324.52 14C318.997 14.0002 314.52 18.4773 314.52 24V37.3135C314.52 42.836 318.998 47.3133 324.52 47.3135H334.666C340.188 47.3135 344.665 42.8362 344.666 37.3135V24C344.666 18.4772 340.189 14 334.666 14H324.52ZM384.36 14C378.837 14.0002 374.36 18.4773 374.36 24V37.3135C374.36 42.836 378.837 47.3132 384.36 47.3135H394.505C400.028 47.3135 404.505 42.8362 404.505 37.3135V24C404.505 18.4772 400.028 14 394.505 14H384.36ZM444.201 14C438.678 14 434.201 18.4772 434.201 24V37.3135C434.201 42.8361 438.678 47.3135 444.201 47.3135H454.345C459.868 47.3135 464.345 42.8362 464.345 37.3135V24C464.345 18.4772 459.868 14 454.345 14H444.201ZM504.041 14C498.518 14 494.041 18.4772 494.041 24V37.3135C494.041 42.8361 498.518 47.3135 504.041 47.3135H514.186C519.709 47.3133 524.186 42.8361 524.186 37.3135V24C524.186 18.4772 519.709 14.0002 514.186 14H504.041ZM563.88 14C558.358 14.0001 553.88 18.4772 553.88 24V37.3135C553.881 42.8361 558.358 47.3134 563.88 47.3135H574.026C579.549 47.3134 584.026 42.8361 584.026 37.3135V24C584.026 18.4772 579.549 14.0001 574.026 14H563.88ZM623.72 14C618.198 14.0001 613.72 18.4772 613.72 24V37.3135C613.721 42.8361 618.198 47.3134 623.72 47.3135H633.866C639.389 47.3134 643.866 42.8361 643.866 37.3135V24C643.866 18.4772 639.389 14 633.866 14H623.72ZM683.56 14C678.037 14.0002 673.56 18.4773 673.56 24V37.3135C673.56 42.836 678.038 47.3133 683.56 47.3135H693.706C699.228 47.3135 703.706 42.8362 703.706 37.3135V24C703.706 18.4772 699.229 14 693.706 14H683.56ZM920.001 14C914.478 14 910.001 18.4772 910.001 24V37.3135C910.001 42.8361 914.478 47.3135 920.001 47.3135H930.146C935.669 47.3133 940.146 42.8361 940.146 37.3135V24C940.146 18.4772 935.669 14.0002 930.146 14H920.001ZM979.84 14C974.318 14.0001 969.84 18.4772 969.84 24V37.3135C969.841 42.8361 974.318 47.3134 979.84 47.3135H989.986C995.509 47.3134 999.986 42.8361 999.986 37.3135V24C999.986 18.4772 995.509 14.0001 989.986 14H979.84ZM1039.68 14C1034.16 14.0001 1029.68 18.4772 1029.68 24V37.3135C1029.68 42.8361 1034.16 47.3134 1039.68 47.3135H1049.83C1055.35 47.3134 1059.83 42.8361 1059.83 37.3135V24C1059.83 18.4772 1055.35 14 1049.83 14H1039.68ZM1099.52 14C1094 14.0002 1089.52 18.4773 1089.52 24V37.3135C1089.52 42.836 1094 47.3133 1099.52 47.3135H1109.67C1115.19 47.3135 1119.67 42.8362 1119.67 37.3135V24C1119.67 18.4772 1115.19 14 1109.67 14H1099.52ZM1159.36 14C1153.84 14.0002 1149.36 18.4773 1149.36 24V37.3135C1149.36 42.836 1153.84 47.3132 1159.36 47.3135H1169.51C1175.03 47.3135 1179.51 42.8362 1179.51 37.3135V24C1179.51 18.4772 1175.03 14 1169.51 14H1159.36ZM1219.2 14C1213.68 14 1209.2 18.4772 1209.2 24V37.3135C1209.2 42.8361 1213.68 47.3135 1219.2 47.3135H1229.35C1234.87 47.3135 1239.35 42.8362 1239.35 37.3135V24C1239.35 18.4772 1234.87 14 1229.35 14H1219.2ZM1279.04 14C1273.52 14 1269.04 18.4772 1269.04 24V37.3135C1269.04 42.8361 1273.52 47.3135 1279.04 47.3135H1289.19C1294.71 47.3133 1299.19 42.8361 1299.19 37.3135V24C1299.19 18.4772 1294.71 14.0002 1289.19 14H1279.04ZM1338.88 14C1333.36 14.0001 1328.88 18.4772 1328.88 24V37.3135C1328.88 42.8361 1333.36 47.3134 1338.88 47.3135H1349.03C1354.55 47.3134 1359.03 42.8361 1359.03 37.3135V24C1359.03 18.4772 1354.55 14.0001 1349.03 14H1338.88ZM1398.72 14C1393.2 14.0001 1388.72 18.4772 1388.72 24V37.3135C1388.72 42.8361 1393.2 47.3134 1398.72 47.3135H1408.87C1414.39 47.3134 1418.87 42.8361 1418.87 37.3135V24C1418.87 18.4772 1414.39 14 1408.87 14H1398.72ZM1458.56 14C1453.04 14.0002 1448.56 18.4773 1448.56 24V37.3135C1448.56 42.836 1453.04 47.3133 1458.56 47.3135H1468.71C1474.23 47.3135 1478.71 42.8362 1478.71 37.3135V24C1478.71 18.4772 1474.23 14 1468.71 14H1458.56Z"/>
</mask>
<path d="M1595.36 17.2207C1593.55 15.4695 1591.1 14.3897 1588.39 14.3896H1578.24C1572.72 14.3896 1568.24 18.8668 1568.24 24.3896V37.7031C1568.24 43.2258 1572.72 47.7031 1578.24 47.7031H1588.39C1591.1 47.703 1593.55 46.6217 1595.36 44.8701V182.366C1593.69 181.125 1591.62 180.39 1589.39 180.39H1579.24C1573.72 180.39 1569.24 184.867 1569.24 190.39V203.703C1569.24 209.226 1573.72 213.703 1579.24 213.703H1589.39C1591.62 213.703 1593.69 212.966 1595.36 211.725V232H-26.9994V0H1595.36V17.2207ZM864.081 180.587C858.558 180.587 854.081 185.064 854.081 190.587V203.9C854.081 209.423 858.558 213.9 864.081 213.9H874.226C879.749 213.9 884.226 209.423 884.226 203.9V190.587C884.226 185.064 879.749 180.587 874.226 180.587H864.081ZM804.241 180.39C798.718 180.39 794.241 184.867 794.241 190.39V203.703C794.241 209.226 798.718 213.703 804.241 213.703H814.386C819.909 213.703 824.386 209.226 824.386 203.703V190.39C824.386 184.867 819.909 180.39 814.386 180.39H804.241ZM744.401 180.197C738.878 180.197 734.401 184.675 734.401 190.197V203.511C734.401 209.034 738.878 213.511 744.401 213.511H754.546C760.068 213.511 764.546 209.034 764.546 203.511V190.197C764.545 184.675 760.068 180.197 754.546 180.197H744.401ZM1519.4 180.197C1513.88 180.197 1509.4 184.675 1509.4 190.197V203.511C1509.4 209.034 1513.88 213.511 1519.4 213.511H1529.55C1535.07 213.511 1539.55 209.034 1539.55 203.511V190.197C1539.55 184.675 1535.07 180.197 1529.55 180.197H1519.4ZM146.001 180C140.478 180 136.001 184.477 136.001 190V203.313C136.001 208.836 140.478 213.313 146.001 213.313H156.146C161.669 213.313 166.146 208.836 166.146 203.313V190C166.146 184.477 161.669 180 156.146 180H146.001ZM205.84 180C200.318 180 195.84 184.477 195.84 190V203.313C195.841 208.836 200.318 213.313 205.84 213.313H215.986C221.509 213.313 225.986 208.836 225.986 203.313V190C225.986 184.477 221.509 180 215.986 180H205.84ZM265.68 180C260.158 180 255.68 184.477 255.68 190V203.313C255.681 208.836 260.158 213.313 265.68 213.313H275.826C281.349 213.313 285.826 208.836 285.826 203.313V190C285.826 184.477 281.349 180 275.826 180H265.68ZM325.52 180C319.997 180 315.52 184.477 315.52 190V203.313C315.52 208.836 319.998 213.313 325.52 213.313H335.666C341.188 213.313 345.665 208.836 345.666 203.313V190C345.666 184.477 341.189 180 335.666 180H325.52ZM385.36 180C379.837 180 375.36 184.477 375.36 190V203.313C375.36 208.836 379.837 213.313 385.36 213.313H395.505C401.028 213.313 405.505 208.836 405.505 203.313V190C405.505 184.477 401.028 180 395.505 180H385.36ZM445.201 180C439.678 180 435.201 184.477 435.201 190V203.313C435.201 208.836 439.678 213.313 445.201 213.313H455.345C460.868 213.313 465.345 208.836 465.345 203.313V190C465.345 184.477 460.868 180 455.345 180H445.201ZM505.041 180C499.518 180 495.041 184.477 495.041 190V203.313C495.041 208.836 499.518 213.313 505.041 213.313H515.186C520.709 213.313 525.186 208.836 525.186 203.313V190C525.186 184.477 520.709 180 515.186 180H505.041ZM564.88 180C559.358 180 554.88 184.477 554.88 190V203.313C554.881 208.836 559.358 213.313 564.88 213.313H575.026C580.549 213.313 585.026 208.836 585.026 203.313V190C585.026 184.477 580.549 180 575.026 180H564.88ZM624.72 180C619.198 180 614.72 184.477 614.72 190V203.313C614.721 208.836 619.198 213.313 624.72 213.313H634.866C640.389 213.313 644.866 208.836 644.866 203.313V190C644.866 184.477 640.389 180 634.866 180H624.72ZM684.56 180C679.037 180 674.56 184.477 674.56 190V203.313C674.56 208.836 679.038 213.313 684.56 213.313H694.706C700.228 213.313 704.706 208.836 704.706 203.313V190C704.706 184.477 700.229 180 694.706 180H684.56ZM921.001 180C915.478 180 911.001 184.477 911.001 190V203.313C911.001 208.836 915.478 213.313 921.001 213.313H931.146C936.669 213.313 941.146 208.836 941.146 203.313V190C941.146 184.477 936.669 180 931.146 180H921.001ZM980.84 180C975.318 180 970.84 184.477 970.84 190V203.313C970.841 208.836 975.318 213.313 980.84 213.313H990.986C996.509 213.313 1000.99 208.836 1000.99 203.313V190C1000.99 184.477 996.509 180 990.986 180H980.84ZM1040.68 180C1035.16 180 1030.68 184.477 1030.68 190V203.313C1030.68 208.836 1035.16 213.313 1040.68 213.313H1050.83C1056.35 213.313 1060.83 208.836 1060.83 203.313V190C1060.83 184.477 1056.35 180 1050.83 180H1040.68ZM1100.52 180C1095 180 1090.52 184.477 1090.52 190V203.313C1090.52 208.836 1095 213.313 1100.52 213.313H1110.67C1116.19 213.313 1120.67 208.836 1120.67 203.313V190C1120.67 184.477 1116.19 180 1110.67 180H1100.52ZM1160.36 180C1154.84 180 1150.36 184.477 1150.36 190V203.313C1150.36 208.836 1154.84 213.313 1160.36 213.313H1170.51C1176.03 213.313 1180.51 208.836 1180.51 203.313V190C1180.51 184.477 1176.03 180 1170.51 180H1160.36ZM1220.2 180C1214.68 180 1210.2 184.477 1210.2 190V203.313C1210.2 208.836 1214.68 213.313 1220.2 213.313H1230.35C1235.87 213.313 1240.35 208.836 1240.35 203.313V190C1240.35 184.477 1235.87 180 1230.35 180H1220.2ZM1280.04 180C1274.52 180 1270.04 184.477 1270.04 190V203.313C1270.04 208.836 1274.52 213.313 1280.04 213.313H1290.19C1295.71 213.313 1300.19 208.836 1300.19 203.313V190C1300.19 184.477 1295.71 180 1290.19 180H1280.04ZM1339.88 180C1334.36 180 1329.88 184.477 1329.88 190V203.313C1329.88 208.836 1334.36 213.313 1339.88 213.313H1350.03C1355.55 213.313 1360.03 208.836 1360.03 203.313V190C1360.03 184.477 1355.55 180 1350.03 180H1339.88ZM1399.72 180C1394.2 180 1389.72 184.477 1389.72 190V203.313C1389.72 208.836 1394.2 213.313 1399.72 213.313H1409.87C1415.39 213.313 1419.87 208.836 1419.87 203.313V190C1419.87 184.477 1415.39 180 1409.87 180H1399.72ZM1459.56 180C1454.04 180 1449.56 184.477 1449.56 190V203.313C1449.56 208.836 1454.04 213.313 1459.56 213.313H1469.71C1475.23 213.313 1479.71 208.836 1479.71 203.313V190C1479.71 184.477 1475.23 180 1469.71 180H1459.56ZM863.081 14.5869C857.558 14.5869 853.081 19.0642 853.081 24.5869V37.9004C853.081 43.4232 857.558 47.9004 863.081 47.9004H873.226C878.749 47.9002 883.226 43.4231 883.226 37.9004V24.5869C883.226 19.0643 878.749 14.5871 873.226 14.5869H863.081ZM803.241 14.3896C797.718 14.3896 793.241 18.8668 793.241 24.3896V37.7031C793.241 43.2258 797.718 47.7031 803.241 47.7031H813.386C818.909 47.7029 823.386 43.2257 823.386 37.7031V24.3896C823.386 18.8669 818.909 14.3898 813.386 14.3896H803.241ZM743.401 14.1973C737.878 14.1973 733.401 18.6746 733.401 24.1973V37.5107C733.401 43.0336 737.878 47.5107 743.401 47.5107H753.546C759.068 47.5107 763.546 43.0336 763.546 37.5107V24.1973C763.545 18.6746 759.068 14.1973 753.546 14.1973H743.401ZM1518.4 14.1973C1512.88 14.1973 1508.4 18.6746 1508.4 24.1973V37.5107C1508.4 43.0336 1512.88 47.5107 1518.4 47.5107H1528.55C1534.07 47.5107 1538.55 43.0336 1538.55 37.5107V24.1973C1538.55 18.6746 1534.07 14.1973 1528.55 14.1973H1518.4ZM145.001 14C139.478 14 135.001 18.4772 135.001 24V37.3135C135.001 42.8361 139.478 47.3135 145.001 47.3135H155.146C160.669 47.3133 165.146 42.8361 165.146 37.3135V24C165.146 18.4772 160.669 14.0002 155.146 14H145.001ZM204.84 14C199.318 14.0001 194.84 18.4772 194.84 24V37.3135C194.841 42.8361 199.318 47.3134 204.84 47.3135H214.986C220.509 47.3134 224.986 42.8361 224.986 37.3135V24C224.986 18.4772 220.509 14.0001 214.986 14H204.84ZM264.68 14C259.158 14.0001 254.68 18.4772 254.68 24V37.3135C254.681 42.8361 259.158 47.3134 264.68 47.3135H274.826C280.349 47.3134 284.826 42.8361 284.826 37.3135V24C284.826 18.4772 280.349 14 274.826 14H264.68ZM324.52 14C318.997 14.0002 314.52 18.4773 314.52 24V37.3135C314.52 42.836 318.998 47.3133 324.52 47.3135H334.666C340.188 47.3135 344.665 42.8362 344.666 37.3135V24C344.666 18.4772 340.189 14 334.666 14H324.52ZM384.36 14C378.837 14.0002 374.36 18.4773 374.36 24V37.3135C374.36 42.836 378.837 47.3132 384.36 47.3135H394.505C400.028 47.3135 404.505 42.8362 404.505 37.3135V24C404.505 18.4772 400.028 14 394.505 14H384.36ZM444.201 14C438.678 14 434.201 18.4772 434.201 24V37.3135C434.201 42.8361 438.678 47.3135 444.201 47.3135H454.345C459.868 47.3135 464.345 42.8362 464.345 37.3135V24C464.345 18.4772 459.868 14 454.345 14H444.201ZM504.041 14C498.518 14 494.041 18.4772 494.041 24V37.3135C494.041 42.8361 498.518 47.3135 504.041 47.3135H514.186C519.709 47.3133 524.186 42.8361 524.186 37.3135V24C524.186 18.4772 519.709 14.0002 514.186 14H504.041ZM563.88 14C558.358 14.0001 553.88 18.4772 553.88 24V37.3135C553.881 42.8361 558.358 47.3134 563.88 47.3135H574.026C579.549 47.3134 584.026 42.8361 584.026 37.3135V24C584.026 18.4772 579.549 14.0001 574.026 14H563.88ZM623.72 14C618.198 14.0001 613.72 18.4772 613.72 24V37.3135C613.721 42.8361 618.198 47.3134 623.72 47.3135H633.866C639.389 47.3134 643.866 42.8361 643.866 37.3135V24C643.866 18.4772 639.389 14 633.866 14H623.72ZM683.56 14C678.037 14.0002 673.56 18.4773 673.56 24V37.3135C673.56 42.836 678.038 47.3133 683.56 47.3135H693.706C699.228 47.3135 703.706 42.8362 703.706 37.3135V24C703.706 18.4772 699.229 14 693.706 14H683.56ZM920.001 14C914.478 14 910.001 18.4772 910.001 24V37.3135C910.001 42.8361 914.478 47.3135 920.001 47.3135H930.146C935.669 47.3133 940.146 42.8361 940.146 37.3135V24C940.146 18.4772 935.669 14.0002 930.146 14H920.001ZM979.84 14C974.318 14.0001 969.84 18.4772 969.84 24V37.3135C969.841 42.8361 974.318 47.3134 979.84 47.3135H989.986C995.509 47.3134 999.986 42.8361 999.986 37.3135V24C999.986 18.4772 995.509 14.0001 989.986 14H979.84ZM1039.68 14C1034.16 14.0001 1029.68 18.4772 1029.68 24V37.3135C1029.68 42.8361 1034.16 47.3134 1039.68 47.3135H1049.83C1055.35 47.3134 1059.83 42.8361 1059.83 37.3135V24C1059.83 18.4772 1055.35 14 1049.83 14H1039.68ZM1099.52 14C1094 14.0002 1089.52 18.4773 1089.52 24V37.3135C1089.52 42.836 1094 47.3133 1099.52 47.3135H1109.67C1115.19 47.3135 1119.67 42.8362 1119.67 37.3135V24C1119.67 18.4772 1115.19 14 1109.67 14H1099.52ZM1159.36 14C1153.84 14.0002 1149.36 18.4773 1149.36 24V37.3135C1149.36 42.836 1153.84 47.3132 1159.36 47.3135H1169.51C1175.03 47.3135 1179.51 42.8362 1179.51 37.3135V24C1179.51 18.4772 1175.03 14 1169.51 14H1159.36ZM1219.2 14C1213.68 14 1209.2 18.4772 1209.2 24V37.3135C1209.2 42.8361 1213.68 47.3135 1219.2 47.3135H1229.35C1234.87 47.3135 1239.35 42.8362 1239.35 37.3135V24C1239.35 18.4772 1234.87 14 1229.35 14H1219.2ZM1279.04 14C1273.52 14 1269.04 18.4772 1269.04 24V37.3135C1269.04 42.8361 1273.52 47.3135 1279.04 47.3135H1289.19C1294.71 47.3133 1299.19 42.8361 1299.19 37.3135V24C1299.19 18.4772 1294.71 14.0002 1289.19 14H1279.04ZM1338.88 14C1333.36 14.0001 1328.88 18.4772 1328.88 24V37.3135C1328.88 42.8361 1333.36 47.3134 1338.88 47.3135H1349.03C1354.55 47.3134 1359.03 42.8361 1359.03 37.3135V24C1359.03 18.4772 1354.55 14.0001 1349.03 14H1338.88ZM1398.72 14C1393.2 14.0001 1388.72 18.4772 1388.72 24V37.3135C1388.72 42.8361 1393.2 47.3134 1398.72 47.3135H1408.87C1414.39 47.3134 1418.87 42.8361 1418.87 37.3135V24C1418.87 18.4772 1414.39 14 1408.87 14H1398.72ZM1458.56 14C1453.04 14.0002 1448.56 18.4773 1448.56 24V37.3135C1448.56 42.836 1453.04 47.3133 1458.56 47.3135H1468.71C1474.23 47.3135 1478.71 42.8362 1478.71 37.3135V24C1478.71 18.4772 1474.23 14 1468.71 14H1458.56Z" fill="black"/>
<path d="M1595.36 17.2207L1594.66 17.9377L1596.36 19.5878V17.2207H1595.36ZM1588.39 14.3896V13.3896V14.3896ZM1568.24 37.7031H1567.24V37.7032L1568.24 37.7031ZM1588.39 47.7031V48.7031V47.7031ZM1595.36 44.8701H1596.36V42.5027L1594.66 44.1532L1595.36 44.8701ZM1595.36 182.366L1594.76 183.168L1596.36 184.358V182.366H1595.36ZM1589.39 180.39V179.39V180.39ZM1569.24 203.703H1568.24V203.703L1569.24 203.703ZM1589.39 213.703V214.703V213.703ZM1595.36 211.725H1596.36V209.732L1594.76 210.923L1595.36 211.725ZM1595.36 232V233H1596.36V232H1595.36ZM-26.9994 232H-27.9994V233H-26.9994V232ZM-26.9994 0V-1H-27.9994V0H-26.9994ZM1595.36 0H1596.36V-1H1595.36V0ZM854.081 190.587L853.081 190.587V190.587H854.081ZM864.081 213.9V214.9V213.9ZM874.226 213.9V214.9V213.9ZM884.226 190.587H885.226V190.587L884.226 190.587ZM874.226 180.587V179.587V180.587ZM794.241 203.703H793.241V203.703L794.241 203.703ZM814.386 213.703V214.703H814.386L814.386 213.703ZM824.386 203.703L825.386 203.703V203.703H824.386ZM824.386 190.39H825.386H824.386ZM814.386 180.39L814.386 179.39H814.386V180.39ZM734.401 190.197L733.401 190.197V190.197H734.401ZM734.401 203.511H733.401H734.401ZM764.546 190.197H765.546V190.197L764.546 190.197ZM1509.4 190.197L1508.4 190.197V190.197H1509.4ZM1509.4 203.511H1508.4H1509.4ZM1539.55 190.197H1540.55V190.197L1539.55 190.197ZM146.001 180V179V180ZM136.001 203.313H135.001V203.314L136.001 203.313ZM146.001 213.313V214.313V213.313ZM156.146 213.313V214.313H156.146L156.146 213.313ZM166.146 203.313L167.146 203.314V203.313H166.146ZM166.146 190H167.146H166.146ZM156.146 180L156.146 179H156.146V180ZM205.84 180V179H205.84L205.84 180ZM195.84 203.313H194.84V203.314L195.84 203.313ZM205.84 213.313L205.84 214.313H205.84V213.313ZM215.986 213.313V214.313H215.986L215.986 213.313ZM225.986 203.313L226.986 203.314V203.313H225.986ZM225.986 190H226.986H225.986ZM215.986 180L215.986 179H215.986V180ZM265.68 180V179H265.68L265.68 180ZM255.68 203.313H254.68V203.314L255.68 203.313ZM265.68 213.313L265.68 214.313H265.68V213.313ZM275.826 213.313V214.313V213.313ZM285.826 203.313L286.826 203.314V203.313H285.826ZM285.826 190H286.826H285.826ZM275.826 180V179V180ZM325.52 180V179H325.52L325.52 180ZM315.52 203.313H314.52V203.314L315.52 203.313ZM325.52 213.313L325.52 214.313H325.52V213.313ZM345.666 203.313L346.666 203.314V203.313H345.666ZM345.666 190H346.666H345.666ZM385.36 180V179H385.36L385.36 180ZM375.36 203.313H374.36V203.314L375.36 203.313ZM385.36 213.313L385.36 214.313H385.36V213.313ZM405.505 203.313L406.505 203.314V203.313H405.505ZM405.505 190H406.505H405.505ZM435.201 203.313H434.201V203.314L435.201 203.313ZM465.345 203.313L466.345 203.314V203.313H465.345ZM465.345 190H466.345H465.345ZM495.041 203.313H494.041V203.314L495.041 203.313ZM505.041 213.313V214.313V213.313ZM515.186 213.313V214.313V213.313ZM525.186 203.313L526.186 203.314V203.313H525.186ZM525.186 190H526.186H525.186ZM515.186 180V179V180ZM564.88 180V179V180ZM554.88 203.313H553.88V203.314L554.88 203.313ZM564.88 213.313V214.313V213.313ZM575.026 213.313V214.313V213.313ZM585.026 203.313L586.026 203.314V203.313H585.026ZM585.026 190H586.026H585.026ZM575.026 180V179V180ZM624.72 180V179V180ZM614.72 203.313H613.72V203.314L614.72 203.313ZM624.72 213.313V214.313V213.313ZM634.866 213.313V214.313V213.313ZM644.866 203.313L645.866 203.314V203.313H644.866ZM644.866 190H645.866H644.866ZM634.866 180V179V180ZM684.56 180V179V180ZM674.56 203.313H673.56V203.314L674.56 203.313ZM684.56 213.313L684.56 214.313H684.56V213.313ZM704.706 203.313L705.706 203.314V203.313H704.706ZM704.706 190H705.706H704.706ZM921.001 180V179V180ZM911.001 203.313H910.001V203.314L911.001 203.313ZM921.001 213.313V214.313V213.313ZM931.146 213.313V214.313V213.313ZM941.146 203.313L942.146 203.314V203.313H941.146ZM941.146 190H942.146H941.146ZM931.146 180V179V180ZM980.84 180V179V180ZM970.84 203.313H969.84V203.314L970.84 203.313ZM980.84 213.313V214.313V213.313ZM990.986 213.313V214.313V213.313ZM1000.99 203.313L1001.99 203.314V203.313H1000.99ZM1000.99 190H1001.99H1000.99ZM990.986 180V179V180ZM1040.68 180V179V180ZM1030.68 203.313H1029.68V203.314L1030.68 203.313ZM1040.68 213.313V214.313V213.313ZM1050.83 213.313V214.313V213.313ZM1060.83 203.313L1061.83 203.314V203.313H1060.83ZM1060.83 190H1061.83H1060.83ZM1050.83 180V179V180ZM1100.52 180V179V180ZM1090.52 203.313H1089.52V203.314L1090.52 203.313ZM1100.52 213.313V214.313V213.313ZM1120.67 203.313L1121.67 203.314V203.313H1120.67ZM1120.67 190H1121.67H1120.67ZM1160.36 180V179V180ZM1150.36 203.313H1149.36V203.314L1150.36 203.313ZM1160.36 213.313V214.313V213.313ZM1180.51 203.313L1181.51 203.314V203.313H1180.51ZM1180.51 190H1181.51H1180.51ZM1210.2 203.313H1209.2V203.314L1210.2 203.313ZM1240.35 203.313L1241.35 203.314V203.313H1240.35ZM1240.35 190H1241.35H1240.35ZM1270.04 203.313H1269.04V203.314L1270.04 203.313ZM1280.04 213.313V214.313V213.313ZM1290.19 213.313V214.313V213.313ZM1300.19 203.313L1301.19 203.314V203.313H1300.19ZM1300.19 190H1301.19H1300.19ZM1290.19 180V179V180ZM1339.88 180V179V180ZM1329.88 203.313H1328.88V203.314L1329.88 203.313ZM1339.88 213.313V214.313V213.313ZM1350.03 213.313V214.313V213.313ZM1360.03 203.313L1361.03 203.314V203.313H1360.03ZM1360.03 190H1361.03H1360.03ZM1350.03 180V179V180ZM1399.72 180V179V180ZM1389.72 203.313H1388.72V203.314L1389.72 203.313ZM1399.72 213.313V214.313V213.313ZM1409.87 213.313V214.313V213.313ZM1419.87 203.313L1420.87 203.314V203.313H1419.87ZM1419.87 190H1420.87H1419.87ZM1409.87 180V179V180ZM1459.56 180V179V180ZM1449.56 203.313H1448.56V203.314L1449.56 203.313ZM1459.56 213.313V214.313V213.313ZM1479.71 203.313L1480.71 203.314V203.313H1479.71ZM1479.71 190H1480.71H1479.71ZM853.081 24.5869L852.081 24.5869V24.5869H853.081ZM863.081 47.9004V48.9004V47.9004ZM873.226 47.9004V48.9004V47.9004ZM883.226 24.5869H884.226V24.5869L883.226 24.5869ZM873.226 14.5869V13.5869V14.5869ZM793.241 37.7031H792.241V37.7032L793.241 37.7031ZM813.386 47.7031V48.7031H813.386L813.386 47.7031ZM823.386 37.7031L824.386 37.7032V37.7031H823.386ZM823.386 24.3896H824.386H823.386ZM813.386 14.3896L813.386 13.3896H813.386V14.3896ZM733.401 24.1973L732.401 24.1972V24.1973H733.401ZM733.401 37.5107H732.401H733.401ZM763.546 24.1973H764.546V24.1972L763.546 24.1973ZM1508.4 24.1973L1507.4 24.1972V24.1973H1508.4ZM1508.4 37.5107H1507.4H1508.4ZM1538.55 24.1973H1539.55V24.1972L1538.55 24.1973ZM145.001 14V13V14ZM135.001 37.3135H134.001V37.3135L135.001 37.3135ZM145.001 47.3135V48.3135V47.3135ZM155.146 47.3135V48.3135H155.146L155.146 47.3135ZM165.146 37.3135L166.146 37.3135V37.3135H165.146ZM165.146 24H166.146H165.146ZM155.146 14L155.146 13H155.146V14ZM204.84 14V13H204.84L204.84 14ZM194.84 37.3135H193.84V37.3135L194.84 37.3135ZM204.84 47.3135L204.84 48.3135H204.84V47.3135ZM214.986 47.3135V48.3135H214.986L214.986 47.3135ZM224.986 37.3135L225.986 37.3135V37.3135H224.986ZM224.986 24H225.986H224.986ZM214.986 14L214.986 13H214.986V14ZM264.68 14V13H264.68L264.68 14ZM254.68 37.3135H253.68V37.3135L254.68 37.3135ZM264.68 47.3135L264.68 48.3135H264.68V47.3135ZM274.826 47.3135V48.3135V47.3135ZM284.826 37.3135L285.826 37.3135V37.3135H284.826ZM284.826 24H285.826H284.826ZM274.826 14V13V14ZM324.52 14V13H324.52L324.52 14ZM314.52 37.3135H313.52V37.3135L314.52 37.3135ZM324.52 47.3135L324.52 48.3135H324.52V47.3135ZM344.666 37.3135L345.666 37.3135V37.3135H344.666ZM344.666 24H345.666H344.666ZM384.36 14V13H384.36L384.36 14ZM374.36 37.3135H373.36V37.3135L374.36 37.3135ZM384.36 47.3135L384.36 48.3135H384.36V47.3135ZM404.505 37.3135L405.505 37.3135V37.3135H404.505ZM404.505 24H405.505H404.505ZM434.201 37.3135H433.201V37.3135L434.201 37.3135ZM464.345 37.3135L465.345 37.3135V37.3135H464.345ZM464.345 24H465.345H464.345ZM494.041 37.3135H493.041V37.3135L494.041 37.3135ZM504.041 47.3135V48.3135V47.3135ZM514.186 47.3135V48.3135V47.3135ZM524.186 37.3135L525.186 37.3135V37.3135H524.186ZM524.186 24H525.186H524.186ZM514.186 14V13V14ZM563.88 14V13V14ZM553.88 37.3135H552.88V37.3135L553.88 37.3135ZM563.88 47.3135V48.3135V47.3135ZM574.026 47.3135V48.3135V47.3135ZM584.026 37.3135L585.026 37.3135V37.3135H584.026ZM584.026 24H585.026H584.026ZM574.026 14V13V14ZM623.72 14V13V14ZM613.72 37.3135H612.72V37.3135L613.72 37.3135ZM623.72 47.3135V48.3135V47.3135ZM633.866 47.3135V48.3135V47.3135ZM643.866 37.3135L644.866 37.3135V37.3135H643.866ZM643.866 24H644.866H643.866ZM633.866 14V13V14ZM683.56 14V13V14ZM673.56 37.3135H672.56V37.3135L673.56 37.3135ZM683.56 47.3135L683.56 48.3135H683.56V47.3135ZM703.706 37.3135L704.706 37.3135V37.3135H703.706ZM703.706 24H704.706H703.706ZM920.001 14V13V14ZM910.001 37.3135H909.001V37.3135L910.001 37.3135ZM920.001 47.3135V48.3135V47.3135ZM930.146 47.3135V48.3135V47.3135ZM940.146 37.3135L941.146 37.3135V37.3135H940.146ZM940.146 24H941.146H940.146ZM930.146 14V13V14ZM979.84 14V13V14ZM969.84 37.3135H968.84V37.3135L969.84 37.3135ZM979.84 47.3135V48.3135V47.3135ZM989.986 47.3135V48.3135V47.3135ZM999.986 37.3135L1000.99 37.3135V37.3135H999.986ZM999.986 24H1000.99H999.986ZM989.986 14V13V14ZM1039.68 14V13V14ZM1029.68 37.3135H1028.68V37.3135L1029.68 37.3135ZM1039.68 47.3135V48.3135V47.3135ZM1049.83 47.3135V48.3135V47.3135ZM1059.83 37.3135L1060.83 37.3135V37.3135H1059.83ZM1059.83 24H1060.83H1059.83ZM1049.83 14V13V14ZM1099.52 14V13V14ZM1089.52 37.3135H1088.52V37.3135L1089.52 37.3135ZM1099.52 47.3135V48.3135V47.3135ZM1119.67 37.3135L1120.67 37.3135V37.3135H1119.67ZM1119.67 24H1120.67H1119.67ZM1159.36 14V13V14ZM1149.36 37.3135H1148.36V37.3135L1149.36 37.3135ZM1159.36 47.3135V48.3135V47.3135ZM1179.51 37.3135L1180.51 37.3135V37.3135H1179.51ZM1179.51 24H1180.51H1179.51ZM1209.2 37.3135H1208.2V37.3135L1209.2 37.3135ZM1239.35 37.3135L1240.35 37.3135V37.3135H1239.35ZM1239.35 24H1240.35H1239.35ZM1269.04 37.3135H1268.04V37.3135L1269.04 37.3135ZM1279.04 47.3135V48.3135V47.3135ZM1289.19 47.3135V48.3135V47.3135ZM1299.19 37.3135L1300.19 37.3135V37.3135H1299.19ZM1299.19 24H1300.19H1299.19ZM1289.19 14V13V14ZM1338.88 14V13V14ZM1328.88 37.3135H1327.88V37.3135L1328.88 37.3135ZM1338.88 47.3135V48.3135V47.3135ZM1349.03 47.3135V48.3135V47.3135ZM1359.03 37.3135L1360.03 37.3135V37.3135H1359.03ZM1359.03 24H1360.03H1359.03ZM1349.03 14V13V14ZM1398.72 14V13V14ZM1388.72 37.3135H1387.72V37.3135L1388.72 37.3135ZM1398.72 47.3135V48.3135V47.3135ZM1408.87 47.3135V48.3135V47.3135ZM1418.87 37.3135L1419.87 37.3135V37.3135H1418.87ZM1418.87 24H1419.87H1418.87ZM1408.87 14V13V14ZM1458.56 14V13V14ZM1448.56 37.3135H1447.56V37.3135L1448.56 37.3135ZM1458.56 47.3135V48.3135V47.3135ZM1478.71 37.3135L1479.71 37.3135V37.3135H1478.71ZM1478.71 24H1479.71H1478.71ZM1595.36 17.2207L1596.05 16.5037C1594.07 14.5788 1591.37 13.3898 1588.39 13.3896V14.3896V15.3896C1590.83 15.3897 1593.04 16.3603 1594.66 17.9377L1595.36 17.2207ZM1588.39 14.3896V13.3896H1578.24V14.3896V15.3896H1588.39V14.3896ZM1578.24 14.3896V13.3896C1572.17 13.3896 1567.24 18.3145 1567.24 24.3896H1568.24H1569.24C1569.24 19.4191 1573.27 15.3896 1578.24 15.3896V14.3896ZM1568.24 24.3896H1567.24V37.7031H1568.24H1569.24V24.3896H1568.24ZM1568.24 37.7031L1567.24 37.7032C1567.24 43.7781 1572.17 48.7031 1578.24 48.7031V47.7031V46.7031C1573.27 46.7031 1569.24 42.6735 1569.24 37.7031L1568.24 37.7031ZM1578.24 47.7031V48.7031H1588.39V47.7031V46.7031H1578.24V47.7031ZM1588.39 47.7031V48.7031C1591.37 48.703 1594.07 47.5122 1596.05 45.587L1595.36 44.8701L1594.66 44.1532C1593.04 45.7313 1590.83 46.703 1588.39 46.7031V47.7031ZM1595.36 44.8701H1594.36V182.366H1595.36H1596.36V44.8701H1595.36ZM1595.36 182.366L1595.95 181.564C1594.12 180.199 1591.85 179.39 1589.39 179.39V180.39V181.39C1591.4 181.39 1593.26 182.051 1594.76 183.168L1595.36 182.366ZM1589.39 180.39V179.39H1579.24V180.39V181.39H1589.39V180.39ZM1579.24 180.39V179.39C1573.17 179.39 1568.24 184.315 1568.24 190.39H1569.24H1570.24C1570.24 185.419 1574.27 181.39 1579.24 181.39V180.39ZM1569.24 190.39H1568.24V203.703H1569.24H1570.24V190.39H1569.24ZM1569.24 203.703L1568.24 203.703C1568.24 209.778 1573.17 214.703 1579.24 214.703V213.703V212.703C1574.27 212.703 1570.24 208.674 1570.24 203.703L1569.24 203.703ZM1579.24 213.703V214.703H1589.39V213.703V212.703H1579.24V213.703ZM1589.39 213.703V214.703C1591.85 214.703 1594.12 213.892 1595.95 212.526L1595.36 211.725L1594.76 210.923C1593.26 212.041 1591.4 212.703 1589.39 212.703V213.703ZM1595.36 211.725H1594.36V232H1595.36H1596.36V211.725H1595.36ZM1595.36 232V231H-26.9994V232V233H1595.36V232ZM-26.9994 232H-25.9994V0H-26.9994H-27.9994V232H-26.9994ZM-26.9994 0V1H1595.36V0V-1H-26.9994V0ZM1595.36 0H1594.36V17.2207H1595.36H1596.36V0H1595.36ZM864.081 180.587V179.587C858.006 179.587 853.081 184.512 853.081 190.587L854.081 190.587L855.081 190.587C855.081 185.617 859.11 181.587 864.081 181.587V180.587ZM854.081 190.587H853.081V203.9H854.081H855.081V190.587H854.081ZM854.081 203.9H853.081C853.081 209.976 858.006 214.9 864.081 214.9V213.9V212.9C859.11 212.9 855.081 208.871 855.081 203.9H854.081ZM864.081 213.9V214.9H874.226V213.9V212.9H864.081V213.9ZM874.226 213.9V214.9C880.301 214.9 885.226 209.975 885.226 203.9H884.226H883.226C883.226 208.871 879.197 212.9 874.226 212.9V213.9ZM884.226 203.9H885.226V190.587H884.226H883.226V203.9H884.226ZM884.226 190.587L885.226 190.587C885.226 184.512 880.301 179.587 874.226 179.587V180.587V181.587C879.196 181.587 883.226 185.617 883.226 190.587L884.226 190.587ZM874.226 180.587V179.587H864.081V180.587V181.587H874.226V180.587ZM804.241 180.39V179.39C798.166 179.39 793.241 184.315 793.241 190.39H794.241H795.241C795.241 185.419 799.27 181.39 804.241 181.39V180.39ZM794.241 190.39H793.241V203.703H794.241H795.241V190.39H794.241ZM794.241 203.703L793.241 203.703C793.241 209.778 798.166 214.703 804.241 214.703V213.703V212.703C799.27 212.703 795.241 208.674 795.241 203.703L794.241 203.703ZM804.241 213.703V214.703H814.386V213.703V212.703H804.241V213.703ZM814.386 213.703L814.386 214.703C820.461 214.703 825.386 209.778 825.386 203.703L824.386 203.703L823.386 203.703C823.386 208.673 819.357 212.703 814.386 212.703L814.386 213.703ZM824.386 203.703H825.386V190.39H824.386H823.386V203.703H824.386ZM824.386 190.39H825.386C825.386 184.315 820.461 179.39 814.386 179.39L814.386 180.39L814.386 181.39C819.357 181.39 823.386 185.419 823.386 190.39H824.386ZM814.386 180.39V179.39H804.241V180.39V181.39H814.386V180.39ZM744.401 180.197V179.197C738.326 179.197 733.401 184.122 733.401 190.197L734.401 190.197L735.401 190.197C735.401 185.227 739.431 181.197 744.401 181.197V180.197ZM734.401 190.197H733.401V203.511H734.401H735.401V190.197H734.401ZM734.401 203.511H733.401C733.401 209.586 738.326 214.511 744.401 214.511V213.511V212.511C739.43 212.511 735.401 208.481 735.401 203.511H734.401ZM744.401 213.511V214.511H754.546V213.511V212.511H744.401V213.511ZM754.546 213.511V214.511C760.621 214.511 765.546 209.586 765.546 203.511H764.546H763.546C763.546 208.481 759.516 212.511 754.546 212.511V213.511ZM764.546 203.511H765.546V190.197H764.546H763.546V203.511H764.546ZM764.546 190.197L765.546 190.197C765.545 184.122 760.621 179.197 754.546 179.197V180.197V181.197C759.516 181.197 763.545 185.227 763.546 190.197L764.546 190.197ZM754.546 180.197V179.197H744.401V180.197V181.197H754.546V180.197ZM1519.4 180.197V179.197C1513.33 179.197 1508.4 184.122 1508.4 190.197L1509.4 190.197L1510.4 190.197C1510.4 185.227 1514.43 181.197 1519.4 181.197V180.197ZM1509.4 190.197H1508.4V203.511H1509.4H1510.4V190.197H1509.4ZM1509.4 203.511H1508.4C1508.4 209.586 1513.33 214.511 1519.4 214.511V213.511V212.511C1514.43 212.511 1510.4 208.481 1510.4 203.511H1509.4ZM1519.4 213.511V214.511H1529.55V213.511V212.511H1519.4V213.511ZM1529.55 213.511V214.511C1535.62 214.511 1540.55 209.586 1540.55 203.511H1539.55H1538.55C1538.55 208.481 1534.52 212.511 1529.55 212.511V213.511ZM1539.55 203.511H1540.55V190.197H1539.55H1538.55V203.511H1539.55ZM1539.55 190.197L1540.55 190.197C1540.55 184.122 1535.62 179.197 1529.55 179.197V180.197V181.197C1534.52 181.197 1538.55 185.227 1538.55 190.197L1539.55 190.197ZM1529.55 180.197V179.197H1519.4V180.197V181.197H1529.55V180.197ZM146.001 180V179C139.925 179 135.001 183.925 135.001 190H136.001H137.001C137.001 185.029 141.03 181 146.001 181V180ZM136.001 190H135.001V203.313H136.001H137.001V190H136.001ZM136.001 203.313L135.001 203.314C135.001 209.388 139.926 214.313 146.001 214.313V213.313V212.313C141.03 212.313 137.001 208.284 137.001 203.313L136.001 203.313ZM146.001 213.313V214.313H156.146V213.313V212.313H146.001V213.313ZM156.146 213.313L156.146 214.313C162.221 214.313 167.146 209.388 167.146 203.314L166.146 203.313L165.146 203.313C165.146 208.284 161.116 212.313 156.146 212.313L156.146 213.313ZM166.146 203.313H167.146V190H166.146H165.146V203.313H166.146ZM166.146 190H167.146C167.146 183.925 162.221 179 156.146 179L156.146 180L156.146 181C161.117 181 165.146 185.03 165.146 190H166.146ZM156.146 180V179H146.001V180V181H156.146V180ZM205.84 180L205.84 179C199.765 179 194.84 183.925 194.84 190H195.84H196.84C196.84 185.029 200.87 181 205.84 181L205.84 180ZM195.84 190H194.84V203.313H195.84H196.84V190H195.84ZM195.84 203.313L194.84 203.314C194.841 209.388 199.765 214.313 205.84 214.313L205.84 213.313L205.84 212.313C200.87 212.313 196.841 208.284 196.84 203.313L195.84 203.313ZM205.84 213.313V214.313H215.986V213.313V212.313H205.84V213.313ZM215.986 213.313L215.986 214.313C222.061 214.313 226.986 209.388 226.986 203.314L225.986 203.313L224.986 203.313C224.986 208.284 220.956 212.313 215.986 212.313L215.986 213.313ZM225.986 203.313H226.986V190H225.986H224.986V203.313H225.986ZM225.986 190H226.986C226.986 183.925 222.061 179 215.986 179L215.986 180L215.986 181C220.956 181 224.986 185.03 224.986 190H225.986ZM215.986 180V179H205.84V180V181H215.986V180ZM265.68 180L265.68 179C259.605 179 254.68 183.925 254.68 190H255.68H256.68C256.68 185.03 260.71 181 265.68 181L265.68 180ZM255.68 190H254.68V203.313H255.68H256.68V190H255.68ZM255.68 203.313L254.68 203.314C254.681 209.388 259.605 214.313 265.68 214.313L265.68 213.313L265.68 212.313C260.71 212.313 256.68 208.284 256.68 203.313L255.68 203.313ZM265.68 213.313V214.313H275.826V213.313V212.313H265.68V213.313ZM275.826 213.313V214.313C281.901 214.313 286.826 209.388 286.826 203.314L285.826 203.313L284.826 203.313C284.826 208.284 280.796 212.313 275.826 212.313V213.313ZM285.826 203.313H286.826V190H285.826H284.826V203.313H285.826ZM285.826 190H286.826C286.826 183.925 281.901 179 275.826 179V180V181C280.796 181 284.826 185.029 284.826 190H285.826ZM275.826 180V179H265.68V180V181H275.826V180ZM325.52 180L325.52 179C319.445 179 314.52 183.925 314.52 190H315.52H316.52C316.52 185.03 320.55 181 325.52 181L325.52 180ZM315.52 190H314.52V203.313H315.52H316.52V190H315.52ZM315.52 203.313L314.52 203.314C314.52 209.388 319.445 214.313 325.52 214.313L325.52 213.313L325.52 212.313C320.55 212.313 316.52 208.284 316.52 203.313L315.52 203.313ZM325.52 213.313V214.313H335.666V213.313V212.313H325.52V213.313ZM335.666 213.313V214.313C341.741 214.313 346.665 209.388 346.666 203.314L345.666 203.313L344.666 203.313C344.665 208.284 340.636 212.313 335.666 212.313V213.313ZM345.666 203.313H346.666V190H345.666H344.666V203.313H345.666ZM345.666 190H346.666C346.666 183.925 341.741 179 335.666 179V180V181C340.636 181 344.666 185.029 344.666 190H345.666ZM335.666 180V179H325.52V180V181H335.666V180ZM385.36 180L385.36 179C379.285 179 374.36 183.925 374.36 190H375.36H376.36C376.36 185.03 380.39 181 385.36 181L385.36 180ZM375.36 190H374.36V203.313H375.36H376.36V190H375.36ZM375.36 203.313L374.36 203.314C374.36 209.388 379.285 214.313 385.36 214.313L385.36 213.313L385.36 212.313C380.39 212.313 376.36 208.284 376.36 203.313L375.36 203.313ZM385.36 213.313V214.313H395.505V213.313V212.313H385.36V213.313ZM395.505 213.313V214.313C401.581 214.313 406.505 209.388 406.505 203.314L405.505 203.313L404.505 203.313C404.505 208.284 400.476 212.313 395.505 212.313V213.313ZM405.505 203.313H406.505V190H405.505H404.505V203.313H405.505ZM405.505 190H406.505C406.505 183.925 401.581 179 395.505 179V180V181C400.476 181 404.505 185.029 404.505 190H405.505ZM395.505 180V179H385.36V180V181H395.505V180ZM445.201 180V179C439.126 179 434.201 183.925 434.201 190H435.201H436.201C436.201 185.029 440.23 181 445.201 181V180ZM435.201 190H434.201V203.313H435.201H436.201V190H435.201ZM435.201 203.313L434.201 203.314C434.201 209.388 439.126 214.313 445.201 214.313V213.313V212.313C440.23 212.313 436.201 208.284 436.201 203.313L435.201 203.313ZM445.201 213.313V214.313H455.345V213.313V212.313H445.201V213.313ZM455.345 213.313V214.313C461.42 214.313 466.345 209.388 466.345 203.314L465.345 203.313L464.345 203.313C464.345 208.284 460.316 212.313 455.345 212.313V213.313ZM465.345 203.313H466.345V190H465.345H464.345V203.313H465.345ZM465.345 190H466.345C466.345 183.925 461.42 179 455.345 179V180V181C460.316 181 464.345 185.029 464.345 190H465.345ZM455.345 180V179H445.201V180V181H455.345V180ZM505.041 180V179C498.966 179 494.041 183.925 494.041 190H495.041H496.041C496.041 185.029 500.07 181 505.041 181V180ZM495.041 190H494.041V203.313H495.041H496.041V190H495.041ZM495.041 203.313L494.041 203.314C494.041 209.388 498.966 214.313 505.041 214.313V213.313V212.313C500.07 212.313 496.041 208.284 496.041 203.313L495.041 203.313ZM505.041 213.313V214.313H515.186V213.313V212.313H505.041V213.313ZM515.186 213.313V214.313C521.261 214.313 526.186 209.388 526.186 203.314L525.186 203.313L524.186 203.313C524.186 208.284 520.156 212.313 515.186 212.313V213.313ZM525.186 203.313H526.186V190H525.186H524.186V203.313H525.186ZM525.186 190H526.186C526.186 183.925 521.261 179 515.186 179V180V181C520.157 181 524.186 185.03 524.186 190H525.186ZM515.186 180V179H505.041V180V181H515.186V180ZM564.88 180V179C558.805 179 553.88 183.925 553.88 190H554.88H555.88C555.88 185.029 559.91 181 564.88 181V180ZM554.88 190H553.88V203.313H554.88H555.88V190H554.88ZM554.88 203.313L553.88 203.314C553.881 209.388 558.806 214.313 564.88 214.313V213.313V212.313C559.91 212.313 555.881 208.284 555.88 203.313L554.88 203.313ZM564.88 213.313V214.313H575.026V213.313V212.313H564.88V213.313ZM575.026 213.313V214.313C581.101 214.313 586.026 209.388 586.026 203.314L585.026 203.313L584.026 203.313C584.026 208.284 579.996 212.313 575.026 212.313V213.313ZM585.026 203.313H586.026V190H585.026H584.026V203.313H585.026ZM585.026 190H586.026C586.026 183.925 581.101 179 575.026 179V180V181C579.997 181 584.026 185.03 584.026 190H585.026ZM575.026 180V179H564.88V180V181H575.026V180ZM624.72 180V179C618.645 179 613.72 183.925 613.72 190H614.72H615.72C615.72 185.03 619.75 181 624.72 181V180ZM614.72 190H613.72V203.313H614.72H615.72V190H614.72ZM614.72 203.313L613.72 203.314C613.721 209.388 618.645 214.313 624.72 214.313V213.313V212.313C619.75 212.313 615.721 208.284 615.72 203.313L614.72 203.313ZM624.72 213.313V214.313H634.866V213.313V212.313H624.72V213.313ZM634.866 213.313V214.313C640.941 214.313 645.866 209.388 645.866 203.314L644.866 203.313L643.866 203.313C643.866 208.284 639.836 212.313 634.866 212.313V213.313ZM644.866 203.313H645.866V190H644.866H643.866V203.313H644.866ZM644.866 190H645.866C645.866 183.925 640.941 179 634.866 179V180V181C639.836 181 643.866 185.029 643.866 190H644.866ZM634.866 180V179H624.72V180V181H634.866V180ZM684.56 180V179C678.485 179 673.56 183.925 673.56 190H674.56H675.56C675.56 185.03 679.59 181 684.56 181V180ZM674.56 190H673.56V203.313H674.56H675.56V190H674.56ZM674.56 203.313L673.56 203.314C673.56 209.388 678.485 214.313 684.56 214.313L684.56 213.313L684.56 212.313C679.59 212.313 675.56 208.284 675.56 203.313L674.56 203.313ZM684.56 213.313V214.313H694.706V213.313V212.313H684.56V213.313ZM694.706 213.313V214.313C700.781 214.313 705.705 209.388 705.706 203.314L704.706 203.313L703.706 203.313C703.706 208.284 699.676 212.313 694.706 212.313V213.313ZM704.706 203.313H705.706V190H704.706H703.706V203.313H704.706ZM704.706 190H705.706C705.706 183.925 700.781 179 694.706 179V180V181C699.676 181 703.706 185.029 703.706 190H704.706ZM694.706 180V179H684.56V180V181H694.706V180ZM921.001 180V179C914.925 179 910.001 183.925 910.001 190H911.001H912.001C912.001 185.029 916.03 181 921.001 181V180ZM911.001 190H910.001V203.313H911.001H912.001V190H911.001ZM911.001 203.313L910.001 203.314C910.001 209.388 914.926 214.313 921.001 214.313V213.313V212.313C916.03 212.313 912.001 208.284 912.001 203.313L911.001 203.313ZM921.001 213.313V214.313H931.146V213.313V212.313H921.001V213.313ZM931.146 213.313V214.313C937.221 214.313 942.146 209.388 942.146 203.314L941.146 203.313L940.146 203.313C940.146 208.284 936.116 212.313 931.146 212.313V213.313ZM941.146 203.313H942.146V190H941.146H940.146V203.313H941.146ZM941.146 190H942.146C942.146 183.925 937.221 179 931.146 179V180V181C936.117 181 940.146 185.03 940.146 190H941.146ZM931.146 180V179H921.001V180V181H931.146V180ZM980.84 180V179C974.765 179 969.84 183.925 969.84 190H970.84H971.84C971.84 185.029 975.87 181 980.84 181V180ZM970.84 190H969.84V203.313H970.84H971.84V190H970.84ZM970.84 203.313L969.84 203.314C969.841 209.388 974.766 214.313 980.84 214.313V213.313V212.313C975.87 212.313 971.841 208.284 971.84 203.313L970.84 203.313ZM980.84 213.313V214.313H990.986V213.313V212.313H980.84V213.313ZM990.986 213.313V214.313C997.061 214.313 1001.99 209.388 1001.99 203.314L1000.99 203.313L999.986 203.313C999.986 208.284 995.956 212.313 990.986 212.313V213.313ZM1000.99 203.313H1001.99V190H1000.99H999.986V203.313H1000.99ZM1000.99 190H1001.99C1001.99 183.925 997.061 179 990.986 179V180V181C995.956 181 999.986 185.03 999.986 190H1000.99ZM990.986 180V179H980.84V180V181H990.986V180ZM1040.68 180V179C1034.61 179 1029.68 183.925 1029.68 190H1030.68H1031.68C1031.68 185.03 1035.71 181 1040.68 181V180ZM1030.68 190H1029.68V203.313H1030.68H1031.68V190H1030.68ZM1030.68 203.313L1029.68 203.314C1029.68 209.388 1034.61 214.313 1040.68 214.313V213.313V212.313C1035.71 212.313 1031.68 208.284 1031.68 203.313L1030.68 203.313ZM1040.68 213.313V214.313H1050.83V213.313V212.313H1040.68V213.313ZM1050.83 213.313V214.313C1056.9 214.313 1061.83 209.388 1061.83 203.314L1060.83 203.313L1059.83 203.313C1059.83 208.284 1055.8 212.313 1050.83 212.313V213.313ZM1060.83 203.313H1061.83V190H1060.83H1059.83V203.313H1060.83ZM1060.83 190H1061.83C1061.83 183.925 1056.9 179 1050.83 179V180V181C1055.8 181 1059.83 185.029 1059.83 190H1060.83ZM1050.83 180V179H1040.68V180V181H1050.83V180ZM1100.52 180V179C1094.45 179 1089.52 183.925 1089.52 190H1090.52H1091.52C1091.52 185.03 1095.55 181 1100.52 181V180ZM1090.52 190H1089.52V203.313H1090.52H1091.52V190H1090.52ZM1090.52 203.313L1089.52 203.314C1089.52 209.388 1094.45 214.313 1100.52 214.313V213.313V212.313C1095.55 212.313 1091.52 208.284 1091.52 203.313L1090.52 203.313ZM1100.52 213.313V214.313H1110.67V213.313V212.313H1100.52V213.313ZM1110.67 213.313V214.313C1116.74 214.313 1121.67 209.388 1121.67 203.314L1120.67 203.313L1119.67 203.313C1119.67 208.284 1115.64 212.313 1110.67 212.313V213.313ZM1120.67 203.313H1121.67V190H1120.67H1119.67V203.313H1120.67ZM1120.67 190H1121.67C1121.67 183.925 1116.74 179 1110.67 179V180V181C1115.64 181 1119.67 185.029 1119.67 190H1120.67ZM1110.67 180V179H1100.52V180V181H1110.67V180ZM1160.36 180V179C1154.29 179 1149.36 183.925 1149.36 190H1150.36H1151.36C1151.36 185.03 1155.39 181 1160.36 181V180ZM1150.36 190H1149.36V203.313H1150.36H1151.36V190H1150.36ZM1150.36 203.313L1149.36 203.314C1149.36 209.388 1154.29 214.313 1160.36 214.313V213.313V212.313C1155.39 212.313 1151.36 208.284 1151.36 203.313L1150.36 203.313ZM1160.36 213.313V214.313H1170.51V213.313V212.313H1160.36V213.313ZM1170.51 213.313V214.313C1176.58 214.313 1181.51 209.388 1181.51 203.314L1180.51 203.313L1179.51 203.313C1179.51 208.284 1175.48 212.313 1170.51 212.313V213.313ZM1180.51 203.313H1181.51V190H1180.51H1179.51V203.313H1180.51ZM1180.51 190H1181.51C1181.51 183.925 1176.58 179 1170.51 179V180V181C1175.48 181 1179.51 185.029 1179.51 190H1180.51ZM1170.51 180V179H1160.36V180V181H1170.51V180ZM1220.2 180V179C1214.13 179 1209.2 183.925 1209.2 190H1210.2H1211.2C1211.2 185.029 1215.23 181 1220.2 181V180ZM1210.2 190H1209.2V203.313H1210.2H1211.2V190H1210.2ZM1210.2 203.313L1209.2 203.314C1209.2 209.388 1214.13 214.313 1220.2 214.313V213.313V212.313C1215.23 212.313 1211.2 208.284 1211.2 203.313L1210.2 203.313ZM1220.2 213.313V214.313H1230.35V213.313V212.313H1220.2V213.313ZM1230.35 213.313V214.313C1236.42 214.313 1241.35 209.388 1241.35 203.314L1240.35 203.313L1239.35 203.313C1239.35 208.284 1235.32 212.313 1230.35 212.313V213.313ZM1240.35 203.313H1241.35V190H1240.35H1239.35V203.313H1240.35ZM1240.35 190H1241.35C1241.35 183.925 1236.42 179 1230.35 179V180V181C1235.32 181 1239.35 185.029 1239.35 190H1240.35ZM1230.35 180V179H1220.2V180V181H1230.35V180ZM1280.04 180V179C1273.97 179 1269.04 183.925 1269.04 190H1270.04H1271.04C1271.04 185.029 1275.07 181 1280.04 181V180ZM1270.04 190H1269.04V203.313H1270.04H1271.04V190H1270.04ZM1270.04 203.313L1269.04 203.314C1269.04 209.388 1273.97 214.313 1280.04 214.313V213.313V212.313C1275.07 212.313 1271.04 208.284 1271.04 203.313L1270.04 203.313ZM1280.04 213.313V214.313H1290.19V213.313V212.313H1280.04V213.313ZM1290.19 213.313V214.313C1296.26 214.313 1301.19 209.388 1301.19 203.314L1300.19 203.313L1299.19 203.313C1299.19 208.284 1295.16 212.313 1290.19 212.313V213.313ZM1300.19 203.313H1301.19V190H1300.19H1299.19V203.313H1300.19ZM1300.19 190H1301.19C1301.19 183.925 1296.26 179 1290.19 179V180V181C1295.16 181 1299.19 185.03 1299.19 190H1300.19ZM1290.19 180V179H1280.04V180V181H1290.19V180ZM1339.88 180V179C1333.81 179 1328.88 183.925 1328.88 190H1329.88H1330.88C1330.88 185.029 1334.91 181 1339.88 181V180ZM1329.88 190H1328.88V203.313H1329.88H1330.88V190H1329.88ZM1329.88 203.313L1328.88 203.314C1328.88 209.388 1333.81 214.313 1339.88 214.313V213.313V212.313C1334.91 212.313 1330.88 208.284 1330.88 203.313L1329.88 203.313ZM1339.88 213.313V214.313H1350.03V213.313V212.313H1339.88V213.313ZM1350.03 213.313V214.313C1356.1 214.313 1361.03 209.388 1361.03 203.314L1360.03 203.313L1359.03 203.313C1359.03 208.284 1355 212.313 1350.03 212.313V213.313ZM1360.03 203.313H1361.03V190H1360.03H1359.03V203.313H1360.03ZM1360.03 190H1361.03C1361.03 183.925 1356.1 179 1350.03 179V180V181C1355 181 1359.03 185.03 1359.03 190H1360.03ZM1350.03 180V179H1339.88V180V181H1350.03V180ZM1399.72 180V179C1393.65 179 1388.72 183.925 1388.72 190H1389.72H1390.72C1390.72 185.03 1394.75 181 1399.72 181V180ZM1389.72 190H1388.72V203.313H1389.72H1390.72V190H1389.72ZM1389.72 203.313L1388.72 203.314C1388.72 209.388 1393.65 214.313 1399.72 214.313V213.313V212.313C1394.75 212.313 1390.72 208.284 1390.72 203.313L1389.72 203.313ZM1399.72 213.313V214.313H1409.87V213.313V212.313H1399.72V213.313ZM1409.87 213.313V214.313C1415.94 214.313 1420.87 209.388 1420.87 203.314L1419.87 203.313L1418.87 203.313C1418.87 208.284 1414.84 212.313 1409.87 212.313V213.313ZM1419.87 203.313H1420.87V190H1419.87H1418.87V203.313H1419.87ZM1419.87 190H1420.87C1420.87 183.925 1415.94 179 1409.87 179V180V181C1414.84 181 1418.87 185.029 1418.87 190H1419.87ZM1409.87 180V179H1399.72V180V181H1409.87V180ZM1459.56 180V179C1453.49 179 1448.56 183.925 1448.56 190H1449.56H1450.56C1450.56 185.03 1454.59 181 1459.56 181V180ZM1449.56 190H1448.56V203.313H1449.56H1450.56V190H1449.56ZM1449.56 203.313L1448.56 203.314C1448.56 209.388 1453.49 214.313 1459.56 214.313V213.313V212.313C1454.59 212.313 1450.56 208.284 1450.56 203.313L1449.56 203.313ZM1459.56 213.313V214.313H1469.71V213.313V212.313H1459.56V213.313ZM1469.71 213.313V214.313C1475.78 214.313 1480.71 209.388 1480.71 203.314L1479.71 203.313L1478.71 203.313C1478.71 208.284 1474.68 212.313 1469.71 212.313V213.313ZM1479.71 203.313H1480.71V190H1479.71H1478.71V203.313H1479.71ZM1479.71 190H1480.71C1480.71 183.925 1475.78 179 1469.71 179V180V181C1474.68 181 1478.71 185.029 1478.71 190H1479.71ZM1469.71 180V179H1459.56V180V181H1469.71V180ZM863.081 14.5869V13.5869C857.006 13.5869 852.081 18.512 852.081 24.5869L853.081 24.5869L854.081 24.587C854.081 19.6165 858.11 15.5869 863.081 15.5869V14.5869ZM853.081 24.5869H852.081V37.9004H853.081H854.081V24.5869H853.081ZM853.081 37.9004H852.081C852.081 43.9755 857.006 48.9004 863.081 48.9004V47.9004V46.9004C858.11 46.9004 854.081 42.8709 854.081 37.9004H853.081ZM863.081 47.9004V48.9004H873.226V47.9004V46.9004H863.081V47.9004ZM873.226 47.9004V48.9004C879.301 48.9002 884.226 43.9755 884.226 37.9004H883.226H882.226C882.226 42.8708 878.197 46.9003 873.226 46.9004V47.9004ZM883.226 37.9004H884.226V24.5869H883.226H882.226V37.9004H883.226ZM883.226 24.5869L884.226 24.5869C884.226 18.5121 879.301 13.5871 873.226 13.5869V14.5869V15.5869C878.196 15.5871 882.226 19.6166 882.226 24.587L883.226 24.5869ZM873.226 14.5869V13.5869H863.081V14.5869V15.5869H873.226V14.5869ZM803.241 14.3896V13.3896C797.166 13.3896 792.241 18.3145 792.241 24.3896H793.241H794.241C794.241 19.4191 798.27 15.3896 803.241 15.3896V14.3896ZM793.241 24.3896H792.241V37.7031H793.241H794.241V24.3896H793.241ZM793.241 37.7031L792.241 37.7032C792.241 43.7781 797.166 48.7031 803.241 48.7031V47.7031V46.7031C798.27 46.7031 794.241 42.6735 794.241 37.7031L793.241 37.7031ZM803.241 47.7031V48.7031H813.386V47.7031V46.7031H803.241V47.7031ZM813.386 47.7031L813.386 48.7031C819.461 48.7029 824.386 43.778 824.386 37.7032L823.386 37.7031L822.386 37.7031C822.386 42.6734 818.357 46.703 813.386 46.7031L813.386 47.7031ZM823.386 37.7031H824.386V24.3896H823.386H822.386V37.7031H823.386ZM823.386 24.3896H824.386C824.386 18.3146 819.461 13.3899 813.386 13.3896L813.386 14.3896L813.386 15.3896C818.357 15.3898 822.386 19.4192 822.386 24.3896H823.386ZM813.386 14.3896V13.3896H803.241V14.3896V15.3896H813.386V14.3896ZM743.401 14.1973V13.1973C737.326 13.1973 732.401 18.1223 732.401 24.1972L733.401 24.1973L734.401 24.1973C734.401 19.2268 738.431 15.1973 743.401 15.1973V14.1973ZM733.401 24.1973H732.401V37.5107H733.401H734.401V24.1973H733.401ZM733.401 37.5107H732.401C732.401 43.5859 737.326 48.5107 743.401 48.5107V47.5107V46.5107C738.43 46.5107 734.401 42.4813 734.401 37.5107H733.401ZM743.401 47.5107V48.5107H753.546V47.5107V46.5107H743.401V47.5107ZM753.546 47.5107V48.5107C759.621 48.5107 764.546 43.5859 764.546 37.5107H763.546H762.546C762.546 42.4813 758.516 46.5107 753.546 46.5107V47.5107ZM763.546 37.5107H764.546V24.1973H763.546H762.546V37.5107H763.546ZM763.546 24.1973L764.546 24.1972C764.545 18.1223 759.621 13.1973 753.546 13.1973V14.1973V15.1973C758.516 15.1973 762.545 19.2269 762.546 24.1973L763.546 24.1973ZM753.546 14.1973V13.1973H743.401V14.1973V15.1973H753.546V14.1973ZM1518.4 14.1973V13.1973C1512.33 13.1973 1507.4 18.1223 1507.4 24.1972L1508.4 24.1973L1509.4 24.1973C1509.4 19.2268 1513.43 15.1973 1518.4 15.1973V14.1973ZM1508.4 24.1973H1507.4V37.5107H1508.4H1509.4V24.1973H1508.4ZM1508.4 37.5107H1507.4C1507.4 43.5859 1512.33 48.5107 1518.4 48.5107V47.5107V46.5107C1513.43 46.5107 1509.4 42.4813 1509.4 37.5107H1508.4ZM1518.4 47.5107V48.5107H1528.55V47.5107V46.5107H1518.4V47.5107ZM1528.55 47.5107V48.5107C1534.62 48.5107 1539.55 43.5859 1539.55 37.5107H1538.55H1537.55C1537.55 42.4813 1533.52 46.5107 1528.55 46.5107V47.5107ZM1538.55 37.5107H1539.55V24.1973H1538.55H1537.55V37.5107H1538.55ZM1538.55 24.1973L1539.55 24.1972C1539.55 18.1223 1534.62 13.1973 1528.55 13.1973V14.1973V15.1973C1533.52 15.1973 1537.55 19.2269 1537.55 24.1973L1538.55 24.1973ZM1528.55 14.1973V13.1973H1518.4V14.1973V15.1973H1528.55V14.1973ZM145.001 14V13C138.925 13 134.001 17.9249 134.001 24H135.001H136.001C136.001 19.0294 140.03 15 145.001 15V14ZM135.001 24H134.001V37.3135H135.001H136.001V24H135.001ZM135.001 37.3135L134.001 37.3135C134.001 43.3884 138.926 48.3135 145.001 48.3135V47.3135V46.3135C140.03 46.3135 136.001 42.2839 136.001 37.3134L135.001 37.3135ZM145.001 47.3135V48.3135H155.146V47.3135V46.3135H145.001V47.3135ZM155.146 47.3135L155.146 48.3135C161.221 48.3133 166.146 43.3883 166.146 37.3135L165.146 37.3135L164.146 37.3134C164.146 42.2838 160.116 46.3133 155.146 46.3135L155.146 47.3135ZM165.146 37.3135H166.146V24H165.146H164.146V37.3135H165.146ZM165.146 24H166.146C166.146 17.9249 161.221 13.0002 155.146 13L155.146 14L155.146 15C160.117 15.0001 164.146 19.0296 164.146 24H165.146ZM155.146 14V13H145.001V14V15H155.146V14ZM204.84 14L204.84 13C198.765 13.0001 193.84 17.9249 193.84 24H194.84H195.84C195.84 19.0295 199.87 15.0001 204.84 15L204.84 14ZM194.84 24H193.84V37.3135H194.84H195.84V24H194.84ZM194.84 37.3135L193.84 37.3135C193.841 43.3884 198.765 48.3134 204.84 48.3135L204.84 47.3135L204.84 46.3135C199.87 46.3134 195.841 42.2838 195.84 37.3134L194.84 37.3135ZM204.84 47.3135V48.3135H214.986V47.3135V46.3135H204.84V47.3135ZM214.986 47.3135L214.986 48.3135C221.061 48.3134 225.986 43.3884 225.986 37.3135L224.986 37.3135L223.986 37.3134C223.986 42.2838 219.956 46.3134 214.986 46.3135L214.986 47.3135ZM224.986 37.3135H225.986V24H224.986H223.986V37.3135H224.986ZM224.986 24H225.986C225.986 17.9249 221.061 13.0001 214.986 13L214.986 14L214.986 15C219.956 15.0001 223.986 19.0295 223.986 24H224.986ZM214.986 14V13H204.84V14V15H214.986V14ZM264.68 14L264.68 13C258.605 13.0001 253.68 17.9249 253.68 24H254.68H255.68C255.68 19.0295 259.71 15.0001 264.68 15L264.68 14ZM254.68 24H253.68V37.3135H254.68H255.68V24H254.68ZM254.68 37.3135L253.68 37.3135C253.681 43.3884 258.605 48.3133 264.68 48.3135L264.68 47.3135L264.68 46.3135C259.71 46.3134 255.68 42.2838 255.68 37.3134L254.68 37.3135ZM264.68 47.3135V48.3135H274.826V47.3135V46.3135H264.68V47.3135ZM274.826 47.3135V48.3135C280.901 48.3134 285.826 43.3884 285.826 37.3135L284.826 37.3135L283.826 37.3134C283.826 42.2839 279.796 46.3134 274.826 46.3135V47.3135ZM284.826 37.3135H285.826V24H284.826H283.826V37.3135H284.826ZM284.826 24H285.826C285.826 17.9249 280.901 13 274.826 13V14V15C279.796 15 283.826 19.0295 283.826 24H284.826ZM274.826 14V13H264.68V14V15H274.826V14ZM324.52 14L324.52 13C318.445 13.0002 313.52 17.9249 313.52 24H314.52H315.52C315.52 19.0296 319.55 15.0002 324.52 15L324.52 14ZM314.52 24H313.52V37.3135H314.52H315.52V24H314.52ZM314.52 37.3135L313.52 37.3135C313.52 43.3883 318.445 48.3133 324.52 48.3135L324.52 47.3135L324.52 46.3135C319.55 46.3133 315.52 42.2837 315.52 37.3134L314.52 37.3135ZM324.52 47.3135V48.3135H334.666V47.3135V46.3135H324.52V47.3135ZM334.666 47.3135V48.3135C340.741 48.3135 345.665 43.3884 345.666 37.3135L344.666 37.3135L343.666 37.3134C343.665 42.2839 339.636 46.3135 334.666 46.3135V47.3135ZM344.666 37.3135H345.666V24H344.666H343.666V37.3135H344.666ZM344.666 24H345.666C345.666 17.9249 340.741 13 334.666 13V14V15C339.636 15 343.666 19.0294 343.666 24H344.666ZM334.666 14V13H324.52V14V15H334.666V14ZM384.36 14L384.36 13C378.285 13.0003 373.36 17.925 373.36 24H374.36H375.36C375.36 19.0296 379.39 15.0002 384.36 15L384.36 14ZM374.36 24H373.36V37.3135H374.36H375.36V24H374.36ZM374.36 37.3135L373.36 37.3135C373.36 43.3883 378.285 48.3132 384.36 48.3135L384.36 47.3135L384.36 46.3135C379.39 46.3133 375.36 42.2837 375.36 37.3134L374.36 37.3135ZM384.36 47.3135V48.3135H394.505V47.3135V46.3135H384.36V47.3135ZM394.505 47.3135V48.3135C400.581 48.3135 405.505 43.3884 405.505 37.3135L404.505 37.3135L403.505 37.3134C403.505 42.2839 399.476 46.3135 394.505 46.3135V47.3135ZM404.505 37.3135H405.505V24H404.505H403.505V37.3135H404.505ZM404.505 24H405.505C405.505 17.9249 400.581 13 394.505 13V14V15C399.476 15 403.505 19.0294 403.505 24H404.505ZM394.505 14V13H384.36V14V15H394.505V14ZM444.201 14V13C438.126 13 433.201 17.9249 433.201 24H434.201H435.201C435.201 19.0294 439.23 15 444.201 15V14ZM434.201 24H433.201V37.3135H434.201H435.201V24H434.201ZM434.201 37.3135L433.201 37.3135C433.201 43.3884 438.126 48.3135 444.201 48.3135V47.3135V46.3135C439.23 46.3135 435.201 42.2839 435.201 37.3134L434.201 37.3135ZM444.201 47.3135V48.3135H454.345V47.3135V46.3135H444.201V47.3135ZM454.345 47.3135V48.3135C460.42 48.3135 465.345 43.3884 465.345 37.3135L464.345 37.3135L463.345 37.3134C463.345 42.2839 459.316 46.3135 454.345 46.3135V47.3135ZM464.345 37.3135H465.345V24H464.345H463.345V37.3135H464.345ZM464.345 24H465.345C465.345 17.9249 460.42 13 454.345 13V14V15C459.316 15 463.345 19.0294 463.345 24H464.345ZM454.345 14V13H444.201V14V15H454.345V14ZM504.041 14V13C497.966 13 493.041 17.9249 493.041 24H494.041H495.041C495.041 19.0294 499.07 15 504.041 15V14ZM494.041 24H493.041V37.3135H494.041H495.041V24H494.041ZM494.041 37.3135L493.041 37.3135C493.041 43.3884 497.966 48.3135 504.041 48.3135V47.3135V46.3135C499.07 46.3135 495.041 42.2839 495.041 37.3134L494.041 37.3135ZM504.041 47.3135V48.3135H514.186V47.3135V46.3135H504.041V47.3135ZM514.186 47.3135V48.3135C520.261 48.3133 525.186 43.3883 525.186 37.3135L524.186 37.3135L523.186 37.3134C523.186 42.2838 519.156 46.3133 514.186 46.3135V47.3135ZM524.186 37.3135H525.186V24H524.186H523.186V37.3135H524.186ZM524.186 24H525.186C525.186 17.9249 520.261 13.0002 514.186 13V14V15C519.157 15.0001 523.186 19.0296 523.186 24H524.186ZM514.186 14V13H504.041V14V15H514.186V14ZM563.88 14V13C557.805 13.0001 552.88 17.9249 552.88 24H553.88H554.88C554.88 19.0295 558.91 15.0001 563.88 15V14ZM553.88 24H552.88V37.3135H553.88H554.88V24H553.88ZM553.88 37.3135L552.88 37.3135C552.881 43.3884 557.806 48.3134 563.88 48.3135V47.3135V46.3135C558.91 46.3134 554.881 42.2838 554.88 37.3134L553.88 37.3135ZM563.88 47.3135V48.3135H574.026V47.3135V46.3135H563.88V47.3135ZM574.026 47.3135V48.3135C580.101 48.3134 585.026 43.3884 585.026 37.3135L584.026 37.3135L583.026 37.3134C583.026 42.2838 578.996 46.3134 574.026 46.3135V47.3135ZM584.026 37.3135H585.026V24H584.026H583.026V37.3135H584.026ZM584.026 24H585.026C585.026 17.9249 580.101 13.0001 574.026 13V14V15C578.997 15.0001 583.026 19.0295 583.026 24H584.026ZM574.026 14V13H563.88V14V15H574.026V14ZM623.72 14V13C617.645 13.0001 612.72 17.9249 612.72 24H613.72H614.72C614.72 19.0295 618.75 15.0001 623.72 15V14ZM613.72 24H612.72V37.3135H613.72H614.72V24H613.72ZM613.72 37.3135L612.72 37.3135C612.721 43.3884 617.645 48.3133 623.72 48.3135V47.3135V46.3135C618.75 46.3134 614.721 42.2838 614.72 37.3134L613.72 37.3135ZM623.72 47.3135V48.3135H633.866V47.3135V46.3135H623.72V47.3135ZM633.866 47.3135V48.3135C639.941 48.3134 644.866 43.3884 644.866 37.3135L643.866 37.3135L642.866 37.3134C642.866 42.2839 638.836 46.3134 633.866 46.3135V47.3135ZM643.866 37.3135H644.866V24H643.866H642.866V37.3135H643.866ZM643.866 24H644.866C644.866 17.9249 639.941 13 633.866 13V14V15C638.836 15 642.866 19.0295 642.866 24H643.866ZM633.866 14V13H623.72V14V15H633.866V14ZM683.56 14V13C677.485 13.0002 672.56 17.9249 672.56 24H673.56H674.56C674.56 19.0296 678.59 15.0001 683.56 15V14ZM673.56 24H672.56V37.3135H673.56H674.56V24H673.56ZM673.56 37.3135L672.56 37.3135C672.56 43.3883 677.485 48.3133 683.56 48.3135L683.56 47.3135L683.56 46.3135C678.59 46.3133 674.56 42.2838 674.56 37.3134L673.56 37.3135ZM683.56 47.3135V48.3135H693.706V47.3135V46.3135H683.56V47.3135ZM693.706 47.3135V48.3135C699.781 48.3135 704.705 43.3884 704.706 37.3135L703.706 37.3135L702.706 37.3134C702.706 42.2839 698.676 46.3135 693.706 46.3135V47.3135ZM703.706 37.3135H704.706V24H703.706H702.706V37.3135H703.706ZM703.706 24H704.706C704.706 17.9249 699.781 13 693.706 13V14V15C698.676 15 702.706 19.0294 702.706 24H703.706ZM693.706 14V13H683.56V14V15H693.706V14ZM920.001 14V13C913.925 13 909.001 17.9249 909.001 24H910.001H911.001C911.001 19.0294 915.03 15 920.001 15V14ZM910.001 24H909.001V37.3135H910.001H911.001V24H910.001ZM910.001 37.3135L909.001 37.3135C909.001 43.3884 913.926 48.3135 920.001 48.3135V47.3135V46.3135C915.03 46.3135 911.001 42.2839 911.001 37.3134L910.001 37.3135ZM920.001 47.3135V48.3135H930.146V47.3135V46.3135H920.001V47.3135ZM930.146 47.3135V48.3135C936.221 48.3133 941.146 43.3883 941.146 37.3135L940.146 37.3135L939.146 37.3134C939.146 42.2838 935.116 46.3133 930.146 46.3135V47.3135ZM940.146 37.3135H941.146V24H940.146H939.146V37.3135H940.146ZM940.146 24H941.146C941.146 17.9249 936.221 13.0002 930.146 13V14V15C935.117 15.0001 939.146 19.0296 939.146 24H940.146ZM930.146 14V13H920.001V14V15H930.146V14ZM979.84 14V13C973.765 13.0001 968.84 17.9249 968.84 24H969.84H970.84C970.84 19.0295 974.87 15.0001 979.84 15V14ZM969.84 24H968.84V37.3135H969.84H970.84V24H969.84ZM969.84 37.3135L968.84 37.3135C968.841 43.3884 973.766 48.3134 979.84 48.3135V47.3135V46.3135C974.87 46.3134 970.841 42.2838 970.84 37.3134L969.84 37.3135ZM979.84 47.3135V48.3135H989.986V47.3135V46.3135H979.84V47.3135ZM989.986 47.3135V48.3135C996.061 48.3134 1000.99 43.3884 1000.99 37.3135L999.986 37.3135L998.986 37.3134C998.986 42.2838 994.956 46.3134 989.986 46.3135V47.3135ZM999.986 37.3135H1000.99V24H999.986H998.986V37.3135H999.986ZM999.986 24H1000.99C1000.99 17.9249 996.061 13.0001 989.986 13V14V15C994.956 15.0001 998.986 19.0295 998.986 24H999.986ZM989.986 14V13H979.84V14V15H989.986V14ZM1039.68 14V13C1033.61 13.0001 1028.68 17.9249 1028.68 24H1029.68H1030.68C1030.68 19.0295 1034.71 15.0001 1039.68 15V14ZM1029.68 24H1028.68V37.3135H1029.68H1030.68V24H1029.68ZM1029.68 37.3135L1028.68 37.3135C1028.68 43.3884 1033.61 48.3133 1039.68 48.3135V47.3135V46.3135C1034.71 46.3134 1030.68 42.2838 1030.68 37.3134L1029.68 37.3135ZM1039.68 47.3135V48.3135H1049.83V47.3135V46.3135H1039.68V47.3135ZM1049.83 47.3135V48.3135C1055.9 48.3134 1060.83 43.3884 1060.83 37.3135L1059.83 37.3135L1058.83 37.3134C1058.83 42.2839 1054.8 46.3134 1049.83 46.3135V47.3135ZM1059.83 37.3135H1060.83V24H1059.83H1058.83V37.3135H1059.83ZM1059.83 24H1060.83C1060.83 17.9249 1055.9 13 1049.83 13V14V15C1054.8 15 1058.83 19.0295 1058.83 24H1059.83ZM1049.83 14V13H1039.68V14V15H1049.83V14ZM1099.52 14V13C1093.45 13.0002 1088.52 17.9249 1088.52 24H1089.52H1090.52C1090.52 19.0296 1094.55 15.0002 1099.52 15V14ZM1089.52 24H1088.52V37.3135H1089.52H1090.52V24H1089.52ZM1089.52 37.3135L1088.52 37.3135C1088.52 43.3883 1093.45 48.3133 1099.52 48.3135V47.3135V46.3135C1094.55 46.3133 1090.52 42.2837 1090.52 37.3134L1089.52 37.3135ZM1099.52 47.3135V48.3135H1109.67V47.3135V46.3135H1099.52V47.3135ZM1109.67 47.3135V48.3135C1115.74 48.3135 1120.67 43.3884 1120.67 37.3135L1119.67 37.3135L1118.67 37.3134C1118.67 42.2839 1114.64 46.3135 1109.67 46.3135V47.3135ZM1119.67 37.3135H1120.67V24H1119.67H1118.67V37.3135H1119.67ZM1119.67 24H1120.67C1120.67 17.9249 1115.74 13 1109.67 13V14V15C1114.64 15 1118.67 19.0294 1118.67 24H1119.67ZM1109.67 14V13H1099.52V14V15H1109.67V14ZM1159.36 14V13C1153.29 13.0003 1148.36 17.925 1148.36 24H1149.36H1150.36C1150.36 19.0296 1154.39 15.0002 1159.36 15V14ZM1149.36 24H1148.36V37.3135H1149.36H1150.36V24H1149.36ZM1149.36 37.3135L1148.36 37.3135C1148.36 43.3883 1153.29 48.3132 1159.36 48.3135V47.3135V46.3135C1154.39 46.3133 1150.36 42.2837 1150.36 37.3134L1149.36 37.3135ZM1159.36 47.3135V48.3135H1169.51V47.3135V46.3135H1159.36V47.3135ZM1169.51 47.3135V48.3135C1175.58 48.3135 1180.51 43.3884 1180.51 37.3135L1179.51 37.3135L1178.51 37.3134C1178.51 42.2839 1174.48 46.3135 1169.51 46.3135V47.3135ZM1179.51 37.3135H1180.51V24H1179.51H1178.51V37.3135H1179.51ZM1179.51 24H1180.51C1180.51 17.9249 1175.58 13 1169.51 13V14V15C1174.48 15 1178.51 19.0294 1178.51 24H1179.51ZM1169.51 14V13H1159.36V14V15H1169.51V14ZM1219.2 14V13C1213.13 13 1208.2 17.9249 1208.2 24H1209.2H1210.2C1210.2 19.0294 1214.23 15 1219.2 15V14ZM1209.2 24H1208.2V37.3135H1209.2H1210.2V24H1209.2ZM1209.2 37.3135L1208.2 37.3135C1208.2 43.3884 1213.13 48.3135 1219.2 48.3135V47.3135V46.3135C1214.23 46.3135 1210.2 42.2839 1210.2 37.3134L1209.2 37.3135ZM1219.2 47.3135V48.3135H1229.35V47.3135V46.3135H1219.2V47.3135ZM1229.35 47.3135V48.3135C1235.42 48.3135 1240.35 43.3884 1240.35 37.3135L1239.35 37.3135L1238.35 37.3134C1238.35 42.2839 1234.32 46.3135 1229.35 46.3135V47.3135ZM1239.35 37.3135H1240.35V24H1239.35H1238.35V37.3135H1239.35ZM1239.35 24H1240.35C1240.35 17.9249 1235.42 13 1229.35 13V14V15C1234.32 15 1238.35 19.0294 1238.35 24H1239.35ZM1229.35 14V13H1219.2V14V15H1229.35V14ZM1279.04 14V13C1272.97 13 1268.04 17.9249 1268.04 24H1269.04H1270.04C1270.04 19.0294 1274.07 15 1279.04 15V14ZM1269.04 24H1268.04V37.3135H1269.04H1270.04V24H1269.04ZM1269.04 37.3135L1268.04 37.3135C1268.04 43.3884 1272.97 48.3135 1279.04 48.3135V47.3135V46.3135C1274.07 46.3135 1270.04 42.2839 1270.04 37.3134L1269.04 37.3135ZM1279.04 47.3135V48.3135H1289.19V47.3135V46.3135H1279.04V47.3135ZM1289.19 47.3135V48.3135C1295.26 48.3133 1300.19 43.3883 1300.19 37.3135L1299.19 37.3135L1298.19 37.3134C1298.19 42.2838 1294.16 46.3133 1289.19 46.3135V47.3135ZM1299.19 37.3135H1300.19V24H1299.19H1298.19V37.3135H1299.19ZM1299.19 24H1300.19C1300.19 17.9249 1295.26 13.0002 1289.19 13V14V15C1294.16 15.0001 1298.19 19.0296 1298.19 24H1299.19ZM1289.19 14V13H1279.04V14V15H1289.19V14ZM1338.88 14V13C1332.81 13.0001 1327.88 17.9249 1327.88 24H1328.88H1329.88C1329.88 19.0295 1333.91 15.0001 1338.88 15V14ZM1328.88 24H1327.88V37.3135H1328.88H1329.88V24H1328.88ZM1328.88 37.3135L1327.88 37.3135C1327.88 43.3884 1332.81 48.3134 1338.88 48.3135V47.3135V46.3135C1333.91 46.3134 1329.88 42.2838 1329.88 37.3134L1328.88 37.3135ZM1338.88 47.3135V48.3135H1349.03V47.3135V46.3135H1338.88V47.3135ZM1349.03 47.3135V48.3135C1355.1 48.3134 1360.03 43.3884 1360.03 37.3135L1359.03 37.3135L1358.03 37.3134C1358.03 42.2838 1354 46.3134 1349.03 46.3135V47.3135ZM1359.03 37.3135H1360.03V24H1359.03H1358.03V37.3135H1359.03ZM1359.03 24H1360.03C1360.03 17.9249 1355.1 13.0001 1349.03 13V14V15C1354 15.0001 1358.03 19.0295 1358.03 24H1359.03ZM1349.03 14V13H1338.88V14V15H1349.03V14ZM1398.72 14V13C1392.65 13.0001 1387.72 17.9249 1387.72 24H1388.72H1389.72C1389.72 19.0295 1393.75 15.0001 1398.72 15V14ZM1388.72 24H1387.72V37.3135H1388.72H1389.72V24H1388.72ZM1388.72 37.3135L1387.72 37.3135C1387.72 43.3884 1392.65 48.3133 1398.72 48.3135V47.3135V46.3135C1393.75 46.3134 1389.72 42.2838 1389.72 37.3134L1388.72 37.3135ZM1398.72 47.3135V48.3135H1408.87V47.3135V46.3135H1398.72V47.3135ZM1408.87 47.3135V48.3135C1414.94 48.3134 1419.87 43.3884 1419.87 37.3135L1418.87 37.3135L1417.87 37.3134C1417.87 42.2839 1413.84 46.3134 1408.87 46.3135V47.3135ZM1418.87 37.3135H1419.87V24H1418.87H1417.87V37.3135H1418.87ZM1418.87 24H1419.87C1419.87 17.9249 1414.94 13 1408.87 13V14V15C1413.84 15 1417.87 19.0295 1417.87 24H1418.87ZM1408.87 14V13H1398.72V14V15H1408.87V14ZM1458.56 14V13C1452.49 13.0002 1447.56 17.9249 1447.56 24H1448.56H1449.56C1449.56 19.0296 1453.59 15.0001 1458.56 15V14ZM1448.56 24H1447.56V37.3135H1448.56H1449.56V24H1448.56ZM1448.56 37.3135L1447.56 37.3135C1447.56 43.3883 1452.49 48.3133 1458.56 48.3135V47.3135V46.3135C1453.59 46.3133 1449.56 42.2838 1449.56 37.3134L1448.56 37.3135ZM1458.56 47.3135V48.3135H1468.71V47.3135V46.3135H1458.56V47.3135ZM1468.71 47.3135V48.3135C1474.78 48.3135 1479.71 43.3884 1479.71 37.3135L1478.71 37.3135L1477.71 37.3134C1477.71 42.2839 1473.68 46.3135 1468.71 46.3135V47.3135ZM1478.71 37.3135H1479.71V24H1478.71H1477.71V37.3135H1478.71ZM1478.71 24H1479.71C1479.71 17.9249 1474.78 13 1468.71 13V14V15C1473.68 15 1477.71 19.0294 1477.71 24H1478.71ZM1468.71 14V13H1458.56V14V15H1468.71V14Z" fill="white" mask="url(#path-1-inside-1_1144_980)"/>
</svg>
