<svg width="473" height="622" viewBox="0 0 473 622" fill="none" xmlns="http://www.w3.org/2000/svg">
<circle cx="311.723" cy="341.325" r="169.164" fill="#FFEBD1" stroke="white" stroke-width="3"/>
<mask id="path-2-inside-1_1144_1065" fill="white">
<path d="M310.854 0C482.533 0.000263895 621.706 139.174 621.706 310.854C621.706 482.533 482.533 621.706 310.854 621.706C139.174 621.706 0.000264033 482.533 0 310.854C0 139.174 139.174 0 310.854 0ZM310.852 348.939C250.458 348.939 201.5 397.898 201.5 458.291C201.5 518.684 250.458 567.643 310.852 567.643C371.245 567.642 420.203 518.684 420.203 458.291C420.203 397.898 371.245 348.94 310.852 348.939ZM165.868 137.607C105.475 137.607 56.5167 186.566 56.5166 246.959C56.5166 307.352 105.475 356.31 165.868 356.311C226.261 356.311 275.22 307.352 275.22 246.959C275.22 186.566 226.261 137.607 165.868 137.607ZM442.32 137.607C381.927 137.607 332.969 186.566 332.969 246.959C332.969 307.352 381.927 356.311 442.32 356.311C502.713 356.31 551.672 307.352 551.672 246.959C551.672 186.566 502.713 137.608 442.32 137.607Z"/>
</mask>
<path d="M310.854 0C482.533 0.000263895 621.706 139.174 621.706 310.854C621.706 482.533 482.533 621.706 310.854 621.706C139.174 621.706 0.000264033 482.533 0 310.854C0 139.174 139.174 0 310.854 0ZM310.852 348.939C250.458 348.939 201.5 397.898 201.5 458.291C201.5 518.684 250.458 567.643 310.852 567.643C371.245 567.642 420.203 518.684 420.203 458.291C420.203 397.898 371.245 348.94 310.852 348.939ZM165.868 137.607C105.475 137.607 56.5167 186.566 56.5166 246.959C56.5166 307.352 105.475 356.31 165.868 356.311C226.261 356.311 275.22 307.352 275.22 246.959C275.22 186.566 226.261 137.607 165.868 137.607ZM442.32 137.607C381.927 137.607 332.969 186.566 332.969 246.959C332.969 307.352 381.927 356.311 442.32 356.311C502.713 356.31 551.672 307.352 551.672 246.959C551.672 186.566 502.713 137.608 442.32 137.607Z" fill="black"/>
<path d="M310.854 0V-3V0ZM621.706 310.854H624.706H621.706ZM310.854 621.706V624.706V621.706ZM0 310.854H-3H0ZM310.852 348.939V345.939V348.939ZM201.5 458.291H198.5H201.5ZM310.852 567.643V570.643V567.643ZM420.203 458.291H423.203H420.203ZM165.868 137.607V134.607V137.607ZM56.5166 246.959H53.5166H56.5166ZM165.868 356.311V359.311V356.311ZM275.22 246.959H278.22H275.22ZM442.32 137.607V134.607V137.607ZM332.969 246.959H329.969H332.969ZM442.32 356.311V359.311V356.311ZM551.672 246.959H554.672H551.672ZM310.854 0V3C480.876 3.00026 618.706 140.831 618.706 310.854H621.706H624.706C624.706 137.517 484.19 -2.99973 310.854 -3V0ZM621.706 310.854H618.706C618.706 480.876 480.876 618.706 310.854 618.706V621.706V624.706C484.189 624.706 624.706 484.189 624.706 310.854H621.706ZM310.854 621.706V618.706C140.831 618.706 3.00026 480.876 3 310.854H0H-3C-2.99973 484.19 137.517 624.706 310.854 624.706V621.706ZM0 310.854H3C3 140.831 140.831 3 310.854 3V0V-3C137.517 -3 -3 137.517 -3 310.854H0ZM310.852 348.939V345.939C248.802 345.939 198.5 396.241 198.5 458.291H201.5H204.5C204.5 399.555 252.115 351.939 310.852 351.939V348.939ZM201.5 458.291H198.5C198.5 520.341 248.802 570.643 310.852 570.643V567.643V564.643C252.115 564.643 204.5 517.027 204.5 458.291H201.5ZM310.852 567.643V570.643C372.901 570.642 423.203 520.341 423.203 458.291H420.203H417.203C417.203 517.027 369.588 564.642 310.852 564.643V567.643ZM420.203 458.291H423.203C423.203 396.241 372.901 345.94 310.852 345.939V348.939V351.939C369.588 351.94 417.203 399.555 417.203 458.291H420.203ZM165.868 137.607V134.607C103.818 134.607 53.5167 184.909 53.5166 246.959H56.5166H59.5166C59.5167 188.223 107.132 140.607 165.868 140.607V137.607ZM56.5166 246.959H53.5166C53.5166 309.009 103.818 359.31 165.868 359.311V356.311V353.311C107.132 353.31 59.5166 305.695 59.5166 246.959H56.5166ZM165.868 356.311V359.311C227.918 359.311 278.22 309.009 278.22 246.959H275.22H272.22C272.22 305.695 224.604 353.311 165.868 353.311V356.311ZM275.22 246.959H278.22C278.22 184.909 227.918 134.607 165.868 134.607V137.607V140.607C224.604 140.607 272.22 188.223 272.22 246.959H275.22ZM442.32 137.607V134.607C380.27 134.607 329.969 184.909 329.969 246.959H332.969H335.969C335.969 188.223 383.584 140.607 442.32 140.607V137.607ZM332.969 246.959H329.969C329.969 309.009 380.27 359.311 442.32 359.311V356.311V353.311C383.584 353.311 335.969 305.695 335.969 246.959H332.969ZM442.32 356.311V359.311C504.37 359.31 554.672 309.009 554.672 246.959H551.672H548.672C548.672 305.695 501.057 353.31 442.32 353.311V356.311ZM551.672 246.959H554.672C554.672 184.909 504.37 134.608 442.32 134.607V137.607V140.607C501.056 140.608 548.672 188.223 548.672 246.959H551.672Z" fill="white" mask="url(#path-2-inside-1_1144_1065)"/>
</svg>
