<svg width="1256" height="337" viewBox="0 0 1256 337" fill="none" xmlns="http://www.w3.org/2000/svg">
<g filter="url(#filter0_d_1330_13)">
<mask id="path-1-inside-1_1330_13" fill="white">
<path d="M968 21C968 27.0751 972.925 32 979 32C985.075 32 990 27.0751 990 21H1251.99V43.0059C1251.83 43.0022 1251.66 43 1251.5 43C1239.63 43 1230 52.6259 1230 64.5C1230 76.3741 1239.63 86 1251.5 86C1251.66 86 1251.83 85.9968 1251.99 85.9932V123.003C1251.83 123.002 1251.66 123 1251.5 123C1216.98 123 1189 150.982 1189 185.5C1189 220.018 1216.98 248 1251.5 248C1251.66 248 1251.83 247.997 1251.99 247.996V261.006C1251.83 261.002 1251.66 261 1251.5 261C1239.63 261 1230 270.626 1230 282.5C1230 294.374 1239.63 304 1251.5 304C1251.66 304 1251.83 303.997 1251.99 303.993V323H989C989 316.925 984.075 312 978 312C971.925 312 967 316.925 967 323H4V233.996C38.2876 233.727 66 205.851 66 171.5C66 137.149 38.2876 109.272 4 109.003V21H968ZM978 93C973.582 93 970 96.5817 970 101V242C970 246.418 973.582 250 978 250C982.418 250 986 246.418 986 242V101C986 96.5817 982.418 93 978 93Z"/>
</mask>
<path d="M968 21C968 27.0751 972.925 32 979 32C985.075 32 990 27.0751 990 21H1251.99V43.0059C1251.83 43.0022 1251.66 43 1251.5 43C1239.63 43 1230 52.6259 1230 64.5C1230 76.3741 1239.63 86 1251.5 86C1251.66 86 1251.83 85.9968 1251.99 85.9932V123.003C1251.83 123.002 1251.66 123 1251.5 123C1216.98 123 1189 150.982 1189 185.5C1189 220.018 1216.98 248 1251.5 248C1251.66 248 1251.83 247.997 1251.99 247.996V261.006C1251.83 261.002 1251.66 261 1251.5 261C1239.63 261 1230 270.626 1230 282.5C1230 294.374 1239.63 304 1251.5 304C1251.66 304 1251.83 303.997 1251.99 303.993V323H989C989 316.925 984.075 312 978 312C971.925 312 967 316.925 967 323H4V233.996C38.2876 233.727 66 205.851 66 171.5C66 137.149 38.2876 109.272 4 109.003V21H968ZM978 93C973.582 93 970 96.5817 970 101V242C970 246.418 973.582 250 978 250C982.418 250 986 246.418 986 242V101C986 96.5817 982.418 93 978 93Z" fill="#FFF0D2"/>
<path d="M968 21H971V18H968V21ZM990 21V18H987V21H990ZM1251.99 21H1254.99V18H1251.99V21ZM1251.99 43.0059L1251.92 46.0051L1254.99 46.0739V43.0059H1251.99ZM1251.99 85.9932H1254.99V82.9252L1251.92 82.9939L1251.99 85.9932ZM1251.99 123.003L1251.97 126.003L1254.99 126.026V123.003H1251.99ZM1251.99 247.996H1254.99V244.973L1251.97 244.996L1251.99 247.996ZM1251.99 261.006L1251.92 264.005L1254.99 264.074V261.006H1251.99ZM1251.99 303.993H1254.99V300.925L1251.92 300.994L1251.99 303.993ZM1251.99 323V326H1254.99V323H1251.99ZM989 323H986V326H989V323ZM967 323V326H970V323H967ZM4 323H1V326H4V323ZM4 233.996L3.97649 230.996L1 231.02V233.996H4ZM4 109.003H1V111.98L3.97649 112.003L4 109.003ZM4 21V18H1V21H4ZM970 101H967H970ZM970 242H967H970ZM986 242H989H986ZM986 101H989H986ZM968 21H965C965 28.732 971.268 35 979 35V32V29C974.582 29 971 25.4183 971 21H968ZM979 32V35C986.732 35 993 28.732 993 21H990H987C987 25.4183 983.418 29 979 29V32ZM990 21V24H1251.99V21V18H990V21ZM1251.99 21H1248.99V43.0059H1251.99H1254.99V21H1251.99ZM1251.99 43.0059L1252.06 40.0066C1251.88 40.0026 1251.69 40 1251.5 40V43V46C1251.64 46 1251.78 46.0018 1251.92 46.0051L1251.99 43.0059ZM1251.5 43V40C1237.97 40 1227 50.969 1227 64.5H1230H1233C1233 54.2827 1241.28 46 1251.5 46V43ZM1230 64.5H1227C1227 78.031 1237.97 89 1251.5 89V86V83C1241.28 83 1233 74.7173 1233 64.5H1230ZM1251.5 86V89C1251.7 89 1251.89 88.9961 1252.06 88.9924L1251.99 85.9932L1251.92 82.9939C1251.76 82.9975 1251.63 83 1251.5 83V86ZM1251.99 85.9932H1248.99V123.003H1251.99H1254.99V85.9932H1251.99ZM1251.99 123.003L1252.01 120.003C1251.86 120.002 1251.68 120 1251.5 120V123V126C1251.65 126 1251.79 126.002 1251.97 126.003L1251.99 123.003ZM1251.5 123V120C1215.33 120 1186 149.325 1186 185.5H1189H1192C1192 152.639 1218.64 126 1251.5 126V123ZM1189 185.5H1186C1186 221.675 1215.33 251 1251.5 251V248V245C1218.64 245 1192 218.361 1192 185.5H1189ZM1251.5 248V251C1251.68 251 1251.89 250.997 1252.01 250.996L1251.99 247.996L1251.97 244.996C1251.77 244.998 1251.65 245 1251.5 245V248ZM1251.99 247.996H1248.99V261.006H1251.99H1254.99V247.996H1251.99ZM1251.99 261.006L1252.06 258.007C1251.88 258.003 1251.69 258 1251.5 258V261V264C1251.64 264 1251.78 264.002 1251.92 264.005L1251.99 261.006ZM1251.5 261V258C1237.97 258 1227 268.969 1227 282.5H1230H1233C1233 272.283 1241.28 264 1251.5 264V261ZM1230 282.5H1227C1227 296.031 1237.97 307 1251.5 307V304V301C1241.28 301 1233 292.717 1233 282.5H1230ZM1251.5 304V307C1251.7 307 1251.89 306.996 1252.06 306.992L1251.99 303.993L1251.92 300.994C1251.76 300.997 1251.63 301 1251.5 301V304ZM1251.99 303.993H1248.99V323H1251.99H1254.99V303.993H1251.99ZM1251.99 323V320H989V323V326H1251.99V323ZM989 323H992C992 315.268 985.732 309 978 309V312V315C982.418 315 986 318.582 986 323H989ZM978 312V309C970.268 309 964 315.268 964 323H967H970C970 318.582 973.582 315 978 315V312ZM967 323V320H4V323V326H967V323ZM4 323H7V233.996H4H1V323H4ZM4 233.996L4.02351 236.996C39.9573 236.714 69 207.5 69 171.5H66H63C63 204.202 36.6179 230.74 3.97649 230.996L4 233.996ZM66 171.5H69C69 135.5 39.9574 106.285 4.02351 106.003L4 109.003L3.97649 112.003C36.6178 112.259 63 138.798 63 171.5H66ZM4 109.003H7V21H4H1V109.003H4ZM4 21V24H968V21V18H4V21ZM978 93V90C971.925 90 967 94.9249 967 101H970H973C973 98.2386 975.239 96 978 96V93ZM970 101H967V242H970H973V101H970ZM970 242H967C967 248.075 971.925 253 978 253V250V247C975.239 247 973 244.761 973 242H970ZM978 250V253C984.075 253 989 248.075 989 242H986H983C983 244.761 980.761 247 978 247V250ZM986 242H989V101H986H983V242H986ZM986 101H989C989 94.9249 984.075 90 978 90V93V96C980.761 96 983 98.2386 983 101H986Z" fill="#B90E29" mask="url(#path-1-inside-1_1330_13)"/>
</g>
<mask id="path-3-outside-2_1330_13" maskUnits="userSpaceOnUse" x="1019" y="126" width="133" height="83" fill="black">
<rect fill="white" x="1019" y="126" width="133" height="83"/>
<path d="M1026.66 157V130.344H1020V127H1040V130.344H1033.34V157H1026.66ZM1043.34 157V127H1050V140.344H1056.69V127H1063.34V157H1056.69V143.656H1050V157H1043.34ZM1069.98 157V127H1086.64V130.344H1076.64V140.344H1083.33V143.656H1076.64V153.656H1086.64V157H1069.98ZM1026.66 208V181.344H1020V178H1040V181.344H1033.34V208H1026.66ZM1043.34 208V178H1060V181.344H1050V191.344H1056.69V194.656H1050V204.656H1060V208H1043.34ZM1066.7 208V184.656C1066.7 182.833 1067.35 181.271 1068.66 179.969C1069.97 178.656 1071.54 178 1073.36 178H1080.05C1081.87 178 1083.43 178.656 1084.73 179.969C1086.05 181.281 1086.7 182.844 1086.7 184.656V208H1080.05V194.656H1073.36V208H1066.7ZM1073.36 191.344H1080.05V184.656C1080.05 183.75 1079.71 182.974 1079.05 182.328C1078.39 181.672 1077.61 181.344 1076.7 181.344C1075.79 181.344 1075 181.672 1074.34 182.328C1073.69 182.974 1073.36 183.75 1073.36 184.656V191.344ZM1093.34 208V178H1094.86L1109.11 192.219L1123.34 178H1126.69V208H1120V189.656L1108.3 201.359L1096.69 189.656V208H1093.34ZM1150 184.656H1146.69C1146.4 182.427 1145.34 181.312 1143.53 181.312C1142.36 181.312 1141.48 181.594 1140.89 182.156C1140.3 182.719 1140 183.557 1140 184.672C1140 185.505 1140.33 186.286 1140.98 187.016L1148.05 194.953C1149.35 196.411 1150 197.979 1150 199.656V201.344C1150 203.146 1149.35 204.708 1148.05 206.031C1146.74 207.344 1145.18 208 1143.34 208H1140C1137.79 208 1136.13 207.443 1135.02 206.328C1133.9 205.214 1133.34 203.552 1133.34 201.344H1136.69C1136.67 201.573 1136.66 201.755 1136.66 201.891C1136.66 202.797 1137.01 203.484 1137.7 203.953C1138.4 204.422 1139.17 204.656 1140 204.656C1141.19 204.656 1142.04 204.37 1142.56 203.797C1143.08 203.224 1143.34 202.391 1143.34 201.297C1143.34 200.453 1143.02 199.672 1142.36 198.953L1135.3 191.047C1133.99 189.599 1133.34 188.031 1133.34 186.344V184.656C1133.34 182.844 1133.99 181.281 1135.3 179.969C1136.6 178.656 1138.17 178 1140 178H1143.34C1147.51 178 1149.73 180.219 1150 184.656Z"/>
</mask>
<path d="M1026.66 157V130.344H1020V127H1040V130.344H1033.34V157H1026.66ZM1043.34 157V127H1050V140.344H1056.69V127H1063.34V157H1056.69V143.656H1050V157H1043.34ZM1069.98 157V127H1086.64V130.344H1076.64V140.344H1083.33V143.656H1076.64V153.656H1086.64V157H1069.98ZM1026.66 208V181.344H1020V178H1040V181.344H1033.34V208H1026.66ZM1043.34 208V178H1060V181.344H1050V191.344H1056.69V194.656H1050V204.656H1060V208H1043.34ZM1066.7 208V184.656C1066.7 182.833 1067.35 181.271 1068.66 179.969C1069.97 178.656 1071.54 178 1073.36 178H1080.05C1081.87 178 1083.43 178.656 1084.73 179.969C1086.05 181.281 1086.7 182.844 1086.7 184.656V208H1080.05V194.656H1073.36V208H1066.7ZM1073.36 191.344H1080.05V184.656C1080.05 183.75 1079.71 182.974 1079.05 182.328C1078.39 181.672 1077.61 181.344 1076.7 181.344C1075.79 181.344 1075 181.672 1074.34 182.328C1073.69 182.974 1073.36 183.75 1073.36 184.656V191.344ZM1093.34 208V178H1094.86L1109.11 192.219L1123.34 178H1126.69V208H1120V189.656L1108.3 201.359L1096.69 189.656V208H1093.34ZM1150 184.656H1146.69C1146.4 182.427 1145.34 181.312 1143.53 181.312C1142.36 181.312 1141.48 181.594 1140.89 182.156C1140.3 182.719 1140 183.557 1140 184.672C1140 185.505 1140.33 186.286 1140.98 187.016L1148.05 194.953C1149.35 196.411 1150 197.979 1150 199.656V201.344C1150 203.146 1149.35 204.708 1148.05 206.031C1146.74 207.344 1145.18 208 1143.34 208H1140C1137.79 208 1136.13 207.443 1135.02 206.328C1133.9 205.214 1133.34 203.552 1133.34 201.344H1136.69C1136.67 201.573 1136.66 201.755 1136.66 201.891C1136.66 202.797 1137.01 203.484 1137.7 203.953C1138.4 204.422 1139.17 204.656 1140 204.656C1141.19 204.656 1142.04 204.37 1142.56 203.797C1143.08 203.224 1143.34 202.391 1143.34 201.297C1143.34 200.453 1143.02 199.672 1142.36 198.953L1135.3 191.047C1133.99 189.599 1133.34 188.031 1133.34 186.344V184.656C1133.34 182.844 1133.99 181.281 1135.3 179.969C1136.6 178.656 1138.17 178 1140 178H1143.34C1147.51 178 1149.73 180.219 1150 184.656Z" fill="url(#paint0_linear_1330_13)"/>
<path d="M1026.66 157H1025.66V158H1026.66V157ZM1026.66 130.344H1027.66V129.344H1026.66V130.344ZM1020 130.344H1019V131.344H1020V130.344ZM1020 127V126H1019V127H1020ZM1040 127H1041V126H1040V127ZM1040 130.344V131.344H1041V130.344H1040ZM1033.34 130.344V129.344H1032.34V130.344H1033.34ZM1033.34 157V158H1034.34V157H1033.34ZM1026.66 157H1027.66V130.344H1026.66H1025.66V157H1026.66ZM1026.66 130.344V129.344H1020V130.344V131.344H1026.66V130.344ZM1020 130.344H1021V127H1020H1019V130.344H1020ZM1020 127V128H1040V127V126H1020V127ZM1040 127H1039V130.344H1040H1041V127H1040ZM1040 130.344V129.344H1033.34V130.344V131.344H1040V130.344ZM1033.34 130.344H1032.34V157H1033.34H1034.34V130.344H1033.34ZM1033.34 157V156H1026.66V157V158H1033.34V157ZM1043.34 157H1042.34V158H1043.34V157ZM1043.34 127V126H1042.34V127H1043.34ZM1050 127H1051V126H1050V127ZM1050 140.344H1049V141.344H1050V140.344ZM1056.69 140.344V141.344H1057.69V140.344H1056.69ZM1056.69 127V126H1055.69V127H1056.69ZM1063.34 127H1064.34V126H1063.34V127ZM1063.34 157V158H1064.34V157H1063.34ZM1056.69 157H1055.69V158H1056.69V157ZM1056.69 143.656H1057.69V142.656H1056.69V143.656ZM1050 143.656V142.656H1049V143.656H1050ZM1050 157V158H1051V157H1050ZM1043.34 157H1044.34V127H1043.34H1042.34V157H1043.34ZM1043.34 127V128H1050V127V126H1043.34V127ZM1050 127H1049V140.344H1050H1051V127H1050ZM1050 140.344V141.344H1056.69V140.344V139.344H1050V140.344ZM1056.69 140.344H1057.69V127H1056.69H1055.69V140.344H1056.69ZM1056.69 127V128H1063.34V127V126H1056.69V127ZM1063.34 127H1062.34V157H1063.34H1064.34V127H1063.34ZM1063.34 157V156H1056.69V157V158H1063.34V157ZM1056.69 157H1057.69V143.656H1056.69H1055.69V157H1056.69ZM1056.69 143.656V142.656H1050V143.656V144.656H1056.69V143.656ZM1050 143.656H1049V157H1050H1051V143.656H1050ZM1050 157V156H1043.34V157V158H1050V157ZM1069.98 157H1068.98V158H1069.98V157ZM1069.98 127V126H1068.98V127H1069.98ZM1086.64 127H1087.64V126H1086.64V127ZM1086.64 130.344V131.344H1087.64V130.344H1086.64ZM1076.64 130.344V129.344H1075.64V130.344H1076.64ZM1076.64 140.344H1075.64V141.344H1076.64V140.344ZM1083.33 140.344H1084.33V139.344H1083.33V140.344ZM1083.33 143.656V144.656H1084.33V143.656H1083.33ZM1076.64 143.656V142.656H1075.64V143.656H1076.64ZM1076.64 153.656H1075.64V154.656H1076.64V153.656ZM1086.64 153.656H1087.64V152.656H1086.64V153.656ZM1086.64 157V158H1087.64V157H1086.64ZM1069.98 157H1070.98V127H1069.98H1068.98V157H1069.98ZM1069.98 127V128H1086.64V127V126H1069.98V127ZM1086.64 127H1085.64V130.344H1086.64H1087.64V127H1086.64ZM1086.64 130.344V129.344H1076.64V130.344V131.344H1086.64V130.344ZM1076.64 130.344H1075.64V140.344H1076.64H1077.64V130.344H1076.64ZM1076.64 140.344V141.344H1083.33V140.344V139.344H1076.64V140.344ZM1083.33 140.344H1082.33V143.656H1083.33H1084.33V140.344H1083.33ZM1083.33 143.656V142.656H1076.64V143.656V144.656H1083.33V143.656ZM1076.64 143.656H1075.64V153.656H1076.64H1077.64V143.656H1076.64ZM1076.64 153.656V154.656H1086.64V153.656V152.656H1076.64V153.656ZM1086.64 153.656H1085.64V157H1086.64H1087.64V153.656H1086.64ZM1086.64 157V156H1069.98V157V158H1086.64V157ZM1026.66 208H1025.66V209H1026.66V208ZM1026.66 181.344H1027.66V180.344H1026.66V181.344ZM1020 181.344H1019V182.344H1020V181.344ZM1020 178V177H1019V178H1020ZM1040 178H1041V177H1040V178ZM1040 181.344V182.344H1041V181.344H1040ZM1033.34 181.344V180.344H1032.34V181.344H1033.34ZM1033.34 208V209H1034.34V208H1033.34ZM1026.66 208H1027.66V181.344H1026.66H1025.66V208H1026.66ZM1026.66 181.344V180.344H1020V181.344V182.344H1026.66V181.344ZM1020 181.344H1021V178H1020H1019V181.344H1020ZM1020 178V179H1040V178V177H1020V178ZM1040 178H1039V181.344H1040H1041V178H1040ZM1040 181.344V180.344H1033.34V181.344V182.344H1040V181.344ZM1033.34 181.344H1032.34V208H1033.34H1034.34V181.344H1033.34ZM1033.34 208V207H1026.66V208V209H1033.34V208ZM1043.34 208H1042.34V209H1043.34V208ZM1043.34 178V177H1042.34V178H1043.34ZM1060 178H1061V177H1060V178ZM1060 181.344V182.344H1061V181.344H1060ZM1050 181.344V180.344H1049V181.344H1050ZM1050 191.344H1049V192.344H1050V191.344ZM1056.69 191.344H1057.69V190.344H1056.69V191.344ZM1056.69 194.656V195.656H1057.69V194.656H1056.69ZM1050 194.656V193.656H1049V194.656H1050ZM1050 204.656H1049V205.656H1050V204.656ZM1060 204.656H1061V203.656H1060V204.656ZM1060 208V209H1061V208H1060ZM1043.34 208H1044.34V178H1043.34H1042.34V208H1043.34ZM1043.34 178V179H1060V178V177H1043.34V178ZM1060 178H1059V181.344H1060H1061V178H1060ZM1060 181.344V180.344H1050V181.344V182.344H1060V181.344ZM1050 181.344H1049V191.344H1050H1051V181.344H1050ZM1050 191.344V192.344H1056.69V191.344V190.344H1050V191.344ZM1056.69 191.344H1055.69V194.656H1056.69H1057.69V191.344H1056.69ZM1056.69 194.656V193.656H1050V194.656V195.656H1056.69V194.656ZM1050 194.656H1049V204.656H1050H1051V194.656H1050ZM1050 204.656V205.656H1060V204.656V203.656H1050V204.656ZM1060 204.656H1059V208H1060H1061V204.656H1060ZM1060 208V207H1043.34V208V209H1060V208ZM1066.7 208H1065.7V209H1066.7V208ZM1068.66 179.969L1067.95 179.262L1068.66 179.969ZM1084.73 179.969L1084.02 180.673L1084.03 180.676L1084.73 179.969ZM1086.7 208V209H1087.7V208H1086.7ZM1080.05 208H1079.05V209H1080.05V208ZM1080.05 194.656H1081.05V193.656H1080.05V194.656ZM1073.36 194.656V193.656H1072.36V194.656H1073.36ZM1073.36 208V209H1074.36V208H1073.36ZM1073.36 191.344H1072.36V192.344H1073.36V191.344ZM1080.05 191.344V192.344H1081.05V191.344H1080.05ZM1079.05 182.328L1078.34 183.035L1078.35 183.041L1078.35 183.046L1079.05 182.328ZM1074.34 182.328L1075.05 183.041L1075.05 183.035L1074.34 182.328ZM1066.7 208H1067.7V184.656H1066.7H1065.7V208H1066.7ZM1066.7 184.656H1067.7C1067.7 183.102 1068.25 181.793 1069.36 180.676L1068.66 179.969L1067.95 179.262C1066.46 180.749 1065.7 182.565 1065.7 184.656H1066.7ZM1068.66 179.969L1069.36 180.676C1070.49 179.547 1071.81 179 1073.36 179V178V177C1071.27 177 1069.45 177.765 1067.95 179.262L1068.66 179.969ZM1073.36 178V179H1080.05V178V177H1073.36V178ZM1080.05 178V179C1081.6 179 1082.91 179.547 1084.02 180.673L1084.73 179.969L1085.44 179.264C1083.96 177.766 1082.14 177 1080.05 177V178ZM1084.73 179.969L1084.03 180.676C1085.16 181.806 1085.7 183.116 1085.7 184.656H1086.7H1087.7C1087.7 182.571 1086.94 180.757 1085.44 179.262L1084.73 179.969ZM1086.7 184.656H1085.7V208H1086.7H1087.7V184.656H1086.7ZM1086.7 208V207H1080.05V208V209H1086.7V208ZM1080.05 208H1081.05V194.656H1080.05H1079.05V208H1080.05ZM1080.05 194.656V193.656H1073.36V194.656V195.656H1080.05V194.656ZM1073.36 194.656H1072.36V208H1073.36H1074.36V194.656H1073.36ZM1073.36 208V207H1066.7V208V209H1073.36V208ZM1073.36 191.344V192.344H1080.05V191.344V190.344H1073.36V191.344ZM1080.05 191.344H1081.05V184.656H1080.05H1079.05V191.344H1080.05ZM1080.05 184.656H1081.05C1081.05 183.472 1080.6 182.439 1079.74 181.61L1079.05 182.328L1078.35 183.046C1078.83 183.509 1079.05 184.028 1079.05 184.656H1080.05ZM1079.05 182.328L1079.75 181.621C1078.92 180.782 1077.88 180.344 1076.7 180.344V181.344V182.344C1077.34 182.344 1077.87 182.561 1078.34 183.035L1079.05 182.328ZM1076.7 181.344V180.344C1075.52 180.344 1074.48 180.78 1073.64 181.621L1074.34 182.328L1075.05 183.035C1075.52 182.564 1076.06 182.344 1076.7 182.344V181.344ZM1074.34 182.328L1073.64 181.615C1072.8 182.446 1072.36 183.477 1072.36 184.656H1073.36H1074.36C1074.36 184.023 1074.58 183.502 1075.05 183.041L1074.34 182.328ZM1073.36 184.656H1072.36V191.344H1073.36H1074.36V184.656H1073.36ZM1093.34 208H1092.34V209H1093.34V208ZM1093.34 178V177H1092.34V178H1093.34ZM1094.86 178L1095.57 177.292L1095.27 177H1094.86V178ZM1109.11 192.219L1108.4 192.927L1109.11 193.632L1109.82 192.926L1109.11 192.219ZM1123.34 178V177H1122.93L1122.64 177.293L1123.34 178ZM1126.69 178H1127.69V177H1126.69V178ZM1126.69 208V209H1127.69V208H1126.69ZM1120 208H1119V209H1120V208ZM1120 189.656H1121V187.242L1119.29 188.949L1120 189.656ZM1108.3 201.359L1107.59 202.064L1108.29 202.776L1109 202.066L1108.3 201.359ZM1096.69 189.656L1097.4 188.952L1095.69 187.228V189.656H1096.69ZM1096.69 208V209H1097.69V208H1096.69ZM1093.34 208H1094.34V178H1093.34H1092.34V208H1093.34ZM1093.34 178V179H1094.86V178V177H1093.34V178ZM1094.86 178L1094.15 178.708L1108.4 192.927L1109.11 192.219L1109.82 191.511L1095.57 177.292L1094.86 178ZM1109.11 192.219L1109.82 192.926L1124.05 178.707L1123.34 178L1122.64 177.293L1108.4 191.511L1109.11 192.219ZM1123.34 178V179H1126.69V178V177H1123.34V178ZM1126.69 178H1125.69V208H1126.69H1127.69V178H1126.69ZM1126.69 208V207H1120V208V209H1126.69V208ZM1120 208H1121V189.656H1120H1119V208H1120ZM1120 189.656L1119.29 188.949L1107.59 200.652L1108.3 201.359L1109 202.066L1120.71 190.363L1120 189.656ZM1108.3 201.359L1109.01 200.655L1097.4 188.952L1096.69 189.656L1095.98 190.361L1107.59 202.064L1108.3 201.359ZM1096.69 189.656H1095.69V208H1096.69H1097.69V189.656H1096.69ZM1096.69 208V207H1093.34V208V209H1096.69V208ZM1150 184.656V185.656H1151.06L1151 184.595L1150 184.656ZM1146.69 184.656L1145.7 184.786L1145.81 185.656H1146.69V184.656ZM1140.89 182.156L1140.2 181.43L1140.89 182.156ZM1140.98 187.016L1141.73 186.351L1141.73 186.347L1140.98 187.016ZM1148.05 194.953L1147.3 195.618L1147.3 195.619L1148.05 194.953ZM1148.05 206.031L1148.76 206.736L1148.76 206.733L1148.05 206.031ZM1135.02 206.328L1135.72 205.621L1135.02 206.328ZM1133.34 201.344V200.344H1132.34V201.344H1133.34ZM1136.69 201.344L1137.68 201.434L1137.78 200.344H1136.69V201.344ZM1137.7 203.953L1137.15 204.783L1137.7 203.953ZM1142.56 203.797L1143.3 204.47L1142.56 203.797ZM1142.36 198.953L1141.61 199.619L1141.62 199.627L1142.36 198.953ZM1135.3 191.047L1136.04 190.381L1136.04 190.378L1135.3 191.047ZM1135.3 179.969L1134.59 179.264L1135.3 179.969ZM1150 184.656V183.656H1146.69V184.656V185.656H1150V184.656ZM1146.69 184.656L1147.68 184.527C1147.52 183.296 1147.13 182.229 1146.41 181.462C1145.66 180.668 1144.66 180.312 1143.53 180.312V181.312V182.312C1144.22 182.312 1144.65 182.514 1144.95 182.835C1145.28 183.183 1145.57 183.787 1145.7 184.786L1146.69 184.656ZM1143.53 181.312V180.312C1142.22 180.312 1141.05 180.629 1140.2 181.43L1140.89 182.156L1141.58 182.882C1141.92 182.559 1142.51 182.312 1143.53 182.312V181.312ZM1140.89 182.156L1140.2 181.43C1139.35 182.242 1139 183.386 1139 184.672H1140H1141C1141 183.729 1141.25 183.195 1141.58 182.882L1140.89 182.156ZM1140 184.672H1139C1139 185.795 1139.45 186.806 1140.24 187.685L1140.98 187.016L1141.73 186.347C1141.21 185.767 1141 185.215 1141 184.672H1140ZM1140.98 187.016L1140.24 187.68L1147.3 195.618L1148.05 194.953L1148.79 194.288L1141.73 186.351L1140.98 187.016ZM1148.05 194.953L1147.3 195.619C1148.47 196.926 1149 198.265 1149 199.656H1150H1151C1151 197.693 1150.23 195.896 1148.79 194.287L1148.05 194.953ZM1150 199.656H1149V201.344H1150H1151V199.656H1150ZM1150 201.344H1149C1149 202.875 1148.46 204.188 1147.33 205.33L1148.05 206.031L1148.76 206.733C1150.24 205.229 1151 203.417 1151 201.344H1150ZM1148.05 206.031L1147.34 205.327C1146.22 206.452 1144.91 207 1143.34 207V208V209C1145.45 209 1147.27 208.235 1148.76 206.736L1148.05 206.031ZM1143.34 208V207H1140V208V209H1143.34V208ZM1140 208V207C1137.95 207 1136.59 206.484 1135.72 205.621L1135.02 206.328L1134.31 207.035C1135.68 208.402 1137.63 209 1140 209V208ZM1135.02 206.328L1135.72 205.621C1134.86 204.759 1134.34 203.395 1134.34 201.344H1133.34H1132.34C1132.34 203.709 1132.94 205.669 1134.31 207.035L1135.02 206.328ZM1133.34 201.344V202.344H1136.69V201.344V200.344H1133.34V201.344ZM1136.69 201.344L1135.69 201.253C1135.67 201.495 1135.66 201.711 1135.66 201.891H1136.66H1137.66C1137.66 201.799 1137.66 201.651 1137.68 201.434L1136.69 201.344ZM1136.66 201.891H1135.66C1135.66 203.099 1136.15 204.112 1137.15 204.783L1137.7 203.953L1138.26 203.123C1137.86 202.856 1137.66 202.495 1137.66 201.891H1136.66ZM1137.7 203.953L1137.15 204.783C1138.01 205.362 1138.97 205.656 1140 205.656V204.656V203.656C1139.37 203.656 1138.8 203.482 1138.26 203.123L1137.7 203.953ZM1140 204.656V205.656C1141.32 205.656 1142.51 205.341 1143.3 204.47L1142.56 203.797L1141.82 203.124C1141.57 203.399 1141.06 203.656 1140 203.656V204.656ZM1142.56 203.797L1143.3 204.47C1144.05 203.649 1144.34 202.537 1144.34 201.297H1143.34H1142.34C1142.34 202.244 1142.12 202.799 1141.82 203.124L1142.56 203.797ZM1143.34 201.297H1144.34C1144.34 200.165 1143.89 199.152 1143.1 198.279L1142.36 198.953L1141.62 199.627C1142.14 200.192 1142.34 200.741 1142.34 201.297H1143.34ZM1142.36 198.953L1143.11 198.287L1136.04 190.381L1135.3 191.047L1134.55 191.713L1141.61 199.619L1142.36 198.953ZM1135.3 191.047L1136.04 190.378C1134.88 189.084 1134.34 187.747 1134.34 186.344H1133.34H1132.34C1132.34 188.316 1133.11 190.114 1134.55 191.716L1135.3 191.047ZM1133.34 186.344H1134.34V184.656H1133.34H1132.34V186.344H1133.34ZM1133.34 184.656H1134.34C1134.34 183.113 1134.89 181.802 1136.01 180.673L1135.3 179.969L1134.59 179.264C1133.1 180.76 1132.34 182.574 1132.34 184.656H1133.34ZM1135.3 179.969L1136.01 180.673C1137.12 179.548 1138.44 179 1140 179V178V177C1137.9 177 1136.08 177.764 1134.59 179.264L1135.3 179.969ZM1140 178V179H1143.34V178V177H1140V178ZM1143.34 178V179C1145.25 179 1146.56 179.505 1147.43 180.371C1148.3 181.248 1148.88 182.641 1149 184.717L1150 184.656L1151 184.595C1150.85 182.234 1150.18 180.299 1148.84 178.957C1147.49 177.605 1145.6 177 1143.34 177V178Z" fill="#FCA129" mask="url(#path-3-outside-2_1330_13)"/>
<path d="M1153 100H1253V-7.15256e-07H1153V100Z" fill="white"/>
<defs>
<filter id="filter0_d_1330_13" x="0" y="21" width="1255.99" height="316" filterUnits="userSpaceOnUse" color-interpolation-filters="sRGB">
<feFlood flood-opacity="0" result="BackgroundImageFix"/>
<feColorMatrix in="SourceAlpha" type="matrix" values="0 0 0 0 0 0 0 0 0 0 0 0 0 0 0 0 0 0 127 0" result="hardAlpha"/>
<feOffset dy="10"/>
<feGaussianBlur stdDeviation="2"/>
<feComposite in2="hardAlpha" operator="out"/>
<feColorMatrix type="matrix" values="0 0 0 0 0 0 0 0 0 0 0 0 0 0 0 0 0 0 0.25 0"/>
<feBlend mode="normal" in2="BackgroundImageFix" result="effect1_dropShadow_1330_13"/>
<feBlend mode="normal" in="SourceGraphic" in2="effect1_dropShadow_1330_13" result="shape"/>
</filter>
<linearGradient id="paint0_linear_1330_13" x1="1087" y1="117" x2="1087" y2="219" gradientUnits="userSpaceOnUse">
<stop stop-color="#EF2427"/>
<stop offset="1" stop-color="#891516"/>
</linearGradient>
</defs>
</svg>
