<svg width="256" height="148" viewBox="0 0 256 148" fill="none" xmlns="http://www.w3.org/2000/svg">
<rect x="72" width="170" height="106" rx="5" fill="#FFD195"/>
<path d="M0 11L72 32V74L0 95V11Z" fill="#FFD195"/>
<circle cx="192.53" cy="90.5633" r="34.7821" fill="#FFEBD1"/>
<path d="M192.354 21C227.342 21.0003 255.706 49.3648 255.706 84.3535C255.706 119.342 227.342 147.706 192.354 147.706C157.365 147.706 129 119.342 129 84.3535C129 49.3646 157.365 21 192.354 21ZM192.353 92.1152C180.044 92.1153 170.066 102.094 170.066 114.402C170.067 126.71 180.044 136.688 192.353 136.688C204.661 136.688 214.638 126.71 214.639 114.402C214.639 102.094 204.661 92.1152 192.353 92.1152ZM162.805 49.0459C150.496 49.0459 140.519 59.0237 140.519 71.332C140.519 83.6403 150.496 93.6182 162.805 93.6182C175.113 93.6181 185.091 83.6403 185.091 71.332C185.091 59.0237 175.113 49.046 162.805 49.0459ZM219.146 49.0459C206.838 49.0459 196.86 59.0237 196.86 71.332C196.86 83.6403 206.838 93.6181 219.146 93.6182C231.455 93.6182 241.433 83.6403 241.433 71.332C241.433 59.0237 231.455 49.0459 219.146 49.0459Z" fill="#FCA129"/>
</svg>
