<svg width="470" height="496" viewBox="0 0 470 496" fill="none" xmlns="http://www.w3.org/2000/svg">
<path d="M1.50017 141.59C100.077 168.104 169.875 180.832 219.549 190.606C244.466 195.508 264.38 199.679 280.308 204.484C296.237 209.288 308.307 214.761 317.471 222.337C335.886 237.559 342.15 260.913 345.472 302.566C347.136 323.433 348.065 349.031 349.348 380.668C350.6 411.547 352.19 448.217 355.126 491.957L467.75 379.332C451.275 274.088 431.844 209.984 407.573 169.965C383.327 129.987 354.221 113.989 318.072 105.059C245.983 87.2521 145.231 97.6797 1.49948 2.79082L1.50017 141.59Z" fill="#080B0E" fill-opacity="0.7" stroke="white" stroke-width="3"/>
</svg>
