<svg width="475" height="1018" viewBox="0 0 475 1018" fill="none" xmlns="http://www.w3.org/2000/svg">
<circle cx="-32.7228" cy="558.734" r="277.87" fill="#FFEBD1" stroke="white" stroke-width="3"/>
<mask id="path-2-inside-1_810_16" fill="white">
<path d="M-34.1465 0C246.885 0.000263896 474.706 227.822 474.706 508.854C474.706 789.885 246.885 1017.71 -34.1465 1017.71C-315.178 1017.71 -543 789.885 -543 508.854C-543 227.822 -315.178 0 -34.1465 0ZM-34.1494 571.199C-133.01 571.199 -213.153 651.342 -213.153 750.203C-213.153 849.064 -133.01 929.207 -34.1494 929.207C64.7112 929.207 144.853 849.064 144.854 750.203C144.854 651.342 64.7114 571.199 -34.1494 571.199ZM-271.48 225.258C-370.341 225.258 -450.484 305.4 -450.484 404.261C-450.484 503.122 -370.341 583.265 -271.48 583.265C-172.62 583.264 -92.4775 503.122 -92.4775 404.261C-92.4777 305.4 -172.62 225.258 -271.48 225.258ZM181.059 225.258C82.1979 225.258 2.05585 305.4 2.05566 404.261C2.05566 503.122 82.1978 583.264 181.059 583.265C279.92 583.265 360.062 503.122 360.062 404.261C360.062 305.4 279.919 225.258 181.059 225.258Z"/>
</mask>
<path d="M-34.1465 0C246.885 0.000263896 474.706 227.822 474.706 508.854C474.706 789.885 246.885 1017.71 -34.1465 1017.71C-315.178 1017.71 -543 789.885 -543 508.854C-543 227.822 -315.178 0 -34.1465 0ZM-34.1494 571.199C-133.01 571.199 -213.153 651.342 -213.153 750.203C-213.153 849.064 -133.01 929.207 -34.1494 929.207C64.7112 929.207 144.853 849.064 144.854 750.203C144.854 651.342 64.7114 571.199 -34.1494 571.199ZM-271.48 225.258C-370.341 225.258 -450.484 305.4 -450.484 404.261C-450.484 503.122 -370.341 583.265 -271.48 583.265C-172.62 583.264 -92.4775 503.122 -92.4775 404.261C-92.4777 305.4 -172.62 225.258 -271.48 225.258ZM181.059 225.258C82.1979 225.258 2.05585 305.4 2.05566 404.261C2.05566 503.122 82.1978 583.264 181.059 583.265C279.92 583.265 360.062 503.122 360.062 404.261C360.062 305.4 279.919 225.258 181.059 225.258Z" fill="black"/>
<path d="M-34.1465 0V-3V0ZM474.706 508.854H477.706H474.706ZM-34.1465 1017.71V1020.71V1017.71ZM-543 508.854H-546H-543ZM-34.1494 571.199V568.199V571.199ZM-213.153 750.203H-216.153H-213.153ZM-34.1494 929.207V932.207V929.207ZM144.854 750.203H147.854H144.854ZM-271.48 225.258V222.258V225.258ZM-450.484 404.261H-453.484H-450.484ZM-271.48 583.265V586.265V583.265ZM-92.4775 404.261H-89.4775H-92.4775ZM181.059 225.258V222.258V225.258ZM2.05566 404.261H-0.944336H2.05566ZM181.059 583.265V586.265V583.265ZM360.062 404.261H363.062H360.062ZM-34.1465 0V3C245.228 3.00026 471.706 229.479 471.706 508.854H474.706H477.706C477.706 226.165 248.542 -2.99973 -34.1465 -3V0ZM474.706 508.854H471.706C471.706 788.228 245.228 1014.71 -34.1465 1014.71V1017.71V1020.71C248.542 1020.71 477.706 791.542 477.706 508.854H474.706ZM-34.1465 1017.71V1014.71C-313.521 1014.71 -540 788.228 -540 508.854H-543H-546C-546 791.542 -316.835 1020.71 -34.1465 1020.71V1017.71ZM-543 508.854H-540C-540 229.479 -313.521 3 -34.1465 3V0V-3C-316.835 -3 -546 226.165 -546 508.854H-543ZM-34.1494 571.199V568.199C-134.667 568.199 -216.153 649.685 -216.153 750.203H-213.153H-210.153C-210.153 652.999 -131.354 574.199 -34.1494 574.199V571.199ZM-213.153 750.203H-216.153C-216.153 850.721 -134.667 932.207 -34.1494 932.207V929.207V926.207C-131.353 926.207 -210.153 847.407 -210.153 750.203H-213.153ZM-34.1494 929.207V932.207C66.3682 932.207 147.853 850.721 147.854 750.203H144.854H141.854C141.853 847.407 63.0544 926.207 -34.1494 926.207V929.207ZM144.854 750.203H147.854C147.854 649.685 66.3682 568.199 -34.1494 568.199V571.199V574.199C63.0544 574.199 141.854 652.999 141.854 750.203H144.854ZM-271.48 225.258V222.258C-371.998 222.258 -453.484 303.743 -453.484 404.261H-450.484H-447.484C-447.484 307.057 -368.684 228.258 -271.48 228.258V225.258ZM-450.484 404.261H-453.484C-453.484 504.779 -371.998 586.265 -271.48 586.265V583.265V580.265C-368.685 580.265 -447.484 501.465 -447.484 404.261H-450.484ZM-271.48 583.265V586.265C-170.963 586.264 -89.4775 504.778 -89.4775 404.261H-92.4775H-95.4775C-95.4775 501.465 -174.277 580.264 -271.48 580.265V583.265ZM-92.4775 404.261H-89.4775C-89.4778 303.743 -170.963 222.258 -271.48 222.258V225.258V228.258C-174.277 228.258 -95.4777 307.057 -95.4775 404.261H-92.4775ZM181.059 225.258V222.258C80.5411 222.258 -0.944153 303.743 -0.944336 404.261H2.05566H5.05566C5.05585 307.057 83.8548 228.258 181.059 228.258V225.258ZM2.05566 404.261H-0.944336C-0.944336 504.778 80.541 586.264 181.059 586.265V583.265V580.265C83.8547 580.264 5.05566 501.465 5.05566 404.261H2.05566ZM181.059 583.265V586.265C281.576 586.265 363.062 504.779 363.062 404.261H360.062H357.062C357.062 501.465 278.263 580.265 181.059 580.265V583.265ZM360.062 404.261H363.062C363.062 303.743 281.576 222.258 181.059 222.258V225.258V228.258C278.263 228.258 357.062 307.057 357.062 404.261H360.062Z" fill="white" mask="url(#path-2-inside-1_810_16)"/>
</svg>
