<svg width="632" height="632" viewBox="0 0 632 632" fill="none" xmlns="http://www.w3.org/2000/svg">
<g filter="url(#filter0_d_828_166)">
<rect x="129.48" y="202.04" width="407.793" height="279.339" rx="8.5" transform="rotate(11 129.48 202.04)" fill="black" stroke="white" stroke-width="3"/>
<rect x="131.289" y="202.417" width="405.823" height="54.3335" rx="3.5" transform="rotate(10.6306 131.289 202.417)" fill="black" stroke="white" stroke-width="3"/>
<path d="M181.515 213.012L159.097 260.431L131.62 255.407L153.666 207.448L181.515 213.012Z" fill="white" stroke="white" stroke-width="3"/>
<path d="M236.454 223.903L214.037 271.321L186.559 266.298L208.605 218.339L236.454 223.903Z" fill="white" stroke="white" stroke-width="3"/>
<path d="M291.393 234.795L268.975 282.214L241.498 277.19L263.544 229.231L291.393 234.795Z" fill="white" stroke="white" stroke-width="3"/>
<path d="M342.636 243.86L320.219 291.278L292.741 286.255L314.787 238.296L342.636 243.86Z" fill="white" stroke="white" stroke-width="3"/>
<path d="M393.88 252.92L371.462 300.339L343.985 295.315L366.031 247.356L393.88 252.92Z" fill="white" stroke="white" stroke-width="3"/>
<path d="M445.123 261.985L422.705 309.403L395.228 304.38L417.274 256.421L445.123 261.985Z" fill="white" stroke="white" stroke-width="3"/>
<path d="M492.799 273.352L470.381 320.77L442.903 315.747L464.95 267.788L492.799 273.352Z" fill="white" stroke="white" stroke-width="3"/>
<path d="M514.333 275.9C517.976 276.412 522.462 277.128 525.952 277.954C525.973 277.964 526.047 278.013 526.16 278.189C526.333 278.46 526.522 278.92 526.679 279.626C526.994 281.036 527.112 283.071 527.037 285.599C526.887 290.628 525.988 297.238 524.735 303.848C523.483 310.451 521.891 316.985 520.373 321.849C519.611 324.288 518.883 326.26 518.244 327.599C517.921 328.276 517.651 328.724 517.449 328.981C516.406 328.911 514.217 328.586 511.315 328.081C508.102 327.521 504.181 326.773 500.376 326.023C496.572 325.274 492.892 324.525 490.161 323.963C489.109 323.746 488.197 323.556 487.475 323.406L509.043 275.214C509.261 275.24 509.508 275.269 509.782 275.302C510.922 275.441 512.518 275.645 514.333 275.9Z" fill="white" stroke="white" stroke-width="3"/>
<rect x="122.148" y="156.184" width="407.793" height="54.3335" rx="8.5" transform="rotate(-1.60454 122.148 156.184)" fill="black" stroke="white" stroke-width="3"/>
<path d="M173.478 155.896L161.619 206.988L133.701 207.902L145.083 156.36L173.478 155.896Z" fill="white" stroke="white" stroke-width="3"/>
<path d="M229.478 154.896L217.619 205.988L189.701 206.902L201.082 155.36L229.478 154.896Z" fill="white" stroke="white" stroke-width="3"/>
<path d="M285.477 153.9L273.618 204.992L245.7 205.906L257.081 154.364L285.477 153.9Z" fill="white" stroke="white" stroke-width="3"/>
<path d="M337.477 151.898L325.618 202.99L297.7 203.904L309.082 152.362L337.477 151.898Z" fill="white" stroke="white" stroke-width="3"/>
<path d="M389.477 149.894L377.618 200.986L349.7 201.9L361.082 150.358L389.477 149.894Z" fill="white" stroke="white" stroke-width="3"/>
<path d="M441.477 147.892L429.618 198.984L401.7 199.898L413.081 148.356L441.477 147.892Z" fill="white" stroke="white" stroke-width="3"/>
<path d="M490.479 148.898L478.62 199.99L450.702 200.904L462.084 149.362L490.479 148.898Z" fill="white" stroke="white" stroke-width="3"/>
<path d="M514.287 147.56C516.492 147.451 518.812 147.438 520.863 147.627C522.965 147.821 524.583 148.213 525.53 148.782C525.505 148.767 525.642 148.852 525.869 149.27C526.081 149.659 526.307 150.215 526.533 150.949C526.984 152.415 527.384 154.414 527.723 156.802C528.399 161.566 528.803 167.689 528.928 173.779C529.052 179.868 528.895 185.869 528.465 190.387C528.249 192.655 527.969 194.493 527.639 195.766C527.473 196.409 527.311 196.835 527.178 197.083C527.175 197.089 527.17 197.093 527.167 197.099C526.119 197.309 523.776 197.589 520.661 197.89C517.302 198.213 513.19 198.552 509.196 198.86C505.204 199.169 501.335 199.446 498.464 199.646C497.395 199.72 496.463 199.782 495.716 199.833L507.114 148.221C507.497 148.17 507.978 148.108 508.536 148.044C510.039 147.869 512.089 147.669 514.287 147.56Z" fill="white" stroke="white" stroke-width="3"/>
</g>
<path d="M253.908 344.297L252.221 343.969L254.556 331.957L247.888 340.619L246.364 340.323L243.434 329.855L241.111 341.809L239.423 341.481L242.219 327.102L244.395 327.525L247.475 338.699L254.498 329.489L256.703 329.917L253.908 344.297ZM264.626 346.38L263.274 346.117L263.414 344.831C262.975 345.217 262.458 345.488 261.864 345.644C261.271 345.794 260.639 345.804 259.968 345.674C259.278 345.539 258.687 345.285 258.196 344.911C257.706 344.531 257.351 344.074 257.129 343.54C256.915 343.007 256.866 342.441 256.982 341.84C257.105 341.207 257.38 340.684 257.805 340.269C258.238 339.849 258.769 339.558 259.398 339.395C260.033 339.233 260.718 339.223 261.452 339.366C261.932 339.459 262.409 339.615 262.884 339.834C263.36 340.045 263.773 340.292 264.123 340.572L264.201 340.169C264.301 339.658 264.257 339.199 264.071 338.791C263.886 338.377 263.599 338.033 263.208 337.758C262.818 337.476 262.364 337.285 261.847 337.185C261.399 337.098 260.926 337.092 260.427 337.167C259.93 337.237 259.434 337.399 258.94 337.654L258.685 336.202C259.311 335.952 259.948 335.797 260.596 335.738C261.245 335.672 261.871 335.697 262.471 335.814C263.302 335.975 263.985 336.284 264.52 336.739C265.062 337.19 265.44 337.757 265.651 338.442C265.864 339.12 265.889 339.88 265.725 340.724L264.626 346.38ZM260.525 344.29C261.017 344.385 261.488 344.371 261.937 344.246C262.385 344.121 262.775 343.891 263.105 343.557C263.436 343.217 263.666 342.785 263.795 342.259L263.827 342.096C263.529 341.753 263.173 341.465 262.761 341.232C262.356 340.994 261.927 340.831 261.473 340.743C260.764 340.605 260.136 340.662 259.59 340.914C259.05 341.167 258.728 341.559 258.625 342.09C258.56 342.422 258.598 342.741 258.737 343.047C258.883 343.354 259.111 343.617 259.42 343.836C259.729 344.055 260.097 344.206 260.525 344.29ZM276.771 348.741L275.372 348.469L275.558 347.052C275.021 347.459 274.408 347.744 273.72 347.909C273.032 348.067 272.312 348.073 271.558 347.926C270.618 347.744 269.817 347.362 269.153 346.783C268.49 346.203 268.015 345.493 267.727 344.655C267.445 343.817 267.396 342.926 267.58 341.98C267.765 341.028 268.144 340.219 268.718 339.555C269.299 338.885 270.006 338.406 270.838 338.117C271.67 337.827 272.556 337.774 273.495 337.957C274.224 338.098 274.87 338.36 275.432 338.741C276.001 339.124 276.461 339.591 276.811 340.143L277.994 334.056L279.566 334.362L276.771 348.741ZM271.977 346.536C272.616 346.66 273.226 346.626 273.808 346.434C274.39 346.235 274.884 345.91 275.29 345.458C275.704 345.002 275.974 344.447 276.101 343.796L276.164 343.47C276.291 342.818 276.248 342.206 276.034 341.634C275.828 341.056 275.491 340.57 275.024 340.174C274.557 339.778 274.004 339.518 273.365 339.394C272.701 339.265 272.076 339.306 271.491 339.517C270.906 339.728 270.408 340.072 269.997 340.55C269.592 341.028 269.324 341.606 269.192 342.283C269.061 342.961 269.092 343.6 269.287 344.202C269.489 344.798 269.822 345.304 270.285 345.719C270.749 346.134 271.312 346.406 271.977 346.536ZM288.379 349.774C287.013 350.456 285.614 350.659 284.183 350.38C283.186 350.187 282.334 349.789 281.629 349.188C280.923 348.586 280.415 347.857 280.104 347.001C279.801 346.14 279.743 345.223 279.932 344.252C280.113 343.319 280.486 342.529 281.049 341.882C281.614 341.229 282.305 340.763 283.122 340.484C283.939 340.205 284.814 340.157 285.747 340.338C286.705 340.524 287.504 340.918 288.143 341.52C288.789 342.123 289.236 342.873 289.486 343.771C289.736 344.669 289.757 345.654 289.548 346.728L289.489 347.035L281.465 345.475C281.471 346.06 281.606 346.593 281.87 347.076C282.135 347.558 282.503 347.965 282.976 348.295C283.456 348.627 284.015 348.856 284.654 348.98C285.753 349.193 286.827 349.027 287.874 348.482L288.379 349.774ZM281.668 344.122L288.264 345.404C288.309 344.796 288.224 344.242 288.01 343.743C287.803 343.238 287.487 342.815 287.062 342.474C286.644 342.134 286.141 341.907 285.553 341.793C284.959 341.677 284.398 341.698 283.87 341.854C283.349 342.011 282.895 342.284 282.507 342.673C282.127 343.057 281.848 343.54 281.668 344.122ZM305.789 354.381L303.967 354.027L303.225 346.282L299.634 353.185L297.813 352.831L296.618 342.65L298.286 342.975L299.087 351.089L302.926 343.876L304.402 344.163L305.26 352.289L309.052 345.067L310.72 345.391L305.789 354.381ZM314.156 342.916C313.887 342.863 313.678 342.727 313.529 342.505C313.387 342.279 313.343 342.031 313.395 341.763C313.446 341.501 313.579 341.295 313.794 341.144C314.015 340.995 314.26 340.946 314.528 340.998C314.803 341.052 315.015 341.189 315.165 341.41C315.314 341.632 315.363 341.873 315.312 342.135C315.26 342.404 315.123 342.616 314.9 342.772C314.679 342.921 314.43 342.969 314.156 342.916ZM312.49 355.684L310.917 355.378L312.781 345.792L314.353 346.098L312.49 355.684ZM321.123 357.123C320.436 357.281 319.792 357.302 319.191 357.185C318.616 357.074 318.136 356.851 317.749 356.517C317.365 356.177 317.095 355.757 316.94 355.256C316.787 354.748 316.769 354.191 316.887 353.584L317.923 348.254L316.245 347.928L316.519 346.519L318.274 346.86L318.74 344.463L320.235 344.754L319.769 347.15L322.635 347.707L322.361 349.117L319.495 348.56L318.515 353.602C318.403 354.177 318.467 354.67 318.705 355.081C318.95 355.494 319.325 355.749 319.83 355.847C320.239 355.927 320.671 355.885 321.127 355.721L321.123 357.123ZM323.188 357.763L325.983 343.384L327.555 343.69L326.344 349.921C327.277 348.975 328.501 348.649 330.016 348.943C331.287 349.19 332.204 349.763 332.766 350.662C333.335 351.555 333.488 352.679 333.224 354.034L332.16 359.507L330.588 359.202L331.581 354.092C331.781 353.063 331.681 352.215 331.28 351.547C330.887 350.873 330.237 350.449 329.33 350.272C328.416 350.095 327.64 350.246 327.003 350.725C326.366 351.205 325.949 351.95 325.753 352.959L324.76 358.069L323.188 357.763ZM348.553 362.694L339.734 360.979L342.529 346.6L344.216 346.928L341.711 359.812L348.844 361.198L348.553 362.694ZM354.401 364.03C353.449 363.844 352.635 363.461 351.959 362.878C351.283 362.296 350.797 361.588 350.502 360.755C350.214 359.916 350.162 359.021 350.347 358.068C350.531 357.122 350.913 356.318 351.493 355.655C352.08 354.986 352.797 354.509 353.642 354.222C354.488 353.929 355.387 353.875 356.339 354.06C357.292 354.245 358.102 354.631 358.77 355.219C359.44 355.8 359.919 356.51 360.207 357.349C360.496 358.181 360.549 359.07 360.365 360.016C360.18 360.968 359.797 361.779 359.215 362.448C358.636 363.112 357.926 363.587 357.088 363.875C356.249 364.163 355.354 364.215 354.401 364.03ZM354.668 362.609C355.313 362.734 355.922 362.69 356.494 362.476C357.066 362.263 357.551 361.916 357.95 361.436C358.354 360.958 358.623 360.38 358.754 359.703C358.886 359.025 358.854 358.389 358.658 357.794C358.468 357.2 358.148 356.696 357.698 356.284C357.247 355.871 356.7 355.602 356.054 355.477C355.409 355.351 354.797 355.395 354.218 355.607C353.646 355.821 353.157 356.167 352.753 356.646C352.354 357.125 352.089 357.704 351.958 358.381C351.826 359.059 351.855 359.695 352.045 360.288C352.241 360.884 352.564 361.388 353.014 361.8C353.471 362.214 354.022 362.483 354.668 362.609ZM372.043 357.311L366.144 366.113L364.619 365.817L362.456 355.448L364.153 355.778L365.716 364.319L370.375 356.987L372.043 357.311ZM380.733 367.725C379.367 368.408 377.968 368.61 376.536 368.332C375.539 368.138 374.688 367.741 373.982 367.139C373.277 366.538 372.769 365.809 372.457 364.953C372.154 364.091 372.097 363.175 372.286 362.203C372.467 361.27 372.839 360.481 373.403 359.834C373.967 359.181 374.658 358.715 375.475 358.436C376.292 358.157 377.167 358.108 378.1 358.29C379.059 358.476 379.858 358.87 380.497 359.472C381.142 360.075 381.59 360.825 381.84 361.723C382.09 362.62 382.111 363.606 381.902 364.679L381.842 364.986L373.819 363.427C373.824 364.011 373.959 364.545 374.224 365.027C374.488 365.51 374.857 365.916 375.33 366.247C375.809 366.579 376.368 366.807 377.007 366.931C378.106 367.145 379.18 366.979 380.228 366.433L380.733 367.725ZM374.022 362.073L380.617 363.355C380.662 362.747 380.578 362.194 380.363 361.694C380.156 361.19 379.84 360.767 379.416 360.426C378.998 360.086 378.495 359.859 377.907 359.744C377.313 359.629 376.751 359.649 376.224 359.805C375.702 359.963 375.248 360.236 374.861 360.625C374.481 361.009 374.201 361.491 374.022 362.073ZM197.833 358.865L196.433 358.593L199.228 344.213L200.8 344.519L199.617 350.606C200.155 350.227 200.756 349.965 201.421 349.823C202.085 349.68 202.779 349.679 203.501 349.819C204.447 350.003 205.248 350.384 205.905 350.963C206.562 351.541 207.031 352.249 207.312 353.087C207.602 353.919 207.654 354.811 207.469 355.763C207.285 356.709 206.902 357.517 206.321 358.187C205.746 358.858 205.046 359.338 204.22 359.629C203.394 359.919 202.509 359.973 201.563 359.789C200.809 359.642 200.143 359.367 199.565 358.963C198.994 358.553 198.533 358.059 198.181 357.48L197.833 358.865ZM201.704 358.344C202.363 358.472 202.98 358.433 203.558 358.227C204.143 358.015 204.637 357.67 205.042 357.192C205.453 356.715 205.725 356.137 205.856 355.46C205.989 354.776 205.954 354.136 205.752 353.54C205.557 352.938 205.228 352.43 204.765 352.015C204.308 351.601 203.751 351.33 203.093 351.202C202.466 351.08 201.87 351.114 201.302 351.302C200.742 351.491 200.256 351.805 199.846 352.242C199.442 352.681 199.157 353.213 198.989 353.837L198.887 354.364C198.808 355.005 198.874 355.605 199.084 356.163C199.294 356.721 199.623 357.193 200.072 357.579C200.528 357.966 201.072 358.221 201.704 358.344ZM210.561 366.313L208.845 365.979L211.805 361.501L209.071 351.101L210.806 351.438L212.915 359.836L217.593 352.757L219.3 353.089L210.561 366.313ZM229.857 364.851C229.17 365.009 228.526 365.03 227.925 364.913C227.35 364.801 226.869 364.578 226.483 364.245C226.098 363.905 225.828 363.484 225.674 362.983C225.52 362.476 225.502 361.918 225.62 361.311L226.657 355.981L224.979 355.655L225.253 354.246L227.007 354.587L227.473 352.191L228.968 352.481L228.503 354.878L231.369 355.435L231.095 356.844L228.229 356.287L227.249 361.329C227.137 361.905 227.2 362.398 227.438 362.809C227.683 363.221 228.058 363.476 228.563 363.575C228.972 363.654 229.405 363.612 229.861 363.449L229.857 364.851ZM231.921 365.491L234.716 351.111L236.288 351.417L235.077 357.648C236.011 356.702 237.235 356.376 238.749 356.671C240.021 356.918 240.938 357.491 241.499 358.389C242.068 359.282 242.221 360.406 241.958 361.761L240.894 367.235L239.322 366.929L240.315 361.82C240.515 360.791 240.415 359.942 240.014 359.274C239.621 358.601 238.971 358.176 238.063 358C237.149 357.822 236.374 357.973 235.737 358.453C235.099 358.932 234.683 359.677 234.487 360.687L233.493 365.796L231.921 365.491ZM252.31 368.23C250.944 368.913 249.545 369.115 248.113 368.837C247.116 368.643 246.265 368.246 245.56 367.644C244.854 367.043 244.346 366.314 244.035 365.458C243.731 364.596 243.674 363.68 243.863 362.708C244.044 361.775 244.417 360.986 244.98 360.339C245.545 359.686 246.236 359.22 247.052 358.941C247.869 358.662 248.744 358.613 249.677 358.795C250.636 358.981 251.435 359.375 252.074 359.977C252.72 360.58 253.167 361.33 253.417 362.228C253.667 363.125 253.688 364.111 253.479 365.185L253.42 365.491L245.396 363.932C245.402 364.516 245.537 365.05 245.801 365.533C246.065 366.015 246.434 366.422 246.907 366.752C247.386 367.084 247.946 367.312 248.585 367.437C249.684 367.65 250.757 367.484 251.805 366.938L252.31 368.23ZM245.599 362.578L252.195 363.86C252.24 363.252 252.155 362.699 251.94 362.199C251.733 361.695 251.418 361.272 250.993 360.931C250.575 360.591 250.072 360.364 249.484 360.25C248.89 360.134 248.329 360.154 247.801 360.31C247.28 360.468 246.825 360.741 246.438 361.13C246.058 361.514 245.779 361.996 245.599 362.578ZM259.246 369.35L260.312 368.214C260.661 368.633 261.022 368.995 261.394 369.3C261.766 369.604 262.156 369.852 262.563 370.044C262.976 370.237 263.406 370.377 263.854 370.464C264.506 370.591 265.096 370.593 265.624 370.47C266.158 370.348 266.6 370.123 266.949 369.792C267.3 369.456 267.524 369.035 267.622 368.531C267.729 367.981 267.661 367.497 267.417 367.078C267.181 366.654 266.842 366.266 266.399 365.915C265.957 365.564 265.48 365.219 264.969 364.881C264.541 364.592 264.119 364.291 263.702 363.978C263.285 363.665 262.917 363.325 262.597 362.958C262.285 362.585 262.058 362.166 261.916 361.701C261.774 361.236 261.761 360.706 261.877 360.112C262.025 359.351 262.347 358.717 262.843 358.21C263.34 357.703 263.958 357.353 264.699 357.158C265.446 356.965 266.264 356.955 267.152 357.128C267.753 357.245 268.342 357.442 268.918 357.72C269.495 357.991 270.039 358.332 270.549 358.743L269.591 359.989C269.194 359.641 268.764 359.348 268.299 359.112C267.841 358.877 267.375 358.713 266.902 358.621C266.34 358.512 265.826 358.512 265.36 358.62C264.902 358.723 264.519 358.921 264.21 359.212C263.909 359.499 263.715 359.865 263.628 360.313C263.532 360.811 263.594 361.258 263.816 361.652C264.044 362.048 264.364 362.416 264.775 362.754C265.195 363.088 265.641 363.42 266.114 363.751C266.564 364.064 267.005 364.388 267.437 364.724C267.877 365.055 268.26 365.421 268.586 365.823C268.92 366.22 269.162 366.664 269.312 367.158C269.461 367.651 269.474 368.214 269.351 368.847C269.194 369.658 268.851 370.331 268.322 370.865C267.795 371.393 267.128 371.754 266.321 371.949C265.52 372.144 264.625 372.146 263.634 371.954C262.765 371.785 261.965 371.483 261.233 371.049C260.502 370.615 259.839 370.049 259.246 369.35ZM271.75 378.207L270.178 377.901L272.973 363.522L274.373 363.794L274.177 365.209C274.72 364.803 275.335 364.522 276.023 364.364C276.711 364.199 277.433 364.19 278.187 364.337C279.126 364.519 279.924 364.9 280.581 365.478C281.245 366.058 281.717 366.767 281.999 367.604C282.288 368.437 282.34 369.329 282.155 370.281C281.971 371.227 281.588 372.035 281.007 372.704C280.432 373.375 279.729 373.855 278.897 374.144C278.071 374.435 277.188 374.489 276.249 374.306C275.527 374.166 274.881 373.904 274.312 373.522C273.75 373.141 273.29 372.673 272.933 372.12L271.75 378.207ZM276.404 372.844C277.075 372.974 277.698 372.94 278.274 372.74C278.852 372.534 279.336 372.19 279.728 371.709C280.127 371.23 280.393 370.645 280.527 369.955C280.662 369.258 280.635 368.616 280.444 368.028C280.254 367.434 279.93 366.934 279.472 366.526C279.021 366.12 278.462 365.853 277.798 365.723C277.165 365.6 276.566 365.63 276 365.812C275.44 365.995 274.956 366.302 274.547 366.733C274.14 367.158 273.85 367.678 273.677 368.295L273.55 368.947C273.479 369.583 273.55 370.174 273.763 370.719C273.975 371.264 274.307 371.723 274.758 372.096C275.216 372.471 275.765 372.72 276.404 372.844ZM291.174 377.008L289.822 376.746L289.962 375.46C289.523 375.845 289.006 376.116 288.412 376.272C287.819 376.422 287.187 376.432 286.516 376.302C285.826 376.168 285.235 375.914 284.744 375.54C284.254 375.159 283.899 374.702 283.677 374.168C283.462 373.636 283.413 373.069 283.53 372.468C283.653 371.836 283.927 371.312 284.353 370.897C284.786 370.477 285.317 370.186 285.945 370.023C286.58 369.861 287.265 369.852 288 369.995C288.48 370.088 288.957 370.244 289.432 370.462C289.908 370.674 290.321 370.92 290.671 371.2L290.749 370.798C290.849 370.286 290.805 369.827 290.619 369.419C290.434 369.005 290.146 368.661 289.756 368.386C289.366 368.105 288.912 367.914 288.395 367.813C287.947 367.726 287.474 367.72 286.975 367.796C286.478 367.865 285.982 368.027 285.488 368.283L285.233 366.83C285.859 366.581 286.495 366.426 287.144 366.366C287.793 366.3 288.418 366.325 289.019 366.442C289.85 366.604 290.533 366.912 291.068 367.368C291.61 367.818 291.987 368.385 292.199 369.07C292.412 369.748 292.437 370.509 292.273 371.352L291.174 377.008ZM287.073 374.918C287.565 375.014 288.036 374.999 288.484 374.874C288.933 374.749 289.323 374.52 289.653 374.186C289.984 373.846 290.214 373.413 290.343 372.887L290.375 372.724C290.077 372.381 289.721 372.093 289.309 371.861C288.904 371.623 288.475 371.46 288.021 371.372C287.312 371.234 286.684 371.291 286.138 371.543C285.598 371.796 285.276 372.188 285.173 372.718C285.108 373.05 285.146 373.369 285.285 373.675C285.431 373.982 285.659 374.245 285.968 374.464C286.276 374.683 286.645 374.835 287.073 374.918ZM295.535 377.856L293.963 377.55L295.826 367.964L297.207 368.233L296.905 370.144C297.365 369.55 297.931 369.129 298.603 368.882C299.282 368.629 300.015 368.579 300.801 368.732C300.973 368.766 301.147 368.809 301.322 368.863C301.498 368.917 301.671 368.981 301.842 369.054L301.375 370.436C301.04 370.284 300.699 370.175 300.354 370.108C299.728 369.986 299.142 370.031 298.597 370.244C298.058 370.457 297.602 370.806 297.229 371.291C296.856 371.776 296.602 372.366 296.467 373.063L295.535 377.856ZM303.166 379.339L301.594 379.034L304.389 364.654L305.961 364.96L303.993 375.083L304.918 374.318L309.947 370.709L311.922 371.093L307.202 374.493L310.662 380.796L308.62 380.4L305.885 375.431L303.606 377.077L303.166 379.339ZM314.267 381.497L312.58 381.169L315.375 366.79L317.062 367.118L315.791 373.656L323.815 375.215L325.085 368.677L326.773 369.005L323.978 383.385L322.29 383.057L323.524 376.711L315.5 375.151L314.267 381.497ZM334.695 385.468L333.343 385.205L333.484 383.919C333.044 384.305 332.527 384.576 331.933 384.732C331.34 384.882 330.708 384.892 330.037 384.762C329.347 384.627 328.756 384.373 328.265 383.999C327.775 383.619 327.42 383.162 327.199 382.628C326.984 382.095 326.935 381.529 327.052 380.928C327.175 380.295 327.449 379.772 327.874 379.357C328.307 378.937 328.838 378.646 329.467 378.483C330.102 378.321 330.787 378.311 331.522 378.454C332.001 378.547 332.478 378.703 332.953 378.922C333.429 379.133 333.842 379.38 334.192 379.66L334.271 379.257C334.37 378.746 334.327 378.287 334.141 377.879C333.956 377.465 333.668 377.121 333.277 376.846C332.887 376.564 332.434 376.373 331.916 376.273C331.469 376.186 330.996 376.18 330.497 376.255C329.999 376.325 329.503 376.487 329.009 376.742L328.754 375.29C329.38 375.04 330.017 374.885 330.665 374.826C331.315 374.76 331.94 374.785 332.541 374.902C333.371 375.063 334.054 375.372 334.589 375.827C335.132 376.278 335.509 376.845 335.721 377.53C335.934 378.208 335.958 378.968 335.794 379.812L334.695 385.468ZM330.595 383.378C331.087 383.473 331.557 383.459 332.006 383.334C332.455 383.209 332.844 382.979 333.174 382.645C333.506 382.305 333.736 381.873 333.864 381.347L333.896 381.184C333.598 380.841 333.243 380.553 332.83 380.32C332.426 380.082 331.996 379.919 331.543 379.831C330.833 379.693 330.205 379.75 329.659 380.002C329.119 380.255 328.797 380.647 328.694 381.178C328.63 381.51 328.667 381.829 328.807 382.135C328.953 382.442 329.18 382.705 329.489 382.924C329.798 383.143 330.166 383.294 330.595 383.378ZM345.719 386.178C345.154 386.592 344.526 386.875 343.833 387.025C343.142 387.17 342.429 387.17 341.694 387.027C340.742 386.842 339.928 386.459 339.251 385.876C338.582 385.295 338.1 384.584 337.805 383.745C337.517 382.906 337.465 382.014 337.649 381.068C337.834 380.116 338.217 379.308 338.797 378.645C339.384 377.976 340.097 377.498 340.936 377.21C341.781 376.923 342.68 376.873 343.632 377.058C344.36 377.199 345.018 377.466 345.605 377.859C346.192 378.252 346.67 378.746 347.038 379.341L345.907 380.146C345.637 379.722 345.285 379.369 344.849 379.085C344.42 378.803 343.943 378.611 343.419 378.509C342.748 378.378 342.121 378.415 341.537 378.62C340.961 378.82 340.472 379.156 340.068 379.628C339.671 380.101 339.405 380.683 339.271 381.373C339.137 382.064 339.165 382.706 339.354 383.3C339.55 383.895 339.877 384.396 340.335 384.803C340.801 385.206 341.369 385.472 342.04 385.602C342.565 385.704 343.082 385.705 343.592 385.606C344.103 385.499 344.559 385.303 344.96 385.016L345.719 386.178ZM349.237 388.295L347.665 387.989L350.46 373.61L352.032 373.915L350.064 384.038L350.989 383.273L356.018 379.664L357.993 380.048L353.273 383.448L356.734 389.752L354.692 389.355L351.957 384.386L349.677 386.032L349.237 388.295ZM358.142 389.16L358.841 387.764C359.029 388.026 359.254 388.265 359.517 388.482C359.78 388.699 360.066 388.884 360.374 389.037C360.684 389.183 361.005 389.289 361.338 389.353C361.932 389.469 362.437 389.431 362.852 389.24C363.267 389.049 363.516 388.742 363.598 388.32C363.657 388.014 363.61 387.743 363.457 387.507C363.312 387.267 363.1 387.043 362.822 386.836C362.543 386.63 362.242 386.425 361.916 386.223C361.52 385.973 361.132 385.702 360.751 385.409C360.37 385.116 360.073 384.77 359.859 384.37C359.651 383.972 359.602 383.491 359.711 382.929C359.816 382.392 360.04 381.952 360.386 381.608C360.731 381.264 361.165 381.03 361.686 380.905C362.214 380.783 362.791 380.782 363.418 380.904C364.364 381.088 365.247 381.505 366.069 382.155L365.324 383.483C365.145 383.309 364.932 383.145 364.683 382.99C364.436 382.829 364.178 382.693 363.908 382.581C363.637 382.469 363.378 382.388 363.129 382.34C362.662 382.249 362.264 382.284 361.934 382.446C361.606 382.601 361.406 382.857 361.337 383.215C361.297 383.42 361.318 383.619 361.399 383.814C361.489 384.004 361.658 384.209 361.907 384.43C362.155 384.651 362.509 384.912 362.968 385.213C363.374 385.478 363.769 385.767 364.152 386.08C364.537 386.387 364.835 386.747 365.047 387.16C365.266 387.567 365.321 388.055 365.21 388.624C365.101 389.186 364.854 389.656 364.469 390.032C364.092 390.403 363.614 390.658 363.036 390.798C362.465 390.939 361.835 390.942 361.144 390.808C360 390.586 359 390.036 358.142 389.16ZM376.941 393.68L375.254 393.352L377.758 380.468L373.138 379.57L373.429 378.074L384.357 380.199L384.066 381.694L379.446 380.796L376.941 393.68ZM390.486 395.089C389.119 395.772 387.72 395.974 386.289 395.696C385.292 395.502 384.441 395.104 383.735 394.503C383.03 393.902 382.521 393.173 382.21 392.316C381.907 391.455 381.85 390.538 382.038 389.567C382.22 388.634 382.592 387.844 383.156 387.198C383.72 386.545 384.411 386.079 385.228 385.8C386.045 385.521 386.92 385.472 387.853 385.653C388.812 385.84 389.61 386.234 390.25 386.836C390.895 387.439 391.343 388.189 391.593 389.086C391.843 389.984 391.863 390.969 391.655 392.043L391.595 392.35L383.571 390.79C383.577 391.375 383.712 391.909 383.977 392.391C384.241 392.874 384.61 393.28 385.083 393.611C385.562 393.943 386.121 394.171 386.76 394.295C387.859 394.509 388.933 394.343 389.981 393.797L390.486 395.089ZM383.775 389.437L390.37 390.719C390.415 390.111 390.331 389.557 390.116 389.058C389.909 388.553 389.593 388.131 389.169 387.789C388.751 387.45 388.248 387.222 387.66 387.108C387.065 386.993 386.504 387.013 385.977 387.169C385.455 387.326 385.001 387.599 384.614 387.988C384.234 388.372 383.954 388.855 383.775 389.437ZM400.763 398.31L399.411 398.048L399.552 396.762C399.112 397.147 398.595 397.418 398.001 397.574C397.408 397.724 396.776 397.734 396.105 397.604C395.415 397.47 394.824 397.216 394.333 396.842C393.844 396.461 393.488 396.004 393.267 395.47C393.052 394.938 393.003 394.371 393.12 393.77C393.243 393.138 393.517 392.614 393.942 392.199C394.376 391.779 394.906 391.488 395.535 391.325C396.17 391.163 396.855 391.154 397.59 391.297C398.069 391.39 398.546 391.546 399.021 391.764C399.497 391.976 399.91 392.222 400.26 392.502L400.339 392.1C400.438 391.588 400.395 391.129 400.209 390.721C400.024 390.307 399.736 389.963 399.345 389.688C398.955 389.407 398.502 389.216 397.984 389.115C397.537 389.028 397.064 389.022 396.565 389.098C396.067 389.167 395.571 389.329 395.077 389.585L394.822 388.132C395.448 387.883 396.085 387.728 396.733 387.668C397.383 387.602 398.008 387.627 398.609 387.744C399.439 387.906 400.122 388.214 400.657 388.67C401.2 389.12 401.577 389.687 401.789 390.372C402.002 391.05 402.026 391.811 401.862 392.654L400.763 398.31ZM396.663 396.22C397.155 396.316 397.625 396.301 398.074 396.176C398.523 396.051 398.912 395.822 399.242 395.488C399.574 395.148 399.804 394.715 399.932 394.189L399.964 394.026C399.666 393.683 399.311 393.395 398.898 393.163C398.494 392.925 398.064 392.762 397.611 392.674C396.901 392.536 396.273 392.593 395.727 392.845C395.187 393.098 394.865 393.49 394.762 394.02C394.698 394.352 394.735 394.671 394.875 394.977C395.021 395.284 395.248 395.547 395.557 395.766C395.866 395.986 396.234 396.137 396.663 396.22ZM418.728 401.802L417.155 401.497L418.149 396.387C418.349 395.358 418.277 394.515 417.934 393.858C417.598 393.196 417.021 392.786 416.203 392.627C415.379 392.466 414.674 392.631 414.088 393.121C413.51 393.605 413.122 394.356 412.924 395.372L411.931 400.481L410.359 400.176L411.352 395.066C411.552 394.037 411.48 393.194 411.137 392.537C410.795 391.874 410.215 391.463 409.397 391.304C408.573 391.143 407.868 391.308 407.282 391.798C406.703 392.282 406.315 393.033 406.118 394.049L405.125 399.158L403.553 398.853L405.416 389.266L406.701 389.516L406.434 391.245C406.875 390.681 407.402 390.292 408.014 390.08C408.633 389.862 409.32 389.826 410.074 389.973C410.879 390.129 411.531 390.445 412.029 390.92C412.534 391.389 412.862 391.987 413.013 392.713C413.459 392.09 414.004 391.659 414.647 391.419C415.299 391.174 416.027 391.13 416.832 391.286C418.027 391.519 418.883 392.08 419.4 392.969C419.924 393.854 420.055 394.974 419.792 396.329L418.728 401.802Z" fill="white"/>
<line x1="143.397" y1="300.505" x2="479.757" y2="365.887" stroke="white"/>
<line x1="131.397" y1="356.505" x2="467.757" y2="421.887" stroke="white"/>
<line x1="117.397" y1="421.505" x2="445.256" y2="485.235" stroke="white"/>
<defs>
<filter id="filter0_d_828_166" x="72.1432" y="143.5" width="464.425" height="418.594" filterUnits="userSpaceOnUse" color-interpolation-filters="sRGB">
<feFlood flood-opacity="0" result="BackgroundImageFix"/>
<feColorMatrix in="SourceAlpha" type="matrix" values="0 0 0 0 0 0 0 0 0 0 0 0 0 0 0 0 0 0 127 0" result="hardAlpha"/>
<feOffset dy="4"/>
<feGaussianBlur stdDeviation="2"/>
<feComposite in2="hardAlpha" operator="out"/>
<feColorMatrix type="matrix" values="0 0 0 0 0 0 0 0 0 0 0 0 0 0 0 0 0 0 0.25 0"/>
<feBlend mode="normal" in2="BackgroundImageFix" result="effect1_dropShadow_828_166"/>
<feBlend mode="normal" in="SourceGraphic" in2="effect1_dropShadow_828_166" result="shape"/>
</filter>
</defs>
</svg>
