<svg width="1173" height="1220" viewBox="0 0 1173 1220" fill="none" xmlns="http://www.w3.org/2000/svg">
<path d="M498.5 0H598.551H700L1173 1211C731.658 1227.97 474.274 1214.98 0 1211L498.5 0Z" fill="url(#paint0_linear_915_2)"/>
<circle cx="1143.67" cy="753" r="23.5" fill="url(#paint1_linear_915_2)" stroke="#FFE3BE" stroke-width="3"/>
<path d="M1144.23 800.875C1149.13 800.875 1153.95 801.576 1158.06 802.953C1162.18 804.336 1165.48 806.362 1167.49 808.925C1167.49 808.931 1167.51 808.958 1167.54 809.015C1167.57 809.086 1167.62 809.188 1167.67 809.326C1167.77 809.605 1167.88 809.984 1168 810.476C1168.23 811.458 1168.45 812.792 1168.66 814.474C1169.08 817.832 1169.45 822.457 1169.75 828.183C1170.37 839.628 1170.75 855.371 1170.96 873.963C1171.39 911.14 1171.1 959.642 1170.54 1007.79C1169.98 1055.95 1169.14 1103.74 1168.43 1139.49C1168.08 1157.37 1167.76 1172.24 1167.54 1182.64C1167.42 1187.84 1167.33 1191.92 1167.27 1194.7C1167.23 1196.09 1167.21 1197.16 1167.19 1197.88C1167.19 1198.02 1167.19 1198.14 1167.18 1198.26C1157.73 1205.66 1150.59 1209.36 1143.64 1209.48C1136.71 1209.6 1129.58 1206.16 1120.15 1198.28C1120.14 1198.16 1120.14 1198.02 1120.14 1197.87C1120.12 1197.15 1120.09 1196.09 1120.05 1194.7C1119.98 1191.91 1119.87 1187.83 1119.74 1182.63C1119.47 1172.23 1119.1 1157.37 1118.69 1139.49C1117.87 1103.73 1116.89 1055.94 1116.23 1007.79C1115.57 959.639 1115.25 911.139 1115.74 873.965C1115.98 855.375 1116.43 839.636 1117.15 828.196C1117.51 822.472 1117.93 817.854 1118.42 814.504C1118.67 812.826 1118.92 811.501 1119.19 810.528C1119.32 810.042 1119.45 809.671 1119.57 809.4C1119.62 809.266 1119.68 809.169 1119.72 809.101C1119.75 809.042 1119.77 809.016 1119.77 809.012C1124.6 803.722 1134.33 800.875 1144.23 800.875Z" fill="url(#paint2_linear_915_2)" stroke="#FFE3BE" stroke-width="3"/>
<circle cx="29.666" cy="753" r="23.5" fill="url(#paint3_linear_915_2)" stroke="#FFE3BE" stroke-width="3"/>
<path d="M30.2285 800.875C35.1265 800.875 39.9466 801.576 44.0566 802.953C48.1838 804.336 51.4795 806.362 53.4854 808.925C53.4896 808.931 53.5075 808.958 53.5361 809.015C53.5725 809.086 53.6179 809.188 53.6689 809.326C53.772 809.605 53.8831 809.984 53.998 810.476C54.2279 811.458 54.4509 812.792 54.6621 814.474C55.084 817.832 55.446 822.457 55.7529 828.183C56.3665 839.628 56.753 855.371 56.9639 873.963C57.3856 911.14 57.1045 959.642 56.542 1007.79C55.9795 1055.95 55.1357 1103.74 54.4326 1139.49C54.0811 1157.37 53.7646 1172.24 53.5361 1182.64C53.4219 1187.84 53.3293 1191.92 53.2656 1194.7C53.2338 1196.09 53.2091 1197.16 53.1924 1197.88C53.1891 1198.02 53.1863 1198.14 53.1836 1198.26C43.7309 1205.66 36.5949 1209.36 29.6416 1209.48C22.7109 1209.6 15.5835 1206.16 6.14746 1198.28C6.14415 1198.16 6.14089 1198.02 6.13672 1197.87C6.11718 1197.15 6.08794 1196.09 6.05078 1194.7C5.97645 1191.91 5.86863 1187.83 5.73535 1182.63C5.46878 1172.23 5.09957 1157.37 4.68945 1139.49C3.8692 1103.73 2.88566 1055.94 2.22949 1007.79C1.57329 959.639 1.24539 911.139 1.7373 873.965C1.9833 855.375 2.43398 839.636 3.14941 828.196C3.50738 822.472 3.92997 817.854 4.4209 814.504C4.66677 812.826 4.92404 811.501 5.18945 810.528C5.32207 810.042 5.44955 809.671 5.56641 809.4C5.62422 809.266 5.6754 809.169 5.71582 809.101C5.75018 809.042 5.77075 809.016 5.77441 809.012C10.6044 803.722 20.3322 800.875 30.2285 800.875Z" fill="url(#paint4_linear_915_2)" stroke="#FFE3BE" stroke-width="3"/>
<defs>
<linearGradient id="paint0_linear_915_2" x1="592.5" y1="5.28336e-07" x2="592.5" y2="1211" gradientUnits="userSpaceOnUse">
<stop stop-color="#D76F00"/>
<stop offset="0.25" stop-color="#B11622"/>
<stop offset="0.5" stop-color="#D41928"/>
<stop offset="1" stop-color="#EF2427"/>
</linearGradient>
<linearGradient id="paint1_linear_915_2" x1="1143.67" y1="728" x2="1143.37" y2="764.192" gradientUnits="userSpaceOnUse">
<stop stop-color="#FDCB8B"/>
<stop offset="1" stop-color="#FCA129"/>
</linearGradient>
<linearGradient id="paint2_linear_915_2" x1="1143.33" y1="799.375" x2="1127.36" y2="1087.77" gradientUnits="userSpaceOnUse">
<stop stop-color="#FDCB8B"/>
<stop offset="1" stop-color="#FCA129"/>
</linearGradient>
<linearGradient id="paint3_linear_915_2" x1="29.666" y1="728" x2="29.3717" y2="764.192" gradientUnits="userSpaceOnUse">
<stop stop-color="#FDCB8B"/>
<stop offset="1" stop-color="#FCA129"/>
</linearGradient>
<linearGradient id="paint4_linear_915_2" x1="29.3335" y1="799.375" x2="13.3564" y2="1087.77" gradientUnits="userSpaceOnUse">
<stop stop-color="#FDCB8B"/>
<stop offset="1" stop-color="#FCA129"/>
</linearGradient>
</defs>
</svg>
