<svg width="1550" height="592" viewBox="0 0 1550 592" fill="none" xmlns="http://www.w3.org/2000/svg">
<path d="M159.385 121L422.845 439.053L263.5 396.5L276.46 560.312L12.9996 242.259L159.385 121Z" fill="#A43D3D"/>
<path d="M1487.54 325.595L1171.21 591.115L1212.72 431.497L1049 445.521L1365.34 180L1487.54 325.595Z" fill="#A43D3D"/>
<path d="M0 46.6191C301.317 135.804 461.317 144.369 757.5 56.3478L765 309.777C464.996 376.891 297.44 379.85 0 309.777V46.6191Z" fill="#EF2427"/>
<path d="M1475.98 386C1187.69 270.15 1015.55 257.824 691 324.25L756.665 56.8909C1079.67 5.23869 1248.86 20.0055 1537.65 115.928L1475.98 386Z" fill="#EF2427"/>
<g filter="url(#filter0_d_915_3)">
<path d="M1218.64 79.126L1209.42 142.76L1267.08 171.198L1203.71 182.088L1194.49 245.721L1164.55 188.818L1101.18 199.707L1146.05 153.649L1116.11 96.746L1173.77 125.184L1218.64 79.126Z" fill="url(#paint0_linear_915_3)"/>
</g>
<g filter="url(#filter1_d_915_3)">
<path d="M632.438 254H600.602L542.203 107.516H573.746L616.52 219.625L659.098 107.516H690.738L632.438 254ZM735.875 254V107.516H765.953V254H735.875ZM819.781 254V107.516H869.879C882.184 107.516 892.796 109.534 901.715 113.57C910.699 117.542 917.6 123.238 922.418 130.66C927.236 138.017 929.645 146.806 929.645 157.027C929.645 167.249 927.236 176.103 922.418 183.59C917.6 191.012 910.732 196.741 901.812 200.777C892.958 204.814 882.411 206.832 870.172 206.832H849.859V254H819.781ZM849.859 180.465H867.047C877.268 180.465 885.113 178.447 890.582 174.41C896.116 170.309 898.883 164.514 898.883 157.027C898.883 149.671 896.116 143.974 890.582 139.938C885.113 135.836 877.268 133.785 867.047 133.785H849.859V180.465Z" fill="white"/>
</g>
<g filter="url(#filter2_n_915_3)">
<path d="M409.619 363.016C398.321 355.611 381.191 361.768 371.358 376.77C361.526 391.771 362.715 409.935 374.014 417.341L371.424 421.291C360.125 413.886 342.994 420.043 333.162 435.045C323.483 449.812 324.484 467.644 335.295 475.261L335.818 475.616L329.668 484.999L97.5587 332.868L105.674 320.487C116.374 322.89 129.536 316.532 137.685 304.099C145.835 291.666 146.413 277.059 139.94 268.207L143.87 262.211C154.57 264.614 167.732 258.257 175.881 245.824C184.03 233.391 184.608 218.784 178.135 209.932L183.337 201.995L415.446 354.127L409.619 363.016Z" fill="#FCA129"/>
<rect x="213.623" y="235.611" width="190" height="7" transform="rotate(33.2421 213.623 235.611)" fill="#FFC77E"/>
<rect x="320.677" y="305.777" width="62" height="7" transform="rotate(33.2421 320.677 305.777)" fill="#FFEBD1"/>
<rect x="146.745" y="337.647" width="190" height="7" transform="rotate(33.2421 146.745 337.647)" fill="#FFC77E"/>
<path d="M179.074 286.499C188.58 297.224 236.974 269.067 212.612 240.928M146.557 341.708C156.062 352.433 203.436 314.639 179.073 286.5" stroke="#FFC77E" stroke-width="5"/>
<path d="M335.011 397.884C325.506 387.159 277.111 415.316 301.474 443.455M367.529 342.674C358.023 331.949 310.65 369.744 335.012 397.883" stroke="#FFEBD1" stroke-width="5"/>
<path d="M199.58 213.255L286.98 270.539L306.572 470.5L209.136 406.638L199.58 213.255Z" fill="#FFC77E" fill-opacity="0.5"/>
</g>
<path d="M459.813 407.427C455.4 394.658 438.081 389.056 421.128 394.915C404.175 400.773 394.01 415.873 398.422 428.642L393.958 430.185C389.545 417.416 372.224 411.814 355.271 417.672C338.584 423.439 328.473 438.162 332.37 450.799L332.566 451.4L321.962 455.064L231.317 192.763L245.309 187.927C252.307 196.372 266.609 199.389 280.66 194.534C294.71 189.678 304.099 178.474 304.39 167.511L311.165 165.169C318.163 173.614 332.465 176.631 346.515 171.776C360.565 166.92 369.955 155.716 370.245 144.753L379.214 141.653L469.859 403.955L459.813 407.427Z" fill="#FCA129"/>
<rect x="382.625" y="186.771" width="190" height="7" transform="rotate(70.9361 382.625 186.771)" fill="#FFC77E"/>
<rect x="424.432" y="307.751" width="62" height="7" transform="rotate(70.9361 424.432 307.751)" fill="#FFEBD1"/>
<rect x="267.316" y="226.619" width="190" height="7" transform="rotate(70.9361 267.316 226.619)" fill="#FFC77E"/>
<path d="M324.172 205.913C325.136 220.212 380.646 227.522 378.574 190.36M264.683 229.718C265.647 244.016 326.243 243.076 324.171 205.914" stroke="#FFC77E" stroke-width="5"/>
<path d="M379.457 389.398C378.493 375.099 322.983 367.789 325.055 404.952M438.945 365.594C437.981 351.295 377.386 352.235 379.458 389.398" stroke="#FFEBD1" stroke-width="5"/>
<path d="M385.183 160.495L419.315 259.264L312.552 429.47L274.501 319.359L385.183 160.495Z" fill="#FFC77E" fill-opacity="0.5"/>
<defs>
<filter id="filter0_d_915_3" x="1097.18" y="79.126" width="173.905" height="174.596" filterUnits="userSpaceOnUse" color-interpolation-filters="sRGB">
<feFlood flood-opacity="0" result="BackgroundImageFix"/>
<feColorMatrix in="SourceAlpha" type="matrix" values="0 0 0 0 0 0 0 0 0 0 0 0 0 0 0 0 0 0 127 0" result="hardAlpha"/>
<feOffset dy="4"/>
<feGaussianBlur stdDeviation="2"/>
<feComposite in2="hardAlpha" operator="out"/>
<feColorMatrix type="matrix" values="0 0 0 0 0 0 0 0 0 0 0 0 0 0 0 0 0 0 0.25 0"/>
<feBlend mode="normal" in2="BackgroundImageFix" result="effect1_dropShadow_915_3"/>
<feBlend mode="normal" in="SourceGraphic" in2="effect1_dropShadow_915_3" result="shape"/>
</filter>
<filter id="filter1_d_915_3" x="542.203" y="107.516" width="387.441" height="166.484" filterUnits="userSpaceOnUse" color-interpolation-filters="sRGB">
<feFlood flood-opacity="0" result="BackgroundImageFix"/>
<feColorMatrix in="SourceAlpha" type="matrix" values="0 0 0 0 0 0 0 0 0 0 0 0 0 0 0 0 0 0 127 0" result="hardAlpha"/>
<feOffset dy="20"/>
<feComposite in2="hardAlpha" operator="out"/>
<feColorMatrix type="matrix" values="0 0 0 0 0 0 0 0 0 0 0 0 0 0 0 0 0 0 0.5 0"/>
<feBlend mode="normal" in2="BackgroundImageFix" result="effect1_dropShadow_915_3"/>
<feBlend mode="normal" in="SourceGraphic" in2="effect1_dropShadow_915_3" result="shape"/>
</filter>
<filter id="filter2_n_915_3" x="97.5587" y="201.995" width="317.887" height="283.004" filterUnits="userSpaceOnUse" color-interpolation-filters="sRGB">
<feFlood flood-opacity="0" result="BackgroundImageFix"/>
<feBlend mode="normal" in="SourceGraphic" in2="BackgroundImageFix" result="shape"/>
<feTurbulence type="fractalNoise" baseFrequency="2 2" stitchTiles="stitch" numOctaves="3" result="noise" seed="43" />
<feColorMatrix in="noise" type="luminanceToAlpha" result="alphaNoise" />
<feComponentTransfer in="alphaNoise" result="coloredNoise1">
<feFuncA type="discrete" tableValues="1 1 1 1 1 1 1 1 1 1 1 1 1 1 1 1 1 1 1 1 1 1 1 1 1 1 1 1 1 1 1 1 1 1 1 1 1 1 1 1 1 1 1 1 1 1 1 1 1 1 1 0 0 0 0 0 0 0 0 0 0 0 0 0 0 0 0 0 0 0 0 0 0 0 0 0 0 0 0 0 0 0 0 0 0 0 0 0 0 0 0 0 0 0 0 0 0 0 0 0 "/>
</feComponentTransfer>
<feComposite operator="in" in2="shape" in="coloredNoise1" result="noise1Clipped" />
<feFlood flood-color="rgba(0, 0, 0, 0.25)" result="color1Flood" />
<feComposite operator="in" in2="noise1Clipped" in="color1Flood" result="color1" />
<feMerge result="effect1_noise_915_3">
<feMergeNode in="shape" />
<feMergeNode in="color1" />
</feMerge>
</filter>
<linearGradient id="paint0_linear_915_3" x1="1218.64" y1="79.126" x2="1140.36" y2="237.873" gradientUnits="userSpaceOnUse">
<stop stop-color="#FFC77E"/>
<stop offset="1" stop-color="#FCA129"/>
</linearGradient>
</defs>
</svg>
