<svg width="231" height="484" viewBox="0 0 231 484" fill="none" xmlns="http://www.w3.org/2000/svg">
<path d="M9.74664 357.528C31.6766 343.543 202.164 343.542 221.972 357.528C241.78 371.513 221.972 484 221.972 484H9.74664C9.74664 484 -12.1833 371.513 9.74664 357.528Z" fill="#803909"/>
<ellipse cx="115.152" cy="34.0502" rx="36.0783" ry="34.0502" fill="#FCA129"/>
<path d="M161.841 109.447C161.841 134.969 139.281 155.658 112.323 155.658C85.3646 155.658 63.5108 134.969 63.5108 109.447C51.2336 85.1972 71.8513 64.6315 112.323 63.2361C155.218 63.8319 177.483 84.5836 161.841 109.447Z" fill="#FCA129"/>
<path d="M65.6849 147.146C65.6849 121.624 88.2457 100.935 115.204 100.935C142.162 100.935 164.016 121.624 164.016 147.146C176.293 171.396 155.675 191.961 115.204 193.357C72.3087 192.761 50.0431 172.009 65.6849 147.146Z" fill="#FCA129"/>
<path d="M158.201 256.593C158.201 312.338 133.628 357.527 113.668 357.527C93.7082 357.527 71.2724 312.338 71.2724 256.593C62.1823 203.626 83.7029 158.706 113.668 155.658C145.428 156.96 169.783 202.286 158.201 256.593Z" fill="#FCA129"/>
<path d="M86.3905 209.177C92.7576 201.272 94.1743 201.88 94.1743 201.88V324.704C94.1743 324.704 92.9074 320.464 89.2217 314.368C85.5359 308.271 80.0235 217.081 86.3905 209.177Z" fill="#FFC77E"/>
<path d="M72.8643 80.8694C77.0743 78.9912 74.9859 79.0478 74.9859 79.0478V108.231C74.9859 108.231 74.1482 107.224 71.7111 105.775C69.274 104.326 68.6543 82.7475 72.8643 80.8694Z" fill="#FFC77E"/>
<path d="M89.3359 15.2011C93.5459 13.323 98.2891 13.3771 98.2891 13.3771L89.3357 24.3218V42.5621C89.3357 42.5621 88.498 41.5547 86.0609 40.106C83.6238 38.6574 85.126 17.0792 89.3359 15.2011Z" fill="#FFC77E"/>
<path d="M71.8936 151.4C75.6929 147.146 77.3503 149.579 77.3503 149.579V178.762C77.3503 178.762 73.1775 177.755 70.7404 176.306C68.3033 174.857 68.0943 155.655 71.8936 151.4Z" fill="#FFC77E"/>
<path d="M144.818 181.058C138.917 182.8 139.099 179.985 139.099 179.985L157.854 155.658C157.854 155.658 160.685 158.479 161.786 160.844C162.886 163.209 150.719 179.315 144.818 181.058Z" fill="#FFC77E"/>
</svg>
