<svg width="1057" height="600" viewBox="0 0 1057 600" fill="none" xmlns="http://www.w3.org/2000/svg">
<g clip-path="url(#clip0_145_70)">
<path d="M57.3132 411.451L638.39 411.45L451.688 549.71H-137.601L57.3132 411.451Z" fill="#A54848"/>
<path d="M638.629 52.1475L548.006 98.543L638.629 144.937V146.549L548.006 189.878L638.629 233.206V233.851L548.006 277.18L638.629 320.508V321.481L548.006 366.854L638.629 412.226V413.826H55.0332V50.3838H638.629V52.1475Z" fill="#7A1E1E"/>
<path d="M58.7363 50.3802L639.814 50.3799L443.148 188.64L-137.364 185.844L58.7363 50.3802Z" fill="#B92A2A"/>
<path d="M447.343 186.692L356.32 233.291L447.343 279.89V281.106L356.32 324.626L447.343 368.146V368.408L356.32 411.929L447.343 455.448V456.03L356.32 501.603L447.343 547.175V549.329H-136.253V185.887H447.343V186.692Z" fill="#A52424"/>
<path d="M417.29 531.969H-137.601V515.837H384.789L417.29 531.969Z" fill="#F3F3F3"/>
<path d="M379.095 490.216L-172 488.792V472.66H415.392L379.095 490.216Z" fill="#F3F3F3"/>
<path d="M395.464 430.434L420.848 442.77L-137.601 445.616V429.484L395.464 430.434Z" fill="#F3F3F3"/>
<path d="M409.46 386.782L392.854 394.848L-137.601 402.439V386.308L409.46 386.782Z" fill="#F3F3F3"/>
<path d="M403.055 346.215L422.983 356.416L-137.601 359.263V343.131L403.055 346.215Z" fill="#F3F3F3"/>
<path d="M381.705 312.29L-137.601 316.086V299.954H407.8L381.705 312.29Z" fill="#F3F3F3"/>
<path d="M430.1 271.012L-137.601 272.909V256.777H402.343L430.1 271.012Z" fill="#F3F3F3"/>
<path d="M370.554 226.412L-137.601 229.733V213.602H392.854L370.554 226.412Z" fill="#F3F3F3"/>
<path d="M783.349 421.504C793.107 426.039 799.137 440.778 799.137 440.778C799.137 440.778 828.793 431.329 824.684 447.226C820.574 463.124 799.137 463.124 799.137 463.124C799.137 463.124 824.684 483.249 808.895 488.846C793.107 494.444 793.107 483.059 783.349 484.429C773.591 485.799 767.56 488.846 757.803 488.846C748.045 488.846 767.56 463.124 767.56 463.124C767.56 463.124 742.721 463.124 742.014 447.226C741.307 431.329 767.559 444.557 767.559 444.557C767.559 444.557 773.591 416.968 783.349 421.504Z" fill="#FFC77E"/>
<path d="M783.536 484.24C800.547 484.24 814.337 471.465 814.337 455.707C814.337 439.948 800.547 427.173 783.536 427.173C766.525 427.173 752.734 439.948 752.734 455.707C752.734 471.465 766.525 484.24 783.536 484.24Z" fill="#FFC77E"/>
<path d="M961.235 421.283C966.718 423.831 970.107 432.114 970.107 432.114C970.107 432.114 986.771 426.804 984.462 435.737C982.152 444.67 970.107 444.67 970.107 444.67C970.107 444.67 984.462 455.979 975.59 459.124C966.718 462.27 966.718 455.872 961.235 456.642C955.752 457.412 952.363 459.124 946.88 459.124C941.397 459.124 952.363 444.67 952.363 444.67C952.363 444.67 938.405 444.67 938.008 435.737C937.611 426.804 952.362 434.237 952.362 434.237C952.362 434.237 955.752 418.735 961.235 421.283Z" fill="#FFC77E"/>
<path d="M961.34 456.536C970.899 456.536 978.648 449.358 978.648 440.502C978.648 431.647 970.899 424.469 961.34 424.469C951.781 424.469 944.032 431.647 944.032 440.502C944.032 449.358 951.781 456.536 961.34 456.536Z" fill="#FFC77E"/>
<path d="M1051.13 473.384C1049.78 479.281 1042.39 484.329 1042.39 484.329C1042.39 484.329 1051.07 499.521 1041.85 499.13C1032.62 498.739 1030.1 486.954 1030.1 486.954C1030.1 486.954 1022.04 503.363 1017.11 495.341C1012.18 487.319 1018.44 485.982 1016.54 480.778C1014.64 475.575 1012.25 472.618 1011.11 467.253C1009.96 461.889 1026.39 469.595 1026.39 469.595C1026.39 469.595 1023.47 455.94 1032.13 453.683C1040.79 451.426 1036.6 467.413 1036.6 467.413C1036.6 467.413 1052.48 467.487 1051.13 473.384Z" fill="#FFC77E"/>
<path d="M1016.66 480.859C1018.66 490.211 1027.31 496.291 1035.97 494.439C1044.63 492.587 1050.04 483.505 1048.04 474.153C1046.04 464.802 1037.39 458.722 1028.73 460.574C1020.07 462.425 1014.67 471.508 1016.66 480.859Z" fill="#FFC77E"/>
<path d="M472.292 417.282C480.35 424.413 481.924 440.261 481.924 440.261C481.924 440.261 513.043 439.667 504.568 453.731C496.093 467.795 475.547 461.677 475.547 461.677C475.547 461.677 494.289 488.255 477.559 489.115C460.83 489.974 464.079 479.063 454.336 477.591C444.593 476.119 437.943 477.319 428.591 474.535C419.239 471.75 445.283 452.666 445.283 452.666C445.283 452.666 421.477 445.578 425.336 430.14C429.195 414.701 450.581 434.872 450.581 434.872C450.581 434.872 464.234 410.151 472.292 417.282Z" fill="#FFE5C3"/>
<path d="M461.884 479.511C474.087 483.144 486.852 476.44 490.396 464.538C493.94 452.635 486.921 440.04 474.718 436.407C462.515 432.774 449.75 439.477 446.206 451.38C442.662 463.283 449.681 475.877 461.884 479.511Z" fill="#FFE5C3"/>
<path d="M551.292 339.282C559.35 346.413 560.924 362.261 560.924 362.261C560.924 362.261 592.043 361.667 583.568 375.731C575.093 389.795 554.547 383.677 554.547 383.677C554.547 383.677 573.288 410.255 556.559 411.115C539.83 411.974 543.078 401.063 533.335 399.591C523.593 398.119 516.943 399.319 507.591 396.535C498.239 393.75 524.283 374.666 524.283 374.666C524.283 374.666 500.477 367.578 504.336 352.14C508.195 336.701 529.58 356.872 529.58 356.872C529.58 356.872 543.234 332.151 551.292 339.282Z" fill="#C6822A"/>
<path d="M540.884 401.511C553.087 405.144 565.852 398.44 569.396 386.538C572.94 374.635 565.921 362.04 553.718 358.407C541.515 354.774 528.75 361.477 525.206 373.38C521.662 385.283 528.681 397.877 540.884 401.511Z" fill="#C6822A"/>
<path d="M688.078 363.868C696.136 370.999 697.71 386.847 697.71 386.847C697.71 386.847 728.829 386.253 720.354 400.317C711.878 414.381 691.333 408.263 691.333 408.263C691.333 408.263 710.074 434.841 693.345 435.701C676.615 436.56 679.864 425.649 670.121 424.177C660.378 422.705 653.729 423.905 644.377 421.121C635.025 418.336 661.069 399.252 661.069 399.252C661.069 399.252 637.263 392.164 641.122 376.726C644.981 361.287 666.366 381.457 666.366 381.457C666.366 381.457 680.02 356.737 688.078 363.868Z" fill="#FFC77E"/>
<path d="M677.67 426.097C689.873 429.73 702.638 423.026 706.183 411.124C709.727 399.221 702.707 386.626 690.504 382.993C678.302 379.359 665.536 386.063 661.992 397.966C658.448 409.869 665.467 422.463 677.67 426.097Z" fill="#FFC77E"/>
<path d="M609.845 430.384C617.903 437.515 619.477 453.362 619.477 453.362C619.477 453.362 650.596 452.769 642.121 466.833C633.646 480.896 613.1 474.779 613.1 474.779C613.1 474.779 631.841 501.357 615.112 502.217C598.383 503.076 601.631 492.165 591.888 490.693C582.146 489.221 575.496 490.421 566.144 487.636C556.792 484.852 582.836 465.768 582.836 465.768C582.836 465.768 559.03 458.68 562.889 443.241C566.748 427.803 588.133 447.973 588.133 447.973C588.133 447.973 601.787 423.253 609.845 430.384Z" fill="#FFEBD1"/>
<path d="M599.437 492.612C611.64 496.246 624.405 489.542 627.949 477.639C631.493 465.736 624.474 453.142 612.271 449.508C600.068 445.875 587.303 452.579 583.759 464.482C580.215 476.384 587.234 488.979 599.437 492.612Z" fill="#FFEBD1"/>
<path d="M452.29 359.282C460.348 366.413 461.922 382.261 461.922 382.261C461.922 382.261 493.041 381.667 484.566 395.731C476.09 409.795 455.545 403.677 455.545 403.677C455.545 403.677 474.286 430.255 457.557 431.115C440.827 431.974 444.076 421.063 434.333 419.591C424.59 418.119 417.941 419.319 408.589 416.535C399.236 413.75 425.281 394.666 425.281 394.666C425.281 394.666 401.475 387.578 405.334 372.14C409.192 356.701 430.578 376.872 430.578 376.872C430.578 376.872 444.232 352.151 452.29 359.282Z" fill="#C6822A"/>
<path d="M441.882 421.511C454.085 425.144 466.85 418.44 470.394 406.538C473.938 394.635 466.919 382.04 454.716 378.407C442.513 374.774 429.748 381.477 426.204 393.38C422.66 405.283 429.679 417.877 441.882 421.511Z" fill="#C6822A"/>
<path d="M539.606 391.34C537.455 401.884 524.515 411.165 524.515 411.165C524.515 411.165 540.578 437.825 524.161 437.51C507.744 437.196 502.777 416.342 502.777 416.342C502.777 416.342 489.119 445.856 480.015 431.795C470.911 417.733 481.986 415.095 478.393 405.92C474.8 396.745 470.438 391.584 468.177 382.092C465.916 372.6 495.461 385.625 495.461 385.625C495.461 385.625 489.706 361.461 505.007 357.09C520.308 352.719 513.522 381.322 513.522 381.322C513.522 381.322 541.757 380.797 539.606 391.34Z" fill="#FFC77E"/>
<path d="M478.621 406.058C482.562 422.607 498.185 433.062 513.515 429.411C528.845 425.759 538.077 409.385 534.136 392.836C530.194 376.288 514.572 365.833 499.242 369.484C483.912 373.135 474.679 389.51 478.621 406.058Z" fill="#FFC77E"/>
<path d="M478.621 406.058C482.562 422.607 498.185 433.062 513.515 429.411C528.845 425.759 538.077 409.385 534.136 392.836C530.194 376.288 514.572 365.833 499.242 369.484C483.912 373.135 474.679 389.51 478.621 406.058Z" fill="#FFC77E"/>
<path d="M602.083 425.349C591.328 425.7 579.301 415.261 579.301 415.261C579.301 415.261 557.089 437.064 553.591 421.021C550.093 404.978 569.228 395.315 569.228 395.315C569.228 395.315 542.021 393.194 553.591 381.081C565.161 368.967 565.625 374.801 573.717 369.18C581.81 363.559 584.592 366.234 593.302 361.835C602.012 357.437 597.415 381.081 597.415 381.081C597.415 381.081 607.802 373.096 615.6 386.968C623.397 400.84 607.474 401.518 607.474 401.518C607.474 401.518 612.838 424.999 602.083 425.349Z" fill="#FFC77E"/>
<path d="M578.33 372.31C566.873 378.096 561.525 390.586 566.385 400.208C571.244 409.83 584.47 412.941 595.927 407.155C607.383 401.37 612.731 388.879 607.871 379.257C603.012 369.635 589.786 366.525 578.33 372.31Z" fill="#FFC77E"/>
<path d="M691.082 467.349C680.328 467.7 668.3 457.261 668.3 457.261C668.3 457.261 646.088 479.064 642.59 463.021C639.092 446.978 658.228 437.315 658.228 437.315C658.228 437.315 631.02 435.194 642.59 423.081C654.16 410.967 654.624 416.801 662.717 411.18C670.81 405.559 673.591 408.234 682.301 403.835C691.011 399.437 686.414 423.081 686.414 423.081C686.414 423.081 696.802 415.096 704.599 428.968C712.397 442.84 696.474 443.518 696.474 443.518C696.474 443.518 701.837 466.999 691.082 467.349Z" fill="#FFEBD1"/>
<path d="M667.33 414.31C655.873 420.096 650.525 432.586 655.385 442.208C660.244 451.83 673.47 454.941 684.927 449.155C696.383 443.37 701.731 430.879 696.871 421.257C692.012 411.635 678.786 408.525 667.33 414.31Z" fill="#FFEBD1"/>
</g>
<defs>
<clipPath id="clip0_145_70">
<rect width="1057" height="600" fill="white"/>
</clipPath>
</defs>
</svg>
