<svg width="337" height="266" viewBox="0 0 337 266" fill="none" xmlns="http://www.w3.org/2000/svg">
<path d="M255.361 58.2077C271.897 68.1294 317.14 76.8606 365.823 32.4111" stroke="#FF0000" stroke-width="3"/>
<path d="M58.9106 98.5561C119.764 120.384 163.684 103.319 212.367 58.8691" stroke="#FF0000" stroke-width="3"/>
<ellipse cx="32.411" cy="6.6145" rx="32.411" ry="6.6145" transform="matrix(-1 0 0 1 267.267 195.789)" fill="url(#paint0_radial_739_13)"/>
<rect x="-0.5" y="0.5" width="18.8435" height="178.914" transform="matrix(-1 0 0 1 243.778 22.4893)" fill="url(#paint1_linear_739_13)" stroke="black"/>
<circle cx="19.182" cy="19.182" r="18.682" transform="matrix(-1 0 0 1 254.038 0)" fill="url(#paint2_radial_739_13)" stroke="black"/>
<path d="M239.823 5.67435C233.871 4.07658 221.537 4.30483 219.823 18C221.728 14.3479 228.394 6.76993 239.823 5.67435Z" fill="#FFC77E"/>
<g filter="url(#filter0_d_739_13)">
<rect width="47.6244" height="6.6145" transform="matrix(-1 0 0 1 258.007 55.5618)" fill="#FFBE69"/>
<rect x="-0.5" y="0.5" width="46.6244" height="5.6145" transform="matrix(-1 0 0 1 257.007 55.5618)" stroke="black"/>
</g>
<ellipse cx="35.6335" cy="7.27215" rx="35.6335" ry="7.27215" transform="matrix(-1 0 0 1 71.2673 251.256)" fill="url(#paint3_radial_739_13)"/>
<rect x="-0.5" y="0.5" width="20.8165" height="196.803" transform="matrix(-1 0 0 1 45.5417 60.7253)" fill="url(#paint4_linear_739_13)" stroke="black"/>
<circle cx="21.0892" cy="21.0892" r="20.5892" transform="matrix(-1 0 0 1 56.7229 36)" fill="url(#paint5_radial_739_13)" stroke="black"/>
<path d="M41.0945 42.2385C34.5503 40.4818 20.9907 40.7328 19.106 55.7896C21.2001 51.7744 28.5296 43.443 41.0945 42.2385Z" fill="#FFC77E"/>
<g filter="url(#filter1_d_739_13)">
<rect width="52.3595" height="7.27215" transform="matrix(-1 0 0 1 61.0862 97.0862)" fill="#FFBE69"/>
<rect x="-0.5" y="0.5" width="51.3595" height="6.27215" transform="matrix(-1 0 0 1 60.0862 97.0862)" stroke="black"/>
</g>
<defs>
<filter id="filter0_d_739_13" x="206.382" y="53.5618" width="55.6245" height="14.6145" filterUnits="userSpaceOnUse" color-interpolation-filters="sRGB">
<feFlood flood-opacity="0" result="BackgroundImageFix"/>
<feColorMatrix in="SourceAlpha" type="matrix" values="0 0 0 0 0 0 0 0 0 0 0 0 0 0 0 0 0 0 127 0" result="hardAlpha"/>
<feOffset dy="2"/>
<feGaussianBlur stdDeviation="2"/>
<feComposite in2="hardAlpha" operator="out"/>
<feColorMatrix type="matrix" values="0 0 0 0 0 0 0 0 0 0 0 0 0 0 0 0 0 0 0.25 0"/>
<feBlend mode="normal" in2="BackgroundImageFix" result="effect1_dropShadow_739_13"/>
<feBlend mode="normal" in="SourceGraphic" in2="effect1_dropShadow_739_13" result="shape"/>
</filter>
<filter id="filter1_d_739_13" x="4.72681" y="95.0862" width="60.3594" height="15.2722" filterUnits="userSpaceOnUse" color-interpolation-filters="sRGB">
<feFlood flood-opacity="0" result="BackgroundImageFix"/>
<feColorMatrix in="SourceAlpha" type="matrix" values="0 0 0 0 0 0 0 0 0 0 0 0 0 0 0 0 0 0 127 0" result="hardAlpha"/>
<feOffset dy="2"/>
<feGaussianBlur stdDeviation="2"/>
<feComposite in2="hardAlpha" operator="out"/>
<feColorMatrix type="matrix" values="0 0 0 0 0 0 0 0 0 0 0 0 0 0 0 0 0 0 0.25 0"/>
<feBlend mode="normal" in2="BackgroundImageFix" result="effect1_dropShadow_739_13"/>
<feBlend mode="normal" in="SourceGraphic" in2="effect1_dropShadow_739_13" result="shape"/>
</filter>
<radialGradient id="paint0_radial_739_13" cx="0" cy="0" r="1" gradientUnits="userSpaceOnUse" gradientTransform="translate(32.411 6.6145) scale(32.411 6.6145)">
<stop stop-color="#BD7C28"/>
<stop offset="1" stop-color="#FFBE69"/>
</radialGradient>
<linearGradient id="paint1_linear_739_13" x1="19.8435" y1="89.9572" x2="0" y2="89.9572" gradientUnits="userSpaceOnUse">
<stop stop-color="#FFAD41"/>
<stop offset="0.293269" stop-color="#FFAD41"/>
<stop offset="0.725962" stop-color="#FFD683"/>
<stop offset="1" stop-color="#FCA129"/>
</linearGradient>
<radialGradient id="paint2_radial_739_13" cx="0" cy="0" r="1" gradientUnits="userSpaceOnUse" gradientTransform="translate(19.182 19.182) rotate(90) scale(19.182)">
<stop stop-color="#FFD398"/>
<stop offset="1" stop-color="#FCA129"/>
</radialGradient>
<radialGradient id="paint3_radial_739_13" cx="0" cy="0" r="1" gradientUnits="userSpaceOnUse" gradientTransform="translate(35.6335 7.27215) scale(35.6335 7.27215)">
<stop stop-color="#BD7C28"/>
<stop offset="1" stop-color="#FFBE69"/>
</radialGradient>
<linearGradient id="paint4_linear_739_13" x1="21.8165" y1="98.9013" x2="0" y2="98.9013" gradientUnits="userSpaceOnUse">
<stop stop-color="#FFAD41"/>
<stop offset="0.293269" stop-color="#FFAD41"/>
<stop offset="0.725962" stop-color="#FFD683"/>
<stop offset="1" stop-color="#FCA129"/>
</linearGradient>
<radialGradient id="paint5_radial_739_13" cx="0" cy="0" r="1" gradientUnits="userSpaceOnUse" gradientTransform="translate(21.0892 21.0892) rotate(90) scale(21.0892)">
<stop stop-color="#FFD398"/>
<stop offset="1" stop-color="#FCA129"/>
</radialGradient>
</defs>
</svg>
