<svg width="575" height="483" viewBox="0 0 575 483" fill="none" xmlns="http://www.w3.org/2000/svg">
<circle cx="546" cy="25" r="23.5" fill="url(#paint0_linear_457_215)" stroke="#FFE3BE" stroke-width="3"/>
<path d="M546.562 72.875C551.461 72.875 556.281 73.5757 560.391 74.9531C564.518 76.3364 567.814 78.3619 569.819 80.9248C569.824 80.9311 569.841 80.9582 569.87 81.0146C569.906 81.0863 569.952 81.1882 570.003 81.3262C570.106 81.6047 570.217 81.9843 570.332 82.4756C570.562 83.458 570.785 84.7919 570.996 86.4736C571.418 89.8321 571.78 94.4568 572.087 100.183C572.7 111.628 573.087 127.371 573.298 145.963C573.72 183.14 573.438 231.642 572.876 279.795C572.313 327.946 571.47 375.739 570.767 411.494C570.415 429.371 570.099 444.239 569.87 454.638C569.756 459.837 569.663 463.919 569.6 466.701C569.568 468.092 569.543 469.158 569.526 469.876C569.523 470.016 569.52 470.143 569.518 470.257C560.065 477.665 552.929 481.359 545.976 481.478C539.045 481.595 531.917 478.161 522.481 470.282C522.478 470.161 522.475 470.023 522.471 469.87C522.451 469.152 522.422 468.086 522.385 466.695C522.31 463.913 522.203 459.832 522.069 454.633C521.803 444.235 521.434 429.367 521.023 411.489C520.203 375.734 519.22 327.942 518.563 279.792C517.907 231.639 517.579 183.139 518.071 145.965C518.317 127.375 518.768 111.636 519.483 100.196C519.841 94.4722 520.264 89.8541 520.755 86.5039C521.001 84.826 521.258 83.5006 521.523 82.5283C521.656 82.0425 521.784 81.6711 521.9 81.4004C521.958 81.2665 522.009 81.169 522.05 81.1006C522.084 81.0425 522.105 81.0162 522.108 81.0117C526.938 75.7217 536.666 72.8751 546.562 72.875Z" fill="url(#paint1_linear_457_215)" stroke="#FFE3BE" stroke-width="3"/>
<path d="M492 103C305.548 167.639 199.674 170.073 8 103" stroke="#B90E29" stroke-width="15" stroke-linecap="round"/>
<defs>
<linearGradient id="paint0_linear_457_215" x1="546" y1="-1.7471e-08" x2="545.706" y2="36.1916" gradientUnits="userSpaceOnUse">
<stop stop-color="#FDCB8B"/>
<stop offset="1" stop-color="#FCA129"/>
</linearGradient>
<linearGradient id="paint1_linear_457_215" x1="545.667" y1="71.375" x2="529.69" y2="359.77" gradientUnits="userSpaceOnUse">
<stop stop-color="#FDCB8B"/>
<stop offset="1" stop-color="#FCA129"/>
</linearGradient>
</defs>
</svg>
