<svg width="562" height="318" viewBox="0 0 562 318" fill="none" xmlns="http://www.w3.org/2000/svg">
<path d="M561.626 21.5088C534.287 21.5088 512.124 50.9343 512.124 87.2324C512.124 123.531 534.287 152.956 561.626 152.956V162.517C534.287 162.517 512.124 191.942 512.124 228.24C512.124 264.538 534.287 293.964 561.626 293.964V316.669H0L0 286.709C20.777 278.906 36.0009 253.544 36.001 223.46C36.001 193.376 20.7772 168.013 0 160.21L0 145.702C20.7777 137.9 36.0029 112.538 36.0029 82.4531C36.0028 52.3688 20.7778 27.0061 0 19.2041L0 0L561.626 0V21.5088Z" fill="#FCA129"/>
<rect x="88.5537" y="23.2983" width="384.506" height="14.166" fill="#FFC77E"/>
<rect x="347.589" y="23.2983" width="125.47" height="14.166" fill="#FFEBD1"/>
<rect x="88.5525" y="270.192" width="384.506" height="14.166" fill="#FFC77E"/>
<path d="M86.5294 147.756C114.516 155.363 165.19 54.0195 92.7392 33.4189M92.7392 277.274C120.726 284.882 158.98 168.359 86.5294 147.758" stroke="#FFC77E" stroke-width="5"/>
<path d="M474.027 163.292C446.041 155.685 395.367 257.028 467.818 277.629M467.818 33.7735C439.831 26.1659 401.576 142.689 474.027 163.29" stroke="#FFEBD1" stroke-width="15"/>
<path d="M52.0507 0.914307L263.529 0.914336L518.517 317.626H282.754L52.0507 0.914307Z" fill="#FFC77E" fill-opacity="0.5" style="mix-blend-mode:lighten"/>
<path d="M171.986 150.773C170.377 152.398 168.455 153.672 166.22 154.594C163.986 155.515 161.548 155.976 158.908 155.976C156.267 155.976 153.83 155.523 151.595 154.617C149.377 153.711 147.447 152.437 145.806 150.797C144.166 149.14 142.892 147.203 141.986 144.984C141.08 142.75 140.627 140.32 140.627 137.695C140.627 135.054 141.08 132.625 141.986 130.406C142.892 128.172 144.166 126.234 145.806 124.594C147.447 122.953 149.377 121.679 151.595 120.773C153.83 119.867 156.267 119.414 158.908 119.414C161.533 119.414 163.963 119.875 166.197 120.797C168.431 121.703 170.353 122.969 171.963 124.594L169.08 127.523C167.83 126.133 166.33 125.047 164.58 124.265C162.83 123.469 160.916 123.07 158.838 123.07C156.822 123.07 154.963 123.437 153.259 124.172C151.556 124.89 150.072 125.914 148.806 127.242C147.556 128.554 146.58 130.101 145.877 131.883C145.189 133.664 144.845 135.601 144.845 137.695C144.845 139.804 145.189 141.75 145.877 143.531C146.58 145.297 147.556 146.844 148.806 148.172C150.072 149.484 151.556 150.508 153.259 151.242C154.963 151.961 156.822 152.32 158.838 152.32C160.916 152.32 162.83 151.929 164.58 151.148C166.33 150.351 167.83 149.258 169.08 147.867L171.986 150.773ZM182.158 155.273H178.08V120.117H182.158V155.273ZM191.439 124.429C190.783 124.429 190.228 124.203 189.775 123.75C189.338 123.281 189.119 122.719 189.119 122.062C189.119 121.422 189.338 120.875 189.775 120.422C190.228 119.969 190.783 119.742 191.439 119.742C192.111 119.742 192.673 119.969 193.127 120.422C193.58 120.875 193.806 121.422 193.806 122.062C193.806 122.719 193.58 123.281 193.127 123.75C192.673 124.203 192.111 124.429 191.439 124.429ZM193.361 155.273H189.517V131.836H193.361V155.273ZM220.244 151.898C219.103 153.133 217.752 154.086 216.189 154.758C214.627 155.414 212.947 155.742 211.15 155.742C208.822 155.742 206.728 155.211 204.869 154.148C203.025 153.086 201.564 151.633 200.486 149.789C199.423 147.945 198.892 145.867 198.892 143.554C198.892 141.226 199.423 139.148 200.486 137.32C201.564 135.476 203.025 134.023 204.869 132.961C206.728 131.898 208.822 131.367 211.15 131.367C212.931 131.367 214.603 131.695 216.166 132.351C217.728 133.008 219.08 133.953 220.22 135.187L217.923 137.601C217.095 136.726 216.103 136.054 214.947 135.586C213.806 135.117 212.595 134.883 211.314 134.883C209.673 134.883 208.213 135.258 206.931 136.008C205.666 136.742 204.666 137.758 203.931 139.054C203.213 140.351 202.853 141.844 202.853 143.531C202.853 145.219 203.213 146.719 203.931 148.031C204.666 149.344 205.666 150.375 206.931 151.125C208.213 151.859 209.673 152.226 211.314 152.226C212.595 152.226 213.814 151.992 214.97 151.523C216.127 151.039 217.111 150.367 217.923 149.508L220.244 151.898ZM229.502 155.273H225.658V120.117H229.502V144.867L231.33 142.64L241.525 131.836H246.353L236.791 142.008L247.83 155.273H242.838L234.119 144.82L229.502 149.742V155.273ZM277.83 154.711C276.283 155.398 274.775 155.742 273.306 155.742C271.9 155.742 270.666 155.437 269.603 154.828C268.541 154.203 267.713 153.336 267.119 152.226C266.525 151.101 266.228 149.797 266.228 148.312V135.281H262.127V131.836H266.416V125.976H270.072V131.836H277.08V135.281H270.072V147.609C270.072 149.015 270.447 150.148 271.197 151.008C271.963 151.867 272.963 152.297 274.197 152.297C275.197 152.297 276.197 152 277.197 151.406L277.83 154.711ZM293.392 155.742C291.064 155.742 288.97 155.211 287.111 154.148C285.252 153.086 283.783 151.64 282.705 149.812C281.642 147.969 281.111 145.883 281.111 143.554C281.111 141.242 281.642 139.172 282.705 137.344C283.783 135.5 285.252 134.047 287.111 132.984C288.97 131.906 291.064 131.367 293.392 131.367C295.72 131.367 297.806 131.906 299.65 132.984C301.494 134.047 302.947 135.5 304.009 137.344C305.072 139.172 305.603 141.242 305.603 143.554C305.603 145.883 305.072 147.969 304.009 149.812C302.947 151.64 301.494 153.086 299.65 154.148C297.806 155.211 295.72 155.742 293.392 155.742ZM293.369 152.273C294.947 152.273 296.361 151.89 297.611 151.125C298.861 150.359 299.845 149.32 300.564 148.008C301.298 146.695 301.666 145.211 301.666 143.554C301.666 141.898 301.298 140.414 300.564 139.101C299.845 137.789 298.861 136.75 297.611 135.984C296.361 135.219 294.947 134.836 293.369 134.836C291.791 134.836 290.369 135.219 289.103 135.984C287.853 136.75 286.861 137.789 286.127 139.101C285.408 140.414 285.048 141.898 285.048 143.554C285.048 145.211 285.408 146.695 286.127 148.008C286.861 149.32 287.853 150.359 289.103 151.125C290.369 151.89 291.791 152.273 293.369 152.273ZM344.298 131.836L334.431 155.273H330.705L320.861 131.836H325.009L332.603 151.242L340.22 131.836H344.298ZM351.705 124.429C351.048 124.429 350.494 124.203 350.041 123.75C349.603 123.281 349.384 122.719 349.384 122.062C349.384 121.422 349.603 120.875 350.041 120.422C350.494 119.969 351.048 119.742 351.705 119.742C352.377 119.742 352.939 119.969 353.392 120.422C353.845 120.875 354.072 121.422 354.072 122.062C354.072 122.719 353.845 123.281 353.392 123.75C352.939 124.203 352.377 124.429 351.705 124.429ZM353.627 155.273H349.783V131.836H353.627V155.273ZM381.588 152.39C378.681 154.625 375.478 155.742 371.978 155.742C369.541 155.742 367.353 155.195 365.416 154.101C363.478 153.008 361.947 151.523 360.822 149.648C359.713 147.758 359.158 145.625 359.158 143.25C359.158 140.969 359.673 138.937 360.705 137.156C361.736 135.359 363.15 133.945 364.947 132.914C366.744 131.883 368.783 131.367 371.064 131.367C373.408 131.367 375.47 131.929 377.252 133.054C379.048 134.179 380.447 135.742 381.447 137.742C382.447 139.742 382.947 142.054 382.947 144.679V145.429H363.33C363.611 146.804 364.173 148 365.017 149.015C365.861 150.031 366.916 150.82 368.181 151.383C369.463 151.945 370.884 152.226 372.447 152.226C375.134 152.226 377.588 151.344 379.806 149.578L381.588 152.39ZM363.189 142.148H379.314C379.142 140.695 378.689 139.429 377.955 138.351C377.236 137.258 376.298 136.406 375.142 135.797C374.002 135.187 372.713 134.883 371.275 134.883C369.822 134.883 368.509 135.187 367.338 135.797C366.181 136.406 365.236 137.258 364.502 138.351C363.783 139.429 363.345 140.695 363.189 142.148ZM412.994 155.273H408.541L403.244 137.367L397.947 155.273H393.494L386.017 131.836H390.095L395.697 150.586L401.439 131.836H405.048L410.791 150.586L416.416 131.836H420.494L412.994 155.273ZM177.4 215.273H170.181V180.117H177.4V194.812H192.611V180.117H199.83V215.273H192.611V201.117H177.4V215.273ZM226.478 215.273H220.619L220.267 212.484C219.408 213.515 218.345 214.32 217.08 214.898C215.814 215.461 214.423 215.742 212.908 215.742C211.267 215.742 209.806 215.429 208.525 214.804C207.244 214.164 206.236 213.289 205.502 212.179C204.767 211.054 204.4 209.781 204.4 208.359C204.4 206.859 204.798 205.539 205.595 204.398C206.392 203.258 207.486 202.367 208.877 201.726C210.283 201.07 211.877 200.742 213.658 200.742C214.705 200.742 215.752 200.859 216.798 201.094C217.861 201.328 218.845 201.656 219.752 202.078V201.469C219.752 200.531 219.486 199.726 218.955 199.054C218.439 198.367 217.72 197.836 216.798 197.461C215.892 197.086 214.877 196.898 213.752 196.898C212.673 196.898 211.603 197.07 210.541 197.414C209.494 197.758 208.525 198.273 207.634 198.961L205.806 193.828C207.384 193.015 208.978 192.406 210.588 192C212.213 191.578 213.783 191.367 215.298 191.367C217.58 191.367 219.556 191.82 221.228 192.726C222.9 193.617 224.189 194.883 225.095 196.523C226.017 198.148 226.478 200.078 226.478 202.312V215.273ZM214.384 210.562C215.275 210.562 216.127 210.367 216.939 209.976C217.752 209.586 218.408 209.054 218.908 208.383C219.423 207.711 219.697 206.969 219.728 206.156V205.992C219.041 205.523 218.275 205.164 217.431 204.914C216.603 204.648 215.759 204.515 214.9 204.515C213.619 204.515 212.572 204.797 211.759 205.359C210.947 205.922 210.541 206.648 210.541 207.539C210.541 208.117 210.705 208.64 211.033 209.109C211.377 209.562 211.838 209.922 212.416 210.187C212.994 210.437 213.65 210.562 214.384 210.562ZM252.494 211.547C251.353 212.859 249.955 213.89 248.298 214.64C246.642 215.375 244.822 215.742 242.838 215.742C240.431 215.742 238.275 215.219 236.369 214.172C234.478 213.109 232.986 211.656 231.892 209.812C230.814 207.969 230.275 205.883 230.275 203.554C230.275 201.211 230.814 199.125 231.892 197.297C232.986 195.453 234.478 194.008 236.369 192.961C238.275 191.898 240.431 191.367 242.838 191.367C244.806 191.367 246.619 191.734 248.275 192.469C249.931 193.203 251.33 194.219 252.47 195.515L248.509 199.664C247.9 198.961 247.127 198.414 246.189 198.023C245.267 197.617 244.298 197.414 243.283 197.414C242.111 197.414 241.064 197.679 240.142 198.211C239.22 198.726 238.494 199.445 237.963 200.367C237.431 201.273 237.166 202.32 237.166 203.508C237.166 204.711 237.431 205.781 237.963 206.719C238.494 207.656 239.22 208.39 240.142 208.922C241.064 209.437 242.111 209.695 243.283 209.695C244.298 209.695 245.275 209.5 246.213 209.109C247.15 208.703 247.916 208.148 248.509 207.445L252.494 211.547ZM263.345 215.273H256.619V180.117H263.345V201.726L265.642 198.961L272.392 191.836H280.806L270.892 202.265L281.978 215.273H273.283L266.275 206.484L263.345 209.156V215.273ZM285.4 215.273V180.117H297.423C300.377 180.117 302.923 180.601 305.064 181.57C307.22 182.523 308.877 183.89 310.033 185.672C311.189 187.437 311.767 189.547 311.767 192C311.767 194.453 311.189 196.578 310.033 198.375C308.877 200.156 307.228 201.531 305.088 202.5C302.963 203.469 300.431 203.953 297.494 203.953H292.619V215.273H285.4ZM292.619 197.625H296.744C299.197 197.625 301.08 197.14 302.392 196.172C303.72 195.187 304.384 193.797 304.384 192C304.384 190.234 303.72 188.867 302.392 187.898C301.08 186.914 299.197 186.422 296.744 186.422H292.619V197.625ZM337.056 215.273H331.197L330.845 212.484C329.986 213.515 328.923 214.32 327.658 214.898C326.392 215.461 325.002 215.742 323.486 215.742C321.845 215.742 320.384 215.429 319.103 214.804C317.822 214.164 316.814 213.289 316.08 212.179C315.345 211.054 314.978 209.781 314.978 208.359C314.978 206.859 315.377 205.539 316.173 204.398C316.97 203.258 318.064 202.367 319.455 201.726C320.861 201.07 322.455 200.742 324.236 200.742C325.283 200.742 326.33 200.859 327.377 201.094C328.439 201.328 329.423 201.656 330.33 202.078V201.469C330.33 200.531 330.064 199.726 329.533 199.054C329.017 198.367 328.298 197.836 327.377 197.461C326.47 197.086 325.455 196.898 324.33 196.898C323.252 196.898 322.181 197.07 321.119 197.414C320.072 197.758 319.103 198.273 318.213 198.961L316.384 193.828C317.963 193.015 319.556 192.406 321.166 192C322.791 191.578 324.361 191.367 325.877 191.367C328.158 191.367 330.134 191.82 331.806 192.726C333.478 193.617 334.767 194.883 335.673 196.523C336.595 198.148 337.056 200.078 337.056 202.312V215.273ZM324.963 210.562C325.853 210.562 326.705 210.367 327.517 209.976C328.33 209.586 328.986 209.054 329.486 208.383C330.002 207.711 330.275 206.969 330.306 206.156V205.992C329.619 205.523 328.853 205.164 328.009 204.914C327.181 204.648 326.338 204.515 325.478 204.515C324.197 204.515 323.15 204.797 322.338 205.359C321.525 205.922 321.119 206.648 321.119 207.539C321.119 208.117 321.283 208.64 321.611 209.109C321.955 209.562 322.416 209.922 322.994 210.187C323.572 210.437 324.228 210.562 324.963 210.562ZM363.072 211.547C361.931 212.859 360.533 213.89 358.877 214.64C357.22 215.375 355.4 215.742 353.416 215.742C351.009 215.742 348.853 215.219 346.947 214.172C345.056 213.109 343.564 211.656 342.47 209.812C341.392 207.969 340.853 205.883 340.853 203.554C340.853 201.211 341.392 199.125 342.47 197.297C343.564 195.453 345.056 194.008 346.947 192.961C348.853 191.898 351.009 191.367 353.416 191.367C355.384 191.367 357.197 191.734 358.853 192.469C360.509 193.203 361.908 194.219 363.048 195.515L359.088 199.664C358.478 198.961 357.705 198.414 356.767 198.023C355.845 197.617 354.877 197.414 353.861 197.414C352.689 197.414 351.642 197.679 350.72 198.211C349.798 198.726 349.072 199.445 348.541 200.367C348.009 201.273 347.744 202.32 347.744 203.508C347.744 204.711 348.009 205.781 348.541 206.719C349.072 207.656 349.798 208.39 350.72 208.922C351.642 209.437 352.689 209.695 353.861 209.695C354.877 209.695 355.853 209.5 356.791 209.109C357.728 208.703 358.494 208.148 359.088 207.445L363.072 211.547ZM373.923 215.273H367.197V180.117H373.923V201.726L376.22 198.961L382.97 191.836H391.384L381.47 202.265L392.556 215.273H383.861L376.853 206.484L373.923 209.156V215.273Z" fill="white"/>
</svg>
