<svg width="879" height="1106" viewBox="0 0 879 1106" fill="none" xmlns="http://www.w3.org/2000/svg">
<path d="M1055.54 331.727C1012.43 331.727 977.478 378.131 977.478 435.373C977.478 492.615 1012.43 539.017 1055.54 539.018V554.095C1012.43 554.095 977.478 600.499 977.478 657.741C977.478 714.983 1012.43 761.385 1055.54 761.386V797.191H169.861V749.945C202.626 737.64 226.634 697.645 226.634 650.203C226.634 602.761 202.626 562.764 169.861 550.459V527.58C202.628 515.276 226.637 475.279 226.637 427.836C226.637 380.392 202.628 340.394 169.861 328.091V297.807H1055.54V331.727Z" fill="#FCA129"/>
<rect x="309.51" y="334.548" width="606.364" height="22.3397" fill="#FFC77E"/>
<rect x="718.008" y="334.548" width="197.866" height="22.3397" fill="#FFEBD1"/>
<rect x="309.508" y="723.898" width="606.364" height="22.3397" fill="#FFC77E"/>
<path d="M306.318 530.817C350.453 542.814 430.366 382.995 316.111 350.508M316.111 735.067C360.246 747.064 420.573 563.307 306.318 530.82" stroke="#FFC77E" stroke-width="5"/>
<path d="M917.401 555.318C873.266 543.321 793.353 703.14 907.608 735.627M907.608 351.068C863.473 339.071 803.146 522.828 917.401 555.315" stroke="#FFEBD1" stroke-width="15"/>
<path d="M232.892 299.248L566.392 299.248L968.508 798.7L596.711 798.7L232.892 299.248Z" fill="#FFC77E" fill-opacity="0.5"/>
<path d="M453.741 532.898C452.065 534.591 450.063 535.917 447.735 536.877C445.408 537.838 442.869 538.318 440.118 538.318C437.368 538.318 434.828 537.846 432.501 536.902C430.19 535.958 428.18 534.631 426.471 532.922C424.762 531.197 423.435 529.179 422.491 526.868C421.547 524.54 421.075 522.009 421.075 519.275C421.075 516.524 421.547 513.993 422.491 511.682C423.435 509.355 424.762 507.336 426.471 505.627C428.18 503.918 430.19 502.592 432.501 501.648C434.828 500.704 437.368 500.232 440.118 500.232C442.853 500.232 445.383 500.712 447.711 501.672C450.038 502.616 452.04 503.935 453.717 505.627L450.714 508.679C449.412 507.231 447.849 506.099 446.026 505.286C444.203 504.456 442.21 504.041 440.045 504.041C437.945 504.041 436.008 504.423 434.234 505.188C432.46 505.937 430.914 507.003 429.596 508.386C428.294 509.753 427.276 511.365 426.544 513.22C425.828 515.076 425.47 517.094 425.47 519.275C425.47 521.472 425.828 523.499 426.544 525.354C427.276 527.193 428.294 528.805 429.596 530.188C430.914 531.555 432.46 532.621 434.234 533.386C436.008 534.135 437.945 534.509 440.045 534.509C442.21 534.509 444.203 534.102 446.026 533.289C447.849 532.458 449.412 531.319 450.714 529.871L453.741 532.898ZM464.337 537.585H460.089V500.964H464.337V537.585ZM474.005 505.457C473.321 505.457 472.743 505.221 472.271 504.749C471.816 504.26 471.588 503.674 471.588 502.991C471.588 502.323 471.816 501.754 472.271 501.282C472.743 500.81 473.321 500.574 474.005 500.574C474.705 500.574 475.291 500.81 475.763 501.282C476.235 501.754 476.471 502.323 476.471 502.991C476.471 503.674 476.235 504.26 475.763 504.749C475.291 505.221 474.705 505.457 474.005 505.457ZM476.007 537.585H472.003V513.171H476.007V537.585ZM504.01 534.07C502.822 535.356 501.414 536.348 499.786 537.048C498.159 537.732 496.409 538.074 494.537 538.074C492.112 538.074 489.931 537.52 487.994 536.414C486.074 535.307 484.552 533.793 483.429 531.873C482.322 529.952 481.769 527.787 481.769 525.378C481.769 522.953 482.322 520.789 483.429 518.884C484.552 516.964 486.074 515.45 487.994 514.343C489.931 513.236 492.112 512.683 494.537 512.683C496.393 512.683 498.134 513.025 499.762 513.708C501.389 514.392 502.797 515.377 503.985 516.663L501.593 519.177C500.73 518.266 499.697 517.566 498.492 517.078C497.304 516.589 496.043 516.345 494.708 516.345C492.999 516.345 491.477 516.736 490.143 517.517C488.824 518.282 487.783 519.34 487.018 520.691C486.269 522.042 485.895 523.596 485.895 525.354C485.895 527.112 486.269 528.674 487.018 530.042C487.783 531.409 488.824 532.483 490.143 533.264C491.477 534.029 492.999 534.412 494.708 534.412C496.043 534.412 497.312 534.167 498.517 533.679C499.721 533.175 500.746 532.475 501.593 531.58L504.01 534.07ZM513.653 537.585H509.649V500.964H513.653V526.746L515.558 524.426L526.178 513.171H531.207L521.246 523.767L532.745 537.585H527.545L518.463 526.697L513.653 531.824V537.585ZM563.995 537C562.384 537.716 560.813 538.074 559.283 538.074C557.818 538.074 556.533 537.756 555.426 537.122C554.319 536.471 553.456 535.567 552.838 534.412C552.219 533.24 551.91 531.881 551.91 530.334V516.76H547.638V513.171H552.105V507.068H555.914V513.171H563.214V516.76H555.914V529.602C555.914 531.067 556.305 532.247 557.086 533.142C557.883 534.037 558.925 534.485 560.211 534.485C561.253 534.485 562.294 534.176 563.336 533.557L563.995 537ZM580.206 538.074C577.781 538.074 575.6 537.52 573.663 536.414C571.726 535.307 570.196 533.801 569.073 531.897C567.966 529.976 567.413 527.804 567.413 525.378C567.413 522.97 567.966 520.813 569.073 518.909C570.196 516.988 571.726 515.474 573.663 514.368C575.6 513.245 577.781 512.683 580.206 512.683C582.631 512.683 584.804 513.245 586.725 514.368C588.645 515.474 590.159 516.988 591.266 518.909C592.372 520.813 592.926 522.97 592.926 525.378C592.926 527.804 592.372 529.976 591.266 531.897C590.159 533.801 588.645 535.307 586.725 536.414C584.804 537.52 582.631 538.074 580.206 538.074ZM580.182 534.46C581.826 534.46 583.299 534.062 584.601 533.264C585.903 532.467 586.928 531.384 587.677 530.017C588.442 528.65 588.824 527.104 588.824 525.378C588.824 523.653 588.442 522.107 587.677 520.74C586.928 519.373 585.903 518.29 584.601 517.493C583.299 516.695 581.826 516.296 580.182 516.296C578.538 516.296 577.057 516.695 575.738 517.493C574.436 518.29 573.403 519.373 572.638 520.74C571.889 522.107 571.515 523.653 571.515 525.378C571.515 527.104 571.889 528.65 572.638 530.017C573.403 531.384 574.436 532.467 575.738 533.264C577.057 534.062 578.538 534.46 580.182 534.46ZM633.233 513.171L622.955 537.585H619.073L608.819 513.171H613.141L621.051 533.386L628.985 513.171H633.233ZM640.948 505.457C640.265 505.457 639.687 505.221 639.215 504.749C638.759 504.26 638.531 503.674 638.531 502.991C638.531 502.323 638.759 501.754 639.215 501.282C639.687 500.81 640.265 500.574 640.948 500.574C641.648 500.574 642.234 500.81 642.706 501.282C643.178 501.754 643.414 502.323 643.414 502.991C643.414 503.674 643.178 504.26 642.706 504.749C642.234 505.221 641.648 505.457 640.948 505.457ZM642.95 537.585H638.946V513.171H642.95V537.585ZM672.076 534.583C669.049 536.91 665.712 538.074 662.066 538.074C659.527 538.074 657.249 537.504 655.23 536.365C653.212 535.225 651.617 533.679 650.445 531.726C649.29 529.757 648.712 527.535 648.712 525.061C648.712 522.685 649.249 520.569 650.323 518.713C651.397 516.842 652.87 515.369 654.742 514.294C656.614 513.22 658.738 512.683 661.114 512.683C663.556 512.683 665.704 513.269 667.56 514.441C669.431 515.613 670.888 517.24 671.93 519.324C672.971 521.407 673.492 523.816 673.492 526.55V527.332H653.058C653.351 528.764 653.937 530.009 654.815 531.067C655.694 532.125 656.793 532.947 658.111 533.533C659.446 534.119 660.927 534.412 662.555 534.412C665.354 534.412 667.91 533.492 670.221 531.653L672.076 534.583ZM652.911 523.914H669.708C669.529 522.4 669.057 521.082 668.292 519.958C667.543 518.819 666.567 517.932 665.362 517.297C664.174 516.663 662.831 516.345 661.334 516.345C659.82 516.345 658.453 516.663 657.232 517.297C656.028 517.932 655.043 518.819 654.278 519.958C653.53 521.082 653.074 522.4 652.911 523.914ZM704.791 537.585H700.152L694.635 518.933L689.117 537.585H684.479L676.69 513.171H680.938L686.773 532.703L692.755 513.171H696.515L702.496 532.703L708.355 513.171H712.604L704.791 537.585ZM429.498 599.585H421.979V562.964H429.498V578.272H445.343V562.964H452.862V599.585H445.343V584.839H429.498V599.585ZM480.621 599.585H474.518L474.151 596.68C473.256 597.754 472.149 598.593 470.831 599.195C469.513 599.781 468.064 600.074 466.485 600.074C464.776 600.074 463.255 599.748 461.92 599.097C460.585 598.43 459.535 597.518 458.771 596.363C458.006 595.191 457.623 593.864 457.623 592.383C457.623 590.821 458.038 589.445 458.868 588.257C459.698 587.069 460.838 586.141 462.286 585.474C463.751 584.791 465.411 584.449 467.267 584.449C468.357 584.449 469.448 584.571 470.538 584.815C471.645 585.059 472.67 585.401 473.614 585.84V585.206C473.614 584.229 473.338 583.391 472.784 582.691C472.247 581.975 471.498 581.421 470.538 581.031C469.594 580.64 468.536 580.445 467.364 580.445C466.241 580.445 465.126 580.624 464.02 580.982C462.929 581.34 461.92 581.877 460.992 582.593L459.088 577.247C460.732 576.4 462.392 575.765 464.068 575.342C465.761 574.903 467.397 574.683 468.976 574.683C471.352 574.683 473.411 575.155 475.152 576.099C476.894 577.027 478.237 578.345 479.181 580.054C480.141 581.747 480.621 583.757 480.621 586.084V599.585ZM468.023 594.678C468.951 594.678 469.838 594.475 470.685 594.068C471.531 593.661 472.215 593.108 472.735 592.408C473.272 591.708 473.557 590.935 473.59 590.088V589.917C472.874 589.429 472.076 589.055 471.197 588.794C470.335 588.518 469.456 588.379 468.561 588.379C467.226 588.379 466.135 588.672 465.289 589.258C464.443 589.844 464.02 590.601 464.02 591.529C464.02 592.131 464.19 592.676 464.532 593.165C464.89 593.637 465.37 594.011 465.973 594.288C466.575 594.548 467.258 594.678 468.023 594.678ZM507.721 595.704C506.533 597.071 505.076 598.145 503.351 598.926C501.625 599.691 499.729 600.074 497.662 600.074C495.156 600.074 492.91 599.528 490.924 598.438C488.954 597.331 487.4 595.818 486.261 593.897C485.138 591.976 484.576 589.804 484.576 587.378C484.576 584.937 485.138 582.764 486.261 580.86C487.4 578.939 488.954 577.434 490.924 576.343C492.91 575.236 495.156 574.683 497.662 574.683C499.713 574.683 501.601 575.066 503.326 575.831C505.051 576.596 506.508 577.653 507.696 579.004L503.57 583.326C502.936 582.593 502.13 582.024 501.153 581.617C500.193 581.194 499.184 580.982 498.126 580.982C496.905 580.982 495.815 581.259 494.854 581.812C493.894 582.349 493.137 583.098 492.584 584.058C492.031 585.002 491.754 586.093 491.754 587.33C491.754 588.583 492.031 589.698 492.584 590.674C493.137 591.651 493.894 592.416 494.854 592.969C495.815 593.506 496.905 593.775 498.126 593.775C499.184 593.775 500.201 593.571 501.178 593.165C502.154 592.741 502.952 592.164 503.57 591.431L507.721 595.704ZM519.024 599.585H512.018V562.964H519.024V585.474L521.417 582.593L528.448 575.171H537.213L526.886 586.036L538.434 599.585H529.376L522.076 590.43L519.024 593.213V599.585ZM541.998 599.585V562.964H554.522C557.599 562.964 560.252 563.469 562.481 564.478C564.728 565.471 566.453 566.895 567.657 568.75C568.862 570.59 569.464 572.787 569.464 575.342C569.464 577.898 568.862 580.111 567.657 581.983C566.453 583.838 564.736 585.271 562.506 586.28C560.292 587.289 557.656 587.793 554.596 587.793H549.518V599.585H541.998ZM549.518 581.202H553.814C556.37 581.202 558.331 580.697 559.698 579.688C561.082 578.663 561.773 577.214 561.773 575.342C561.773 573.503 561.082 572.079 559.698 571.07C558.331 570.044 556.37 569.532 553.814 569.532H549.518V581.202ZM595.807 599.585H589.703L589.337 596.68C588.442 597.754 587.335 598.593 586.017 599.195C584.698 599.781 583.25 600.074 581.671 600.074C579.962 600.074 578.44 599.748 577.105 599.097C575.771 598.43 574.721 597.518 573.956 596.363C573.191 595.191 572.809 593.864 572.809 592.383C572.809 590.821 573.224 589.445 574.054 588.257C574.884 587.069 576.023 586.141 577.472 585.474C578.937 584.791 580.597 584.449 582.452 584.449C583.543 584.449 584.633 584.571 585.724 584.815C586.83 585.059 587.856 585.401 588.8 585.84V585.206C588.8 584.229 588.523 583.391 587.97 582.691C587.433 581.975 586.684 581.421 585.724 581.031C584.78 580.64 583.722 580.445 582.55 580.445C581.427 580.445 580.312 580.624 579.205 580.982C578.115 581.34 577.105 581.877 576.178 582.593L574.273 577.247C575.917 576.4 577.577 575.765 579.254 575.342C580.947 574.903 582.582 574.683 584.161 574.683C586.537 574.683 588.596 575.155 590.338 576.099C592.079 577.027 593.422 578.345 594.366 580.054C595.326 581.747 595.807 583.757 595.807 586.084V599.585ZM583.209 594.678C584.137 594.678 585.024 594.475 585.87 594.068C586.716 593.661 587.4 593.108 587.921 592.408C588.458 591.708 588.743 590.935 588.775 590.088V589.917C588.059 589.429 587.262 589.055 586.383 588.794C585.52 588.518 584.641 588.379 583.746 588.379C582.411 588.379 581.321 588.672 580.475 589.258C579.628 589.844 579.205 590.601 579.205 591.529C579.205 592.131 579.376 592.676 579.718 593.165C580.076 593.637 580.556 594.011 581.158 594.288C581.76 594.548 582.444 594.678 583.209 594.678ZM622.906 595.704C621.718 597.071 620.261 598.145 618.536 598.926C616.811 599.691 614.915 600.074 612.848 600.074C610.341 600.074 608.095 599.528 606.109 598.438C604.14 597.331 602.586 595.818 601.446 593.897C600.323 591.976 599.762 589.804 599.762 587.378C599.762 584.937 600.323 582.764 601.446 580.86C602.586 578.939 604.14 577.434 606.109 576.343C608.095 575.236 610.341 574.683 612.848 574.683C614.898 574.683 616.786 575.066 618.512 575.831C620.237 576.596 621.694 577.653 622.882 579.004L618.756 583.326C618.121 582.593 617.315 582.024 616.339 581.617C615.379 581.194 614.369 580.982 613.312 580.982C612.091 580.982 611 581.259 610.04 581.812C609.08 582.349 608.323 583.098 607.77 584.058C607.216 585.002 606.939 586.093 606.939 587.33C606.939 588.583 607.216 589.698 607.77 590.674C608.323 591.651 609.08 592.416 610.04 592.969C611 593.506 612.091 593.775 613.312 593.775C614.369 593.775 615.387 593.571 616.363 593.165C617.34 592.741 618.137 592.164 618.756 591.431L622.906 595.704ZM634.21 599.585H627.203V562.964H634.21V585.474L636.603 582.593L643.634 575.171H652.398L642.071 586.036L653.619 599.585H644.562L637.262 590.43L634.21 593.213V599.585Z" fill="white"/>
</svg>
