<svg width="381" height="110" viewBox="0 0 381 110" fill="none" xmlns="http://www.w3.org/2000/svg">
<path d="M52.8922 79.9518L43.2153 44.6324L55.5861 42.6767C58.6245 42.1963 61.3783 42.2687 63.8474 42.8938C66.3283 43.5006 68.4087 44.6047 70.0887 46.2062C71.7643 47.7919 72.9398 49.817 73.615 52.2815C74.2902 54.7461 74.2803 56.975 73.5853 58.9682C72.8859 60.9458 71.5683 62.5953 69.6325 63.9168C67.7128 65.2357 65.2417 66.134 62.2194 66.6118L57.2035 67.4048L60.3195 78.7776L52.8922 79.9518ZM55.4617 61.0473L59.7059 60.3763C62.2299 59.9773 64.0337 59.1844 65.1175 57.9977C66.213 56.7927 66.5135 55.2876 66.0189 53.4824C65.5329 51.7086 64.4733 50.4431 62.8402 49.6859C61.2188 48.9104 59.1462 48.7222 56.6222 49.1212L52.378 49.7922L55.4617 61.0473Z" fill="white"/>
<path d="M87.1315 60.0804L79.2761 60.7718L88.2972 23.2894L96.2012 22.5937L116.243 57.5181L108.387 58.2095L104.21 50.7014L88.9374 52.0456L87.1315 60.0804ZM90.3997 45.313L100.784 44.399L93.533 31.4381L90.3997 45.313Z" fill="white"/>
<path d="M150.735 52H142.41L134.72 38.7676H127.737V52H120.218V15.3789H135.062C138.007 15.3789 140.53 15.8428 142.63 16.7705C144.729 17.6982 146.333 19.041 147.439 20.7988C148.562 22.5404 149.124 24.6318 149.124 27.0732C149.124 29.5798 148.53 31.7201 147.342 33.4941C146.17 35.252 144.493 36.5703 142.312 37.4492L150.735 52ZM127.737 32.7861H134.5C136.73 32.7861 138.439 32.3223 139.627 31.3945C140.831 30.4505 141.434 29.1077 141.434 27.3662C141.434 25.6247 140.831 24.29 139.627 23.3623C138.439 22.4183 136.73 21.9463 134.5 21.9463H127.737V32.7861Z" fill="white"/>
<path d="M163.59 49.3858L156.103 48.6922L161.908 12.5341L169.395 13.2277L166.539 31.0175C167.439 30.0244 168.293 29.1087 169.102 28.2703C169.911 27.4319 170.597 26.7452 171.16 26.2102L183.301 14.5158L192.125 15.3333L176.077 30.7756L188.897 51.7301L179.197 50.8315L170.332 36.286L164.844 41.5756L163.59 49.3858Z" fill="white"/>
<path d="M240.143 55.0512L232.404 53.5372L258.491 21.6584L266.278 23.1818L268.823 60.662L261.084 59.148L260.661 51.1264L245.614 48.1827L240.143 55.0512ZM250.151 42.4134L260.382 44.4149L259.613 30.5564L250.151 42.4134Z" fill="white"/>
<path d="M306.217 65.4153C304.064 66.7219 301.699 67.6319 299.121 68.1453C296.544 68.6587 293.9 68.6852 291.188 68.2248C288.444 67.759 286.05 66.8772 284.006 65.5793C281.966 64.2658 280.329 62.6436 279.094 60.7126C277.88 58.7688 277.126 56.6079 276.832 54.2299C276.537 51.852 276.776 49.3514 277.547 46.7282C278.319 44.105 279.505 41.7651 281.104 39.7086C282.707 37.6364 284.601 35.925 286.784 34.5742C288.983 33.2262 291.372 32.2955 293.949 31.7821C296.53 31.2531 299.193 31.2215 301.937 31.6873C304.633 32.1449 306.995 33.0213 309.023 34.3165C311.068 35.6144 312.695 37.2104 313.907 39.1047L307.244 43.2853C306.587 41.9114 305.629 40.757 304.371 39.8221C303.133 38.8743 301.664 38.256 299.963 37.9673C298.343 37.6921 296.753 37.7419 295.194 38.1166C293.655 38.4784 292.211 39.1187 290.863 40.0373C289.519 40.9404 288.353 42.0703 287.364 43.4271C286.375 44.7839 285.632 46.3055 285.136 47.9918C284.631 49.7094 284.446 51.3419 284.58 52.8894C284.714 54.4369 285.134 55.8443 285.84 57.1116C286.55 58.3633 287.497 59.4094 288.682 60.2499C289.887 61.0775 291.3 61.6289 292.921 61.904C294.622 62.1928 296.296 62.1162 297.942 61.6743C299.593 61.2168 301.101 60.4727 302.465 59.4421L306.217 65.4153Z" fill="white"/>
<path d="M318.155 79.4757L310.862 77.6463L325.461 44.061L332.754 45.8903L325.572 62.4143C326.71 61.6073 327.785 60.8671 328.796 60.1935C329.806 59.52 330.657 58.9719 331.349 58.5494L346.3 49.2877L354.896 51.4437L335.136 63.6711L342.807 85.6586L333.358 83.2888L328.067 68.0314L321.309 72.2212L318.155 79.4757Z" fill="white"/>
<path d="M15.3099 91.1508L17.0614 85.0389C18.4442 85.7022 19.7373 86.218 20.9406 86.5862C22.1549 86.9359 23.3085 87.1492 24.4013 87.2259C25.4892 87.2871 26.5612 87.2199 27.6175 87.0243C28.8658 86.7931 29.8913 86.4226 30.6941 85.9127C31.4969 85.4028 32.0444 84.7842 32.3366 84.057C32.6447 83.3267 32.6645 82.5432 32.3959 81.7063C32.0825 80.73 31.4988 79.9679 30.6448 79.4201C29.7907 78.8723 28.764 78.4467 27.5646 78.1435C26.3762 77.8217 25.1072 77.5396 23.7577 77.2969C22.4402 77.0484 21.1023 76.7626 19.7439 76.4395C18.3965 76.098 17.1049 75.6394 15.8689 75.0638C14.6489 74.4852 13.5608 73.7099 12.6044 72.7377C11.6591 71.747 10.9352 70.4691 10.4329 68.9039C9.77626 66.8582 9.73734 64.9937 10.3161 63.3103C10.9108 61.624 12.0071 60.206 13.6049 59.0563C15.2027 57.9067 17.1939 57.111 19.5784 56.6694C21.2588 56.3582 23.0729 56.2521 25.0206 56.351C26.9843 56.4471 29.0122 56.7693 31.1042 57.3177L30.0573 63.6439C28.7071 63.188 27.3137 62.8878 25.877 62.7434C24.4404 62.5991 23.1459 62.6336 21.9936 62.847C20.9534 63.0396 20.0909 63.3635 19.4062 63.8187C18.7375 64.2709 18.2766 64.816 18.0236 65.4539C17.7656 66.0764 17.7559 66.7595 17.9947 67.5034C18.2782 68.3867 18.8365 69.0961 19.6696 69.6314C20.4977 70.1512 21.4874 70.5671 22.6388 70.8793C23.8063 71.1885 25.0457 71.4843 26.3572 71.7668C27.7006 72.0434 29.067 72.365 30.4563 72.7316C31.8616 73.0952 33.1897 73.5881 34.4406 74.2102C35.7026 74.8138 36.8167 75.6172 37.783 76.6204C38.7603 77.6051 39.4976 78.8724 39.9951 80.4221C40.6517 82.4677 40.6685 84.3692 40.0457 86.1264C39.4178 87.8681 38.243 89.3581 36.521 90.5965C34.7941 91.8193 32.6023 92.6767 29.9457 93.1687C27.5131 93.6193 25.0627 93.6708 22.5944 93.3235C20.1261 92.9761 17.698 92.2519 15.3099 91.1508Z" fill="white"/>
<line y1="-1.5" x2="13.1421" y2="-1.5" transform="matrix(0.380458 0.924798 -0.972963 0.23096 33 91.4883)" stroke="white" stroke-width="3"/>
<path d="M351.755 95.0117L355.319 89.2744C356.442 90.1859 357.525 90.9346 358.566 91.5205C359.624 92.0902 360.666 92.5133 361.691 92.79C362.717 93.0505 363.767 93.1807 364.841 93.1807C366.11 93.1807 367.209 93.0016 368.137 92.6436C369.064 92.2855 369.781 91.7728 370.285 91.1055C370.806 90.4382 371.066 89.665 371.066 88.7861C371.066 87.7607 370.741 86.8981 370.09 86.1982C369.439 85.4984 368.584 84.888 367.526 84.3672C366.485 83.8301 365.354 83.3174 364.133 82.8291C362.945 82.3408 361.748 81.8118 360.544 81.2422C359.356 80.6562 358.257 79.9645 357.248 79.167C356.255 78.3695 355.45 77.401 354.831 76.2617C354.229 75.1061 353.928 73.7064 353.928 72.0625C353.928 69.9141 354.465 68.0586 355.539 66.4961C356.63 64.9336 358.119 63.7292 360.007 62.8828C361.895 62.0365 364.051 61.6133 366.477 61.6133C368.186 61.6133 369.96 61.8411 371.799 62.2969C373.654 62.7526 375.502 63.4443 377.341 64.3721L374.387 70.4512C373.231 69.7513 371.986 69.1979 370.651 68.791C369.317 68.3841 368.063 68.1807 366.892 68.1807C365.834 68.1807 364.906 68.3434 364.108 68.6689C363.327 68.9945 362.717 69.4502 362.277 70.0361C361.838 70.6058 361.618 71.2812 361.618 72.0625C361.618 72.9902 361.936 73.7959 362.57 74.4795C363.205 75.1468 364.027 75.7409 365.036 76.2617C366.062 76.7826 367.16 77.3034 368.332 77.8242C369.536 78.3451 370.749 78.9147 371.97 79.5332C373.207 80.1517 374.33 80.8841 375.339 81.7305C376.364 82.5605 377.186 83.5615 377.805 84.7334C378.439 85.889 378.757 87.2806 378.757 88.9082C378.757 91.0566 378.187 92.9447 377.048 94.5723C375.909 96.1836 374.322 97.445 372.287 98.3564C370.253 99.2516 367.884 99.6992 365.183 99.6992C362.709 99.6992 360.34 99.3005 358.078 98.5029C355.816 97.7054 353.708 96.5417 351.755 95.0117Z" fill="white"/>
<line y1="-1.5" x2="13.378" y2="-1.5" transform="matrix(-0.471545 0.881842 -0.955551 -0.294827 361.309 97.2441)" stroke="white" stroke-width="3"/>
<path d="M206.23 51.3662L198.738 50.7238L204.12 14.5005L211.612 15.1428L209.362 30.2842L225.149 31.6377L227.399 16.4963L234.891 17.1387L229.509 53.3621L222.017 52.7197L224.184 38.1338L208.397 36.7802L206.23 51.3662Z" fill="white"/>
<line y1="-1.5" x2="12.8296" y2="-1.5" transform="matrix(-0.187975 0.982174 -0.993958 -0.109764 202.359 46.1719)" stroke="white" stroke-width="3"/>
<line y1="-1.5" x2="12.7422" y2="-1.5" transform="matrix(-0.0573495 0.998354 -0.999451 -0.0331274 226.178 48.832)" stroke="white" stroke-width="3"/>
</svg>
