<svg width="1386" height="569" viewBox="0 0 1386 569" fill="none" xmlns="http://www.w3.org/2000/svg">
<mask id="path-1-inside-1_1144_798" fill="white">
<path d="M1386 569H0V0H1386V569ZM1282.1 532.563C1276.58 532.564 1272.1 537.041 1272.1 542.563V548.37C1272.1 553.893 1276.58 558.37 1282.1 558.37H1312.86C1318.38 558.37 1322.86 553.893 1322.86 548.37V542.563C1322.86 537.041 1318.38 532.564 1312.86 532.563H1282.1ZM1181.34 532.412C1175.82 532.412 1171.34 536.889 1171.34 542.412V548.219C1171.34 553.741 1175.82 558.218 1181.34 558.219H1212.1C1217.63 558.219 1222.1 553.742 1222.1 548.219V542.412C1222.1 536.889 1217.63 532.412 1212.1 532.412H1181.34ZM1080.59 532.263C1075.06 532.263 1070.59 536.74 1070.59 542.263V548.069C1070.59 553.592 1075.06 558.069 1080.59 558.069H1111.34C1116.87 558.069 1121.34 553.592 1121.34 548.069V542.263C1121.34 536.74 1116.87 532.263 1111.34 532.263H1080.59ZM73 532.108C67.4774 532.109 63.001 536.586 63.001 542.108V547.915C63.0012 553.438 67.4775 557.915 73 557.915H103.759C109.282 557.915 113.759 553.438 113.759 547.915V542.108C113.759 536.586 109.282 532.108 103.759 532.108H73ZM173.759 532.108C168.236 532.109 163.759 536.586 163.759 542.108V547.915C163.759 553.438 168.236 557.915 173.759 557.915H204.518C210.04 557.915 214.517 553.438 214.518 547.915V542.108C214.518 536.586 210.04 532.108 204.518 532.108H173.759ZM274.518 532.108C268.995 532.108 264.518 536.586 264.518 542.108V547.915C264.518 553.438 268.995 557.915 274.518 557.915H305.276C310.799 557.915 315.276 553.438 315.276 547.915V542.108C315.276 536.586 310.799 532.109 305.276 532.108H274.518ZM375.275 532.108C369.753 532.109 365.276 536.586 365.276 542.108V547.915C365.277 553.438 369.753 557.915 375.275 557.915H406.034C411.557 557.915 416.034 553.438 416.034 547.915V542.108C416.034 536.586 411.557 532.108 406.034 532.108H375.275ZM476.034 532.108C470.511 532.109 466.034 536.586 466.034 542.108V547.915C466.034 553.438 470.512 557.915 476.034 557.915H506.793C512.316 557.915 516.793 553.438 516.793 547.915V542.108C516.793 536.586 512.316 532.108 506.793 532.108H476.034ZM576.793 532.108C571.27 532.108 566.793 536.586 566.793 542.108V547.915C566.793 553.438 571.27 557.915 576.793 557.915H607.552C613.074 557.915 617.552 553.438 617.552 547.915V542.108C617.552 536.586 613.074 532.109 607.552 532.108H576.793ZM677.552 532.108C672.029 532.108 667.552 536.586 667.552 542.108V547.915C667.552 553.438 672.029 557.915 677.552 557.915H708.31C713.832 557.915 718.309 553.438 718.31 547.915V542.108C718.31 536.586 713.832 532.108 708.31 532.108H677.552ZM778.31 532.108C772.787 532.109 768.311 536.586 768.311 542.108V547.915C768.311 553.438 772.787 557.915 778.31 557.915H809.068C814.591 557.915 819.068 553.438 819.068 547.915V542.108C819.068 536.586 814.591 532.108 809.068 532.108H778.31ZM879.068 532.108C873.546 532.109 869.068 536.586 869.068 542.108V547.915C869.069 553.438 873.546 557.915 879.068 557.915H909.827C915.35 557.915 919.827 553.438 919.827 547.915V542.108C919.827 536.586 915.35 532.108 909.827 532.108H879.068ZM979.827 532.108C974.304 532.108 969.827 536.586 969.827 542.108V547.915C969.827 553.438 974.304 557.915 979.827 557.915H1010.59C1016.11 557.915 1020.59 553.438 1020.59 547.915V542.108C1020.59 536.586 1016.11 532.109 1010.59 532.108H979.827ZM1286.1 12.9619C1280.58 12.962 1276.1 17.4391 1276.1 22.9619V28.7686C1276.1 34.2912 1280.58 38.7684 1286.1 38.7686H1316.86C1322.38 38.7685 1326.86 34.2913 1326.86 28.7686V22.9619C1326.86 17.4391 1322.38 12.9619 1316.86 12.9619H1286.1ZM1185.34 12.8096C1179.82 12.8098 1175.34 17.2869 1175.34 22.8096V28.6162C1175.34 34.1389 1179.82 38.616 1185.34 38.6162H1216.1C1221.63 38.6162 1226.1 34.1391 1226.1 28.6162V22.8096C1226.1 17.2868 1221.63 12.8096 1216.1 12.8096H1185.34ZM1084.59 12.6572C1079.06 12.6572 1074.59 17.1346 1074.59 22.6572V28.4639C1074.59 33.9867 1079.06 38.4639 1084.59 38.4639H1115.34C1120.87 38.4639 1125.34 33.9867 1125.34 28.4639V22.6572C1125.34 17.1346 1120.87 12.6572 1115.34 12.6572H1084.59ZM77 12.5059C71.4774 12.5061 67.001 16.9832 67.001 22.5059V28.3125C67.0011 33.8351 71.4774 38.3122 77 38.3125H107.759C113.282 38.3125 117.759 33.8353 117.759 28.3125V22.5059C117.759 16.983 113.282 12.5059 107.759 12.5059H77ZM177.759 12.5059C172.236 12.506 167.759 16.9831 167.759 22.5059V28.3125C167.759 33.8352 172.236 38.3124 177.759 38.3125H208.518C214.04 38.3125 218.518 33.8353 218.518 28.3125V22.5059C218.518 16.983 214.04 12.5059 208.518 12.5059H177.759ZM278.518 12.5059C272.995 12.5059 268.518 16.983 268.518 22.5059V28.3125C268.518 33.8353 272.995 38.3125 278.518 38.3125H309.276C314.799 38.3123 319.276 33.8352 319.276 28.3125V22.5059C319.276 16.9831 314.799 12.506 309.276 12.5059H278.518ZM379.275 12.5059C373.753 12.5061 369.276 16.9832 369.276 22.5059V28.3125C369.276 33.8351 373.753 38.3122 379.275 38.3125H410.034C415.557 38.3125 420.034 33.8353 420.034 28.3125V22.5059C420.034 16.983 415.557 12.5059 410.034 12.5059H379.275ZM480.034 12.5059C474.511 12.506 470.034 16.9831 470.034 22.5059V28.3125C470.034 33.8352 474.511 38.3124 480.034 38.3125H510.793C516.316 38.3125 520.793 33.8353 520.793 28.3125V22.5059C520.793 16.983 516.316 12.5059 510.793 12.5059H480.034ZM580.793 12.5059C575.27 12.5059 570.793 16.983 570.793 22.5059V28.3125C570.793 33.8353 575.27 38.3125 580.793 38.3125H611.552C617.074 38.3123 621.552 33.8352 621.552 28.3125V22.5059C621.552 16.9831 617.074 12.506 611.552 12.5059H580.793ZM681.552 12.5059C676.029 12.5059 671.552 16.983 671.552 22.5059V28.3125C671.552 33.8353 676.029 38.3125 681.552 38.3125H712.31C717.832 38.3125 722.309 33.8353 722.31 28.3125V22.5059C722.31 16.983 717.832 12.5059 712.31 12.5059H681.552ZM782.31 12.5059C776.787 12.5061 772.311 16.9832 772.311 22.5059V28.3125C772.311 33.8351 776.787 38.3122 782.31 38.3125H813.068C818.591 38.3125 823.068 33.8353 823.068 28.3125V22.5059C823.068 16.983 818.591 12.5059 813.068 12.5059H782.31ZM883.068 12.5059C877.546 12.506 873.068 16.9831 873.068 22.5059V28.3125C873.068 33.8352 877.546 38.3124 883.068 38.3125H913.827C919.35 38.3125 923.827 33.8353 923.827 28.3125V22.5059C923.827 16.983 919.35 12.5059 913.827 12.5059H883.068ZM983.827 12.5059C978.304 12.5059 973.827 16.983 973.827 22.5059V28.3125C973.827 33.8353 978.304 38.3125 983.827 38.3125H1014.59C1020.11 38.3123 1024.59 33.8352 1024.59 28.3125V22.5059C1024.59 16.9831 1020.11 12.506 1014.59 12.5059H983.827Z"/>
</mask>
<path d="M1386 569H0V0H1386V569ZM1282.1 532.563C1276.58 532.564 1272.1 537.041 1272.1 542.563V548.37C1272.1 553.893 1276.58 558.37 1282.1 558.37H1312.86C1318.38 558.37 1322.86 553.893 1322.86 548.37V542.563C1322.86 537.041 1318.38 532.564 1312.86 532.563H1282.1ZM1181.34 532.412C1175.82 532.412 1171.34 536.889 1171.34 542.412V548.219C1171.34 553.741 1175.82 558.218 1181.34 558.219H1212.1C1217.63 558.219 1222.1 553.742 1222.1 548.219V542.412C1222.1 536.889 1217.63 532.412 1212.1 532.412H1181.34ZM1080.59 532.263C1075.06 532.263 1070.59 536.74 1070.59 542.263V548.069C1070.59 553.592 1075.06 558.069 1080.59 558.069H1111.34C1116.87 558.069 1121.34 553.592 1121.34 548.069V542.263C1121.34 536.74 1116.87 532.263 1111.34 532.263H1080.59ZM73 532.108C67.4774 532.109 63.001 536.586 63.001 542.108V547.915C63.0012 553.438 67.4775 557.915 73 557.915H103.759C109.282 557.915 113.759 553.438 113.759 547.915V542.108C113.759 536.586 109.282 532.108 103.759 532.108H73ZM173.759 532.108C168.236 532.109 163.759 536.586 163.759 542.108V547.915C163.759 553.438 168.236 557.915 173.759 557.915H204.518C210.04 557.915 214.517 553.438 214.518 547.915V542.108C214.518 536.586 210.04 532.108 204.518 532.108H173.759ZM274.518 532.108C268.995 532.108 264.518 536.586 264.518 542.108V547.915C264.518 553.438 268.995 557.915 274.518 557.915H305.276C310.799 557.915 315.276 553.438 315.276 547.915V542.108C315.276 536.586 310.799 532.109 305.276 532.108H274.518ZM375.275 532.108C369.753 532.109 365.276 536.586 365.276 542.108V547.915C365.277 553.438 369.753 557.915 375.275 557.915H406.034C411.557 557.915 416.034 553.438 416.034 547.915V542.108C416.034 536.586 411.557 532.108 406.034 532.108H375.275ZM476.034 532.108C470.511 532.109 466.034 536.586 466.034 542.108V547.915C466.034 553.438 470.512 557.915 476.034 557.915H506.793C512.316 557.915 516.793 553.438 516.793 547.915V542.108C516.793 536.586 512.316 532.108 506.793 532.108H476.034ZM576.793 532.108C571.27 532.108 566.793 536.586 566.793 542.108V547.915C566.793 553.438 571.27 557.915 576.793 557.915H607.552C613.074 557.915 617.552 553.438 617.552 547.915V542.108C617.552 536.586 613.074 532.109 607.552 532.108H576.793ZM677.552 532.108C672.029 532.108 667.552 536.586 667.552 542.108V547.915C667.552 553.438 672.029 557.915 677.552 557.915H708.31C713.832 557.915 718.309 553.438 718.31 547.915V542.108C718.31 536.586 713.832 532.108 708.31 532.108H677.552ZM778.31 532.108C772.787 532.109 768.311 536.586 768.311 542.108V547.915C768.311 553.438 772.787 557.915 778.31 557.915H809.068C814.591 557.915 819.068 553.438 819.068 547.915V542.108C819.068 536.586 814.591 532.108 809.068 532.108H778.31ZM879.068 532.108C873.546 532.109 869.068 536.586 869.068 542.108V547.915C869.069 553.438 873.546 557.915 879.068 557.915H909.827C915.35 557.915 919.827 553.438 919.827 547.915V542.108C919.827 536.586 915.35 532.108 909.827 532.108H879.068ZM979.827 532.108C974.304 532.108 969.827 536.586 969.827 542.108V547.915C969.827 553.438 974.304 557.915 979.827 557.915H1010.59C1016.11 557.915 1020.59 553.438 1020.59 547.915V542.108C1020.59 536.586 1016.11 532.109 1010.59 532.108H979.827ZM1286.1 12.9619C1280.58 12.962 1276.1 17.4391 1276.1 22.9619V28.7686C1276.1 34.2912 1280.58 38.7684 1286.1 38.7686H1316.86C1322.38 38.7685 1326.86 34.2913 1326.86 28.7686V22.9619C1326.86 17.4391 1322.38 12.9619 1316.86 12.9619H1286.1ZM1185.34 12.8096C1179.82 12.8098 1175.34 17.2869 1175.34 22.8096V28.6162C1175.34 34.1389 1179.82 38.616 1185.34 38.6162H1216.1C1221.63 38.6162 1226.1 34.1391 1226.1 28.6162V22.8096C1226.1 17.2868 1221.63 12.8096 1216.1 12.8096H1185.34ZM1084.59 12.6572C1079.06 12.6572 1074.59 17.1346 1074.59 22.6572V28.4639C1074.59 33.9867 1079.06 38.4639 1084.59 38.4639H1115.34C1120.87 38.4639 1125.34 33.9867 1125.34 28.4639V22.6572C1125.34 17.1346 1120.87 12.6572 1115.34 12.6572H1084.59ZM77 12.5059C71.4774 12.5061 67.001 16.9832 67.001 22.5059V28.3125C67.0011 33.8351 71.4774 38.3122 77 38.3125H107.759C113.282 38.3125 117.759 33.8353 117.759 28.3125V22.5059C117.759 16.983 113.282 12.5059 107.759 12.5059H77ZM177.759 12.5059C172.236 12.506 167.759 16.9831 167.759 22.5059V28.3125C167.759 33.8352 172.236 38.3124 177.759 38.3125H208.518C214.04 38.3125 218.518 33.8353 218.518 28.3125V22.5059C218.518 16.983 214.04 12.5059 208.518 12.5059H177.759ZM278.518 12.5059C272.995 12.5059 268.518 16.983 268.518 22.5059V28.3125C268.518 33.8353 272.995 38.3125 278.518 38.3125H309.276C314.799 38.3123 319.276 33.8352 319.276 28.3125V22.5059C319.276 16.9831 314.799 12.506 309.276 12.5059H278.518ZM379.275 12.5059C373.753 12.5061 369.276 16.9832 369.276 22.5059V28.3125C369.276 33.8351 373.753 38.3122 379.275 38.3125H410.034C415.557 38.3125 420.034 33.8353 420.034 28.3125V22.5059C420.034 16.983 415.557 12.5059 410.034 12.5059H379.275ZM480.034 12.5059C474.511 12.506 470.034 16.9831 470.034 22.5059V28.3125C470.034 33.8352 474.511 38.3124 480.034 38.3125H510.793C516.316 38.3125 520.793 33.8353 520.793 28.3125V22.5059C520.793 16.983 516.316 12.5059 510.793 12.5059H480.034ZM580.793 12.5059C575.27 12.5059 570.793 16.983 570.793 22.5059V28.3125C570.793 33.8353 575.27 38.3125 580.793 38.3125H611.552C617.074 38.3123 621.552 33.8352 621.552 28.3125V22.5059C621.552 16.9831 617.074 12.506 611.552 12.5059H580.793ZM681.552 12.5059C676.029 12.5059 671.552 16.983 671.552 22.5059V28.3125C671.552 33.8353 676.029 38.3125 681.552 38.3125H712.31C717.832 38.3125 722.309 33.8353 722.31 28.3125V22.5059C722.31 16.983 717.832 12.5059 712.31 12.5059H681.552ZM782.31 12.5059C776.787 12.5061 772.311 16.9832 772.311 22.5059V28.3125C772.311 33.8351 776.787 38.3122 782.31 38.3125H813.068C818.591 38.3125 823.068 33.8353 823.068 28.3125V22.5059C823.068 16.983 818.591 12.5059 813.068 12.5059H782.31ZM883.068 12.5059C877.546 12.506 873.068 16.9831 873.068 22.5059V28.3125C873.068 33.8352 877.546 38.3124 883.068 38.3125H913.827C919.35 38.3125 923.827 33.8353 923.827 28.3125V22.5059C923.827 16.983 919.35 12.5059 913.827 12.5059H883.068ZM983.827 12.5059C978.304 12.5059 973.827 16.983 973.827 22.5059V28.3125C973.827 33.8353 978.304 38.3125 983.827 38.3125H1014.59C1020.11 38.3123 1024.59 33.8352 1024.59 28.3125V22.5059C1024.59 16.9831 1020.11 12.506 1014.59 12.5059H983.827Z" fill="black"/>
<path d="M1386 569V570H1387V569H1386ZM0 569H-1V570H0V569ZM0 0V-1H-1V0H0ZM1386 0H1387V-1H1386V0ZM1282.1 532.563L1282.1 531.563L1282.1 531.563L1282.1 532.563ZM1272.1 542.563L1271.1 542.563V542.563H1272.1ZM1282.1 558.37L1282.1 559.37H1282.1V558.37ZM1312.86 558.37L1312.86 559.37L1312.86 559.37L1312.86 558.37ZM1322.86 542.563L1323.86 542.563L1323.86 542.563L1322.86 542.563ZM1312.86 532.563L1312.86 531.563H1312.86V532.563ZM1181.34 532.412L1181.34 531.412L1181.34 531.412L1181.34 532.412ZM1171.34 548.219L1170.34 548.219L1170.34 548.219L1171.34 548.219ZM1181.34 558.219L1181.34 559.219H1181.34V558.219ZM1222.1 548.219L1223.1 548.219V548.219H1222.1ZM1070.59 548.069L1069.59 548.069L1069.59 548.069L1070.59 548.069ZM1121.34 548.069L1122.34 548.069V548.069H1121.34ZM73 532.108L73 531.108L73 531.108L73 532.108ZM63.001 547.915L62.001 547.915L62.001 547.915L63.001 547.915ZM73 557.915L73 558.915H73V557.915ZM113.759 547.915L114.759 547.915V547.915H113.759ZM173.759 532.108L173.759 531.108L173.759 531.108L173.759 532.108ZM163.759 547.915L162.759 547.915L162.759 547.915L163.759 547.915ZM173.759 557.915L173.759 558.915H173.759V557.915ZM204.518 557.915L204.518 558.915L204.518 558.915L204.518 557.915ZM214.518 547.915L215.518 547.915V547.915H214.518ZM204.518 532.108L204.518 531.108H204.518V532.108ZM264.518 547.915L263.518 547.915L263.518 547.915L264.518 547.915ZM305.276 557.915L305.276 558.915L305.276 558.915L305.276 557.915ZM315.276 547.915L316.276 547.915V547.915H315.276ZM305.276 532.108L305.276 531.108H305.276V532.108ZM375.275 532.108L375.275 531.108L375.275 531.108L375.275 532.108ZM365.276 547.915L364.276 547.915L364.276 547.915L365.276 547.915ZM375.275 557.915L375.275 558.915H375.275V557.915ZM416.034 547.915L417.034 547.915V547.915H416.034ZM476.034 532.108L476.034 531.108L476.034 531.108L476.034 532.108ZM466.034 547.915L465.034 547.915L465.034 547.915L466.034 547.915ZM476.034 557.915L476.034 558.915H476.034V557.915ZM506.793 557.915L506.793 558.915L506.793 558.915L506.793 557.915ZM516.793 547.915L517.793 547.915V547.915H516.793ZM506.793 532.108L506.793 531.108H506.793V532.108ZM566.793 547.915L565.793 547.915L565.793 547.915L566.793 547.915ZM607.552 557.915L607.552 558.915L607.552 558.915L607.552 557.915ZM617.552 547.915L618.552 547.915V547.915H617.552ZM607.552 532.108L607.552 531.108H607.552V532.108ZM667.552 547.915L666.552 547.915L666.552 547.915L667.552 547.915ZM718.31 547.915L719.31 547.915V547.915H718.31ZM778.31 532.108L778.31 531.108L778.31 531.108L778.31 532.108ZM768.311 547.915L767.311 547.915L767.311 547.915L768.311 547.915ZM778.31 557.915L778.31 558.915H778.31V557.915ZM819.068 547.915L820.068 547.915V547.915H819.068ZM879.068 532.108L879.068 531.108L879.068 531.108L879.068 532.108ZM869.068 547.915L868.068 547.915L868.068 547.915L869.068 547.915ZM879.068 557.915L879.068 558.915H879.068V557.915ZM909.827 557.915L909.827 558.915L909.827 558.915L909.827 557.915ZM919.827 547.915L920.827 547.915V547.915H919.827ZM909.827 532.108L909.827 531.108H909.827V532.108ZM969.827 547.915L968.827 547.915L968.827 547.915L969.827 547.915ZM1010.59 557.915L1010.59 558.915L1010.59 558.915L1010.59 557.915ZM1020.59 547.915L1021.59 547.915V547.915H1020.59ZM1010.59 532.108L1010.59 531.108H1010.59V532.108ZM1286.1 12.9619L1286.1 11.9619L1286.1 11.9619L1286.1 12.9619ZM1276.1 28.7686L1275.1 28.7686L1275.1 28.7686L1276.1 28.7686ZM1286.1 38.7686L1286.1 39.7686H1286.1V38.7686ZM1316.86 38.7686L1316.86 39.7686L1316.86 39.7686L1316.86 38.7686ZM1326.86 28.7686L1327.86 28.7686V28.7686H1326.86ZM1316.86 12.9619L1316.86 11.9619H1316.86V12.9619ZM1185.34 12.8096L1185.34 11.8096L1185.34 11.8096L1185.34 12.8096ZM1175.34 22.8096L1174.34 22.8096V22.8096H1175.34ZM1185.34 38.6162L1185.34 39.6162H1185.34V38.6162ZM1226.1 22.8096L1227.1 22.8096L1227.1 22.8096L1226.1 22.8096ZM1074.59 22.6572L1073.59 22.6572V22.6572H1074.59ZM1125.34 22.6572L1126.34 22.6572L1126.34 22.6572L1125.34 22.6572ZM77 12.5059V11.5059L77 11.5059L77 12.5059ZM67.001 28.3125L66.001 28.3125L66.001 28.3125L67.001 28.3125ZM77 38.3125L77 39.3125H77V38.3125ZM117.759 28.3125L118.759 28.3125V28.3125H117.759ZM177.759 12.5059L177.759 11.5059L177.759 11.5059L177.759 12.5059ZM167.759 28.3125L166.759 28.3125L166.759 28.3125L167.759 28.3125ZM177.759 38.3125L177.759 39.3125H177.759V38.3125ZM208.518 38.3125L208.518 39.3125L208.518 39.3125L208.518 38.3125ZM218.518 28.3125L219.518 28.3125V28.3125H218.518ZM208.518 12.5059L208.518 11.5059H208.518V12.5059ZM268.518 28.3125L267.518 28.3125L267.518 28.3125L268.518 28.3125ZM309.276 38.3125L309.276 39.3125L309.276 39.3125L309.276 38.3125ZM319.276 28.3125L320.276 28.3125V28.3125H319.276ZM309.276 12.5059L309.276 11.5059H309.276V12.5059ZM379.275 12.5059L379.275 11.5059L379.275 11.5059L379.275 12.5059ZM369.276 28.3125L368.276 28.3125L368.276 28.3125L369.276 28.3125ZM379.275 38.3125L379.275 39.3125H379.275V38.3125ZM420.034 28.3125L421.034 28.3125V28.3125H420.034ZM480.034 12.5059L480.034 11.5059L480.034 11.5059L480.034 12.5059ZM470.034 28.3125L469.034 28.3125L469.034 28.3125L470.034 28.3125ZM480.034 38.3125L480.034 39.3125H480.034V38.3125ZM510.793 38.3125L510.793 39.3125L510.793 39.3125L510.793 38.3125ZM520.793 28.3125L521.793 28.3125V28.3125H520.793ZM510.793 12.5059L510.793 11.5059H510.793V12.5059ZM570.793 28.3125L569.793 28.3125L569.793 28.3125L570.793 28.3125ZM611.552 38.3125L611.552 39.3125L611.552 39.3125L611.552 38.3125ZM621.552 28.3125L622.552 28.3125V28.3125H621.552ZM611.552 12.5059L611.552 11.5059H611.552V12.5059ZM671.552 28.3125L670.552 28.3125L670.552 28.3125L671.552 28.3125ZM722.31 28.3125L723.31 28.3125V28.3125H722.31ZM782.31 12.5059L782.31 11.5059L782.31 11.5059L782.31 12.5059ZM772.311 28.3125L771.311 28.3125L771.311 28.3125L772.311 28.3125ZM782.31 38.3125L782.31 39.3125H782.31V38.3125ZM823.068 28.3125L824.068 28.3125V28.3125H823.068ZM883.068 12.5059L883.068 11.5059L883.068 11.5059L883.068 12.5059ZM873.068 28.3125L872.068 28.3125L872.068 28.3125L873.068 28.3125ZM883.068 38.3125L883.068 39.3125H883.068V38.3125ZM913.827 38.3125L913.827 39.3125L913.827 39.3125L913.827 38.3125ZM923.827 28.3125L924.827 28.3125V28.3125H923.827ZM913.827 12.5059L913.827 11.5059H913.827V12.5059ZM973.827 28.3125L972.827 28.3125L972.827 28.3125L973.827 28.3125ZM1014.59 38.3125L1014.59 39.3125L1014.59 39.3125L1014.59 38.3125ZM1024.59 28.3125L1025.59 28.3125V28.3125H1024.59ZM1014.59 12.5059L1014.59 11.5059H1014.59V12.5059ZM1386 569V568H0V569V570H1386V569ZM0 569H1V0H0H-1V569H0ZM0 0V1H1386V0V-1H0V0ZM1386 0H1385V569H1386H1387V0H1386ZM1282.1 532.563L1282.1 531.563C1276.03 531.564 1271.1 536.489 1271.1 542.563L1272.1 542.563L1273.1 542.564C1273.1 537.593 1277.13 533.564 1282.1 533.563L1282.1 532.563ZM1272.1 542.563H1271.1V548.37H1272.1H1273.1V542.563H1272.1ZM1272.1 548.37H1271.1C1271.1 554.445 1276.03 559.37 1282.1 559.37L1282.1 558.37L1282.1 557.37C1277.13 557.37 1273.1 553.341 1273.1 548.37H1272.1ZM1282.1 558.37V559.37H1312.86V558.37V557.37H1282.1V558.37ZM1312.86 558.37L1312.86 559.37C1318.94 559.37 1323.86 554.445 1323.86 548.37H1322.86H1321.86C1321.86 553.341 1317.83 557.37 1312.86 557.37L1312.86 558.37ZM1322.86 548.37H1323.86V542.563H1322.86H1321.86V548.37H1322.86ZM1322.86 542.563L1323.86 542.563C1323.86 536.489 1318.94 531.564 1312.86 531.563L1312.86 532.563L1312.86 533.563C1317.83 533.563 1321.86 537.593 1321.86 542.564L1322.86 542.563ZM1312.86 532.563V531.563H1282.1V532.563V533.563H1312.86V532.563ZM1181.34 532.412L1181.34 531.412C1175.27 531.412 1170.34 536.337 1170.34 542.412H1171.34H1172.34C1172.34 537.442 1176.37 533.412 1181.34 533.412L1181.34 532.412ZM1171.34 542.412H1170.34V548.219H1171.34H1172.34V542.412H1171.34ZM1171.34 548.219L1170.34 548.219C1170.34 554.294 1175.27 559.218 1181.34 559.219L1181.34 558.219L1181.34 557.219C1176.37 557.219 1172.34 553.189 1172.34 548.219L1171.34 548.219ZM1181.34 558.219V559.219H1212.1V558.219V557.219H1181.34V558.219ZM1212.1 558.219V559.219C1218.18 559.219 1223.1 554.294 1223.1 548.219L1222.1 548.219L1221.1 548.219C1221.1 553.189 1217.07 557.219 1212.1 557.219V558.219ZM1222.1 548.219H1223.1V542.412H1222.1H1221.1V548.219H1222.1ZM1222.1 542.412H1223.1C1223.1 536.337 1218.18 531.412 1212.1 531.412V532.412V533.412C1217.07 533.412 1221.1 537.442 1221.1 542.412H1222.1ZM1212.1 532.412V531.412H1181.34V532.412V533.412H1212.1V532.412ZM1080.59 532.263V531.263C1074.51 531.263 1069.59 536.188 1069.59 542.263H1070.59H1071.59C1071.59 537.292 1075.62 533.263 1080.59 533.263V532.263ZM1070.59 542.263H1069.59V548.069H1070.59H1071.59V542.263H1070.59ZM1070.59 548.069L1069.59 548.069C1069.59 554.144 1074.51 559.069 1080.59 559.069V558.069V557.069C1075.62 557.069 1071.59 553.04 1071.59 548.069L1070.59 548.069ZM1080.59 558.069V559.069H1111.34V558.069V557.069H1080.59V558.069ZM1111.34 558.069V559.069C1117.42 559.069 1122.34 554.144 1122.34 548.069L1121.34 548.069L1120.34 548.069C1120.34 553.04 1116.31 557.069 1111.34 557.069V558.069ZM1121.34 548.069H1122.34V542.263H1121.34H1120.34V548.069H1121.34ZM1121.34 542.263H1122.34C1122.34 536.188 1117.42 531.263 1111.34 531.263V532.263V533.263C1116.31 533.263 1120.34 537.292 1120.34 542.263H1121.34ZM1111.34 532.263V531.263H1080.59V532.263V533.263H1111.34V532.263ZM73 532.108L73 531.108C66.925 531.109 62.001 536.034 62.001 542.108H63.001H64.001C64.001 537.138 68.0298 533.109 73 533.108L73 532.108ZM63.001 542.108H62.001V547.915H63.001H64.001V542.108H63.001ZM63.001 547.915L62.001 547.915C62.0012 553.99 66.9251 558.915 73 558.915L73 557.915L73 556.915C68.0299 556.915 64.0012 552.885 64.001 547.915L63.001 547.915ZM73 557.915V558.915H103.759V557.915V556.915H73V557.915ZM103.759 557.915V558.915C109.834 558.915 114.759 553.99 114.759 547.915L113.759 547.915L112.759 547.915C112.759 552.885 108.729 556.915 103.759 556.915V557.915ZM113.759 547.915H114.759V542.108H113.759H112.759V547.915H113.759ZM113.759 542.108H114.759C114.759 536.033 109.834 531.108 103.759 531.108V532.108V533.108C108.729 533.108 112.759 537.138 112.759 542.108H113.759ZM103.759 532.108V531.108H73V532.108V533.108H103.759V532.108ZM173.759 532.108L173.759 531.108C167.684 531.109 162.759 536.033 162.759 542.108H163.759H164.759C164.759 537.138 168.788 533.109 173.759 533.108L173.759 532.108ZM163.759 542.108H162.759V547.915H163.759H164.759V542.108H163.759ZM163.759 547.915L162.759 547.915C162.759 553.99 167.684 558.915 173.759 558.915L173.759 557.915L173.759 556.915C168.788 556.915 164.759 552.885 164.759 547.915L163.759 547.915ZM173.759 557.915V558.915H204.518V557.915V556.915H173.759V557.915ZM204.518 557.915L204.518 558.915C210.593 558.915 215.517 553.99 215.518 547.915L214.518 547.915L213.518 547.915C213.517 552.885 209.488 556.915 204.518 556.915L204.518 557.915ZM214.518 547.915H215.518V542.108H214.518H213.518V547.915H214.518ZM214.518 542.108H215.518C215.518 536.033 210.593 531.108 204.518 531.108L204.518 532.108L204.518 533.108C209.488 533.108 213.518 537.138 213.518 542.108H214.518ZM204.518 532.108V531.108H173.759V532.108V533.108H204.518V532.108ZM274.518 532.108V531.108C268.442 531.108 263.518 536.033 263.518 542.108H264.518H265.518C265.518 537.138 269.547 533.108 274.518 533.108V532.108ZM264.518 542.108H263.518V547.915H264.518H265.518V542.108H264.518ZM264.518 547.915L263.518 547.915C263.518 553.99 268.443 558.915 274.518 558.915V557.915V556.915C269.547 556.915 265.518 552.885 265.518 547.915L264.518 547.915ZM274.518 557.915V558.915H305.276V557.915V556.915H274.518V557.915ZM305.276 557.915L305.276 558.915C311.351 558.915 316.276 553.99 316.276 547.915L315.276 547.915L314.276 547.915C314.276 552.885 310.247 556.915 305.276 556.915L305.276 557.915ZM315.276 547.915H316.276V542.108H315.276H314.276V547.915H315.276ZM315.276 542.108H316.276C316.276 536.033 311.351 531.109 305.276 531.108L305.276 532.108L305.276 533.108C310.247 533.109 314.276 537.138 314.276 542.108H315.276ZM305.276 532.108V531.108H274.518V532.108V533.108H305.276V532.108ZM375.275 532.108L375.275 531.108C369.2 531.109 364.276 536.034 364.276 542.108H365.276H366.276C366.276 537.138 370.305 533.109 375.275 533.108L375.275 532.108ZM365.276 542.108H364.276V547.915H365.276H366.276V542.108H365.276ZM365.276 547.915L364.276 547.915C364.277 553.99 369.2 558.915 375.275 558.915L375.275 557.915L375.275 556.915C370.305 556.915 366.277 552.885 366.276 547.915L365.276 547.915ZM375.275 557.915V558.915H406.034V557.915V556.915H375.275V557.915ZM406.034 557.915V558.915C412.109 558.915 417.034 553.99 417.034 547.915L416.034 547.915L415.034 547.915C415.034 552.885 411.005 556.915 406.034 556.915V557.915ZM416.034 547.915H417.034V542.108H416.034H415.034V547.915H416.034ZM416.034 542.108H417.034C417.034 536.033 412.109 531.108 406.034 531.108V532.108V533.108C411.005 533.108 415.034 537.138 415.034 542.108H416.034ZM406.034 532.108V531.108H375.275V532.108V533.108H406.034V532.108ZM476.034 532.108L476.034 531.108C469.959 531.109 465.034 536.033 465.034 542.108H466.034H467.034C467.034 537.138 471.064 533.109 476.034 533.108L476.034 532.108ZM466.034 542.108H465.034V547.915H466.034H467.034V542.108H466.034ZM466.034 547.915L465.034 547.915C465.034 553.99 469.959 558.915 476.034 558.915L476.034 557.915L476.034 556.915C471.064 556.915 467.034 552.885 467.034 547.915L466.034 547.915ZM476.034 557.915V558.915H506.793V557.915V556.915H476.034V557.915ZM506.793 557.915L506.793 558.915C512.868 558.915 517.793 553.99 517.793 547.915L516.793 547.915L515.793 547.915C515.793 552.885 511.763 556.915 506.793 556.915L506.793 557.915ZM516.793 547.915H517.793V542.108H516.793H515.793V547.915H516.793ZM516.793 542.108H517.793C517.793 536.033 512.868 531.108 506.793 531.108L506.793 532.108L506.793 533.108C511.764 533.108 515.793 537.138 515.793 542.108H516.793ZM506.793 532.108V531.108H476.034V532.108V533.108H506.793V532.108ZM576.793 532.108V531.108C570.718 531.108 565.793 536.033 565.793 542.108H566.793H567.793C567.793 537.138 571.822 533.108 576.793 533.108V532.108ZM566.793 542.108H565.793V547.915H566.793H567.793V542.108H566.793ZM566.793 547.915L565.793 547.915C565.793 553.99 570.718 558.915 576.793 558.915V557.915V556.915C571.823 556.915 567.793 552.885 567.793 547.915L566.793 547.915ZM576.793 557.915V558.915H607.552V557.915V556.915H576.793V557.915ZM607.552 557.915L607.552 558.915C613.627 558.915 618.552 553.99 618.552 547.915L617.552 547.915L616.552 547.915C616.552 552.885 612.522 556.915 607.552 556.915L607.552 557.915ZM617.552 547.915H618.552V542.108H617.552H616.552V547.915H617.552ZM617.552 542.108H618.552C618.552 536.033 613.627 531.109 607.552 531.108L607.552 532.108L607.552 533.108C612.522 533.109 616.552 537.138 616.552 542.108H617.552ZM607.552 532.108V531.108H576.793V532.108V533.108H607.552V532.108ZM677.552 532.108V531.108C671.477 531.108 666.552 536.033 666.552 542.108H667.552H668.552C668.552 537.138 672.581 533.108 677.552 533.108V532.108ZM667.552 542.108H666.552V547.915H667.552H668.552V542.108H667.552ZM667.552 547.915L666.552 547.915C666.552 553.99 671.477 558.915 677.552 558.915V557.915V556.915C672.581 556.915 668.552 552.885 668.552 547.915L667.552 547.915ZM677.552 557.915V558.915H708.31V557.915V556.915H677.552V557.915ZM708.31 557.915V558.915C714.385 558.915 719.309 553.99 719.31 547.915L718.31 547.915L717.31 547.915C717.309 552.885 713.28 556.915 708.31 556.915V557.915ZM718.31 547.915H719.31V542.108H718.31H717.31V547.915H718.31ZM718.31 542.108H719.31C719.31 536.033 714.385 531.108 708.31 531.108V532.108V533.108C713.28 533.108 717.31 537.138 717.31 542.108H718.31ZM708.31 532.108V531.108H677.552V532.108V533.108H708.31V532.108ZM778.31 532.108L778.31 531.108C772.235 531.109 767.311 536.034 767.311 542.108H768.311H769.311C769.311 537.138 773.339 533.109 778.31 533.108L778.31 532.108ZM768.311 542.108H767.311V547.915H768.311H769.311V542.108H768.311ZM768.311 547.915L767.311 547.915C767.311 553.99 772.235 558.915 778.31 558.915L778.31 557.915L778.31 556.915C773.339 556.915 769.311 552.885 769.311 547.915L768.311 547.915ZM778.31 557.915V558.915H809.068V557.915V556.915H778.31V557.915ZM809.068 557.915V558.915C815.143 558.915 820.068 553.99 820.068 547.915L819.068 547.915L818.068 547.915C818.068 552.885 814.039 556.915 809.068 556.915V557.915ZM819.068 547.915H820.068V542.108H819.068H818.068V547.915H819.068ZM819.068 542.108H820.068C820.068 536.033 815.143 531.108 809.068 531.108V532.108V533.108C814.039 533.108 818.068 537.138 818.068 542.108H819.068ZM809.068 532.108V531.108H778.31V532.108V533.108H809.068V532.108ZM879.068 532.108L879.068 531.108C872.993 531.109 868.068 536.033 868.068 542.108H869.068H870.068C870.068 537.138 874.098 533.109 879.068 533.108L879.068 532.108ZM869.068 542.108H868.068V547.915H869.068H870.068V542.108H869.068ZM869.068 547.915L868.068 547.915C868.069 553.99 872.993 558.915 879.068 558.915L879.068 557.915L879.068 556.915C874.098 556.915 870.069 552.885 870.068 547.915L869.068 547.915ZM879.068 557.915V558.915H909.827V557.915V556.915H879.068V557.915ZM909.827 557.915L909.827 558.915C915.902 558.915 920.827 553.99 920.827 547.915L919.827 547.915L918.827 547.915C918.827 552.885 914.798 556.915 909.827 556.915L909.827 557.915ZM919.827 547.915H920.827V542.108H919.827H918.827V547.915H919.827ZM919.827 542.108H920.827C920.827 536.033 915.902 531.108 909.827 531.108L909.827 532.108L909.827 533.108C914.798 533.108 918.827 537.138 918.827 542.108H919.827ZM909.827 532.108V531.108H879.068V532.108V533.108H909.827V532.108ZM979.827 532.108V531.108C973.752 531.108 968.827 536.033 968.827 542.108H969.827H970.827C970.827 537.138 974.857 533.108 979.827 533.108V532.108ZM969.827 542.108H968.827V547.915H969.827H970.827V542.108H969.827ZM969.827 547.915L968.827 547.915C968.827 553.99 973.752 558.915 979.827 558.915V557.915V556.915C974.857 556.915 970.827 552.885 970.827 547.915L969.827 547.915ZM979.827 557.915V558.915H1010.59V557.915V556.915H979.827V557.915ZM1010.59 557.915L1010.59 558.915C1016.66 558.915 1021.59 553.99 1021.59 547.915L1020.59 547.915L1019.59 547.915C1019.59 552.885 1015.56 556.915 1010.59 556.915L1010.59 557.915ZM1020.59 547.915H1021.59V542.108H1020.59H1019.59V547.915H1020.59ZM1020.59 542.108H1021.59C1021.59 536.033 1016.66 531.109 1010.59 531.108L1010.59 532.108L1010.59 533.108C1015.56 533.109 1019.59 537.138 1019.59 542.108H1020.59ZM1010.59 532.108V531.108H979.827V532.108V533.108H1010.59V532.108ZM1286.1 12.9619L1286.1 11.9619C1280.03 11.9621 1275.1 16.8868 1275.1 22.9619H1276.1H1277.1C1277.1 17.9915 1281.13 13.962 1286.1 13.9619L1286.1 12.9619ZM1276.1 22.9619H1275.1V28.7686H1276.1H1277.1V22.9619H1276.1ZM1276.1 28.7686L1275.1 28.7686C1275.1 34.8435 1280.03 39.7684 1286.1 39.7686L1286.1 38.7686L1286.1 37.7686C1281.13 37.7684 1277.1 33.7389 1277.1 28.7685L1276.1 28.7686ZM1286.1 38.7686V39.7686H1316.86V38.7686V37.7686H1286.1V38.7686ZM1316.86 38.7686L1316.86 39.7686C1322.94 39.7685 1327.86 34.8435 1327.86 28.7686L1326.86 28.7686L1325.86 28.7685C1325.86 33.739 1321.83 37.7685 1316.86 37.7686L1316.86 38.7686ZM1326.86 28.7686H1327.86V22.9619H1326.86H1325.86V28.7686H1326.86ZM1326.86 22.9619H1327.86C1327.86 16.8868 1322.94 11.9619 1316.86 11.9619L1316.86 12.9619L1316.86 13.9619C1321.83 13.9619 1325.86 17.9914 1325.86 22.9619H1326.86ZM1316.86 12.9619V11.9619H1286.1V12.9619V13.9619H1316.86V12.9619ZM1185.34 12.8096L1185.34 11.8096C1179.27 11.8099 1174.34 16.7347 1174.34 22.8096L1175.34 22.8096L1176.34 22.8096C1176.34 17.8391 1180.37 13.8098 1185.34 13.8096L1185.34 12.8096ZM1175.34 22.8096H1174.34V28.6162H1175.34H1176.34V22.8096H1175.34ZM1175.34 28.6162H1174.34C1174.34 34.6911 1179.27 39.6159 1185.34 39.6162L1185.34 38.6162L1185.34 37.6162C1180.37 37.616 1176.34 33.5867 1176.34 28.6162H1175.34ZM1185.34 38.6162V39.6162H1216.1V38.6162V37.6162H1185.34V38.6162ZM1216.1 38.6162V39.6162C1222.18 39.6162 1227.1 34.6913 1227.1 28.6162H1226.1H1225.1C1225.1 33.5868 1221.07 37.6162 1216.1 37.6162V38.6162ZM1226.1 28.6162H1227.1V22.8096H1226.1H1225.1V28.6162H1226.1ZM1226.1 22.8096L1227.1 22.8096C1227.1 16.7345 1222.18 11.8096 1216.1 11.8096V12.8096V13.8096C1221.07 13.8096 1225.1 17.839 1225.1 22.8096L1226.1 22.8096ZM1216.1 12.8096V11.8096H1185.34V12.8096V13.8096H1216.1V12.8096ZM1084.59 12.6572V11.6572C1078.51 11.6572 1073.59 16.5823 1073.59 22.6572L1074.59 22.6572L1075.59 22.6573C1075.59 17.6868 1079.62 13.6572 1084.59 13.6572V12.6572ZM1074.59 22.6572H1073.59V28.4639H1074.59H1075.59V22.6572H1074.59ZM1074.59 28.4639H1073.59C1073.59 34.539 1078.51 39.4639 1084.59 39.4639V38.4639V37.4639C1079.62 37.4639 1075.59 33.4344 1075.59 28.4639H1074.59ZM1084.59 38.4639V39.4639H1115.34V38.4639V37.4639H1084.59V38.4639ZM1115.34 38.4639V39.4639C1121.42 39.4639 1126.34 34.539 1126.34 28.4639H1125.34H1124.34C1124.34 33.4344 1120.31 37.4639 1115.34 37.4639V38.4639ZM1125.34 28.4639H1126.34V22.6572H1125.34H1124.34V28.4639H1125.34ZM1125.34 22.6572L1126.34 22.6572C1126.34 16.5823 1121.42 11.6572 1115.34 11.6572V12.6572V13.6572C1120.31 13.6572 1124.34 17.6868 1124.34 22.6573L1125.34 22.6572ZM1115.34 12.6572V11.6572H1084.59V12.6572V13.6572H1115.34V12.6572ZM77 12.5059L77 11.5059C70.925 11.5061 66.001 16.431 66.001 22.5059H67.001H68.001C68.001 17.5354 72.0298 13.5061 77 13.5059L77 12.5059ZM67.001 22.5059H66.001V28.3125H67.001H68.001V22.5059H67.001ZM67.001 28.3125L66.001 28.3125C66.0011 34.3873 70.925 39.3122 77 39.3125L77 38.3125L77 37.3125C72.0298 37.3123 68.001 33.2829 68.001 28.3125L67.001 28.3125ZM77 38.3125V39.3125H107.759V38.3125V37.3125H77V38.3125ZM107.759 38.3125V39.3125C113.834 39.3125 118.759 34.3876 118.759 28.3125L117.759 28.3125L116.759 28.3125C116.759 33.283 112.729 37.3125 107.759 37.3125V38.3125ZM117.759 28.3125H118.759V22.5059H117.759H116.759V28.3125H117.759ZM117.759 22.5059H118.759C118.759 16.4307 113.834 11.5059 107.759 11.5059V12.5059V13.5059C112.729 13.5059 116.759 17.5353 116.759 22.5059H117.759ZM107.759 12.5059V11.5059H77V12.5059V13.5059H107.759V12.5059ZM177.759 12.5059L177.759 11.5059C171.684 11.506 166.759 16.4308 166.759 22.5059H167.759H168.759C168.759 17.5354 172.788 13.506 177.759 13.5059L177.759 12.5059ZM167.759 22.5059H166.759V28.3125H167.759H168.759V22.5059H167.759ZM167.759 28.3125L166.759 28.3125C166.759 34.3875 171.684 39.3124 177.759 39.3125L177.759 38.3125L177.759 37.3125C172.788 37.3124 168.759 33.2829 168.759 28.3125L167.759 28.3125ZM177.759 38.3125V39.3125H208.518V38.3125V37.3125H177.759V38.3125ZM208.518 38.3125L208.518 39.3125C214.593 39.3125 219.517 34.3875 219.518 28.3125L218.518 28.3125L217.518 28.3125C217.518 33.283 213.488 37.3125 208.518 37.3125L208.518 38.3125ZM218.518 28.3125H219.518V22.5059H218.518H217.518V28.3125H218.518ZM218.518 22.5059H219.518C219.518 16.4307 214.593 11.5059 208.518 11.5059L208.518 12.5059L208.518 13.5059C213.488 13.5059 217.518 17.5353 217.518 22.5059H218.518ZM208.518 12.5059V11.5059H177.759V12.5059V13.5059H208.518V12.5059ZM278.518 12.5059V11.5059C272.442 11.5059 267.518 16.4307 267.518 22.5059H268.518H269.518C269.518 17.5353 273.547 13.5059 278.518 13.5059V12.5059ZM268.518 22.5059H267.518V28.3125H268.518H269.518V22.5059H268.518ZM268.518 28.3125L267.518 28.3125C267.518 34.3876 272.442 39.3125 278.518 39.3125V38.3125V37.3125C273.547 37.3125 269.518 33.283 269.518 28.3125L268.518 28.3125ZM278.518 38.3125V39.3125H309.276V38.3125V37.3125H278.518V38.3125ZM309.276 38.3125L309.276 39.3125C315.351 39.3123 320.276 34.3875 320.276 28.3125L319.276 28.3125L318.276 28.3125C318.276 33.2829 314.247 37.3124 309.276 37.3125L309.276 38.3125ZM319.276 28.3125H320.276V22.5059H319.276H318.276V28.3125H319.276ZM319.276 22.5059H320.276C320.276 16.4308 315.351 11.506 309.276 11.5059L309.276 12.5059L309.276 13.5059C314.247 13.506 318.276 17.5354 318.276 22.5059H319.276ZM309.276 12.5059V11.5059H278.518V12.5059V13.5059H309.276V12.5059ZM379.275 12.5059L379.275 11.5059C373.2 11.5061 368.276 16.431 368.276 22.5059H369.276H370.276C370.276 17.5354 374.305 13.5061 379.275 13.5059L379.275 12.5059ZM369.276 22.5059H368.276V28.3125H369.276H370.276V22.5059H369.276ZM369.276 28.3125L368.276 28.3125C368.276 34.3873 373.2 39.3122 379.275 39.3125L379.275 38.3125L379.275 37.3125C374.305 37.3123 370.276 33.2829 370.276 28.3125L369.276 28.3125ZM379.275 38.3125V39.3125H410.034V38.3125V37.3125H379.275V38.3125ZM410.034 38.3125V39.3125C416.109 39.3125 421.034 34.3876 421.034 28.3125L420.034 28.3125L419.034 28.3125C419.034 33.283 415.005 37.3125 410.034 37.3125V38.3125ZM420.034 28.3125H421.034V22.5059H420.034H419.034V28.3125H420.034ZM420.034 22.5059H421.034C421.034 16.4307 416.109 11.5059 410.034 11.5059V12.5059V13.5059C415.005 13.5059 419.034 17.5353 419.034 22.5059H420.034ZM410.034 12.5059V11.5059H379.275V12.5059V13.5059H410.034V12.5059ZM480.034 12.5059L480.034 11.5059C473.959 11.506 469.034 16.4308 469.034 22.5059H470.034H471.034C471.034 17.5354 475.064 13.506 480.034 13.5059L480.034 12.5059ZM470.034 22.5059H469.034V28.3125H470.034H471.034V22.5059H470.034ZM470.034 28.3125L469.034 28.3125C469.034 34.3875 473.959 39.3124 480.034 39.3125L480.034 38.3125L480.034 37.3125C475.064 37.3124 471.034 33.2829 471.034 28.3125L470.034 28.3125ZM480.034 38.3125V39.3125H510.793V38.3125V37.3125H480.034V38.3125ZM510.793 38.3125L510.793 39.3125C516.868 39.3125 521.793 34.3875 521.793 28.3125L520.793 28.3125L519.793 28.3125C519.793 33.283 515.763 37.3125 510.793 37.3125L510.793 38.3125ZM520.793 28.3125H521.793V22.5059H520.793H519.793V28.3125H520.793ZM520.793 22.5059H521.793C521.793 16.4307 516.868 11.5059 510.793 11.5059L510.793 12.5059L510.793 13.5059C515.764 13.5059 519.793 17.5353 519.793 22.5059H520.793ZM510.793 12.5059V11.5059H480.034V12.5059V13.5059H510.793V12.5059ZM580.793 12.5059V11.5059C574.718 11.5059 569.793 16.4307 569.793 22.5059H570.793H571.793C571.793 17.5353 575.822 13.5059 580.793 13.5059V12.5059ZM570.793 22.5059H569.793V28.3125H570.793H571.793V22.5059H570.793ZM570.793 28.3125L569.793 28.3125C569.793 34.3876 574.718 39.3125 580.793 39.3125V38.3125V37.3125C575.822 37.3125 571.793 33.283 571.793 28.3125L570.793 28.3125ZM580.793 38.3125V39.3125H611.552V38.3125V37.3125H580.793V38.3125ZM611.552 38.3125L611.552 39.3125C617.627 39.3123 622.552 34.3875 622.552 28.3125L621.552 28.3125L620.552 28.3125C620.552 33.2829 616.522 37.3124 611.552 37.3125L611.552 38.3125ZM621.552 28.3125H622.552V22.5059H621.552H620.552V28.3125H621.552ZM621.552 22.5059H622.552C622.552 16.4308 617.627 11.506 611.552 11.5059L611.552 12.5059L611.552 13.5059C616.522 13.506 620.552 17.5354 620.552 22.5059H621.552ZM611.552 12.5059V11.5059H580.793V12.5059V13.5059H611.552V12.5059ZM681.552 12.5059V11.5059C675.477 11.5059 670.552 16.4307 670.552 22.5059H671.552H672.552C672.552 17.5353 676.581 13.5059 681.552 13.5059V12.5059ZM671.552 22.5059H670.552V28.3125H671.552H672.552V22.5059H671.552ZM671.552 28.3125L670.552 28.3125C670.552 34.3876 675.477 39.3125 681.552 39.3125V38.3125V37.3125C676.581 37.3125 672.552 33.283 672.552 28.3125L671.552 28.3125ZM681.552 38.3125V39.3125H712.31V38.3125V37.3125H681.552V38.3125ZM712.31 38.3125V39.3125C718.385 39.3125 723.309 34.3876 723.31 28.3125L722.31 28.3125L721.31 28.3125C721.31 33.283 717.28 37.3125 712.31 37.3125V38.3125ZM722.31 28.3125H723.31V22.5059H722.31H721.31V28.3125H722.31ZM722.31 22.5059H723.31C723.31 16.4307 718.385 11.5059 712.31 11.5059V12.5059V13.5059C717.28 13.5059 721.31 17.5353 721.31 22.5059H722.31ZM712.31 12.5059V11.5059H681.552V12.5059V13.5059H712.31V12.5059ZM782.31 12.5059L782.31 11.5059C776.235 11.5061 771.311 16.431 771.311 22.5059H772.311H773.311C773.311 17.5354 777.339 13.5061 782.31 13.5059L782.31 12.5059ZM772.311 22.5059H771.311V28.3125H772.311H773.311V22.5059H772.311ZM772.311 28.3125L771.311 28.3125C771.311 34.3873 776.235 39.3122 782.31 39.3125L782.31 38.3125L782.31 37.3125C777.339 37.3123 773.311 33.2829 773.311 28.3125L772.311 28.3125ZM782.31 38.3125V39.3125H813.068V38.3125V37.3125H782.31V38.3125ZM813.068 38.3125V39.3125C819.143 39.3125 824.068 34.3876 824.068 28.3125L823.068 28.3125L822.068 28.3125C822.068 33.283 818.039 37.3125 813.068 37.3125V38.3125ZM823.068 28.3125H824.068V22.5059H823.068H822.068V28.3125H823.068ZM823.068 22.5059H824.068C824.068 16.4307 819.143 11.5059 813.068 11.5059V12.5059V13.5059C818.039 13.5059 822.068 17.5353 822.068 22.5059H823.068ZM813.068 12.5059V11.5059H782.31V12.5059V13.5059H813.068V12.5059ZM883.068 12.5059L883.068 11.5059C876.993 11.506 872.068 16.4308 872.068 22.5059H873.068H874.068C874.068 17.5354 878.098 13.506 883.068 13.5059L883.068 12.5059ZM873.068 22.5059H872.068V28.3125H873.068H874.068V22.5059H873.068ZM873.068 28.3125L872.068 28.3125C872.068 34.3875 876.993 39.3124 883.068 39.3125L883.068 38.3125L883.068 37.3125C878.098 37.3124 874.068 33.2829 874.068 28.3125L873.068 28.3125ZM883.068 38.3125V39.3125H913.827V38.3125V37.3125H883.068V38.3125ZM913.827 38.3125L913.827 39.3125C919.902 39.3125 924.827 34.3875 924.827 28.3125L923.827 28.3125L922.827 28.3125C922.827 33.283 918.798 37.3125 913.827 37.3125L913.827 38.3125ZM923.827 28.3125H924.827V22.5059H923.827H922.827V28.3125H923.827ZM923.827 22.5059H924.827C924.827 16.4307 919.902 11.5059 913.827 11.5059L913.827 12.5059L913.827 13.5059C918.798 13.5059 922.827 17.5353 922.827 22.5059H923.827ZM913.827 12.5059V11.5059H883.068V12.5059V13.5059H913.827V12.5059ZM983.827 12.5059V11.5059C977.752 11.5059 972.827 16.4307 972.827 22.5059H973.827H974.827C974.827 17.5353 978.857 13.5059 983.827 13.5059V12.5059ZM973.827 22.5059H972.827V28.3125H973.827H974.827V22.5059H973.827ZM973.827 28.3125L972.827 28.3125C972.827 34.3876 977.752 39.3125 983.827 39.3125V38.3125V37.3125C978.857 37.3125 974.827 33.283 974.827 28.3125L973.827 28.3125ZM983.827 38.3125V39.3125H1014.59V38.3125V37.3125H983.827V38.3125ZM1014.59 38.3125L1014.59 39.3125C1020.66 39.3123 1025.59 34.3875 1025.59 28.3125L1024.59 28.3125L1023.59 28.3125C1023.59 33.2829 1019.56 37.3124 1014.59 37.3125L1014.59 38.3125ZM1024.59 28.3125H1025.59V22.5059H1024.59H1023.59V28.3125H1024.59ZM1024.59 22.5059H1025.59C1025.59 16.4308 1020.66 11.506 1014.59 11.5059L1014.59 12.5059L1014.59 13.5059C1019.56 13.506 1023.59 17.5354 1023.59 22.5059H1024.59ZM1014.59 12.5059V11.5059H983.827V12.5059V13.5059H1014.59V12.5059Z" fill="white" mask="url(#path-1-inside-1_1144_798)"/>
</svg>
